<?xml version="1.0" standalone="no"?>
<!DOCTYPE svg PUBLIC "-//W3C//DTD SVG 1.1//EN" "http://www.w3.org/Graphics/SVG/1.1/DTD/svg11.dtd" >
<svg xmlns:xlink="http://www.w3.org/1999/xlink" xmlns="http://www.w3.org/2000/svg" version="1.1">
    <metadata>
        Created by FontForge 20170924 at Mon Feb 11 14:54:31 2008
        By www-data
        Vladimir Azarko
    </metadata>
    <defs>
        <font id="Mipgost" horiz-adv-x="800">
            <font-face
                    font-family="Mipgost"
                    font-weight="400"
                    font-stretch="normal"
                    units-per-em="2048"
                    panose-1="2 11 5 0 0 0 0 0 0 0"
                    ascent="1638"
                    descent="-410"
                    x-height="1000"
                    cap-height="1400"
                    bbox="-13 -448 4180 1805"
                    underline-thickness="100"
                    underline-position="-250"
                    unicode-range="U+0020-E740"
            />
            <missing-glyph
                    d="M481 0l-109 -245q-11 -24 -30.5 -29t-37 3t-26.5 26t2 42l93 203q-101 11 -181 87q-92 88 -92 213v800q0 120 87 210t214 90h249q18 0 34 -16t16 -34t-13 -34t-37 -16h-249q-83 0 -142 -57.5t-59 -142.5v-800q0 -82 59 -141t142 -59h249q18 0 34 -16t16 -34t-13 -34
t-37 -16h-169z"/>
            <glyph glyph-name=".notdef"
                   d="M481 0l-109 -245q-11 -24 -30.5 -29t-37 3t-26.5 26t2 42l93 203q-101 11 -181 87q-92 88 -92 213v800q0 120 87 210t214 90h249q18 0 34 -16t16 -34t-13 -34t-37 -16h-249q-83 0 -142 -57.5t-59 -142.5v-800q0 -82 59 -141t142 -59h249q18 0 34 -16t16 -34t-13 -34
t-37 -16h-169z"/>
            <glyph glyph-name="glyph1" unicode="&#xc9;"
                   d="M201 699v-599h450q18 0 34 -16t16 -34t-13 -34t-37 -16h-500q-50 0 -50 50v1300q0 50 50 50h500q18 0 34 -16t16 -34t-13 -34t-37 -16h-450v-501h250q18 0 34 -16t16 -34t-13 -34t-37 -16h-250zM287 1596l184 168q19 18 39 15t33 -17t14 -34t-18 -38l-184 -168
q-19 -18 -39.5 -15t-33 17t-13.5 34t18 38z"/>
            <glyph glyph-name="glyph2" unicode="&#xd1;" horiz-adv-x="900"
                   d="M801 50q0 -13 -15 -37q-16 -13 -35 -13l-25 6l-20 23l-506 1094v-1073q0 -24 -14 -38q-14 -12 -36 -12q-9 0 -35 12q-15 12 -15 38v1300q0 16 15 33t35 17q12 0 24.5 -6t20.5 -23l506 -1094v1073q0 16 15 33t35 17q18 0 34 -13t16 -37v-1300zM684 1618
q-45 -53 -102.5 -70t-123.5 12q-17 7 -32.5 18t-31 21.5t-32.5 18t-36 8.5q-26 2 -47.5 -11t-36.5 -35q-5 -8 -9.5 -15t-9.5 -12t-11.5 -8t-16.5 -3q-7 0 -13.5 4.5t-11.5 8.5q-11 9 -14 19.5t-0.5 22t8.5 22t12 19.5q45 61 108 77t132 -22q15 -8 29 -17.5t28 -18.5
t29.5 -15t33.5 -7q29 -1 54 17q8 6 14.5 15.5t12.5 18.5t12.5 17t14.5 12q10 4 20 2.5t18 -7.5t14 -15t7 -18q2 -16 -4 -30.5t-14 -27.5z"/>
            <glyph glyph-name="glyph3" unicode="&#xd6;" horiz-adv-x="900"
                   d="M801 300q0 -123 -88 -211.5t-213 -88.5h-100q-115 0 -207.5 87t-92.5 213v800q0 120 87 210t213 90h100q123 0 212 -87.5t89 -212.5v-800zM701 300v800q0 82 -59 141t-142 59h-100q-83 0 -141.5 -58.5t-58.5 -141.5v-800q0 -81 60.5 -140.5t139.5 -59.5h100q81 0 141 57
t60 143zM283 1686q25 0 35.5 -11t14.5 -40q0 -18 -12.5 -33.5t-37.5 -15.5q-24 0 -36.5 14t-12.5 35q2 22 14.5 36.5t34.5 14.5v0zM602 1687q25 0 35.5 -11t14.5 -40q0 -18 -12.5 -33.5t-37.5 -15.5q-24 0 -36.5 14t-12.5 35q2 22 14.5 36.5t34.5 14.5v0zM283 1686
q25 0 35.5 -11t14.5 -40q0 -18 -12.5 -33.5t-37.5 -15.5q-24 0 -36.5 14t-12.5 35q2 22 14.5 36.5t34.5 14.5v0zM602 1687q25 0 35.5 -11t14.5 -40q0 -18 -12.5 -33.5t-37.5 -15.5q-24 0 -36.5 14t-12.5 35q2 22 14.5 36.5t34.5 14.5v0z"/>
            <glyph glyph-name="glyph4" unicode="&#xdc;" horiz-adv-x="900"
                   d="M801 300q0 -123 -88 -211.5t-213 -88.5h-100q-115 0 -207.5 87t-92.5 213v1050q0 16 15 33t35 17q18 0 34 -13t16 -37v-1050q0 -81 60.5 -140.5t139.5 -59.5h100q81 0 141 57t60 143v1050q0 16 15 33t35 17q18 0 34 -13t16 -37v-1050zM299 1683q25 0 35.5 -11t14.5 -40
q0 -18 -12.5 -33.5t-37.5 -15.5q-24 0 -36.5 14t-12.5 35q2 22 14.5 36.5t34.5 14.5v0zM618 1684q25 0 35.5 -11t14.5 -40q0 -18 -12.5 -33.5t-37.5 -15.5q-24 0 -36.5 14t-12.5 35q2 22 14.5 36.5t34.5 14.5v0zM299 1683q25 0 35.5 -11t14.5 -40q0 -18 -12.5 -33.5
t-37.5 -15.5q-24 0 -36.5 14t-12.5 35q2 22 14.5 36.5t34.5 14.5v0zM618 1684q25 0 35.5 -11t14.5 -40q0 -18 -12.5 -33.5t-37.5 -15.5q-24 0 -36.5 14t-12.5 35q2 22 14.5 36.5t34.5 14.5v0z"/>
            <glyph glyph-name="glyph5" unicode="&#xe1;" horiz-adv-x="909"
                   d="M589 200v700h-300q-42 0 -71 -29t-29 -71v-600q0 -42 29 -71t71 -29h200q42 0 71 29t29 71zM757 96q36 -12 36 -47q0 -22 -14 -37q-12 -15 -34 -15l-18 3q-22 6 -48 28q-9 5 -40 39q-59 -67 -150 -67h-200q-84 0 -142 58t-58 142v600q0 75 57 137.5t143 62.5h350
q50 0 50 -50v-750q0 -30 18 -63q15 -23 50 -41zM286 1218l184 168q19 18 39 15t33 -17t14 -34t-18 -38l-184 -168q-19 -18 -39.5 -15t-33 17t-13.5 34t18 38z"/>
            <glyph glyph-name="glyph6" unicode="&#xe0;" horiz-adv-x="898"
                   d="M589 200v700h-300q-42 0 -71 -29t-29 -71v-600q0 -42 29 -71t71 -29h200q42 0 71 29t29 71zM757 96q36 -12 36 -47q0 -22 -14 -37q-12 -15 -34 -15l-18 3q-22 6 -48 28q-9 5 -40 39q-59 -67 -150 -67h-200q-84 0 -142 58t-58 142v600q0 75 57 137.5t143 62.5h350
q50 0 50 -50v-750q0 -30 18 -63q15 -23 50 -41zM353 1381l168 -184q18 -19 15 -39.5t-17 -33t-34 -13.5t-38 18l-168 184q-18 19 -15 39t17 33t34 14t38 -18z"/>
            <glyph glyph-name="glyph7" unicode="&#xe2;" horiz-adv-x="893"
                   d="M589 200v700h-300q-42 0 -71 -29t-29 -71v-600q0 -42 29 -71t71 -29h200q42 0 71 29t29 71zM757 96q36 -12 36 -47q0 -22 -14 -37q-12 -15 -34 -15l-18 3q-22 6 -48 28q-9 5 -40 39q-59 -67 -150 -67h-200q-84 0 -142 58t-58 142v600q0 75 57 137.5t143 62.5h350
q50 0 50 -50v-750q0 -30 18 -63q15 -23 50 -41zM642 1255q11 -14 11 -31q0 -18 -16 -34t-36 -16q-24 0 -196 122q-178 -122 -202 -122q-18 0 -36 15q-16 16 -16 36q0 16 11 30l221 151q20 12 37 0z"/>
            <glyph glyph-name="glyph8" unicode="&#xe4;" horiz-adv-x="893"
                   d="M589 200v700h-300q-42 0 -71 -29t-29 -71v-600q0 -42 29 -71t71 -29h200q42 0 71 29t29 71zM757 96q36 -12 36 -47q0 -22 -14 -37q-12 -15 -34 -15l-18 3q-22 6 -48 28q-9 5 -40 39q-59 -67 -150 -67h-200q-84 0 -142 58t-58 142v600q0 75 57 137.5t143 62.5h350
q50 0 50 -50v-750q0 -30 18 -63q15 -23 50 -41zM241.525 1392.18q25.6572 0 36.4336 -9.69238q10.7764 -9.69336 14.8809 -35.2471q0 -15.8604 -12.8281 -29.5186q-12.8291 -13.6582 -38.4863 -13.6582q-24.6318 0 -37.4609 12.3359q-12.8281 12.3369 -12.8281 30.8408
q2.05273 19.3857 14.8809 32.1631q12.8291 12.7764 35.4082 12.7764v0zM568.917 1393.06q25.6572 0 36.4336 -9.69238t14.8818 -35.2471q0 -15.8604 -12.8291 -29.5186t-38.4863 -13.6582q-24.6318 0 -37.4609 12.3369q-12.8281 12.3359 -12.8281 30.8398
q2.05273 19.3857 14.8809 32.1631q12.8291 12.7764 35.4082 12.7764v0zM241.525 1392.18q25.6572 0 36.4336 -9.69238q10.7764 -9.69336 14.8809 -35.2471q0 -15.8604 -12.8281 -29.5186q-12.8291 -13.6582 -38.4863 -13.6582q-24.6318 0 -37.4609 12.3359
q-12.8281 12.3369 -12.8281 30.8408q2.05273 19.3857 14.8809 32.1631q12.8291 12.7764 35.4082 12.7764v0zM568.917 1393.06q25.6572 0 36.4336 -9.69238t14.8818 -35.2471q0 -15.8604 -12.8291 -29.5186t-38.4863 -13.6582q-24.6318 0 -37.4609 12.3369
q-12.8281 12.3359 -12.8281 30.8398q2.05273 19.3857 14.8809 32.1631q12.8291 12.7764 35.4082 12.7764v0z"/>
            <glyph glyph-name="glyph9" unicode="&#xe3;" horiz-adv-x="909"
                   d="M589 200v700h-300q-42 0 -71 -29t-29 -71v-600q0 -42 29 -71t71 -29h200q42 0 71 29t29 71zM757 96q36 -12 36 -47q0 -22 -14 -37q-12 -15 -34 -15l-18 3q-22 6 -48 28q-9 5 -40 39q-59 -67 -150 -67h-200q-84 0 -142 58t-58 142v600q0 75 57 137.5t143 62.5h350
q50 0 50 -50v-750q0 -30 18 -63q15 -23 50 -41zM645 1307q-45 -53 -102.5 -70t-123.5 12q-17 7 -32.5 18t-31 21.5t-32.5 18t-36 8.5q-26 2 -47.5 -11t-36.5 -35q-5 -8 -9.5 -15t-9.5 -12t-11.5 -8t-16.5 -3q-7 0 -13.5 4.5t-11.5 8.5q-11 9 -14 19.5t-0.5 22t8.5 22
t12 19.5q45 61 108 77t132 -22q15 -8 29 -17.5t28 -18.5t29.5 -15t33.5 -7q29 -1 54 17q8 6 14.5 15.5t12.5 18.5t12.5 17t14.5 12q10 4 20 2.5t18 -7.5t14 -15t7 -18q2 -16 -4 -30.5t-14 -27.5z"/>
            <glyph glyph-name="glyph10" unicode="&#xe5;"
                   d="M589 200v700h-300q-42 0 -71 -29t-29 -71v-600q0 -42 29 -71t71 -29h200q42 0 71 29t29 71zM757 96q36 -12 36 -47q0 -22 -14 -37q-12 -15 -34 -15l-18 3q-22 6 -48 28q-9 5 -40 39q-59 -67 -150 -67h-200q-84 0 -142 58t-58 142v600q0 75 57 137.5t143 62.5h350
q50 0 50 -50v-750q0 -30 18 -63q15 -23 50 -41zM229 1233q0 36 13.5 67t36.5 54t54.5 36.5t67.5 13.5t67.5 -13.5t55 -36.5t37 -54t13.5 -67t-13.5 -67t-37 -54t-55 -36t-67.5 -13t-67.5 13t-54.5 36t-36.5 54t-13.5 67zM329 1237q0 -31 22.5 -52t54.5 -21t55 21t23 52
t-23 53t-55 22t-54.5 -22t-22.5 -53z"/>
            <glyph glyph-name="glyph11" unicode="&#xe7;"
                   d="M434 33l-152 -294q-12 -23 -4.5 -41.5t24 -27t36.5 -4.5t32 27l152 294q12 23 4 41.5t-24.5 27t-36 4.5t-31.5 -27zM650 0h-350q-84 0 -142 58t-58 142v600q0 75 57 137.5t143 62.5h350q18 0 34 -16t16 -34t-13 -34t-37 -16h-350q-42 0 -71 -29t-29 -71v-600
q0 -42 29 -71t71 -29h350q18 0 34 -16t16 -34t-13 -34t-37 -16z"/>
            <glyph glyph-name="glyph12" unicode="&#xe9;"
                   d="M200 549h400v250q0 42 -29 71t-71 29h-201q-41 0 -70 -29t-29 -71v-250zM200 450v-250q0 -42 29 -71t70 -29h350q18 0 34 -16t16 -34t-13 -34t-37 -16h-350q-83 0 -141 58t-58 142v599q0 75 57 137.5t142 62.5h201q84 0 142 -58t58 -142v-299q0 -50 -51 -50h-449z
M261 1215l184 168q19 18 39 15t33 -17t14 -34t-18 -38l-184 -168q-19 -18 -39.5 -15t-33 17t-13.5 34t18 38z"/>
            <glyph glyph-name="glyph13" unicode="&#xe8;"
                   d="M200 549h400v250q0 42 -29 71t-71 29h-201q-41 0 -70 -29t-29 -71v-250zM200 450v-250q0 -42 29 -71t70 -29h350q18 0 34 -16t16 -34t-13 -34t-37 -16h-350q-83 0 -141 58t-58 142v599q0 75 57 137.5t142 62.5h201q84 0 142 -58t58 -142v-299q0 -50 -51 -50h-449z
M376 1384l168 -184q18 -19 15 -39.5t-17 -33t-34 -13.5t-38 18l-168 184q-18 19 -15 39t17 33t34 14t38 -18z"/>
            <glyph glyph-name="glyph14" unicode="&#xea;"
                   d="M200 549h400v250q0 42 -29 71t-71 29h-201q-41 0 -70 -29t-29 -71v-250zM200 450v-250q0 -42 29 -71t70 -29h350q18 0 34 -16t16 -34t-13 -34t-37 -16h-350q-83 0 -141 58t-58 142v599q0 75 57 137.5t142 62.5h201q84 0 142 -58t58 -142v-299q0 -50 -51 -50h-449z
M642 1258q11 -14 11 -31q0 -18 -16 -34t-36 -16q-24 0 -196 122q-178 -122 -202 -122q-18 0 -36 15q-16 16 -16 36q0 16 11 30l221 151q20 12 37 0z"/>
            <glyph glyph-name="glyph15" unicode="&#xeb;"
                   d="M200 549h400v250q0 42 -29 71t-71 29h-201q-41 0 -70 -29t-29 -71v-250zM200 450v-250q0 -42 29 -71t70 -29h350q18 0 34 -16t16 -34t-13 -34t-37 -16h-350q-83 0 -141 58t-58 142v599q0 75 57 137.5t142 62.5h201q84 0 142 -58t58 -142v-299q0 -50 -51 -50h-449z
M221 1390q25 0 35.5 -11t14.5 -40q0 -18 -12.5 -33.5t-37.5 -15.5q-24 0 -36.5 14t-12.5 35q2 22 14.5 36.5t34.5 14.5v0zM540 1391q25 0 35.5 -11t14.5 -40q0 -18 -12.5 -33.5t-37.5 -15.5q-24 0 -36.5 14t-12.5 35q2 22 14.5 36.5t34.5 14.5v0zM221 1390q25 0 35.5 -11
t14.5 -40q0 -18 -12.5 -33.5t-37.5 -15.5q-24 0 -36.5 14t-12.5 35q2 22 14.5 36.5t34.5 14.5v0zM540 1391q25 0 35.5 -11t14.5 -40q0 -18 -12.5 -33.5t-37.5 -15.5q-24 0 -36.5 14t-12.5 35q2 22 14.5 36.5t34.5 14.5v0z"/>
            <glyph glyph-name="glyph16" unicode="&#xed;" horiz-adv-x="509"
                   d="M302 951v-901q0 -16 -15 -37q-16 -13 -34 -13q-9 0 -35 12q-15 12 -15 38v901q0 13 15 31t35 18q18 0 33.5 -12.5t15.5 -36.5zM134 1222l184 168q19 18 39 15t33 -17t14 -34t-18 -38l-184 -168q-19 -18 -39.5 -15t-33 17t-13.5 34t18 38z"/>
            <glyph glyph-name="glyph17" unicode="&#xec;" horiz-adv-x="527"
                   d="M302 951v-901q0 -16 -15 -37q-16 -13 -34 -13q-9 0 -35 12q-15 12 -15 38v901q0 13 15 31t35 18q18 0 33.5 -12.5t15.5 -36.5zM219 1383l168 -184q18 -19 15 -39.5t-17 -33t-34 -13.5t-38 18l-168 184q-18 19 -15 39t17 33t34 14t38 -18z"/>
            <glyph glyph-name="glyph18" unicode="&#xee;" horiz-adv-x="657"
                   d="M394 951v-901q0 -16 -15 -37q-16 -13 -34 -13q-9 0 -35 12q-15 12 -15 38v901q0 13 15 31t35 18q18 0 33.5 -12.5t15.5 -36.5zM584 1246q11 -14 11 -31q0 -18 -16 -34t-36 -16q-24 0 -196 122q-178 -122 -202 -122q-18 0 -36 15q-16 16 -16 36q0 16 11 30l221 151
q20 12 37 0z"/>
            <glyph glyph-name="glyph19" unicode="&#xef;" horiz-adv-x="564"
                   d="M319 956v-901q0 -16 -15 -37q-16 -13 -34 -13q-9 0 -35 12q-15 12 -15 38v901q0 13 15 31t35 18q18 0 33.5 -12.5t15.5 -36.5zM126 1397q25 0 35.5 -11t14.5 -40q0 -18 -12.5 -33.5t-37.5 -15.5q-24 0 -36.5 14t-12.5 35q2 22 14.5 36.5t34.5 14.5v0zM445 1398
q25 0 35.5 -11t14.5 -40q0 -18 -12.5 -33.5t-37.5 -15.5q-24 0 -36.5 14t-12.5 35q2 22 14.5 36.5t34.5 14.5v0zM126 1397q25 0 35.5 -11t14.5 -40q0 -18 -12.5 -33.5t-37.5 -15.5q-24 0 -36.5 14t-12.5 35q2 22 14.5 36.5t34.5 14.5v0zM445 1398q25 0 35.5 -11t14.5 -40
q0 -18 -12.5 -33.5t-37.5 -15.5q-24 0 -36.5 14t-12.5 35q2 22 14.5 36.5t34.5 14.5v0z"/>
            <glyph glyph-name="glyph20" unicode="&#xf1;"
                   d="M700 50q0 -24 -14 -38q-14 -12 -36 -12q-9 0 -35 12q-15 12 -15 38v750q0 42 -29 71t-71 29h-300v-850q0 -24 -14 -38q-14 -12 -36 -12q-9 0 -35 12q-15 12 -15 38v900q0 50 50 50h350q83 0 141.5 -57.5t58.5 -142.5v-750zM638 1301q-45 -53 -102.5 -70t-123.5 12
q-17 7 -32.5 18t-31 21.5t-32.5 18t-36 8.5q-26 2 -47.5 -11t-36.5 -35q-5 -8 -9.5 -15t-9.5 -12t-11.5 -8t-16.5 -3q-7 0 -13.5 4.5t-11.5 8.5q-11 9 -14 19.5t-0.5 22t8.5 22t12 19.5q45 61 108 77t132 -22q15 -8 29 -17.5t28 -18.5t29.5 -15t33.5 -7q29 -1 54 17
q8 6 14.5 15.5t12.5 18.5t12.5 17t14.5 12q10 4 20 2.5t18 -7.5t14 -15t7 -18q2 -16 -4 -30.5t-14 -27.5z"/>
            <glyph glyph-name="glyph21" unicode="&#xf3;"
                   d="M700 200q0 -84 -58 -142t-142 -58h-200q-84 0 -142 58t-58 142v600q0 75 57 137.5t143 62.5h200q83 0 141.5 -57.5t58.5 -142.5v-600zM600 200v600q0 42 -29 71t-71 29h-200q-42 0 -71 -29t-29 -71v-600q0 -42 29 -71t71 -29h200q42 0 71 29t29 71zM255 1222l184 168
q19 18 39 15t33 -17t14 -34t-18 -38l-184 -168q-19 -18 -39.5 -15t-33 17t-13.5 34t18 38z"/>
            <glyph glyph-name="glyph22" unicode="&#xf2;"
                   d="M700 200q0 -84 -58 -142t-142 -58h-200q-84 0 -142 58t-58 142v600q0 75 57 137.5t143 62.5h200q83 0 141.5 -57.5t58.5 -142.5v-600zM600 200v600q0 42 -29 71t-71 29h-200q-42 0 -71 -29t-29 -71v-600q0 -42 29 -71t71 -29h200q42 0 71 29t29 71zM366 1378l168 -184
q18 -19 15 -39.5t-17 -33t-34 -13.5t-38 18l-168 184q-18 19 -15 39t17 33t34 14t38 -18z"/>
            <glyph glyph-name="glyph23" unicode="&#xf4;"
                   d="M700 200q0 -84 -58 -142t-142 -58h-200q-84 0 -142 58t-58 142v600q0 75 57 137.5t143 62.5h200q83 0 141.5 -57.5t58.5 -142.5v-600zM600 200v600q0 42 -29 71t-71 29h-200q-42 0 -71 -29t-29 -71v-600q0 -42 29 -71t71 -29h200q42 0 71 29t29 71zM645 1251
q11 -14 11 -31q0 -18 -16 -34t-36 -16q-24 0 -196 122q-178 -122 -202 -122q-18 0 -36 15q-16 16 -16 36q0 16 11 30l221 151q20 12 37 0z"/>
            <glyph glyph-name="glyph24" unicode="&#xf6;"
                   d="M700 200q0 -84 -58 -142t-142 -58h-200q-84 0 -142 58t-58 142v600q0 75 57 137.5t143 62.5h200q83 0 141.5 -57.5t58.5 -142.5v-600zM600 200v600q0 42 -29 71t-71 29h-200q-42 0 -71 -29t-29 -71v-600q0 -42 29 -71t71 -29h200q42 0 71 29t29 71zM225 1379
q25 0 35.5 -11t14.5 -40q0 -18 -12.5 -33.5t-37.5 -15.5q-24 0 -36.5 14t-12.5 35q2 22 14.5 36.5t34.5 14.5v0zM544 1380q25 0 35.5 -11t14.5 -40q0 -18 -12.5 -33.5t-37.5 -15.5q-24 0 -36.5 14t-12.5 35q2 22 14.5 36.5t34.5 14.5v0zM225 1379q25 0 35.5 -11t14.5 -40
q0 -18 -12.5 -33.5t-37.5 -15.5q-24 0 -36.5 14t-12.5 35q2 22 14.5 36.5t34.5 14.5v0zM544 1380q25 0 35.5 -11t14.5 -40q0 -18 -12.5 -33.5t-37.5 -15.5q-24 0 -36.5 14t-12.5 35q2 22 14.5 36.5t34.5 14.5v0z"/>
            <glyph glyph-name="glyph25" unicode="&#xf5;"
                   d="M700 200q0 -84 -58 -142t-142 -58h-200q-84 0 -142 58t-58 142v600q0 75 57 137.5t143 62.5h200q83 0 141.5 -57.5t58.5 -142.5v-600zM600 200v600q0 42 -29 71t-71 29h-200q-42 0 -71 -29t-29 -71v-600q0 -42 29 -71t71 -29h200q42 0 71 29t29 71zM639 1298
q-45 -53 -102.5 -70t-123.5 12q-17 7 -32.5 18t-31 21.5t-32.5 18t-36 8.5q-26 2 -47.5 -11t-36.5 -35q-5 -8 -9.5 -15t-9.5 -12t-11.5 -8t-16.5 -3q-7 0 -13.5 4.5t-11.5 8.5q-11 9 -14 19.5t-0.5 22t8.5 22t12 19.5q45 61 108 77t132 -22q15 -8 29 -17.5t28 -18.5
t29.5 -15t33.5 -7q29 -1 54 17q8 6 14.5 15.5t12.5 18.5t12.5 17t14.5 12q10 4 20 2.5t18 -7.5t14 -15t7 -18q2 -16 -4 -30.5t-14 -27.5z"/>
            <glyph glyph-name="glyph26" unicode="&#xfa;"
                   d="M700 50q0 -50 -50 -50h-350q-84 0 -142 58t-58 142v750q0 16 15 33t35 17q18 0 34 -13t16 -37v-750q0 -42 29 -71t71 -29h300v850q0 16 15 33t35 17q18 0 34 -13t16 -37v-900zM293 1218l184 168q19 18 39 15t33 -17t14 -34t-18 -38l-184 -168q-19 -18 -39.5 -15t-33 17
t-13.5 34t18 38z"/>
            <glyph glyph-name="glyph27" unicode="&#xf9;"
                   d="M700 50q0 -50 -50 -50h-350q-84 0 -142 58t-58 142v750q0 16 15 33t35 17q18 0 34 -13t16 -37v-750q0 -42 29 -71t71 -29h300v850q0 16 15 33t35 17q18 0 34 -13t16 -37v-900zM374 1372l168 -184q18 -19 15 -39.5t-17 -33t-34 -13.5t-38 18l-168 184q-18 19 -15 39t17 33
t34 14t38 -18z"/>
            <glyph glyph-name="glyph28" unicode="&#xfb;"
                   d="M700 50q0 -50 -50 -50h-350q-84 0 -142 58t-58 142v750q0 16 15 33t35 17q18 0 34 -13t16 -37v-750q0 -42 29 -71t71 -29h300v850q0 16 15 33t35 17q18 0 34 -13t16 -37v-900zM643 1240q11 -14 11 -31q0 -18 -16 -34t-36 -16q-24 0 -196 122q-178 -122 -202 -122
q-18 0 -36 15q-16 16 -16 36q0 16 11 30l221 151q20 12 37 0z"/>
            <glyph glyph-name="glyph29" unicode="&#xfc;"
                   d="M700 50q0 -50 -50 -50h-350q-84 0 -142 58t-58 142v750q0 16 15 33t35 17q18 0 34 -13t16 -37v-750q0 -42 29 -71t71 -29h300v850q0 16 15 33t35 17q18 0 34 -13t16 -37v-900zM243 1378q25 0 35.5 -11t14.5 -40q0 -18 -12.5 -33.5t-37.5 -15.5q-24 0 -36.5 14t-12.5 35
q2 22 14.5 36.5t34.5 14.5v0zM562 1379q25 0 35.5 -11t14.5 -40q0 -18 -12.5 -33.5t-37.5 -15.5q-24 0 -36.5 14t-12.5 35q2 22 14.5 36.5t34.5 14.5v0zM243 1378q25 0 35.5 -11t14.5 -40q0 -18 -12.5 -33.5t-37.5 -15.5q-24 0 -36.5 14t-12.5 35q2 22 14.5 36.5t34.5 14.5
v0zM562 1379q25 0 35.5 -11t14.5 -40q0 -18 -12.5 -33.5t-37.5 -15.5q-24 0 -36.5 14t-12.5 35q2 22 14.5 36.5t34.5 14.5v0z"/>
            <glyph glyph-name="dieresis" unicode="&#xa8;" horiz-adv-x="607"
                   d="M134 1530q25 0 35.5 -11t14.5 -40q0 -18 -12.5 -33.5t-37.5 -15.5q-24 0 -36.5 14t-12.5 35q2 22 14.5 36.5t34.5 14.5v0zM453 1531q25 0 35.5 -11t14.5 -40q0 -18 -12.5 -33.5t-37.5 -15.5q-24 0 -36.5 14t-12.5 35q2 22 14.5 36.5t34.5 14.5v0zM134 1530q25 0 35.5 -11
t14.5 -40q0 -18 -12.5 -33.5t-37.5 -15.5q-24 0 -36.5 14t-12.5 35q2 22 14.5 36.5t34.5 14.5v0zM453 1531q25 0 35.5 -11t14.5 -40q0 -18 -12.5 -33.5t-37.5 -15.5q-24 0 -36.5 14t-12.5 35q2 22 14.5 36.5t34.5 14.5v0z"/>
            <glyph glyph-name="glyph31" horiz-adv-x="1407"
                   d="M87 0v1407h1233v-1407h-1233zM1233 87v1233h-1059v-1233h1059z"/>
            <glyph glyph-name="glyph32" unicode="&#xc6;" horiz-adv-x="1212"
                   d="M610 700v-599h450q18 0 34 -16t16 -34t-13 -34t-37 -16h-500h-8h-9q-16 0 -28.5 8.5t-30.5 24.5v363h-204l-98 -363q-3 -17 -16.5 -27t-30.5 -10q-20 0 -35.5 13.5t-15.5 35.5l2 14l350 1290q12 45 77 51h23.5h23.5h500q18 0 34 -16t16 -34t-13 -34t-37 -16h-450v-501
h250q18 0 34 -16t16 -34t-13 -34t-37 -16h-250zM484 492v664l-177 -659z"/>
            <glyph glyph-name="glyph33" unicode="&#xd8;" horiz-adv-x="1200"
                   d="M100 700q0 69 18 133t50.5 119.5t78 101t101 78t119.5 50.5t133 18q103 0 194.5 -39.5t159 -107t107 -159t39.5 -194.5q0 -69 -18 -133t-50.5 -119.5t-78 -101t-101 -78t-119.5 -50.5t-133 -18t-133 18t-119.5 50.5t-101 78t-78 101t-50.5 119.5t-18 133zM200 700
q0 -83 31.5 -156t85.5 -127t127 -85.5t156 -31.5t156 31.5t127 85.5t85.5 127t31.5 156t-31.5 156t-85.5 127t-127 85.5t-156 31.5t-156 -31.5t-127 -85.5t-85.5 -127t-31.5 -156zM175 56l780 1350l110 -56l-782 -1350z"/>
            <glyph glyph-name="glyph34" unicode="&#xe6;" horiz-adv-x="1382"
                   d="M265 903q-76 -10 -70.5 47.5t70.5 52.5l352 5q104 -8 92 -78q68 71 133 71h201q84 0 142 -58t58 -142v-299q0 -50 -51 -50h-449v-250q0 -42 29 -71t70 -29h350q18 0 34 -16t16 -34t-13 -34t-37 -16h-350q-19 0 -37 3q-6 0 -12 2l-17 5q-2 0 -4 1q-8 4 -17.5 8t-16.5 9
q-11 5 -28 21q-5 4 -9 9q-7 6 -12 13q-1 2 -2 3q-67 -76 -158 -76h-200q-84 0 -142 58t-58 142v134q1 41 23 80.5t62.5 70t98.5 48.5t131 17h35h45q25 0 51 0.5t52 0.5v74v35t0.5 15.5t0.5 15.5v35v74q-5 34 -18 53t-30 29t-37.5 13t-41.5 5l-236 3v0zM743 551h400v250
q0 42 -29 71t-71 29h-201q-41 0 -70 -29t-29 -71v-250zM624 452q-46 -1 -89.5 -0.5t-88.5 0.5q-42 0 -80 -8t-67.5 -24.5t-48 -42t-22.5 -61.5l1 -116q0 -42 29 -71t71 -29h200q42 0 71 29t25 61z"/>
            <glyph glyph-name="glyph35" unicode="&#xf8;" horiz-adv-x="1200"
                   d="M100 700q0 69 18 133t50.5 119.5t78 101t101 78t119.5 50.5t133 18q103 0 194.5 -39.5t159 -107t107 -159t39.5 -194.5q0 -69 -18 -133t-50.5 -119.5t-78 -101t-101 -78t-119.5 -50.5t-133 -18t-133 18t-119.5 50.5t-101 78t-78 101t-50.5 119.5t-18 133zM200 700
q0 -83 31.5 -156t85.5 -127t127 -85.5t156 -31.5t156 31.5t127 85.5t85.5 127t31.5 156t-31.5 156t-85.5 127t-127 85.5t-156 31.5t-156 -31.5t-127 -85.5t-85.5 -127t-31.5 -156zM175 56l780 1350l110 -56l-782 -1350z"/>
            <glyph glyph-name="glyph36" unicode="&#xc0;" horiz-adv-x="1000"
                   d="M294 401l-98 -363q-3 -17 -16.5 -27t-30.5 -10q-20 0 -35.5 13.5t-15.5 35.5l2 14l350 1290q12 45 48 45t48 -45l350 -1290l2 -15q0 -18 -16 -35q-16 -13 -35 -13q-16 0 -28.5 8.5t-18.5 28.5l-98 363h-4h-400h-4zM675 501l-177 659l-177 -659h354zM452 1748l168 -184
q18 -19 15 -39.5t-17 -33t-34 -13.5t-38 18l-168 184q-18 19 -15 39t17 33t34 14t38 -18z"/>
            <glyph glyph-name="glyph37" unicode="&#xd5;" horiz-adv-x="900"
                   d="M801 300q0 -123 -88 -211.5t-213 -88.5h-100q-115 0 -207.5 87t-92.5 213v800q0 120 87 210t213 90h100q123 0 212 -87.5t89 -212.5v-800zM701 300v800q0 82 -59 141t-142 59h-100q-83 0 -141.5 -58.5t-58.5 -141.5v-800q0 -81 60.5 -140.5t139.5 -59.5h100q81 0 141 57
t60 143zM705 1631q-45 -53 -102.5 -70t-123.5 12q-17 7 -32.5 18t-31 21.5t-32.5 18t-36 8.5q-26 2 -47.5 -11t-36.5 -35q-5 -8 -9.5 -15t-9.5 -12t-11.5 -8t-16.5 -3q-7 0 -13.5 4.5t-11.5 8.5q-11 9 -14 19.5t-0.5 22t8.5 22t12 19.5q45 61 108 77t132 -22q15 -8 29 -17.5
t28 -18.5t29.5 -15t33.5 -7q29 -1 54 17q8 6 14.5 15.5t12.5 18.5t12.5 17t14.5 12q10 4 20 2.5t18 -7.5t14 -15t7 -18q2 -16 -4 -30.5t-14 -27.5z"/>
            <glyph glyph-name="glyph38" unicode="&#xf7;" horiz-adv-x="1093"
                   d="M550 1102q23 0 44 -20.5t21 -43.5q0 -22 -17 -42.5t-48 -20.5q-30 0 -48 18q-17 20 -17 45q0 17 16 40.5t49 23.5zM550 404q23 0 44 -20.5t21 -43.5t-17 -43.5t-48 -20.5q-30 0 -48 18q-17 20 -17 46q0 17 16 40.5t49 23.5zM961 661l-807 6q-26 0 -42 15q-14 17 -14 39
q0 11 14 32t42 21l807 -6q21 0 39 -17.5t18 -36.5t-15 -36t-42 -17z"/>
            <glyph glyph-name="glyph39" unicode="&#xff;"
                   d="M352 40l-252 896l-2 16q0 18 15 33t37 15q26 0 46 -36l206 -735l198 734q3 13 15 25q12 9 32 12q20 0 35.5 -13.5t15.5 -35.5l-2 -14l-320 -1189q-15 -63 -70 -105.5t-123 -42.5h-35q-13 0 -37 15q-13 16 -13 35q0 9 12 35q12 15 38 15h35q35 0 61 20q27 18 36 54z
M239 1365q25 0 35.5 -11t14.5 -40q0 -18 -12.5 -33.5t-37.5 -15.5q-24 0 -36.5 14t-12.5 35q2 22 14.5 36.5t34.5 14.5v0zM558 1366q25 0 35.5 -11t14.5 -40q0 -18 -12.5 -33.5t-37.5 -15.5q-24 0 -36.5 14t-12.5 35q2 22 14.5 36.5t34.5 14.5v0zM239 1365q25 0 35.5 -11
t14.5 -40q0 -18 -12.5 -33.5t-37.5 -15.5q-24 0 -36.5 14t-12.5 35q2 22 14.5 36.5t34.5 14.5v0zM558 1366q25 0 35.5 -11t14.5 -40q0 -18 -12.5 -33.5t-37.5 -15.5q-24 0 -36.5 14t-12.5 35q2 22 14.5 36.5t34.5 14.5v0z"/>
            <glyph glyph-name="glyph40" unicode="&#xca;"
                   d="M201 699v-599h450q18 0 34 -16t16 -34t-13 -34t-37 -16h-500q-50 0 -50 50v1300q0 50 50 50h500q18 0 34 -16t16 -34t-13 -34t-37 -16h-450v-501h250q18 0 34 -16t16 -34t-13 -34t-37 -16h-250zM627 1605q11 -14 11 -31q0 -18 -16 -34t-36 -16q-24 0 -196 122
q-178 -122 -202 -122q-18 0 -36 15q-16 16 -16 36q0 16 11 30l221 151q20 12 37 0z"/>
            <glyph glyph-name="glyph41" unicode="&#xc1;" horiz-adv-x="1000"
                   d="M294 401l-98 -363q-3 -17 -16.5 -27t-30.5 -10q-20 0 -35.5 13.5t-15.5 35.5l2 14l350 1290q12 45 48 45t48 -45l350 -1290l2 -15q0 -18 -16 -35q-16 -13 -35 -13q-16 0 -28.5 8.5t-18.5 28.5l-98 363h-4h-400h-4zM675 501l-177 659l-177 -659h354zM350 1566l184 168
q19 18 39 15t33 -17t14 -34t-18 -38l-184 -168q-19 -18 -39.5 -15t-33 17t-13.5 34t18 38z"/>
            <glyph glyph-name="glyph42" unicode="&#xcb;"
                   d="M201 699v-599h450q18 0 34 -16t16 -34t-13 -34t-37 -16h-500q-50 0 -50 50v1300q0 50 50 50h500q18 0 34 -16t16 -34t-13 -34t-37 -16h-450v-501h250q18 0 34 -16t16 -34t-13 -34t-37 -16h-250zM235 1672q25 0 35.5 -11t14.5 -40q0 -18 -12.5 -33.5t-37.5 -15.5
q-24 0 -36.5 14t-12.5 35q2 22 14.5 36.5t34.5 14.5v0zM554 1673q25 0 35.5 -11t14.5 -40q0 -18 -12.5 -33.5t-37.5 -15.5q-24 0 -36.5 14t-12.5 35q2 22 14.5 36.5t34.5 14.5v0zM235 1672q25 0 35.5 -11t14.5 -40q0 -18 -12.5 -33.5t-37.5 -15.5q-24 0 -36.5 14t-12.5 35
q2 22 14.5 36.5t34.5 14.5v0zM554 1673q25 0 35.5 -11t14.5 -40q0 -18 -12.5 -33.5t-37.5 -15.5q-24 0 -36.5 14t-12.5 35q2 22 14.5 36.5t34.5 14.5v0z"/>
            <glyph glyph-name="glyph43" unicode="&#xc8;"
                   d="M201 699v-599h450q18 0 34 -16t16 -34t-13 -34t-37 -16h-500q-50 0 -50 50v1300q0 50 50 50h500q18 0 34 -16t16 -34t-13 -34t-37 -16h-450v-501h250q18 0 34 -16t16 -34t-13 -34t-37 -16h-250zM329 1755l168 -184q18 -19 15 -39.5t-17 -33t-34 -13.5t-38 18l-168 184
q-18 19 -15 39t17 33t34 14t38 -18z"/>
            <glyph glyph-name="glyph44" unicode="&#xcd;" horiz-adv-x="518"
                   d="M311 50q0 -24 -14 -38q-14 -12 -36 -12q-9 0 -35 12q-15 12 -15 38v1300q0 16 15 33t35 17q18 0 34 -13t16 -37v-1300zM142 1598l184 168q19 18 39 15t33 -17t14 -34t-18 -38l-184 -168q-19 -18 -39.5 -15t-33 17t-13.5 34t18 38z"/>
            <glyph glyph-name="glyph45" unicode="&#xce;" horiz-adv-x="638"
                   d="M376 50q0 -24 -14 -38q-14 -12 -36 -12q-9 0 -35 12q-15 12 -15 38v1300q0 16 15 33t35 17q18 0 34 -13t16 -37v-1300zM559 1603q11 -14 11 -31q0 -18 -16 -34t-36 -16q-24 0 -196 122q-178 -122 -202 -122q-18 0 -36 15q-16 16 -16 36q0 16 11 30l221 151q20 12 37 0z
"/>
            <glyph glyph-name="glyph46" unicode="&#xcf;" horiz-adv-x="536"
                   d="M311 50q0 -24 -14 -38q-14 -12 -36 -12q-9 0 -35 12q-15 12 -15 38v1300q0 16 15 33t35 17q18 0 34 -13t16 -37v-1300zM104 1691q25 0 35.5 -11t14.5 -40q0 -18 -12.5 -33.5t-37.5 -15.5q-24 0 -36.5 14t-12.5 35q2 22 14.5 36.5t34.5 14.5v0zM423 1692q25 0 35.5 -11
t14.5 -40q0 -18 -12.5 -33.5t-37.5 -15.5q-24 0 -36.5 14t-12.5 35q2 22 14.5 36.5t34.5 14.5v0zM104 1691q25 0 35.5 -11t14.5 -40q0 -18 -12.5 -33.5t-37.5 -15.5q-24 0 -36.5 14t-12.5 35q2 22 14.5 36.5t34.5 14.5v0zM423 1692q25 0 35.5 -11t14.5 -40
q0 -18 -12.5 -33.5t-37.5 -15.5q-24 0 -36.5 14t-12.5 35q2 22 14.5 36.5t34.5 14.5v0z"/>
            <glyph glyph-name="glyph47" unicode="&#xcc;" horiz-adv-x="527"
                   d="M302 50q0 -24 -14 -38q-14 -12 -36 -12q-9 0 -35 12q-15 12 -15 38v1300q0 16 15 33t35 17q18 0 34 -13t16 -37v-1300zM221 1757l168 -184q18 -19 15 -39.5t-17 -33t-34 -13.5t-38 18l-168 184q-18 19 -15 39t17 33t34 14t38 -18z"/>
            <glyph glyph-name="glyph48" unicode="&#xd3;" horiz-adv-x="900"
                   d="M801 300q0 -123 -88 -211.5t-213 -88.5h-100q-115 0 -207.5 87t-92.5 213v800q0 120 87 210t213 90h100q123 0 212 -87.5t89 -212.5v-800zM701 300v800q0 82 -59 141t-142 59h-100q-83 0 -141.5 -58.5t-58.5 -141.5v-800q0 -81 60.5 -140.5t139.5 -59.5h100q81 0 141 57
t60 143zM331 1590l184 168q19 18 39 15t33 -17t14 -34t-18 -38l-184 -168q-19 -18 -39.5 -15t-33 17t-13.5 34t18 38z"/>
            <glyph glyph-name="glyph49" unicode="&#xd4;" horiz-adv-x="900"
                   d="M801 300q0 -123 -88 -211.5t-213 -88.5h-100q-115 0 -207.5 87t-92.5 213v800q0 120 87 210t213 90h100q123 0 212 -87.5t89 -212.5v-800zM701 300v800q0 82 -59 141t-142 59h-100q-83 0 -141.5 -58.5t-58.5 -141.5v-800q0 -81 60.5 -140.5t139.5 -59.5h100q81 0 141 57
t60 143zM701 1605q11 -14 11 -31q0 -18 -16 -34t-36 -16q-24 0 -196 122q-178 -122 -202 -122q-18 0 -36 15q-16 16 -16 36q0 16 11 30l221 151q20 12 37 0z"/>
            <glyph glyph-name="glyph50" unicode="&#xd2;" horiz-adv-x="900"
                   d="M801 300q0 -123 -88 -211.5t-213 -88.5h-100q-115 0 -207.5 87t-92.5 213v800q0 120 87 210t213 90h100q123 0 212 -87.5t89 -212.5v-800zM701 300v800q0 82 -59 141t-142 59h-100q-83 0 -141.5 -58.5t-58.5 -141.5v-800q0 -81 60.5 -140.5t139.5 -59.5h100q81 0 141 57
t60 143zM423 1763l168 -184q18 -19 15 -39.5t-17 -33t-34 -13.5t-38 18l-168 184q-18 19 -15 39t17 33t34 14t38 -18z"/>
            <glyph glyph-name="glyph51" unicode="&#xda;" horiz-adv-x="896"
                   d="M333 1595l184 168q19 18 39 15t33 -17t14 -34t-18 -38l-184 -168q-19 -18 -39.5 -15t-33 17t-13.5 34t18 38zM801 300q0 -123 -88 -211.5t-213 -88.5h-100q-115 0 -207.5 87t-92.5 213v1050q0 16 15 33t35 17q18 0 34 -13t16 -37v-1050q0 -81 60.5 -140.5t139.5 -59.5
h100q81 0 141 57t60 143v1050q0 16 15 33t35 17q18 0 34 -13t16 -37v-1050z"/>
            <glyph glyph-name="glyph52" unicode="&#xdb;" horiz-adv-x="900"
                   d="M801 300q0 -123 -88 -211.5t-213 -88.5h-100q-115 0 -207.5 87t-92.5 213v1050q0 16 15 33t35 17q18 0 34 -13t16 -37v-1050q0 -81 60.5 -140.5t139.5 -59.5h100q81 0 141 57t60 143v1050q0 16 15 33t35 17q18 0 34 -13t16 -37v-1050zM728 1592q11 -14 11 -31
q0 -18 -16 -34t-36 -16q-24 0 -196 122q-178 -122 -202 -122q-18 0 -36 15q-16 16 -16 36q0 16 11 30l221 151q20 12 37 0z"/>
            <glyph glyph-name="glyph53" unicode="&#xd9;" horiz-adv-x="900"
                   d="M801 300q0 -123 -88 -211.5t-213 -88.5h-100q-115 0 -207.5 87t-92.5 213v1050q0 16 15 33t35 17q18 0 34 -13t16 -37v-1050q0 -81 60.5 -140.5t139.5 -59.5h100q81 0 141 57t60 143v1050q0 16 15 33t35 17q18 0 34 -13t16 -37v-1050zM389 1770l168 -184q18 -19 15 -39.5
t-17 -33t-34 -13.5t-38 18l-168 184q-18 19 -15 39t17 33t34 14t38 -18z"/>
            <glyph glyph-name="cedilla" unicode="&#xb8;" horiz-adv-x="574"
                   d="M364 164q13 22 32.5 25.5t36 -5.5t23.5 -28.5t-6 -41.5l-203 -352q-13 -23 -32.5 -26t-36 6t-23.5 28t6 42l203 352v0z"/>
            <glyph glyph-name="glyph55" unicode="&#xd0;" horiz-adv-x="974"
                   d="M875 300q0 -123 -88 -211.5t-213 -88.5h-350q-50 0 -50 50v606h-67q-15 0 -24 11q-9 13 -9 28q0 8 6 22.5t19 16.5h75v616q0 50 50 50h350q123 0 212 -87.5t89 -212.5v-800zM495 656h-221v-556h300q81 0 141 57t60 143v800q0 82 -59 141t-142 59h-300v-566h223
q10 -1 20 -13t10 -26t-8 -26.5t-24 -12.5z"/>
            <glyph glyph-name="glyph56" unicode="&#xf0;" horiz-adv-x="827"
                   d="M712 191q0 -84 -58 -142t-142 -58h-200q-84 0 -142 58t-58 142l6 526q0 75 57 137.5t143 62.5h175l15 -3l-176 216l-121 -81q-21 -15 -40.5 -9.5t-30 21t-8.5 35.5t23 35l118 79l-95 115q-15 21 -10 40.5t20 30.5t35 9.5t35 -22.5l97 -117l119 82q21 15 40.5 9.5t30 -21
t8.5 -35.5t-23 -35l-116 -80q27 -36 59 -74t65 -75.5t63.5 -73.5t55 -66.5t39 -54.5t15.5 -38q7 -17 6.5 -38.5t0.5 -48.5zM612 191l6 526q0 42 -29 71t-71 29h-200q-42 0 -71 -29t-29 -71l-6 -526q0 -42 29 -71t71 -29h200q42 0 71 29t29 71z"/>
            <glyph glyph-name="glyph57" unicode="&#xdd;" horiz-adv-x="1000"
                   d="M451 687l-344 639l-7 26q0 11 15 30t38 19q27 0 42 -27l306 -568l306 568q14 27 43 27q22 0 37 -14t15 -35q0 -12 -7 -26l-344 -639v-637q0 -24 -14 -38q-14 -12 -36 -12q-9 0 -35 12q-15 12 -15 38v637zM394 1589l184 168q19 18 39 15t33 -17t14 -34t-18 -38l-184 -168
q-19 -18 -39.5 -15t-33 17t-13.5 34t18 38z"/>
            <glyph glyph-name="glyph58" unicode="&#xfd;"
                   d="M352 40l-252 896l-2 16q0 18 15 33t37 15q26 0 46 -36l206 -735l198 734q3 13 15 25q12 9 32 12q20 0 35.5 -13.5t15.5 -35.5l-2 -14l-320 -1189q-15 -63 -70 -105.5t-123 -42.5h-35q-13 0 -37 15q-13 16 -13 35q0 9 12 35q12 15 38 15h35q35 0 61 20q27 18 36 54z
M299 1315l184 168q19 18 39 15t33 -17t14 -34t-18 -38l-184 -168q-19 -18 -39.5 -15t-33 17t-13.5 34t18 38z"/>
            <glyph glyph-name="glyph59" unicode="&#xde;" horiz-adv-x="900"
                   d="M200 441h300q81 0 141 57t60 141v201q0 81 -59 140t-142 59h-300v-598zM200 341v-290q0 -24 -14 -38q-14 -12 -36 -12q-9 0 -35 12q-15 12 -15 38l-2 1026q0 112 -0.5 224t-0.5 224q7 17 20.5 25.5t28.5 9t28.5 -8t21.5 -26.5l2 -383l302 -3q123 0 213 -87q44 -42 66 -96
l15 -53l5 -32l2 -31v-201q0 -123 -87.5 -210.5t-213.5 -87.5h-300z"/>
            <glyph glyph-name="glyph60" unicode="&#xfe;"
                   d="M200 99h301q39 0 69 30t30 71v601q0 41 -29 70t-70 29h-301v-801zM200 -1v-349q0 -18 -16 -34t-34 -16t-34 13t-16 37v1301v109t0.5 62t0.5 38t0.5 38t0.5 61v110q13 20 29 26.5t31 4.5t27.5 -11t17.5 -20l-9 -371l303 2q81 0 140 -57.5t59 -141.5v-601q0 -83 -57.5 -142
t-141.5 -59h-301z"/>
            <glyph glyph-name="glyph61" unicode="&#xd7;" horiz-adv-x="951"
                   d="M553 710l277 -291q17 -10 16.5 -32.5t-13.5 -35.5q-13 -12 -33.5 -14t-37.5 15l-282 286l-283 -279q-22 -13 -41 -12t-34 17q-6 6 -16 33q-2 20 17 38l289 274l-272 286q-18 15 -18 35q3 21 17 35q8 7 30.5 12t40.5 -13l277 -286l287 278q10 12 33 13.5t36 -13.5
q13 -13 15 -33.5t-16 -36.5z"/>
            <glyph glyph-name="angle" unicode="&#x2220;" horiz-adv-x="2740"
                   d="M2300 100v-100h-2167l-33 122l2119 1278l81 -77l-2029 -1223h2029z"/>
            <glyph glyph-name="angle" unicode="&#xe707;" horiz-adv-x="2740"
                   d="M2300 100v-100h-2167l-33 122l2119 1278l81 -77l-2029 -1223h2029z"/>
            <glyph glyph-name="uni2330" unicode="&#x2330;" horiz-adv-x="4450"
                   d="M2259 -203l1180 1174l-271 59l1012 606l-632 -986l-46 254l-1218 -1207h-2063l-42 87l1172 1172l-271 59l1012 606l-632 -986l-46 254l-1087 -1092h1932z"/>
            <glyph glyph-name="uni2330" unicode="&#xe70d;" horiz-adv-x="4450"
                   d="M2259 -203l1180 1174l-271 59l1012 606l-632 -986l-46 254l-1218 -1207h-2063l-42 87l1172 1172l-271 59l1012 606l-632 -986l-46 254l-1087 -1092h1932z"/>
            <glyph glyph-name="uniE700" unicode="&#xe700;" horiz-adv-x="2400"
                   d="M100 750h2200v-100h-2200v100z"/>
            <glyph glyph-name="uniE701" unicode="&#xe701;" horiz-adv-x="3109"
                   d="M2128 100l691 1200h-1840l-694 -1200h1843zM100 0l807 1400h2102l-810 -1400h-2099z"/>
            <glyph glyph-name="uniE702" unicode="&#xe702;" horiz-adv-x="3138"
                   d="M100 700q0 152 39.5 292.5t111 262.5t172 222.5t222.5 172t262.5 111t292.5 39.5t292.5 -39.5t262.5 -111t222.5 -172t172 -222.5t111 -262.5t39.5 -292.5t-39.5 -292.5t-111 -262.5t-172 -222.5t-222.5 -172t-262.5 -111t-292.5 -39.5t-292.5 39.5t-262.5 111
t-222.5 172t-172 222.5t-111 262.5t-39.5 292.5zM200 700q0 -138 35.5 -265.5t101 -239t156.5 -202.5t202.5 -156.5t239 -101t265.5 -35.5t265.5 35.5t239 101t202.5 156.5t156.5 202.5t101 239t35.5 265.5t-35.5 265.5t-101 239t-156.5 202.5t-202.5 156.5t-239 101
t-265.5 35.5t-265.5 -35.5t-239 -101t-202.5 -156.5t-156.5 -202.5t-101 -239t-35.5 -265.5z"/>
            <glyph glyph-name="uniE703" unicode="&#xe703;" horiz-adv-x="3249"
                   d="M173 -400l-98 62l1230 2138l99 -62zM1021 702q0 -124 47 -233.5t128.5 -191t191 -128.5t233.5 -47t233.5 47t191 128.5t128.5 191t47 233.5t-47 233.5t-128.5 191t-191 128.5t-233.5 47t-233.5 -47t-191 -128.5t-128.5 -191t-47 -233.5zM921 702q0 96 25 185.5
t70.5 167.5t109.5 142t142 109.5t167 70.5t186 25q96 0 185.5 -25t167.5 -70.5t142 -109.5t109.5 -142t70.5 -167.5t25 -185.5q0 -97 -25 -186t-70.5 -167t-109.5 -142t-142 -109.5t-167.5 -70.5t-185.5 -25q-97 0 -186 25t-167 70.5t-142 109.5t-109.5 142t-70.5 167.5
t-25 185.5zM1934 -398l-98 62l1230 2138l99 -62z"/>
            <glyph glyph-name="uniE704" unicode="&#xe704;" horiz-adv-x="2400"
                   d="M100 1200h2200v-100h-2200v100zM100 300h2200v-100h-2200v100z"/>
            <glyph glyph-name="uniE705" unicode="&#xe705;" horiz-adv-x="2601"
                   d="M173 -400l-98 62l1230 2138l99 -62zM1387 -398l-98 62l1230 2138l99 -62z"/>
            <glyph glyph-name="uniE706" unicode="&#xe706;" horiz-adv-x="2400"
                   d="M1250 1800v-2100h1050v-100h-2200v100h1050v2100h100z"/>
            <glyph glyph-name="uniE708" unicode="&#xe708;" horiz-adv-x="2400"
                   d="M100 700q0 152 39.5 292.5t111 262.5t172 222.5t222.5 172t262.5 111t292.5 39.5t292.5 -39.5t262.5 -111t222.5 -172t172 -222.5t111 -262.5t39.5 -292.5t-39.5 -292.5t-111 -262.5t-172 -222.5t-222.5 -172t-262.5 -111t-292.5 -39.5t-292.5 39.5t-262.5 111
t-222.5 172t-172 222.5t-111 262.5t-39.5 292.5zM200 700q0 -138 35.5 -265.5t101 -239t156.5 -202.5t202.5 -156.5t239 -101t265.5 -35.5t265.5 35.5t239 101t202.5 156.5t156.5 202.5t101 239t35.5 265.5t-35.5 265.5t-101 239t-156.5 202.5t-202.5 156.5t-239 101
t-265.5 35.5t-265.5 -35.5t-239 -101t-202.5 -156.5t-156.5 -202.5t-101 -239t-35.5 -265.5zM500 700q0 96 25 185.5t70.5 167.5t109.5 142t142 109.5t167 70.5t186 25q96 0 185.5 -25t167.5 -70.5t142 -109.5t109.5 -142t70.5 -167.5t25 -185.5q0 -97 -25 -186t-70.5 -167
t-109.5 -142t-142 -109.5t-167 -70.5t-186 -25t-186 25t-167 70.5t-142 109.5t-109.5 142t-70.5 167.5t-25 185.5zM600 700q0 -124 47 -233.5t128.5 -191t191 -128.5t233.5 -47t233.5 47t191 128.5t128.5 191t47 233.5t-47 233.5t-128.5 191t-191 128.5t-233.5 47
t-233.5 -47t-191 -128.5t-128.5 -191t-47 -233.5z"/>
            <glyph glyph-name="uniE709" unicode="&#xe709;" horiz-adv-x="2400"
                   d="M100 750h2200v-100h-2200v100zM500 1200h1400v-100h-1400v100zM500 299h1400v-99h-1400v99z"/>
            <glyph glyph-name="uniE70A" unicode="&#xe70a;" horiz-adv-x="2400"
                   d="M1250 1800v-1050h1050v-100h-1050v-1050h-100v1050h-1050v100h1050v1050h100zM500 700q0 96 25 185.5t70.5 167.5t109.5 142t142 109.5t167 70.5t186 25q96 0 185.5 -25t167.5 -70.5t142 -109.5t109.5 -142t70.5 -167.5t25 -185.5q0 -97 -25 -186t-70.5 -167t-109.5 -142
t-142 -109.5t-167 -70.5t-186 -25t-186 25t-167 70.5t-142 109.5t-109.5 142t-70.5 167.5t-25 185.5zM600 700q0 -124 47 -233.5t128.5 -191t191 -128.5t233.5 -47t233.5 47t191 128.5t128.5 191t47 233.5t-47 233.5t-128.5 191t-191 128.5t-233.5 47t-233.5 -47
t-191 -128.5t-128.5 -191t-47 -233.5z"/>
            <glyph glyph-name="uniE70B" unicode="&#xe70b;" horiz-adv-x="1730"
                   d="M800 700l-700 700h128l637 -635l634 635h132l-701 -700l702 -700h-131l-636 635l-635 -635h-130z"/>
            <glyph glyph-name="uniE70C" unicode="&#xe70c;" horiz-adv-x="2383"
                   d="M209 -322l-63 68l1210 1207l-271 59l1012 606l-632 -986l-46 254z"/>
            <glyph glyph-name="uniE70E" unicode="&#xe70e;" horiz-adv-x="3000"
                   d="M2800 96q0 135 -45 276.5t-127.5 275.5t-199.5 252.5t-261.5 207.5t-313 140.5t-353.5 51.5q-174 0 -337.5 -51.5t-308 -140.5t-265 -207.5t-207 -252.5t-134.5 -275.5t-48 -276.5v-96h-100v96q-3 176 49.5 341.5t147.5 310t226.5 264.5t288 206.5t331.5 134t357 47.5
q206 0 390.5 -52.5t340 -145t279.5 -217.5t210.5 -270t133 -303t46.5 -316v-96h-100v96z"/>
            <glyph glyph-name="uniE70F" unicode="&#xe70f;" horiz-adv-x="3000"
                   d="M100 100q0 176 53 341t148 309.5t226 264t286.5 205t330 133t356.5 47.5q206 0 390.5 -52.5t340 -144t279.5 -216.5t210.5 -269.5t133 -302t46.5 -315.5v-100h-2800v100zM2800 96q0 135 -45 276.5t-127.5 275.5t-199.5 252.5t-261.5 207.5t-313 140.5t-353.5 51.5
q-174 0 -337.5 -51.5t-308 -140.5t-265 -207.5t-207 -252.5t-134.5 -275.5t-48 -276.5h2600z"/>
            <glyph glyph-name="uniE710" unicode="&#xe710;" horiz-adv-x="2400"
                   d="M1651 53q0 -24 -14 -38q-14 -12 -36 -12q-9 0 -35 12q-15 12 -15 38v1123l-308 -499q-19 -31 -43 -31t-43 31l-306 498v-1122q0 -24 -14 -38q-14 -12 -36 -12q-9 0 -35 12q-15 12 -15 38v1300q0 28 13.5 43t32.5 15q13 0 24 -7q4 -1 23 -25l356 -580l358 580q18 32 48 32
q18 0 31.5 -16t13.5 -42v-1300zM100 700q0 152 39.5 292.5t111 262.5t172 222.5t222.5 172t262.5 111t292.5 39.5t292.5 -39.5t262.5 -111t222.5 -172t172 -222.5t111 -262.5t39.5 -292.5t-39.5 -292.5t-111 -262.5t-172 -222.5t-222.5 -172t-262.5 -111t-292.5 -39.5
t-292.5 39.5t-262.5 111t-222.5 172t-172 222.5t-111 262.5t-39.5 292.5zM200 700q0 -138 35.5 -265.5t101 -239t156.5 -202.5t202.5 -156.5t239 -101t265.5 -35.5t265.5 35.5t239 101t202.5 156.5t156.5 202.5t101 239t35.5 265.5t-35.5 265.5t-101 239t-156.5 202.5
t-202.5 156.5t-239 101t-265.5 35.5t-265.5 -35.5t-239 -101t-202.5 -156.5t-156.5 -202.5t-101 -239t-35.5 -265.5z"/>
            <glyph glyph-name="uniE711" unicode="&#xe711;" horiz-adv-x="2400"
                   d="M1008 704h300q81 0 141 57t60 142v200q0 82 -59 141t-142 59h-300v-599zM1008 604v-551q0 -24 -14 -38q-14 -12 -36 -12q-9 0 -35 12q-15 12 -15 38v1300q0 50 50 50h350q123 0 212 -87.5t89 -212.5v-200q0 -123 -88 -211t-213 -88h-300zM200 700q0 -138 35.5 -265.5
t101 -239t156.5 -202.5t202.5 -156.5t239 -101t265.5 -35.5t265.5 35.5t239 101t202.5 156.5t156.5 202.5t101 239t35.5 265.5t-35.5 265.5t-101 239t-156.5 202.5t-202.5 156.5t-239 101t-265.5 35.5t-265.5 -35.5t-239 -101t-202.5 -156.5t-156.5 -202.5t-101 -239
t-35.5 -265.5zM100 700q0 152 39.5 292.5t111 262.5t172 222.5t222.5 172t262.5 111t292.5 39.5t292.5 -39.5t262.5 -111t222.5 -172t172 -222.5t111 -262.5t39.5 -292.5t-39.5 -292.5t-111 -262.5t-172 -222.5t-222.5 -172t-262.5 -111t-292.5 -39.5t-292.5 39.5
t-262.5 111t-222.5 172t-172 222.5t-111 262.5t-39.5 292.5z"/>
            <glyph glyph-name="infinity" unicode="&#x221e;" horiz-adv-x="1553"
                   d="M786 770q108 127 168 167q83 56 174 56q108 0 201.5 -73t93.5 -238q0 -113 -36.5 -179t-108.5 -105t-150 -39q-91 0 -174 55q-60 42 -168 170q-98 -200 -301 -223q-85 -5 -156 26.5t-127 95.5t-56 180q0 149 99 235.5t215 86.5q104 5 203 -62q85 -53 123 -153v0zM856 677
q91 -130 164 -179q48 -32 106 -32q78 0 130.5 54.5t52.5 153.5q0 102 -54 156t-133 54q-51 0 -95 -27q-60 -37 -171 -180v0zM716 676q-66 107 -132 150.5t-112 43.5q-98 6 -152.5 -63.5t-54.5 -138.5t60.5 -135.5t153.5 -66.5q140 28 237 210v0z"/>
            <glyph glyph-name="infinity" unicode="&#xe713;" horiz-adv-x="1553"
                   d="M786 770q108 127 168 167q83 56 174 56q108 0 201.5 -73t93.5 -238q0 -113 -36.5 -179t-108.5 -105t-150 -39q-91 0 -174 55q-60 42 -168 170q-98 -200 -301 -223q-85 -5 -156 26.5t-127 95.5t-56 180q0 149 99 235.5t215 86.5q104 5 203 -62q85 -53 123 -153v0zM856 677
q91 -130 164 -179q48 -32 106 -32q78 0 130.5 54.5t52.5 153.5q0 102 -54 156t-133 54q-51 0 -95 -27q-60 -37 -171 -180v0zM716 676q-66 107 -132 150.5t-112 43.5q-98 6 -152.5 -63.5t-54.5 -138.5t60.5 -135.5t153.5 -66.5q140 28 237 210v0z"/>
            <glyph glyph-name="uniE714" unicode="&#xe714;" horiz-adv-x="1894"
                   d="M1754 0h-1618l-36 100l1595 896l59 -98l-1429 -798h1429v-100z"/>
            <glyph glyph-name="uniE715" unicode="&#xe715;" horiz-adv-x="1845"
                   d="M100 100h1429l-1429 798l59 98l1595 -896l-36 -100h-1618v100z"/>
            <glyph glyph-name="uniE716" unicode="&#xe716;" horiz-adv-x="1800"
                   d="M1600 1401l101 -69l-1 -1257l-100 -75l-1500 620v172zM1600 128v1145l-1407 -573z"/>
            <glyph glyph-name="uniE717" unicode="&#xe717;" horiz-adv-x="1800"
                   d="M1700 792v-172l-1500 -620l-100 75l-1 1257l101 69zM1607 700l-1407 573v-1145z"/>
            <glyph glyph-name="uniE718" unicode="&#xe718;" horiz-adv-x="603"
                   d="M442 938h-299q-9 0 -18 8q-7 8 -7 19q0 7 4 12l274 415l11 20l7 17q6 18 6 37q0 51 -41 86q-18 16 -42.5 25.5t-49.5 9.5q-34 0 -64 -19t-48 -66q-3 -8 -9 -12q-5 -3 -14 -4q-10 0 -18 6.5t-8 17.5l2 9q21 61 65 92q40 27 92 27q71 0 128 -49q59 -51 59 -123
q0 -24 -7.5 -47.5t-26.5 -54.5l-248 -376h252q9 0 17 -8t8 -17t-6.5 -17t-18.5 -8v0z"/>
            <glyph glyph-name="uniE719" unicode="&#xe719;" horiz-adv-x="529"
                   d="M330 1326q34 -17 57.5 -54t23.5 -79v-100q0 -63 -44 -106.5t-106 -43.5h-125q-12 0 -19 7q-6 8 -6 18q0 5 6 15t19 10h125q42 0 71 29t29 71v100q0 41 -29 70.5t-71 29.5h-25q-12 0 -19 7q-6 8 -6 18q0 5 6 15t19 10q42 0 71 29t29 71v50q0 41 -29 70.5t-71 29.5h-100
q-12 0 -19 7q-6 8 -6 18q0 5 6 15t19 10h100q63 0 106.5 -43.5t43.5 -106.5v-50l-1 -17v-10l-3 -10q-2 -13 -11 -28q-13 -27 -41 -52v0z"/>
            <glyph glyph-name="uniE71A" unicode="&#xe71a;" horiz-adv-x="1600"
                   d="M1500 0h-1400v1400zM200 1169v-1069h1071z"/>
            <glyph glyph-name="uniE71A" unicode="&#xe72f;" horiz-adv-x="1600"
                   d="M1500 0h-1400v1400zM200 1169v-1069h1071z"/>
            <glyph glyph-name="uniE71B" unicode="&#xe71b;" horiz-adv-x="2100"
                   d="M100 0h1900v100h-1900v-100zM400 750q0 135 51 253t139.5 206.5t206.5 139.5t253 51t253 -51t206.5 -139.5t139.5 -206.5t51 -253t-51 -253t-139.5 -206.5t-206.5 -139.5t-253 -51t-253 51t-206.5 139.5t-139.5 206.5t-51 253zM500 750q0 -114 43 -214t118 -175t175 -118
t214 -43t214 43t175 118t118 175t43 214t-43 214t-118 175t-175 118t-214 43t-214 -43t-175 -118t-118 -175t-43 -214z"/>
            <glyph glyph-name="uniE71C" unicode="&#xe71c;" horiz-adv-x="2100"
                   d="M100 1400h1900v-100h-1900v100zM400 650q0 135 51 253t139.5 206.5t206.5 139.5t253 51t253 -51t206.5 -139.5t139.5 -206.5t51 -253t-51 -253t-139.5 -206.5t-206.5 -139.5t-253 -51t-253 51t-206.5 139.5t-139.5 206.5t-51 253zM500 650q0 -114 43 -214t118 -175
t175 -118t214 -43t214 43t175 118t118 175t43 214t-43 214t-118 175t-175 118t-214 43t-214 -43t-175 -118t-118 -175t-43 -214z"/>
            <glyph glyph-name="uniE71D" unicode="&#xe71d;" horiz-adv-x="3300"
                   d="M1045 100q-135 0 -252.5 51t-204.5 139.5t-137.5 206.5t-50.5 253h100q0 -114 43 -214t118 -175t175 -118t214 -43t214.5 43t175.5 118t118.5 175t43.5 214h100q0 -114 43 -214t118 -175t175 -118t214 -43t214 43t175 118t118 175t43 214h100q0 -135 -51 -253
t-139.5 -206.5t-206.5 -139.5t-253 -51q-106 0 -197.5 27.5t-167.5 79.5t-135 127.5t-100 170.5q-36 -89 -96 -163.5t-137.5 -128t-170 -83.5t-194.5 -30h2146v-100h-3100v100h945z"/>
            <glyph glyph-name="uniE71E" unicode="&#xe71e;" horiz-adv-x="3300"
                   d="M101 1398h3100v-100h-3100v100zM1603 648q0 114 -43.5 214t-118.5 175t-175.5 118t-214.5 43t-214 -43t-175 -118t-118 -175t-43 -214h-100q0 135 51 253t139.5 206.5t206.5 139.5t253 51q102 0 195 -30t171.5 -83.5t139 -128t96.5 -163.5q41 95 100 170.5t135 127.5
t167.5 79.5t197.5 27.5q135 0 253 -51t206.5 -139.5t139.5 -206.5t51 -253h-100q0 114 -43 214t-118 175t-175 118t-214 43t-214 -43t-175 -118t-118 -175t-43 -214h-100z"/>
            <glyph glyph-name="uniE71F" unicode="&#xe71f;" horiz-adv-x="2100"
                   d="M2000 1400v-1400h-1900v100h1800v1200h-1800v100h1900z"/>
            <glyph glyph-name="uniE72B" unicode="&#xe72b;" horiz-adv-x="1600"
                   d="M850 1400v-1300h650v-100h-1400v100h650v1300h100z"/>
            <glyph glyph-name="uniE72B" unicode="&#xe731;" horiz-adv-x="1600"
                   d="M850 1400v-1300h650v-100h-1400v100h650v1300h100z"/>
            <glyph glyph-name="uniE730" unicode="&#xe730;" horiz-adv-x="1600"
                   d="M100 1100h1400v-100h-1400v100zM100 400h1400v-100h-1400v100z"/>
            <glyph glyph-name="uniE732" unicode="&#xe732;" horiz-adv-x="1730"
                   d="M800 700l-700 700h128l637 -635l634 635h132l-701 -700l702 -700h-131l-636 635l-635 -635h-130z"/>
            <glyph glyph-name="uniE735" unicode="&#xe735;" horiz-adv-x="0"
                   d="M798 1329l-568 -1229h523q18 0 34 -16t16 -34t-13 -34t-37 -16h-601q-53 0 -53 40l1 16l1 6l6 9l568 1229h-523q-23 0 -37 14q-13 16 -13 36q0 11 12.5 30.5t37.5 19.5h601q53 0 53 -40l-1 -16l-2 -6z"/>
            <glyph glyph-name="uniE736" unicode="&#xe736;" horiz-adv-x="0"
                   d="M999 1520l-802 -1700q-6 -16 -17 -21.5t-28 -8.5q-22 0 -37 14q-15 12 -15 35q0 13 5 22l803 1699l13 17l31 13q22 0 36 -14q16 -13 16 -34q0 -13 -5 -22z"/>
            <glyph glyph-name="space" unicode=" " horiz-adv-x="600"
            />
            <glyph glyph-name="exclam" unicode="!" horiz-adv-x="300"
                   d="M149 0q-23 0 -37 14q-13 16 -13 35q0 11 12.5 30.5t37.5 19.5q18 0 34 -16t16 -34t-12.5 -33.5t-37.5 -15.5zM100 1350q0 16 15 33t35 17t34.5 -12.5t14.5 -37.5v-1000q0 -16 -15 -37q-16 -13 -34 -13q-9 0 -35 12q-15 12 -15 38v1000z"/>
            <glyph glyph-name="quotedbl" unicode="&#x22;" horiz-adv-x="500"
                   d="M198 1337l2 15q0 21 -16 34.5t-36 13.5q-17 0 -29.5 -9.5t-18.5 -29.5l-50 -198l-2 -15q0 -11 15 -35q16 -13 37 -13q16 0 27.5 8.5t20.5 30.5zM398 1337l2 15q0 21 -16 34.5t-36 13.5q-17 0 -29.5 -9.5t-18.5 -29.5l-50 -198l-2 -15q0 -11 15 -35q16 -13 37 -13
q16 0 27.5 8.5t20.5 30.5z"/>
            <glyph glyph-name="numbersign" unicode="#" horiz-adv-x="1150"
                   d="M1004 929h-146l-98 -458h124q18 0 34 -16t16 -34t-13 -34t-37 -16h-145l-71 -331q-3 -18 -18 -30l-31 -10q-9 0 -35 12q-15 12 -15 36l1 12l66 311h-269l-71 -331q-3 -18 -18 -30l-31 -10q-9 0 -35 12q-15 12 -15 36l1 12l66 311h-124q-23 0 -37 14q-13 16 -13 36
q0 11 12.5 30.5t37.5 19.5h145l98 458h-123q-23 0 -37 14q-13 16 -13 36q0 11 12.5 30.5t37.5 19.5h145l71 331q3 20 17 30q16 9 32 10q18 0 34 -13t16 -35l-1 -12l-67 -311h270l71 331q3 20 17 30q16 9 32 10q18 0 34 -13t16 -35l-1 -12l-67 -311h125q18 0 34 -16t16 -34
t-13 -34t-37 -16zM755 929h-269l-98 -458h269z"/>
            <glyph glyph-name="dollar" unicode="$" horiz-adv-x="900"
                   d="M500 1400h50q51 0 115 -18t114 -52q6 -3 12 -12t11 -29q0 -22 -14 -37.5t-36 -15.5q-15 0 -29 10q-78 54 -173 54h-50v-580l208 -209q44 -43 66 -98l8 -23l10 -38l4 -23l1 -29q0 -120 -81 -207q-86 -93 -216 -93v-140q0 -18 -19 -37t-37 -19q-15 0 -29.5 11.5t-14.5 34.5
v150h-50q-127 0 -228 71l-17 18l-5 22q0 15 15 33t34 18l29 -9q79 -53 172 -53h50v580l-208 209q-35 35 -68 98q-21 54 -21 113q0 120 81 207q86 93 216 93v150q0 16 15 33t35 17q18 0 34 -13t16 -37v-150zM500 100q84 0 143 62q54 57 54 139q0 33 -15 72q-12 39 -44 68
l-138 138v-479zM400 1300q-84 0 -140.5 -61t-56.5 -140q0 -39 12 -74q13 -33 47 -66l138 -139v480z"/>
            <glyph glyph-name="percent" unicode="%" horiz-adv-x="1700"
                   d="M1600 300q0 -133 -93 -226q-84 -75 -207 -75q-110 0 -206 75q-94 83 -94 226q0 141 93 225q85 76 207 76q111 0 206 -75q94 -85 94 -226zM1293 1324l-799 -1300q-16 -25 -42 -25q-22 0 -37 14.5t-15 35.5q0 16 8 27l799 1300q16 25 42 25q21 0 36.5 -14.5t15.5 -35.5
q0 -16 -8 -27zM699 1100q0 -141 -93 -225q-84 -75 -206 -75q-110 0 -206 75q-94 83 -94 225q0 141 93 225q84 75 207 75q110 0 205 -75q94 -85 94 -225zM1500 300q0 93 -62 149q-58 50 -138 50q-81 0 -137 -49q-63 -54 -63 -150q0 -95 62 -150q56 -50 138 -50q81 0 137 50
q63 56 63 150zM599 1100q0 94 -62 150q-56 50 -137 50t-137 -50q-63 -56 -63 -150q0 -95 62 -150q56 -50 138 -50q81 0 137 49q62 54 62 151z"/>
            <glyph glyph-name="ampersand" unicode="&#x26;" horiz-adv-x="1100"
                   d="M435 967l101 158l12 27l4 29q0 45 -37 82t-90 37q-42 0 -77 -34q-31 -34 -31 -80q0 -33 19 -64zM745 295l-310 486l-187 -293q-42 -66 -42 -140q0 -99 78.5 -173.5t177.5 -74.5q39 0 88 21t95 64zM376 874l-124 194q-35 55 -35 118q0 76 60 145t148 69q92 0 159.5 -66.5
t67.5 -155.5q0 -56 -32 -107l-126 -197l320 -503l106 117q15 17 36 17q18 0 35 -15.5t17 -35.5q0 -19 -14 -34l-124 -137l129 -202l8 -28q0 -18 -16 -35q-16 -14 -36 -14q-13 0 -22 5t-18 18l-114 180l-82 -90q-51 -57 -117.5 -87.5t-136.5 -30.5q-141 0 -250.5 104
t-109.5 247l3 50q0 10 4 22l7 25q8 31 45 95z"/>
            <glyph glyph-name="quotesingle" unicode="'" horiz-adv-x="300"
                   d="M198 1337l2 15q0 21 -16 34.5t-36 13.5q-17 0 -29.5 -9.5t-18.5 -29.5l-50 -298l-2 -15q0 -11 15 -35q16 -13 37 -13q16 0 27.5 8.5t20.5 30.5z"/>
            <glyph glyph-name="parenleft" unicode="(" horiz-adv-x="400"
                   d="M308 -37l2 -15q0 -21 -16 -34.5t-35 -13.5q-14 0 -26 8q-12 6 -21 29q-45 179 -75 375l-14 102l-5 50l-2 44l-1 40l-1 30l-5 122q0 388 103 763q3 13 15 25q12 9 32 12q20 0 35.5 -13.5t15.5 -35.5l-2 -14q-22 -82 -39.5 -171.5t-33.5 -194.5l-12 -96q-6 -51 -6 -89
l-4 -92l-3 -94q0 -189 24 -372q9 -77 30 -182l20 -95z"/>
            <glyph glyph-name="parenright" unicode=")" horiz-adv-x="400"
                   d="M196 -63q-3 -17 -16.5 -27t-30.5 -10q-22 0 -36 14q-15 12 -15 35l2 14q22 83 39.5 172t33.5 194l11 95l5 48l2 42l2 51l3 68l2 67q0 182 -24 371q-12 95 -30 183l-20 94l-24 89l-2 15q0 18 15 33t36 15q12 0 23 -8q13 -6 24 -29q102 -374 102 -763q0 -379 -102 -763z
"/>
            <glyph glyph-name="asterisk" unicode="*" horiz-adv-x="900"
                   d="M535 1200h119q18 0 34 -16t16 -34t-13 -34t-37 -16h-119l64 -128q6 -14 6 -24q0 -18 -16 -34q-16 -14 -36 -14t-44 28l-55 110l-55 -110q-15 -29 -44 -29q-22 0 -37 14t-15 35q0 12 6 24l64 128h-119q-23 0 -37 14q-13 16 -13 36q0 11 12.5 30.5t37.5 19.5h119l-64 128
q-6 14 -6 24q0 18 15 33t37 15q20 0 44 -28l55 -110l55 110q15 29 44 29q22 0 37 -14t15 -35q0 -12 -6 -24z"/>
            <glyph glyph-name="plus" unicode="+" horiz-adv-x="700"
                   d="M405 550h200q18 0 34 -16t16 -34t-13 -34t-37 -16h-200v-200q0 -24 -14 -38q-14 -12 -36 -12q-9 0 -35 12q-15 12 -15 38v200h-200q-23 0 -37 14q-13 16 -13 36q0 11 12.5 30.5t37.5 19.5h200v200q0 16 15 33t35 17q18 0 34 -13t16 -37v-200z"/>
            <glyph glyph-name="comma" unicode="," horiz-adv-x="400"
                   d="M224 -171q-9 -21 -21 -30t-27 -9q-22 0 -37 15t-15 33l2 15l50 198q6 20 18.5 29.5t29.5 9.5q20 0 36 -13.5t16 -34.5l-2 -15z"/>
            <glyph glyph-name="hyphen" unicode="-"
                   d="M700 450h-600q-23 0 -37 14q-13 16 -13 36q0 11 12.5 30.5t37.5 19.5h600q18 0 34 -16t16 -34t-13 -34t-37 -16z"/>
            <glyph glyph-name="period" unicode="." horiz-adv-x="335"
                   d="M161 100q18 0 34 -16t16 -34t-13 -34t-37 -16q-23 0 -37 14q-13 16 -13 36q0 11 12.5 30.5t37.5 19.5z"/>
            <glyph glyph-name="slash" unicode="/" horiz-adv-x="1100"
                   d="M999 1520l-802 -1700q-6 -16 -17 -21.5t-28 -8.5q-22 0 -37 14q-15 12 -15 35q0 13 5 22l803 1699l13 17l31 13q22 0 36 -14q16 -13 16 -34q0 -13 -5 -22z"/>
            <glyph glyph-name="zero" unicode="0" horiz-adv-x="900"
                   d="M801 300q0 -123 -88 -211.5t-213 -88.5h-100q-115 0 -207.5 87t-92.5 213v800q0 120 87 210t213 90h100q123 0 212 -87.5t89 -212.5v-800zM701 300v800q0 82 -59 141t-142 59h-100q-83 0 -141.5 -58.5t-58.5 -141.5v-800q0 -81 60.5 -140.5t139.5 -59.5h100q81 0 141 57
t60 143z"/>
            <glyph glyph-name="one" unicode="1" horiz-adv-x="600"
                   d="M500 50q0 -24 -14 -38q-14 -12 -36 -12q-9 0 -35 12q-15 12 -15 38v1180l-214 -215q-15 -15 -34 -15q-21 0 -36 15t-15 36q0 8 15 34l299 300q14 14 34 14t35.5 -13.5t15.5 -35.5v-1300z"/>
            <glyph glyph-name="two" unicode="2" horiz-adv-x="900"
                   d="M748 0h-598q-18 0 -35 16q-14 17 -14 38q0 14 7 24l549 831l21 39l15 35q12 36 12 74q0 101 -82 171q-36 32 -85 51.5t-99 19.5q-69 0 -128.5 -38.5t-96.5 -131.5q-6 -16 -17 -24q-11 -6 -28 -9q-21 0 -36.5 13.5t-15.5 35.5l3 18q42 122 131 183q79 55 183 55
q143 0 256 -98q118 -103 118 -246q0 -49 -15 -96t-52 -108l-497 -753h504q18 0 34 -16t16 -34t-13 -34t-37 -16z"/>
            <glyph glyph-name="three" unicode="3"
                   d="M539 766q68 -33 114.5 -107.5t46.5 -158.5v-200q0 -125 -87.5 -212.5t-212.5 -87.5h-250q-23 0 -37 14q-13 16 -13 36q0 11 12.5 30.5t37.5 19.5h250q84 0 142 58t58 142v200q0 83 -57.5 141.5t-142.5 58.5h-50q-23 0 -37 14q-13 16 -13 36q0 11 12.5 30.5t37.5 19.5
q84 0 142 58t58 142v100q0 83 -57.5 141.5t-142.5 58.5h-200q-23 0 -37 14q-13 16 -13 36q0 11 12.5 30.5t37.5 19.5h200q126 0 213 -87t87 -213v-100l-1 -33l-1 -20l-6 -20q-3 -27 -21 -57q-26 -53 -82 -104z"/>
            <glyph glyph-name="four" unicode="4" horiz-adv-x="900"
                   d="M600 400h151q18 0 34 -16t16 -34t-13 -34t-37 -16h-151v-250q0 -24 -14 -38q-14 -12 -36 -12q-9 0 -35 12q-15 12 -15 38v250h-350q-22 0 -36 14t-14 34l1 12l200 1000q3 20 17 30l31 10q20 0 35.5 -13.5t15.5 -35.5l-1 -11l-188 -940h289v251q0 16 15 33t35 17
q18 0 34 -13t16 -37v-251z"/>
            <glyph glyph-name="five" unicode="5"
                   d="M700 300q0 -123 -88 -211.5t-211 -88.5h-251q-23 0 -37 14q-13 16 -13 36q0 11 12.5 30.5t37.5 19.5h251q83 0 141 58t58 142v200q0 83 -58 141t-141 58h-251q-50 0 -50 50v601q0 50 50 50h500q18 0 34 -16t16 -34t-13 -34t-37 -16h-450v-501h201q123 0 211 -88t88 -211
v-200z"/>
            <glyph glyph-name="six" unicode="6" horiz-adv-x="900"
                   d="M200 700v-400q0 -81 60.5 -140.5t139.5 -59.5h100q84 0 142 58t58 142v200q0 83 -57.5 141.5t-142.5 58.5h-300zM100 745q0 208 107 382q117 188 325 270l21 4q20 0 33.5 -16t13.5 -36q0 -14 -6.5 -24.5t-25.5 -21.5l-19 -7l-22 -10l-42 -22q-39 -23 -74 -53
q-61 -49 -119 -137q-36 -60 -63 -134.5t-27 -139.5h298q126 0 213 -87t87 -213v-200q0 -125 -87.5 -212.5t-212.5 -87.5h-100q-115 0 -207.5 87t-92.5 213v445z"/>
            <glyph glyph-name="seven" unicode="7" horiz-adv-x="900"
                   d="M800 1339l-301 -1300q-2 -7 -18 -29l-30 -10q-18 0 -36 12q-16 13 -16 36l2 13l287 1239h-488v-99q0 -24 -14 -38q-14 -12 -36 -12q-9 0 -35 12q-15 12 -15 38v149q0 50 50 50h601q23 0 37 -12.5t14 -33.5z"/>
            <glyph glyph-name="eight" unicode="8" horiz-adv-x="900"
                   d="M800 300q0 -125 -87.5 -212.5t-212.5 -87.5h-100q-115 0 -207.5 87t-92.5 213v200q0 77 42 147t119 119q-51 42 -81 102t-30 131v102q0 115 87 211q44 44 96 66l53 15l32 5l31 2q123 0 213 -87q44 -42 66 -96l15 -53l5 -32l2 -31v-102q0 -73 -27.5 -129.5t-83.5 -103.5
q68 -33 114.5 -107.5t46.5 -158.5v-200zM650 999v102q0 83 -58 141t-141 58t-142 -57.5t-59 -141.5v-102q0 -83 58 -141t141 -58q81 0 141 57t60 142zM700 300v200q0 83 -57.5 141.5t-142.5 58.5h-100q-83 0 -141.5 -58.5t-58.5 -141.5v-200q0 -81 60.5 -140.5t139.5 -59.5
h100q84 0 142 58t58 142z"/>
            <glyph glyph-name="nine" unicode="9" horiz-adv-x="900"
                   d="M700 700v400q0 83 -57.5 141.5t-142.5 58.5h-100q-84 0 -142 -58t-58 -142v-200q0 -81 60.5 -140.5t139.5 -59.5h300zM800 655q0 -208 -107 -382q-117 -188 -325 -270l-21 -4q-10 0 -34 15q-13 16 -13 37q0 15 6 27t26 19q35 12 82 39l38 24l13 9l24 20q61 49 119 137
q36 62 63 135.5t27 138.5h-298q-126 0 -213 87t-87 213v200q0 120 87 210t213 90h100q123 0 212 -88q44 -42 66 -96l15 -53l5 -32l2 -31v-445z"/>
            <glyph glyph-name="colon" unicode=":" horiz-adv-x="294"
                   d="M149 950q-25 0 -37.5 -18.5t-12.5 -31.5q0 -20 13 -36q14 -14 37 -14q24 0 37 16t13 34t-16 34t-34 16zM149 450q-25 0 -37.5 -18.5t-12.5 -31.5q0 -20 13 -36q14 -14 37 -14q24 0 37 16t13 34t-16 34t-34 16z"/>
            <glyph glyph-name="semicolon" unicode=";" horiz-adv-x="450"
                   d="M278 38l2 15q0 20 -16 33.5t-35 13.5q-16 0 -28 -8q-12 -6 -21 -30l-50 -199l-2 -14q0 -11 15 -30t38 -19q13 0 25 8q12 6 22 31zM239 610q-25 0 -37.5 -18.5t-12.5 -31.5q0 -20 13 -36q14 -14 37 -14q24 0 37 16t13 34t-16 34t-34 16z"/>
            <glyph glyph-name="less" unicode="&#x3c;"
                   d="M681 295q29 -15 29 -44q0 -22 -14 -37t-35 -15q-12 0 -24 6l-500 250q-12 6 -21 18l-7 27q0 30 28 45l500 250q14 6 24 6q18 0 33 -15.5t15 -36.5q0 -20 -28 -44l-410 -205z"/>
            <glyph glyph-name="equal" unicode="=" horiz-adv-x="700"
                   d="M605 600h-500q-23 0 -37 14q-13 16 -13 36q0 11 12.5 30.5t37.5 19.5h500q18 0 34 -16t16 -34t-13 -34t-37 -16zM605 300h-500q-23 0 -37 14q-13 16 -13 36q0 11 12.5 30.5t37.5 19.5h500q18 0 34 -16t16 -34t-13 -34t-37 -16z"/>
            <glyph glyph-name="greater" unicode="&#x3e;"
                   d="M673 455l-500 -250q-14 -6 -24 -6q-18 0 -34 16q-14 16 -14 36t28 44l410 205l-410 205q-29 15 -29 44q0 22 14 37t35 15q12 0 24 -6l500 -250q29 -15 29 -45q0 -9 -6 -23t-23 -22z"/>
            <glyph glyph-name="question" unicode="?" horiz-adv-x="850"
                   d="M750 1050q0 -102 -64 -183t-174 -114q-19 -6 -46 -33l-12 -28l-4 -28v-314q0 -24 -14 -38q-14 -12 -36 -12q-9 0 -35 12q-15 12 -15 38v311q0 65 37.5 117.5t99.5 71.5q65 15 114 72.5t49 128.5v49q0 83 -57.5 141.5t-142.5 58.5h-100q-46 0 -89 -20q-42 -18 -72 -60
q-15 -21 -40 -21q-8 0 -35 15q-16 16 -16 36q0 16 11 30q39 54 105 87t136 33h100q123 0 212 -88q44 -42 66 -96l15 -53l5 -32l2 -31v-50zM400 0q-24 0 -36.5 14.5t-12.5 35.5q0 11 12.5 30.5t36.5 19.5q15 0 32.5 -14.5t17.5 -35.5q0 -18 -13 -34t-37 -16z"/>
            <glyph glyph-name="at" unicode="@" horiz-adv-x="1600"
                   d="M1500 700q0 -171 -90 -288q-93 -122 -244 -122h-65q-30 0 -62.5 12t-57.5 37q-14 -14 -54 -37q-30 -12 -66 -12h-160q-69 0 -119.5 51.5t-50.5 118.5v480q0 71 49.5 120.5t120.5 49.5h280q50 0 50 -50v-600q0 -29 20 -50q22 -20 50 -20h65q98 0 173 94q61 88 61 216
q0 248 -176 424t-424 176t-424 -176t-176 -424q0 -238 171 -419t409 -181q122 0 202.5 15t162.5 55l12 3q7 0 11 2q18 0 33 -15.5t15 -35.5q0 -27 -29 -44q-67 -31 -178 -61l-55 -8l-48 -6l-68 -3l-58 -2q-279 0 -479.5 205.5t-200.5 494.5q0 290 205 495t495 205t495 -205
t205 -495zM931 460v550h-230q-20 0 -45 -20.5t-25 -49.5v-480q0 -29 20 -50q22 -20 50 -20h160q30 0 50 20t20 50z"/>
            <glyph glyph-name="A" unicode="A" horiz-adv-x="1000"
                   d="M294 401l-98 -363q-3 -17 -16.5 -27t-30.5 -10q-20 0 -35.5 13.5t-15.5 35.5l2 14l350 1290q12 45 48 45t48 -45l350 -1290l2 -15q0 -18 -16 -35q-16 -13 -35 -13q-16 0 -28.5 8.5t-18.5 28.5l-98 363h-4h-400h-4zM675 501l-177 659l-177 -659h354z"/>
            <glyph glyph-name="B" unicode="B" horiz-adv-x="900"
                   d="M200 799h250q82 0 141 59t59 142v100q0 83 -57.5 141.5t-142.5 58.5h-250v-501zM200 100h300q81 0 141 57t60 143v200q0 78 -61 138.5t-140 60.5h-300v-599zM150 0q-50 0 -50 50v1300q0 50 50 50h300q123 0 212 -88q44 -42 66 -96l15 -53l5 -32l2 -31v-100
q0 -73 -27 -129t-85 -105q71 -36 117 -111t46 -155v-200q0 -120 -93.5 -210t-207.5 -90h-350z"/>
            <glyph glyph-name="C" unicode="C"
                   d="M650 0h-249q-117 0 -209 87.5t-92 212.5v800q0 120 87 210t214 90h249q18 0 34 -16t16 -34t-13 -34t-37 -16h-249q-83 0 -142 -57.5t-59 -142.5v-800q0 -82 59 -141t142 -59h249q18 0 34 -16t16 -34t-13 -34t-37 -16z"/>
            <glyph glyph-name="D" unicode="D" horiz-adv-x="900"
                   d="M801 300q0 -123 -88 -211.5t-213 -88.5h-350q-50 0 -50 50v1300q0 50 50 50h350q123 0 212 -87.5t89 -212.5v-800zM701 300v800q0 82 -59 141t-142 59h-300v-1200h300q81 0 141 57t60 143z"/>
            <glyph glyph-name="E" unicode="E"
                   d="M201 699v-599h450q18 0 34 -16t16 -34t-13 -34t-37 -16h-500q-50 0 -50 50v1300q0 50 50 50h500q18 0 34 -16t16 -34t-13 -34t-37 -16h-450v-501h250q18 0 34 -16t16 -34t-13 -34t-37 -16h-250z"/>
            <glyph glyph-name="F" unicode="F"
                   d="M200 799h450q18 0 34 -16t16 -34t-13 -34t-37 -16h-450v-649q0 -24 -14 -38q-14 -12 -36 -12q-9 0 -35 12q-15 12 -15 38v1300q0 50 50 50h500q18 0 34 -16t16 -34t-13 -34t-37 -16h-450v-501z"/>
            <glyph glyph-name="G" unicode="G" horiz-adv-x="900"
                   d="M800 50q0 -50 -50 -50h-350q-115 0 -207.5 87t-92.5 213v800q0 120 87 210t213 90h350q18 0 34 -16t16 -34t-13 -34t-37 -16h-350q-83 0 -141.5 -58.5t-58.5 -141.5v-800q0 -81 60.5 -140.5t139.5 -59.5h300v599h-149q-23 0 -37 14q-13 16 -13 36q0 11 12.5 30.5
t37.5 19.5h199q50 0 50 -50v-699z"/>
            <glyph glyph-name="H" unicode="H" horiz-adv-x="900"
                   d="M701 799v551q0 16 15 33t35 17q18 0 34 -13t16 -37v-1300q0 -24 -14 -38q-14 -12 -36 -12q-9 0 -35 12q-15 12 -15 38v649h-501v-649q0 -24 -14 -38q-14 -12 -36 -12q-9 0 -35 12q-15 12 -15 38v1300q0 16 15 33t35 17q18 0 34 -13t16 -37v-551h501z"/>
            <glyph glyph-name="I" unicode="I" horiz-adv-x="300"
                   d="M200 50q0 -24 -14 -38q-14 -12 -36 -12q-9 0 -35 12q-15 12 -15 38v1300q0 16 15 33t35 17q18 0 34 -13t16 -37v-1300z"/>
            <glyph glyph-name="J" unicode="J" horiz-adv-x="700"
                   d="M600 300q0 -125 -87.5 -212.5t-212.5 -87.5h-150q-23 0 -37 14q-13 16 -13 36q0 11 12.5 30.5t37.5 19.5h150q83 0 141.5 58.5t58.5 141.5v1050q0 16 15 33t35 17q18 0 34 -13t16 -37v-1050z"/>
            <glyph glyph-name="K" unicode="K" horiz-adv-x="900"
                   d="M200 534v-484q0 -24 -14 -38q-14 -12 -36 -12q-9 0 -35 12q-15 12 -15 38v1300q0 16 15 33t35 17q18 0 34 -13t16 -37v-649l511 679q15 21 39 21q18 0 35 -15.5t17 -35.5q0 -16 -11 -30l-356 -473l361 -776l3 -13q0 -7 2 -10q0 -18 -16 -34q-16 -14 -36 -14l-23 6l-20 23
l-339 728z"/>
            <glyph glyph-name="L" unicode="L" horiz-adv-x="700"
                   d="M550 0h-400q-50 0 -50 50v1300q0 16 15 33t35 17q18 0 34 -13t16 -37v-1250h350q18 0 34 -16t16 -34t-13 -34t-37 -16z"/>
            <glyph glyph-name="M" unicode="M" horiz-adv-x="1100"
                   d="M999 51q0 -24 -14 -38q-14 -12 -36 -12q-9 0 -35 12q-15 12 -15 38v1121l-307 -498q-19 -31 -44 -31q-24 0 -42 31l-306 497v-1120q0 -24 -14 -38q-14 -12 -36 -12q-9 0 -35 12q-15 12 -15 38v1298q0 27 12.5 42.5t32.5 15.5q14 0 25 -7q4 -1 23 -25l356 -580l357 580
q20 32 48 32q18 0 31.5 -16t13.5 -42v-1298z"/>
            <glyph glyph-name="N" unicode="N" horiz-adv-x="900"
                   d="M801 50q0 -13 -15 -37q-16 -13 -35 -13l-25 6l-20 23l-506 1094v-1073q0 -24 -14 -38q-14 -12 -36 -12q-9 0 -35 12q-15 12 -15 38v1300q0 16 15 33t35 17q12 0 24.5 -6t20.5 -23l506 -1094v1073q0 16 15 33t35 17q18 0 34 -13t16 -37v-1300z"/>
            <glyph glyph-name="O" unicode="O" horiz-adv-x="900"
                   d="M801 300q0 -123 -88 -211.5t-213 -88.5h-100q-115 0 -207.5 87t-92.5 213v800q0 120 87 210t213 90h100q123 0 212 -87.5t89 -212.5v-800zM701 300v800q0 82 -59 141t-142 59h-100q-83 0 -141.5 -58.5t-58.5 -141.5v-800q0 -81 60.5 -140.5t139.5 -59.5h100q81 0 141 57
t60 143z"/>
            <glyph glyph-name="P" unicode="P" horiz-adv-x="900"
                   d="M200 701h300q81 0 141 57t60 141v201q0 81 -59 140t-142 59h-300v-598zM200 601v-550q0 -24 -14 -38q-14 -12 -36 -12q-9 0 -35 12q-15 12 -15 38v1298q0 50 50 50h350q123 0 213 -87q44 -42 66 -96l15 -53l5 -32l2 -31v-201q0 -123 -87.5 -210.5t-213.5 -87.5h-300z"/>
            <glyph glyph-name="Q" unicode="Q" horiz-adv-x="1000"
                   d="M655 175l-240 240q-15 15 -15 34q0 21 15 36t36 15q8 0 34 -15l212 -212l2 27v800q0 82 -57.5 141t-141.5 59h-100q-83 0 -141.5 -58.5t-58.5 -141.5v-800q0 -81 60.5 -140.5t139.5 -59.5h100q49 0 86.5 17.5t68.5 57.5zM779 191l106 -106q15 -15 15 -34q0 -21 -15 -36
t-36 -15q-8 0 -34 15l-89 88q-36 -45 -99 -75q-35 -14 -62 -21l-31 -5l-34 -2h-100q-115 0 -207.5 87t-92.5 213v800q0 120 87 210t213 90h100q122 0 210.5 -87.5t88.5 -212.5v-800v-36l-5 -29q0 -8 -15 -44z"/>
            <glyph glyph-name="R" unicode="R" horiz-adv-x="900"
                   d="M200 701h300q81 0 141 57t60 142v200q0 82 -59 141t-142 59h-300v-599zM487 601l307 -526q7 -11 7 -26q0 -18 -16 -35q-16 -14 -36 -14q-13 0 -23 5q-10 7 -18 20l-336 576h-172v-551q0 -24 -14 -38q-14 -12 -36 -12q-9 0 -35 12q-15 12 -15 38v1300q0 50 50 50h350
q123 0 212 -87.5t89 -212.5v-200q0 -123 -88 -211t-213 -88h-13z"/>
            <glyph glyph-name="S" unicode="S" horiz-adv-x="900"
                   d="M779 1330q6 -3 12 -12t11 -29q0 -19 -16 -35.5t-35 -16.5l-28 9q-77 54 -173 54h-147q-87 0 -143.5 -59.5t-56.5 -140.5l3 -40l4 -19l7 -18q13 -26 46 -65l445 -447q44 -43 66 -98l8 -23l10 -38l4 -23l1 -29q0 -121 -82 -207q-87 -93 -219 -93h-146q-127 0 -228 71
l-17 18l-5 22q0 15 15 33t34 18l29 -9q79 -53 172 -53h146q81 0 141 60t60 141l-3 34q-1 8 -4 17.5t-7 18.5q-11 34 -45 71l-447 447q-35 35 -68 98q-21 54 -21 113q0 121 82 207q87 93 219 93h147q51 0 115 -18t114 -52z"/>
            <glyph glyph-name="T" unicode="T" horiz-adv-x="900"
                   d="M400 1300h-250q-23 0 -37 14q-13 16 -13 36q0 11 12.5 30.5t37.5 19.5h601q18 0 34 -16t16 -34t-13 -34t-37 -16h-251v-1250q0 -24 -14 -38q-14 -12 -36 -12q-9 0 -35 12q-15 12 -15 38v1250z"/>
            <glyph glyph-name="U" unicode="U" horiz-adv-x="900"
                   d="M801 300q0 -123 -88 -211.5t-213 -88.5h-100q-115 0 -207.5 87t-92.5 213v1050q0 16 15 33t35 17q18 0 34 -13t16 -37v-1050q0 -81 60.5 -140.5t139.5 -59.5h100q81 0 141 57t60 143v1050q0 16 15 33t35 17q18 0 34 -13t16 -37v-1050z"/>
            <glyph glyph-name="V" unicode="V" horiz-adv-x="1000"
                   d="M896 1335l-350 -1290q-12 -45 -48 -45t-48 45l-350 1290l-2 15q0 18 15 33t36 15q12 0 23 -8q13 -6 24 -29l302 -1112l302 1112q3 13 15 25q12 9 32 12q20 0 35.5 -13.5t15.5 -35.5z"/>
            <glyph glyph-name="W" unicode="W" horiz-adv-x="1400"
                   d="M1297 1341l-249 -1292q-3 -21 -15.5 -33.5t-32.5 -15.5q-33 0 -48 42l-253 759l-252 -759q-15 -42 -48 -42q-6 0 -29 12l-19 37l-251 1292l-1 12q0 14 15.5 30.5t34.5 16.5q39 0 49 -41l215 -1105l239 720q15 43 47 43q23 0 47 -43l240 -720l213 1105q3 20 17 30.5
t31 10.5q22 0 36.5 -12.5t14.5 -35.5z"/>
            <glyph glyph-name="X" unicode="X" horiz-adv-x="1000"
                   d="M501 807l306 568q14 27 43 27q22 0 37 -14t15 -35q0 -12 -7 -26l-337 -626l337 -626q7 -11 7 -26q0 -18 -16 -35q-16 -14 -37 -14q-27 0 -42 27l-306 568l-306 -568q-14 -27 -43 -27q-22 0 -37 14t-15 35q0 12 7 26l337 626l-337 626l-7 26q0 11 15 30t38 19q27 0 42 -27
z"/>
            <glyph glyph-name="Y" unicode="Y" horiz-adv-x="1000"
                   d="M451 687l-344 639l-7 26q0 11 15 30t38 19q27 0 42 -27l306 -568l306 568q14 27 43 27q22 0 37 -14t15 -35q0 -12 -7 -26l-344 -639v-637q0 -24 -14 -38q-14 -12 -36 -12q-9 0 -35 12q-15 12 -15 38v637z"/>
            <glyph glyph-name="Z" unicode="Z" horiz-adv-x="900"
                   d="M798 1329l-568 -1229h523q18 0 34 -16t16 -34t-13 -34t-37 -16h-601q-53 0 -53 40l1 16l1 6l6 9l568 1229h-523q-23 0 -37 14q-13 16 -13 36q0 11 12.5 30.5t37.5 19.5h601q53 0 53 -40l-1 -16l-2 -6z"/>
            <glyph glyph-name="bracketleft" unicode="[" horiz-adv-x="400"
                   d="M300 -100h-150q-50 0 -50 50v1500q0 50 50 50h150q18 0 34 -16t16 -34t-13 -34t-37 -16h-100v-1400h100q18 0 34 -15t16 -35q0 -18 -13 -34t-37 -16z"/>
            <glyph glyph-name="backslash" unicode="\" horiz-adv-x="1100"
                   d="M999 -140l5 -22q0 -21 -16 -34.5t-36 -13.5q-14 0 -26 8q-12 6 -19 22l-803 1700l-5 22q0 18 15 33t37 15q14 0 26 -8q12 -6 19 -22z"/>
            <glyph glyph-name="bracketright" unicode="]" horiz-adv-x="400"
                   d="M300 -50q0 -50 -50 -50h-150q-13 0 -37 15q-13 16 -13 35q0 9 12 35q12 15 38 15h100v1400h-100q-23 0 -37 14q-13 16 -13 36q0 11 12.5 30.5t37.5 19.5h150q50 0 50 -50v-1500z"/>
            <glyph glyph-name="asciicircum" unicode="^" horiz-adv-x="700"
                   d="M676 1318v-17q0 -18 -16 -34t-60 -16l-251 345l-250 -345q-42 0 -60 15q-16 16 -16 36v16l308 413q20 12 37 0z"/>
            <glyph glyph-name="underscore" unicode="_"
                   d="M800 -200h-800v100h800v-100z"/>
            <glyph glyph-name="grave" unicode="`" horiz-adv-x="422"
                   d="M159 1560l168 -184q18 -19 15 -39.5t-17 -33t-34 -13.5t-38 18l-168 184q-18 19 -15 39t17 33t34 14t38 -18z"/>
            <glyph glyph-name="a" unicode="a" horiz-adv-x="920"
                   d="M589 200v700h-300q-42 0 -71 -29t-29 -71v-600q0 -42 29 -71t71 -29h200q42 0 71 29t29 71zM757 96q36 -12 36 -47q0 -22 -14 -37q-12 -15 -34 -15l-18 3q-22 6 -48 28q-9 5 -40 39q-59 -67 -150 -67h-200q-84 0 -142 58t-58 142v600q0 75 57 137.5t143 62.5h350
q50 0 50 -50v-750q0 -30 18 -63q15 -23 50 -41z"/>
            <glyph glyph-name="b" unicode="b"
                   d="M200 900v-800h299q42 0 71.5 29.5t29.5 70.5v600q0 42 -29 71t-72 29h-299zM200 1000h299q84 0 142.5 -57.5t58.5 -142.5v-600q0 -82 -57.5 -141t-143.5 -59h-349q-50 0 -50 50v1300q0 16 15 33t35 17q18 0 34 -13t16 -37v-350z"/>
            <glyph glyph-name="c" unicode="c"
                   d="M650 0h-350q-84 0 -142 58t-58 142v600q0 75 57 137.5t143 62.5h350q18 0 34 -16t16 -34t-13 -34t-37 -16h-350q-42 0 -71 -29t-29 -71v-600q0 -42 29 -71t71 -29h350q18 0 34 -16t16 -34t-13 -34t-37 -16z"/>
            <glyph glyph-name="d" unicode="d"
                   d="M600 900h-299q-42 0 -71.5 -29.5t-29.5 -70.5v-600q0 -42 29 -71t72 -29h299v800zM600 1000v350q0 16 15 33t35 17q18 0 34 -13t16 -37v-1300q0 -50 -50 -50h-349q-83 0 -142 59t-59 141v600q0 84 58 142t143 58h299z"/>
            <glyph glyph-name="e" unicode="e"
                   d="M200 549h400v250q0 42 -29 71t-71 29h-201q-41 0 -70 -29t-29 -71v-250zM200 450v-250q0 -42 29 -71t70 -29h350q18 0 34 -16t16 -34t-13 -34t-37 -16h-350q-83 0 -141 58t-58 142v599q0 75 57 137.5t142 62.5h201q84 0 142 -58t58 -142v-299q0 -50 -51 -50h-449z"/>
            <glyph glyph-name="f" unicode="f" horiz-adv-x="600"
                   d="M298 1000h151q18 0 34 -16t16 -34t-13 -34t-37 -16h-151v-850q0 -24 -14 -38q-14 -12 -36 -12q-9 0 -35 12q-15 12 -15 38v850h-48q-23 0 -37 14q-13 16 -13 36q0 11 12.5 30.5t37.5 19.5h48v201q0 81 59 140t142 59h50q18 0 34 -16t16 -34t-13 -34t-37 -16h-50
q-41 0 -71 -29t-30 -70v-201z"/>
            <glyph glyph-name="g" unicode="g"
                   d="M600 100v801h-299q-41 0 -71 -29t-30 -70v-601q0 -42 30.5 -71.5t70.5 -29.5h299zM600 0h-299q-83 0 -142 59t-59 142v601q0 81 58.5 140t142.5 59h349q50 0 50 -50v-1150q0 -82 -57.5 -141t-141.5 -59h-351q-13 0 -37 15q-13 16 -13 35q0 9 12 35q12 15 38 15h351
q41 0 70 29t29 71v199z"/>
            <glyph glyph-name="h" unicode="h"
                   d="M200 1000h299q84 0 142.5 -57.5t58.5 -142.5v-750q0 -24 -14 -38q-14 -12 -36 -12q-9 0 -35 12q-15 12 -15 38v750q0 42 -29 71t-72 29h-299v-850q0 -24 -14 -38q-14 -12 -36 -12q-9 0 -35 12q-15 12 -15 38v1300q0 16 15 33t35 17q18 0 34 -13t16 -37v-350z"/>
            <glyph glyph-name="i" unicode="i" horiz-adv-x="300"
                   d="M150 1400q15 0 32.5 -14.5t17.5 -35.5q0 -18 -12.5 -33.5t-37.5 -15.5q-24 0 -36.5 14t-12.5 35q0 11 12.5 30.5t36.5 19.5zM200 951v-901q0 -16 -15 -37q-16 -13 -34 -13q-9 0 -35 12q-15 12 -15 38v901q0 13 15 31t35 18q18 0 33.5 -12.5t15.5 -36.5z"/>
            <glyph glyph-name="j" unicode="j" horiz-adv-x="392"
                   d="M242 1300q-25 0 -39 14q-13 16 -13 37t12 36t40 15q21 0 37 -16t16 -35q0 -22 -14 -36.5t-39 -14.5zM292 -243q0 -51 -13 -77.5t-46 -67.5q-59 -60 -144 -60h-52q-15 0 -32.5 14.5t-17.5 35.5q0 18 13 34t37 16h52q42 0 72.5 31t30.5 74v1183q0 16 15 33t35 17
q18 0 34 -13t16 -37v-1183z"/>
            <glyph glyph-name="k" unicode="k"
                   d="M379 573l314 -496l8 -28q0 -18 -16 -35q-16 -14 -36 -14q-13 0 -22 5t-18 18l-299 473l-109 -121v-325q0 -24 -14 -38q-14 -12 -36 -12q-9 0 -35 12q-15 12 -15 38v1300q0 16 15 33t35 17q18 0 34 -13t16 -37v-825l414 459q17 18 37 18q18 0 34.5 -15.5t16.5 -36.5
q0 -19 -14 -34z"/>
            <glyph glyph-name="l" unicode="l" horiz-adv-x="500"
                   d="M351 0h-51q-81 0 -140.5 60.5t-59.5 139.5v1150q0 16 15 33t35 17q18 0 34 -13t16 -37v-1150q0 -42 29 -71t71 -29h51q18 0 34 -16t16 -34t-13 -34t-37 -16z"/>
            <glyph glyph-name="m" unicode="m" horiz-adv-x="1100"
                   d="M500 900h-300v-850q0 -24 -14 -38q-14 -12 -36 -12q-9 0 -35 12q-15 12 -15 38v900q0 50 50 50h650q83 0 141.5 -57.5t58.5 -142.5v-750q0 -24 -14 -38q-14 -12 -36 -12q-9 0 -35 12q-15 12 -15 38v750q0 42 -29 71t-71 29h-200v-850q0 -24 -14 -38q-14 -12 -36 -12
q-9 0 -35 12q-15 12 -15 38v850z"/>
            <glyph glyph-name="n" unicode="n"
                   d="M700 50q0 -24 -14 -38q-14 -12 -36 -12q-9 0 -35 12q-15 12 -15 38v750q0 42 -29 71t-71 29h-300v-850q0 -24 -14 -38q-14 -12 -36 -12q-9 0 -35 12q-15 12 -15 38v900q0 50 50 50h350q83 0 141.5 -57.5t58.5 -142.5v-750z"/>
            <glyph glyph-name="o" unicode="o"
                   d="M700 200q0 -84 -58 -142t-142 -58h-200q-84 0 -142 58t-58 142v600q0 75 57 137.5t143 62.5h200q83 0 141.5 -57.5t58.5 -142.5v-600zM600 200v600q0 42 -29 71t-71 29h-200q-42 0 -71 -29t-29 -71v-600q0 -42 29 -71t71 -29h200q42 0 71 29t29 71z"/>
            <glyph glyph-name="p" unicode="p"
                   d="M200 99h301q39 0 69 30t30 71v601q0 41 -29 70t-70 29h-301v-801zM200 -1v-349q0 -18 -16 -34t-34 -16t-34 13t-16 37v1300q0 50 50 50h351q81 0 140 -57.5t59 -141.5v-601q0 -83 -57.5 -142t-141.5 -59h-301z"/>
            <glyph glyph-name="q" unicode="q"
                   d="M600 99v801h-299q-41 0 -71 -29t-30 -70v-601q0 -42 30.5 -71.5t70.5 -29.5h299zM600 -1h-299q-83 0 -142 59t-59 142v601q0 81 58.5 140t142.5 59h349q50 0 50 -50v-1300q0 -18 -16 -34t-34 -16t-34 13t-16 37v349z"/>
            <glyph glyph-name="r" unicode="r" horiz-adv-x="700"
                   d="M595 862l3 -18q0 -18 -16 -35q-16 -13 -36 -13q-25 0 -46 33q-9 32 -38.5 51.5t-61.5 19.5h-200v-850q0 -24 -14 -38q-14 -12 -36 -12q-9 0 -35 12q-15 12 -15 38v900q0 50 50 50h250q67 0 120.5 -38t74.5 -100z"/>
            <glyph glyph-name="s" unicode="s"
                   d="M698 880l8 -15l3 -17q0 -18 -16 -35q-16 -14 -35 -14l-23 3q-3 2 -5 4q-5 5 -12 14q-27 36 -71 58l-45 16q-23 6 -47 6h-137q-52 0 -84 -34.5t-32 -81.5q0 -51 43 -88l385 -314q39 -30 58 -76q20 -43 20 -89q0 -88 -58 -150q-62 -67 -157 -67h-137q-75 0 -135 29.5
t-108 90.5l-8 15l-3 17q0 11 15 30t36 19q13 0 22 -5q9 -3 18 -16q19 -27 70 -59q42 -21 93 -21h137q51 0 83 35t32 81q0 43 -42 88l-385 314q-39 33 -60 76l-14 49q-5 23 -5 40q0 88 58 150q62 67 158 67h137q73 0 136 -30.5t107 -89.5z"/>
            <glyph glyph-name="t" unicode="t" horiz-adv-x="600"
                   d="M300 1000h151q18 0 34 -16t16 -34t-13 -34t-37 -16h-151v-850q0 -24 -14 -38q-14 -12 -36 -12q-9 0 -35 12q-15 12 -15 38v850h-48q-23 0 -37 14q-13 16 -13 36q0 11 12.5 30.5t37.5 19.5h48v350q0 16 15 33t35 17q18 0 34 -13t16 -37v-350z"/>
            <glyph glyph-name="u" unicode="u"
                   d="M700 50q0 -50 -50 -50h-350q-84 0 -142 58t-58 142v750q0 16 15 33t35 17q18 0 34 -13t16 -37v-750q0 -42 29 -71t71 -29h300v850q0 16 15 33t35 17q18 0 34 -13t16 -37v-900z"/>
            <glyph glyph-name="v" unicode="v"
                   d="M698 937l-250 -895q-12 -44 -48 -44q-15 0 -27 9t-21 35l-250 895l-2 16q0 12 15 29.5t36 17.5q12 0 23 -8q13 -6 24 -29l202 -722l202 722q3 13 15 25q12 9 32 12q22 0 36.5 -12.5t14.5 -35.5q0 -13 -2 -15z"/>
            <glyph glyph-name="w" unicode="w" horiz-adv-x="1200"
                   d="M1098 939l-200 -892q-3 -21 -16.5 -34t-31.5 -13q-33 0 -48 41l-203 568l-203 -568l-21 -31l-28 -10q-5 0 -29 12q-12 12 -18 35l-200 892l-1 13q0 18 15 33t37 15q13 0 25 -8q12 -6 22 -31l162 -723l192 537q15 41 47 41q24 0 47 -41l192 -537l162 723q9 39 47 39
q22 0 36 -14q16 -13 16 -35z"/>
            <glyph glyph-name="x" unicode="x"
                   d="M457 501l237 -427q7 -11 7 -26q0 -18 -16 -34q-16 -14 -37 -14q-28 0 -42 26l-206 371l-206 -371l-18 -19l-25 -7q-22 0 -37 14t-15 35q0 12 7 25l237 426l-237 428l-7 26q0 18 15 33t38 15q28 0 42 -26l206 -373l206 371l18 19l25 7q22 0 37 -14t15 -35q0 -12 -7 -25z
"/>
            <glyph glyph-name="y" unicode="y"
                   d="M352 40l-252 896l-2 16q0 18 15 33t37 15q26 0 46 -36l206 -735l198 734q3 13 15 25q12 9 32 12q20 0 35.5 -13.5t15.5 -35.5l-2 -14l-320 -1189q-15 -63 -70 -105.5t-123 -42.5h-35q-13 0 -37 15q-13 16 -13 35q0 9 12 35q12 15 38 15h35q35 0 61 20q27 18 36 54z"/>
            <glyph glyph-name="z" unicode="z"
                   d="M694 926l-459 -826h415q18 0 34 -16t16 -34t-13 -34t-37 -16h-500q-54 0 -54 40q0 17 10 34l459 826h-415q-23 0 -37 14q-13 16 -13 36q0 11 12.5 30.5t37.5 19.5h500q54 0 54 -40q0 -17 -10 -34z"/>
            <glyph glyph-name="braceleft" unicode="{" horiz-adv-x="460"
                   d="M152 650q-23 0 -37 14q-13 16 -13 36q0 11 12.5 30.5t37.5 19.5q11 0 41 15q19 16 19 35v550q0 62 44 106t106 44q18 0 34 -16t16 -34t-13 -34t-37 -16q-17 0 -33.5 -16t-16.5 -34v-550q0 -40 -20 -64l-38 -36l38 -35q20 -23 20 -65v-549q0 -10 15 -34q16 -16 35 -16
q18 0 34 -15t16 -35q0 -18 -13 -34t-37 -16q-61 0 -105.5 42.5t-44.5 106.5v550q0 18 -19.5 34t-40.5 16z"/>
            <glyph glyph-name="bar" unicode="|" horiz-adv-x="295"
                   d="M200 50q0 -24 -14 -38q-14 -12 -36 -12q-9 0 -35 12q-15 12 -15 38v1300q0 16 15 33t35 17q18 0 34 -13t16 -37v-1300z"/>
            <glyph glyph-name="braceright" unicode="}" horiz-adv-x="460"
                   d="M308 650q-21 0 -40.5 -16t-19.5 -34v-550q0 -54 -44.5 -101.5t-105.5 -47.5q-13 0 -37 15q-13 16 -13 35q0 9 12 35q12 15 38 15q21 0 35.5 14.5t14.5 35.5v549q0 42 20 65l38 35l-38 35q-20 23 -20 65v550q0 17 -15.5 33.5t-34.5 16.5q-23 0 -37 14q-13 16 -13 36
q0 11 12.5 30.5t37.5 19.5q62 0 106 -44t44 -106v-550q0 -9 18 -35q18 -15 42 -15q18 0 34 -16t16 -34t-13 -34t-37 -16z"/>
            <glyph glyph-name="asciitilde" unicode="~" horiz-adv-x="900"
                   d="M781 460q-80 -60 -180 -60q-99 0 -180 60q-52 40 -120 40q-67 0 -120 -40q-14 -11 -31 -11q-9 0 -35 15q-15 15 -15 37q0 24 21 39q81 60 180 60t180 -60q55 -41 120 -41q67 0 120 41q14 11 31 11q18 0 34 -16t16 -36q0 -24 -21 -39z"/>
            <glyph glyph-name="Adieresis " unicode="&#xc4;" horiz-adv-x="985"
                   d="M294 401l-98 -363q-3 -17 -16.5 -27t-30.5 -10q-20 0 -35.5 13.5t-15.5 35.5l2 14l350 1290q12 45 48 45t48 -45l350 -1290l2 -15q0 -18 -16 -35q-16 -13 -35 -13q-16 0 -28.5 8.5t-18.5 28.5l-98 363h-4h-400h-4zM675 501l-177 659l-177 -659h354zM338 1665
q25 0 35.5 -11t14.5 -40q0 -18 -12.5 -33.5t-37.5 -15.5q-24 0 -36.5 14t-12.5 35q2 22 14.5 36.5t34.5 14.5v0zM657 1666q25 0 35.5 -11t14.5 -40q0 -18 -12.5 -33.5t-37.5 -15.5q-24 0 -36.5 14t-12.5 35q2 22 14.5 36.5t34.5 14.5v0zM338 1665q25 0 35.5 -11t14.5 -40
q0 -18 -12.5 -33.5t-37.5 -15.5q-24 0 -36.5 14t-12.5 35q2 22 14.5 36.5t34.5 14.5v0zM657 1666q25 0 35.5 -11t14.5 -40q0 -18 -12.5 -33.5t-37.5 -15.5q-24 0 -36.5 14t-12.5 35q2 22 14.5 36.5t34.5 14.5v0z"/>
            <glyph glyph-name="Aring " unicode="&#xc5;" horiz-adv-x="1000"
                   d="M294 401l-98 -363q-3 -17 -16.5 -27t-30.5 -10q-20 0 -35.5 13.5t-15.5 35.5l2 14l350 1290q12 45 48 45t48 -45l350 -1290l2 -15q0 -18 -16 -35q-16 -13 -35 -13q-16 0 -28.5 8.5t-18.5 28.5l-98 363h-4h-400h-4zM675 501l-177 659l-177 -659h354zM325 1628
q0 36 13.5 67t36.5 54t54.5 36.5t67.5 13.5t67.5 -13.5t55 -36.5t37 -54t13.5 -67t-13.5 -67t-37 -54t-55 -36t-67.5 -13t-67.5 13t-54.5 36t-36.5 54t-13.5 67zM425 1632q0 -31 22.5 -52t54.5 -21t55 21t23 52t-23 53t-55 22t-54.5 -22t-22.5 -53z"/>
            <glyph glyph-name="dagger" unicode="&#x2020;" horiz-adv-x="1134"
                   d="M131 1032q-26 0 -39 15.5t-13 34.5t13 34.5t39 15.5h359v216q0 26 15.5 39t34.5 13t34.5 -13t15.5 -39v-216h366q26 0 39 -15.5t13 -34.5t-13 -34.5t-39 -15.5h-366v-1254q0 -26 -15.5 -39t-34.5 -13t-34.5 13t-15.5 39v1254h-359v0z"/>
            <glyph glyph-name="degree" unicode="&#xb0;"
                   d="M100 1100q0 62 23.5 117t64 95.5t95.5 64t117 23.5t117 -23.5t95.5 -64t64 -95.5t23.5 -117t-23.5 -117t-64 -95.5t-95.5 -64t-117 -23.5t-117 23.5t-95.5 64t-64 95.5t-23.5 117zM200 1100q0 -41 16 -77.5t43 -63.5t63.5 -43t77.5 -16t77.5 16t63.5 43t43 63.5t16 77.5
t-16 77.5t-43 63.5t-63.5 43t-77.5 16t-77.5 -16t-63.5 -43t-43 -63.5t-16 -77.5z"/>
            <glyph glyph-name="cent" unicode="&#xa2;" horiz-adv-x="1800"
                   d="M996 1161l-350 -922q-12 -32 -48 -32t-48 32l-350 922l-2 10q0 13 15 24t36 11q12 0 23 -6q13 -4 24 -21l302 -794l302 794q3 10 15 18q12 7 32 9q20 0 35.5 -10t15.5 -25zM1273 200h-102v1006h102v-1006zM1639 117h-1511v-111h1511v111zM1625 1406h-1505v-111h1505v111z
M1561 200h-102v1006h102v-1006z"/>
            <glyph glyph-name="sterling" unicode="&#xa3;" horiz-adv-x="2134"
                   d="M996 1161l-350 -922q-12 -32 -48 -32t-48 32l-350 922l-2 10q0 13 15 24t36 11q12 0 23 -6q13 -4 24 -21l302 -794l302 794q3 10 15 18q12 7 32 9q20 0 35.5 -10t15.5 -25zM1273 200h-102v1006h102v-1006zM1923 117h-1795v-111h1795v111zM1916 1406h-1796v-111h1796v111z
M1561 200h-102v1006h102v-1006zM1842 200h-102v1006h102v-1006z"/>
            <glyph glyph-name="section" unicode="&#xa7;"
                   d="M475 382q59 33 93 94.5t34 124.5q0 89 -58 160l-215 256q-58 -34 -93 -92t-35 -126q0 -46 13.5 -84t45.5 -76zM263 1095l-64 77q-24 27 -36 60t-12 69q0 80 56.5 139.5t143.5 59.5h101q64 0 114.5 -36.5t74.5 -100.5l3 -19q0 -18 -16 -34q-16 -13 -35 -13
q-14 0 -25.5 4.5t-21 31.5t-36.5 48q-33 19 -58 19h-101q-32 0 -71 -30q-12 -15 -21 -33l-7 -37v-23l5 -16l18 -25l345 -411q38 -45 60 -105l16 -59q6 -30 6 -60q0 -88 -43 -167.5t-119 -129.5l65 -77q47 -58 47 -128t-56.5 -134.5t-143.5 -64.5h-101q-62 0 -110.5 34.5
t-78.5 101.5l-3 18q0 11 15 30t38 19q27 0 41 -30q12 -29 40 -54q36 -19 58 -19h101q42 0 71 29q14 15 21 34l4 18l3 18q0 25 -5 33l-18 31l-344 412q-36 42 -59.5 106t-23.5 119q0 87 40 163.5t122 131.5z"/>
            <glyph glyph-name="bullet" unicode="&#x2022;" horiz-adv-x="655"
                   d="M133 659q0 39 16 72.5t43 59t63.5 40t77.5 14.5t77.5 -14.5t63.5 -40t43 -59t16 -72.5t-16 -72.5t-43 -58.5t-63.5 -39.5t-77.5 -14.5t-77.5 14.5t-63.5 39.5t-43 58.5t-16 72.5z"/>
            <glyph glyph-name="paragraph" unicode="&#xb6;" horiz-adv-x="1100"
                   d="M457 588q-154 15 -255.5 131t-101.5 274q0 177 99 288q108 120 308 120h447q18 0 34 -16t16 -34t-13 -34t-37 -16h-89l1 -1651q0 -18 -16 -34t-34 -16t-34 13t-16 37v1651h-209v-1651q0 -18 -16 -34t-34 -16t-34 13t-16 37v938z"/>
            <glyph glyph-name="uni00DF" unicode="&#xdf;" horiz-adv-x="900"
                   d="M100 1350q0 50 50 50h300q123 0 212 -88q44 -42 66 -96l15 -53l5 -32l2 -31v-100q0 -73 -27 -129t-85 -105q71 -36 117 -111t46 -155v-200q0 -120 -93.5 -210t-234.5 -91q-35 -2 -50 15.5t-13 38t19 36t44 10.5q108 1 168 58t60 143v200q0 78 -61 138.5t-140 60.5l-77 5
q-12 4 -18.5 15.5t-6.5 23.5q0 13 6 24t19 15l63 15q43 8 103.5 64t60.5 139v100q0 83 -57.5 141.5t-142.5 58.5h-250q0 -318 0.5 -632t0.5 -632q-9 -23 -25 -30.5t-31.5 -5t-28 12.5t-14.5 23z"/>
            <glyph glyph-name="registered" unicode="&#xae;" horiz-adv-x="1660"
                   d="M231 700q0 -124 47 -233.5t128.5 -191t191 -128.5t233.5 -47t233.5 47t191 128.5t128.5 191t47 233.5t-47 233.5t-128.5 191t-191 128.5t-233.5 47t-233.5 -47t-191 -128.5t-128.5 -191t-47 -233.5zM131 700q0 96 25 185.5t70.5 167.5t109.5 142t142 109.5t167.5 70.5
t185.5 25t185.5 -25t167.5 -70.5t142 -109.5t109.5 -142t70.5 -167.5t25 -185.5q0 -97 -25 -186t-70.5 -167t-109.5 -142t-142 -109.5t-167.5 -70.5t-185.5 -25q-97 0 -186 25t-167 70.5t-142 109.5t-109.5 142t-70.5 167.5t-25 185.5zM657 721h235q64 0 111 34.5t47 86.5
v123q0 50 -46.5 86.5t-111.5 36.5h-235v-367zM882 659l241 -322q6 -7 6 -16q0 -11 -13 -21q-12 -9 -28 -9q-10 0 -18 3q-8 4 -14 12l-264 353h-135v-337q0 -15 -11 -24q-11 -7 -29 -7q-7 0 -27 7q-12 8 -12 24v796q0 31 39 31h275q97 0 167 -53.5t70 -130.5v-123
q0 -75 -69.5 -129t-167.5 -54h-10z"/>
            <glyph glyph-name="copyright" unicode="&#xa9;" horiz-adv-x="1660"
                   d="M231 700q0 -124 47 -233.5t128.5 -191t191 -128.5t233.5 -47t233.5 47t191 128.5t128.5 191t47 233.5t-47 233.5t-128.5 191t-191 128.5t-233.5 47t-233.5 -47t-191 -128.5t-128.5 -191t-47 -233.5zM131 700q0 96 25 185.5t70.5 167.5t109.5 142t142 109.5t167.5 70.5
t185.5 25t185.5 -25t167.5 -70.5t142 -109.5t109.5 -142t70.5 -167.5t25 -185.5q0 -97 -25 -186t-70.5 -167t-109.5 -142t-142 -109.5t-167.5 -70.5t-185.5 -25q-97 0 -186 25t-167 70.5t-142 109.5t-109.5 142t-70.5 167.5t-25 185.5zM1063 278h-346q-83 0 -140.5 48.5
t-57.5 119.5v503q0 63 56.5 115.5t141.5 52.5h346q18 0 34 -13.5t16 -28.5t-13 -28.5t-37 -13.5h-346q-42 0 -70.5 -24.5t-28.5 -59.5v-503q0 -36 28.5 -60t70.5 -24h346q18 0 34 -13.5t16 -28.5t-13 -28.5t-37 -13.5z"/>
            <glyph glyph-name="trademark" unicode="&#x2122;" horiz-adv-x="1405"
                   d="M1311 796q0 -24 -14 -38q-14 -12 -36 -12q-9 0 -35 12q-15 12 -15 38l-1 407l-157 -170q-19 -31 -44 -31q-24 0 -42 31l-159 176v-414q0 -24 -14 -38q-14 -12 -36 -12q-9 0 -35 12q-15 12 -15 38v556q0 27 12.5 42.5t32.5 15.5q14 0 25 -7q4 -1 23 -25l209 -223l205 224
q20 32 48 32q18 0 31.5 -16t13.5 -42zM344 1301l-193 -1q-23 0 -37 14q-13 16 -13 36q0 11 12.5 30.5t37.5 19.5l483 -3q18 0 34 -16t16 -34t-13 -34t-37 -16l-190 4v-507q0 -24 -14 -38q-14 -12 -36 -12q-9 0 -35 12q-15 12 -15 38v507z"/>
            <glyph glyph-name="acute" unicode="&#xb4;" horiz-adv-x="449"
                   d="M95 1403l184 168q19 18 39 15t33 -17t14 -34t-18 -38l-184 -168q-19 -18 -39.5 -15t-33 17t-13.5 34t18 38z"/>
            <glyph glyph-name="plusminus" unicode="&#xb1;"
                   d="M647 139h-500q-23 0 -37 14q-13 16 -13 36q0 11 12.5 30.5t37.5 19.5h500q18 0 34 -16t16 -34t-13 -34t-37 -16zM447 739h200q18 0 34 -16t16 -34t-13 -34t-37 -16h-200v-200q0 -24 -14 -38q-14 -12 -36 -12q-9 0 -35 12q-15 12 -15 38v200h-200q-23 0 -37 14
q-13 16 -13 36q0 11 12.5 30.5t37.5 19.5h200v200q0 16 15 33t35 17q18 0 34 -13t16 -37v-200z"/>
            <glyph glyph-name="yen" unicode="&#xa5;" horiz-adv-x="1322"
                   d="M1104 117h-976v-111h976v111zM1125 1406h-1005v-111h1005v111zM616 786l313 421q14 20 44 20q22 0 37.5 -10t15.5 -26q0 -9 -7 -19l-345 -465l345 -465q7 -8 7 -19q0 -14 -16 -26q-17 -11 -38 -11q-28 0 -43 20l-313 422l-314 -422q-14 -20 -44 -20q-22 0 -37.5 10.5
t-15.5 26.5q0 9 7 19l345 465l-345 465l-7 19q0 8 15.5 22t38.5 14q28 0 43 -20z"/>
            <glyph glyph-name="pi" unicode="&#x3c0;" horiz-adv-x="1000"
                   d="M650 900h-300v-750q0 -62 -44 -106t-106 -44q-22 0 -36 14t-14 36t14 36t36 14t36 14t14 36v750h-100q-22 0 -36 14t-14 36t14 36t36 14h572q28 0 52 9.5t39 24.5q15 16 37 16t36 -14t14 -36q0 -20 -16 -36.5t-60 -42.5q-40 -21 -74 -21v-750q0 -22 14 -36t36 -14t36 -14
t14 -36t-14 -36t-36 -14q-62 0 -106 44t-44 106v750z"/>
            <glyph glyph-name="ordfeminine" unicode="&#xaa;" horiz-adv-x="752"
                   d="M509.049 763.924v559.735h-239.923q-33.5889 0 -56.7822 -23.1885q-23.1924 -23.1895 -23.1924 -56.7734v-479.773q0 -33.584 23.1924 -56.7725q23.1934 -23.1895 56.7822 -23.1895h159.948q33.5898 0 56.7822 23.1895q23.1924 23.1885 23.1924 56.7725zM643.406 680.764
q28.79 -9.5957 28.79 -37.582q0 -17.5918 -11.1963 -29.5859q-9.59668 -11.9941 -27.1914 -11.9941l-14.3945 2.39844q-17.5947 4.79785 -38.3877 22.3896q-7.19824 3.99805 -31.9902 31.1846q-47.1846 -53.5742 -119.962 -53.5742h-159.948q-67.1787 0 -113.563 46.3779
q-46.3857 46.3779 -46.3857 113.546v479.773q0 59.9717 45.5859 109.948q45.585 49.9756 114.363 49.9756h279.91q39.9873 0 39.9873 -39.9805v-599.717q0 -23.9883 14.3955 -50.376q11.9961 -18.3906 39.9873 -32.7842z"/>
            <glyph glyph-name="ordmasculine " unicode="&#xba;" horiz-adv-x="633"
                   d="M511 1052q0 -35 -12 -66t-34 -55t-51.5 -39t-64.5 -18q-16 -2 -31 -1t-31 1q-42 0 -79 19.5t-63 51.5q-18 23 -26 50t-8 55v400v12q4 35 19 64.5t38.5 51.5t54.5 34t66 12q33 0 61 -2.5t52 -11t44.5 -25.5t39.5 -47q12 -19 18.5 -41.5t6.5 -44.5v-400v0zM411 1450
q0 2 -0.5 6t-1 7t-0.5 4q0 2 1 0q1 -3 2.5 -8.5t-0.5 -3.5q-8 16 -12 30t-21 25q-2 1 -10.5 4.5t-15.5 6.5t-9 4t10 -2q2 -1 0 -1q-1 0 -4 0.5t-7 1t-6 0.5h-50q-12 0 -24.5 -3.5t-23 -10t-18 -16t-7.5 -21.5q-3 -71 -3 -127q0 -55 1 -105t2 -100.5t0 -112.5
q11 -25 29 -39.5t46 -14.5q21 0 43 1.5t39.5 8.5t28.5 22.5t11 43.5v400z"/>
            <glyph glyph-name="questiondown" unicode="&#xbf;" horiz-adv-x="850"
                   d="M95 350q0 102 64 183t174 114q19 6 46 33l12 28l4 28v314q0 24 14 38q14 12 36 12q9 0 35 -12q15 -12 15 -38v-311q0 -65 -37.5 -117.5t-99.5 -71.5q-65 -15 -114 -72.5t-49 -128.5v-49q0 -83 57.5 -141.5t142.5 -58.5h100q46 0 89 20q42 18 72 60q15 21 40 21
q8 0 35 -15q16 -16 16 -36q0 -16 -11 -30q-39 -54 -105 -87t-136 -33h-100q-123 0 -212 88q-44 42 -66 96l-15 53l-5 32l-2 31v50zM445 1400q24 0 36.5 -14.5t12.5 -35.5q0 -11 -12.5 -30.5t-36.5 -19.5q-15 0 -32.5 14.5t-17.5 35.5q0 18 13 34t37 16z"/>
            <glyph glyph-name="exclamdown" unicode="&#xa1;" horiz-adv-x="1606"
                   d="M996 1161l-350 -922q-12 -32 -48 -32t-48 32l-350 922l-2 10q0 13 15 24t36 11q12 0 23 -6q13 -4 24 -21l302 -794l302 794q3 10 15 18q12 7 32 9q20 0 35.5 -10t15.5 -25zM1273 200h-102v1006h102v-1006zM1411 117h-1283v-111h1283v111zM1403 1406h-1283v-111h1283v111z
"/>
            <glyph glyph-name="logicalnot" unicode="&#xac;" horiz-adv-x="805"
                   d="M732 355q0 -37 -36 -37q-37 0 -37 37v202h-549q-12 0 -23 8q-5 5 -14 28q0 9 9 24q4 5 11 9l17 4h586q36 0 36 -36v-239z"/>
            <glyph glyph-name="uni0192" unicode="&#x192;" horiz-adv-x="1537"
                   d="M461 954q-22 0 -33.5 15t-12.5 33t10.5 33t35.5 17h323l95 348q31 120 73.5 197.5t91 122t101.5 61t107 13.5t106.5 -20.5t99.5 -40.5q16 -11 19.5 -28.5t-3 -32t-21.5 -21.5t-36 4q-84 45 -152.5 49t-122.5 -29.5t-94 -103t-68 -171.5l-94 -348h314q23 1 34.5 -14
t11.5 -34t-11.5 -34.5t-34.5 -15.5h-340l-256 -954q-31 -119 -71.5 -197t-85.5 -123.5t-93 -62t-96 -13t-93.5 22.5t-84.5 46q-17 10 -19.5 27.5t5.5 31t25.5 19t40.5 -8.5q59 -44 113.5 -49t102 28t86 103t65.5 176l259 954h-297v0z"/>
            <glyph glyph-name="guillemotleft" unicode="&#xab;" horiz-adv-x="850"
                   d="M746 173q11 -14 11 -31q0 -18 -16 -34t-36 -16q-24 0 -39 21l-267 357q-10 13 -10 30q0 16 10 30l267 356q15 21 39 21q18 0 35 -15.5t17 -35.5q0 -16 -11 -30l-245 -326zM466 173q11 -14 11 -31q0 -18 -16 -34t-36 -16q-24 0 -39 21l-267 357q-10 13 -10 30q0 16 10 30
l267 356q15 21 39 21q18 0 35 -15.5t17 -35.5q0 -16 -11 -30l-245 -326z"/>
            <glyph glyph-name="guillemotright" unicode="&#xbb;" horiz-adv-x="850"
                   d="M737 470l-267 -357q-15 -21 -39 -21q-18 0 -36 15q-16 16 -16 36q0 16 11 30l245 327l-245 326q-11 14 -11 31q0 11 15.5 30.5t36.5 19.5q24 0 39 -21l267 -356l11 -30q0 -16 -11 -30zM457 470l-267 -357q-15 -21 -39 -21q-18 0 -36 15q-16 16 -16 36q0 16 11 30l245 327
l-245 326q-11 14 -11 31q0 11 15.5 30.5t36.5 19.5q24 0 39 -21l267 -356l11 -30q0 -16 -11 -30z"/>
            <glyph glyph-name="ellipsis" unicode="&#x2026;" horiz-adv-x="665"
                   d="M511 101q18 0 34 -16t16 -34t-13 -34t-37 -16q-23 0 -37 14q-13 16 -13 36q0 11 12.5 30.5t37.5 19.5zM335 100q18 0 34 -16t16 -34t-13 -34t-37 -16q-23 0 -37 14q-13 16 -13 36q0 11 12.5 30.5t37.5 19.5zM161 100q18 0 34 -16t16 -34t-13 -34t-37 -16q-23 0 -37 14
q-13 16 -13 36q0 11 12.5 30.5t37.5 19.5z"/>
            <glyph glyph-name="uni00A0" unicode="&#xa0;" horiz-adv-x="1606"
                   d="M1299 1161l-350 -922q-12 -32 -48 -32t-48 32l-350 922l-2 11q0 13 15 23.5t36 10.5q12 0 23 -6q13 -4 24 -20l302 -795l302 795q3 9 15 18q12 6 32 8q20 0 35.5 -9.5t15.5 -25.5zM1411 117h-1017v-111h1017v111zM1403 1406h-1009v-111h1009v111z"/>
            <glyph glyph-name="Atilde " unicode="&#xc3;" horiz-adv-x="1000"
                   d="M294 401l-98 -363q-3 -17 -16.5 -27t-30.5 -10q-20 0 -35.5 13.5t-15.5 35.5l2 14l350 1290q12 45 48 45t48 -45l350 -1290l2 -15q0 -18 -16 -35q-16 -13 -35 -13q-16 0 -28.5 8.5t-18.5 28.5l-98 363h-4h-400h-4zM675 501l-177 659l-177 -659h354zM750 1614
q-45 -53 -102.5 -70t-123.5 12q-17 7 -32.5 18t-31 21.5t-32.5 18t-36 8.5q-26 2 -47.5 -11t-36.5 -35q-5 -8 -9.5 -15t-9.5 -12t-11.5 -8t-16.5 -3q-7 0 -13.5 4.5t-11.5 8.5q-11 9 -14 19.5t-0.5 22t8.5 22t12 19.5q45 61 108 77t132 -22q15 -8 29 -17.5t28 -18.5
t29.5 -15t33.5 -7q29 -1 54 17q8 6 14.5 15.5t12.5 18.5t12.5 17t14.5 12q10 4 20 2.5t18 -7.5t14 -15t7 -18q2 -16 -4 -30.5t-14 -27.5z"/>
            <glyph glyph-name="OE" unicode="&#x152;" horiz-adv-x="1445"
                   d="M857 699v-599h450q18 0 34 -16t16 -34t-13 -34t-37 -16h-500q-50 0 -50 50v93q-19 -29 -44 -55q-88 -88 -213 -88h-100q-115 0 -207.5 87t-92.5 213v800q0 120 87 210t213 90h100q123 0 212 -88q26 -26 45 -55v93q0 50 50 50h500q18 0 34 -16t16 -34t-13 -34t-37 -16
h-450v-501h250q18 0 34 -16t16 -34t-13 -34t-37 -16h-250zM701 300v800q0 82 -59 141t-142 59h-100q-83 0 -141.5 -58.5t-58.5 -141.5v-800q0 -81 60.5 -140.5t139.5 -59.5h100q81 0 141 57t60 143z"/>
            <glyph glyph-name="oe" unicode="&#x153;" horiz-adv-x="1294"
                   d="M701 451v-250q0 -42 29 -71t70 -29h350q18 0 34 -16t16 -34t-13 -34t-37 -16h-350q-83 0 -141 58q-11 10 -19 22q-10 -13 -21 -24q-58 -58 -142 -58h-200q-84 0 -142 58t-58 142v600q0 75 57 137.5t143 62.5h200q83 0 141 -58q13 -12 22 -25q8 11 18 21q57 63 142 63h201
q84 0 142 -58t58 -142v-299q0 -50 -51 -50h-449zM577 199v600q0 42 -29 71t-71 29h-200q-42 0 -71 -29t-29 -71v-600q0 -42 29 -71t71 -29h200q42 0 71 29t29 71zM701 550h400v250q0 42 -29 71t-71 29h-201q-41 0 -70 -29t-29 -71v-250z"/>
            <glyph glyph-name="endash" unicode="&#x2013;" horiz-adv-x="926"
                   d="M817 636l-715 6q-23 0 -37 14q-13 16 -13 36q0 11 12.5 30.5t37.5 19.5l715 -6q18 0 34 -16t16 -34t-13 -34t-37 -16z"/>
            <glyph glyph-name="emdash" unicode="&#x2014;" horiz-adv-x="1422"
                   d="M1244 638l-1068 1q-23 0 -37 14q-13 16 -13 36q0 11 12.5 30.5t37.5 19.5l1068 -1q18 0 34 -16t16 -34t-13 -34t-37 -16z"/>
            <glyph glyph-name="quotedblleft" unicode="&#x201c;" horiz-adv-x="591"
                   d="M502 1128l2 -15q0 -21 -16 -34.5t-36 -13.5q-17 0 -29.5 9.5t-18.5 29.5l-50 198l-2 15q0 18 15 33t37 15q15 0 27 -9t21 -30zM234 1128l2 -15q0 -21 -16 -34.5t-36 -13.5q-17 0 -29.5 9.5t-18.5 29.5l-50 198l-2 15q0 18 15 33t37 15q15 0 27 -9t21 -30z"/>
            <glyph glyph-name="quotedblright" unicode="&#x201d;" horiz-adv-x="559"
                   d="M160 1102q-9 -21 -21 -30t-27 -9q-22 0 -37 15t-15 33l2 15l50 198q6 20 18.5 29.5t29.5 9.5q20 0 36 -13.5t16 -34.5l-2 -15zM430 1100q-9 -21 -21 -30t-27 -9q-22 0 -37 15t-15 33l2 15l50 198q6 20 18.5 29.5t29.5 9.5q20 0 36 -13.5t16 -34.5l-2 -15z"/>
            <glyph glyph-name="quoteleft" unicode="&#x2018;" horiz-adv-x="367"
                   d="M242 1128l2 -15q0 -21 -16 -34.5t-36 -13.5q-17 0 -29.5 9.5t-18.5 29.5l-50 198l-2 15q0 18 15 33t37 15q15 0 27 -9t21 -30z"/>
            <glyph glyph-name="quoteright" unicode="&#x2019;" horiz-adv-x="319"
                   d="M178 1096q-9 -21 -21 -30t-27 -9q-22 0 -37 15t-15 33l2 15l50 198q6 20 18.5 29.5t29.5 9.5q20 0 36 -13.5t16 -34.5l-2 -15z"/>
            <glyph glyph-name="Ydieresis" unicode="&#x178;" horiz-adv-x="1001"
                   d="M451 687l-344 639l-7 26q0 11 15 30t38 19q27 0 42 -27l306 -568l306 568q14 27 43 27q22 0 37 -14t15 -35q0 -12 -7 -26l-344 -639v-637q0 -24 -14 -38q-14 -12 -36 -12q-9 0 -35 12q-15 12 -15 38v637zM351 1670q25 0 35.5 -11t14.5 -40q0 -18 -12.5 -33.5t-37.5 -15.5
q-24 0 -36.5 14t-12.5 35q2 22 14.5 36.5t34.5 14.5v0zM670 1671q25 0 35.5 -11t14.5 -40q0 -18 -12.5 -33.5t-37.5 -15.5q-24 0 -36.5 14t-12.5 35q2 22 14.5 36.5t34.5 14.5v0zM351 1670q25 0 35.5 -11t14.5 -40q0 -18 -12.5 -33.5t-37.5 -15.5q-24 0 -36.5 14t-12.5 35
q2 22 14.5 36.5t34.5 14.5v0zM670 1671q25 0 35.5 -11t14.5 -40q0 -18 -12.5 -33.5t-37.5 -15.5q-24 0 -36.5 14t-12.5 35q2 22 14.5 36.5t34.5 14.5v0z"/>
            <glyph glyph-name="currency" unicode="&#xa4;" horiz-adv-x="1688"
                   d="M1484 117h-1356v-111h1356v111zM1491 1406h-1371v-111h1371v111zM351 200h-102v1006h102v-1006zM967 785l314 422q14 20 44 20q22 0 37.5 -10.5t15.5 -25.5q0 -9 -7 -20l-345 -464l345 -465q7 -8 7 -20q0 -13 -16 -26q-17 -10 -38 -10q-28 0 -43 20l-314 422l-313 -422
q-14 -20 -44 -20q-22 0 -37.5 10.5t-15.5 25.5q0 9 7 20l345 465l-345 464l-7 20q0 8 15.5 22t38.5 14q28 0 43 -20z"/>
            <glyph glyph-name="guilsinglleft" unicode="&#x2039;"
                   d="M682 237q29 -15 29 -44q0 -22 -14 -37t-35 -15q-12 0 -24 6l-500 341q-12 6 -21 18l-7 27q0 30 28 45l500 340q14 6 24 6q18 0 33 -15.5t15 -36.5q0 -20 -28 -44l-410 -295z"/>
            <glyph glyph-name="guilsinglright" unicode="&#x203a;"
                   d="M559 533l-410 295q-28 24 -28 44q0 21 15 36.5t33 15.5q10 0 24 -6l500 -340q28 -15 28 -45l-7 -27q-9 -12 -21 -18l-500 -341q-12 -6 -24 -6q-21 0 -35 15t-14 37q0 29 29 44z"/>
            <glyph glyph-name="daggerdbl" unicode="&#x2021;" horiz-adv-x="1118"
                   d="M115 1032q-26 0 -39 15.5t-13 34.5t13 34.5t39 15.5h359v216q0 26 15.5 39t34.5 13t34.5 -13t15.5 -39v-216h381q26 0 39 -15.5t13 -34.5t-13 -34.5t-39 -15.5h-381v-888h381q26 0 39 -15.5t13 -34.5t-13 -34.5t-39 -15.5h-381v-266q0 -26 -15.5 -39t-34.5 -13t-34.5 13
t-15.5 39v266h-359q-26 0 -39 15.5t-13 34.5t13 34.5t39 15.5h359v888h-359v0z"/>
            <glyph glyph-name="periodcentered" unicode="&#xb7;" horiz-adv-x="300"
                   d="M150 612q18 0 34 -16t16 -34t-13 -34t-37 -16q-23 0 -37 14q-13 16 -13 36q0 11 12.5 30.5t37.5 19.5z"/>
            <glyph glyph-name="periodcentered" unicode="&#x2219;" horiz-adv-x="300"
                   d="M150 612q18 0 34 -16t16 -34t-13 -34t-37 -16q-23 0 -37 14q-13 16 -13 36q0 11 12.5 30.5t37.5 19.5z"/>
            <glyph glyph-name="quotesinglbase" unicode="&#x201a;" horiz-adv-x="354"
                   d="M202 -171q-9 -21 -21 -30t-27 -9q-22 0 -37 15t-15 33l2 15l50 198q6 20 18.5 29.5t29.5 9.5q20 0 36 -13.5t16 -34.5l-2 -15z"/>
            <glyph glyph-name="quotedblbase" unicode="&#x201e;" horiz-adv-x="503"
                   d="M337 -175q-9 -21 -21 -30t-27 -9q-22 0 -37 15t-15 33l2 15l50 198q6 20 18.5 29.5t29.5 9.5q20 0 36 -13.5t16 -34.5l-2 -15zM149 -171q-9 -21 -21 -30t-27 -9q-22 0 -37 15t-15 33l2 15l50 198q6 20 18.5 29.5t29.5 9.5q20 0 36 -13.5t16 -34.5l-2 -15z"/>
            <glyph glyph-name="perthousand" unicode="&#x2030;" horiz-adv-x="2450"
                   d="M1600 300q0 -133 -93 -226q-84 -75 -207 -75q-110 0 -206 75q-94 83 -94 226q0 141 93 225q85 76 207 76q111 0 206 -75q94 -85 94 -226zM1293 1324l-799 -1300q-16 -25 -42 -25q-22 0 -37 14.5t-15 35.5q0 16 8 27l799 1300q16 25 42 25q21 0 36.5 -14.5t15.5 -35.5
q0 -16 -8 -27zM699 1100q0 -141 -93 -225q-84 -75 -206 -75q-110 0 -206 75q-94 83 -94 225q0 141 93 225q84 75 207 75q110 0 205 -75q94 -85 94 -225zM1500 300q0 93 -62 149q-58 50 -138 50q-81 0 -137 -49q-63 -54 -63 -150q0 -95 62 -150q56 -50 138 -50q81 0 137 50
q63 56 63 150zM599 1100q0 94 -62 150q-56 50 -137 50t-137 -50q-63 -56 -63 -150q0 -95 62 -150q56 -50 138 -50q81 0 137 49q62 54 62 151zM2350 300q0 -133 -93 -226q-84 -75 -207 -75q-110 0 -206 75q-94 83 -94 226q0 141 93 225q85 76 207 76q111 0 206 -75
q94 -85 94 -226zM2250 300q0 93 -62 149q-58 50 -138 50q-81 0 -137 -49q-63 -54 -63 -150q0 -95 62 -150q56 -50 138 -50q81 0 137 50q63 56 63 150z"/>
            <glyph glyph-name="Acircumflex " unicode="&#xc2;" horiz-adv-x="1000"
                   d="M294 401l-98 -363q-3 -17 -16.5 -27t-30.5 -10q-20 0 -35.5 13.5t-15.5 35.5l2 14l350 1290q12 45 48 45t48 -45l350 -1290l2 -15q0 -18 -16 -35q-16 -13 -35 -13q-16 0 -28.5 8.5t-18.5 28.5l-98 363h-4h-400h-4zM675 501l-177 659l-177 -659h354zM732 1605
q11 -14 11 -31q0 -18 -16 -34t-36 -16q-24 0 -196 122q-178 -122 -202 -122q-18 0 -36 15q-16 16 -16 36q0 16 11 30l221 151q20 12 37 0z"/>
            <glyph glyph-name="circumflex" unicode="&#x2c6;" horiz-adv-x="700"
                   d="M583 1398q11 -14 11 -31q0 -18 -16 -34t-36 -16q-24 0 -196 122q-178 -122 -202 -122q-18 0 -36 15q-16 16 -16 36q0 16 11 30l221 151q20 12 37 0z"/>
            <glyph glyph-name="uni02DC" unicode="&#x2dc;" horiz-adv-x="741"
                   d="M635 1424q-45 -53 -102.5 -70t-123.5 12q-17 7 -32.5 18t-31 21.5t-32.5 18t-36 8.5q-26 2 -47.5 -11t-36.5 -35q-5 -8 -9.5 -15t-9.5 -12t-11.5 -8t-16.5 -3q-7 0 -13.5 4.5t-11.5 8.5q-11 9 -14 19.5t-0.5 22t8.5 22t12 19.5q45 61 108 77t132 -22q15 -8 29 -17.5
t28 -18.5t29.5 -15t33.5 -7q29 -1 54 17q8 6 14.5 15.5t12.5 18.5t12.5 17t14.5 12q10 4 20 2.5t18 -7.5t14 -15t7 -18q2 -16 -4 -30.5t-14 -27.5z"/>
            <glyph glyph-name="uni02DC" unicode="&#x223c;" horiz-adv-x="741"
                   d="M635 1424q-45 -53 -102.5 -70t-123.5 12q-17 7 -32.5 18t-31 21.5t-32.5 18t-36 8.5q-26 2 -47.5 -11t-36.5 -35q-5 -8 -9.5 -15t-9.5 -12t-11.5 -8t-16.5 -3q-7 0 -13.5 4.5t-11.5 8.5q-11 9 -14 19.5t-0.5 22t8.5 22t12 19.5q45 61 108 77t132 -22q15 -8 29 -17.5
t28 -18.5t29.5 -15t33.5 -7q29 -1 54 17q8 6 14.5 15.5t12.5 18.5t12.5 17t14.5 12q10 4 20 2.5t18 -7.5t14 -15t7 -18q2 -16 -4 -30.5t-14 -27.5z"/>
            <glyph glyph-name="uni00AF" unicode="&#xaf;" horiz-adv-x="1214"
                   d="M1064 1294h-913q-23 0 -37 14q-13 16 -13 36q0 11 12.5 30.5t37.5 19.5h913q18 0 34 -16t16 -34t-13 -34t-37 -16z"/>
            <glyph glyph-name="uni02D8" unicode="&#x2d8;" horiz-adv-x="698"
                   d="M195 1397q2 -75 41 -117.5t115 -44.5q33 0 61.5 13.5t49 36.5t32 52.5t11.5 61.5l99 -1q1 -50 -15 -97.5t-48 -84.5t-79.5 -59.5t-109.5 -21.5q-64 1 -112.5 20t-80.5 53t-48.5 82t-17.5 107h102z"/>
            <glyph glyph-name="uni02DA" unicode="&#x2da;" horiz-adv-x="1024"
                   d="M374 1222q0 36 13.5 67t36.5 54t54.5 36.5t67.5 13.5t67.5 -13.5t55 -36.5t37 -54t13.5 -67t-13.5 -67t-37 -54t-55 -36t-67.5 -13t-67.5 13t-54.5 36t-36.5 54t-13.5 67zM474 1226q0 -31 22.5 -52t54.5 -21t55 21t23 52t-23 53t-55 22t-54.5 -22t-22.5 -53z"/>
            <glyph glyph-name="Scaron" unicode="&#x160;" horiz-adv-x="900"
                   d="M489 1518q-17 -12 -37 0l-221 151q-11 14 -11 30q0 20 16 36q18 15 36 15q24 0 199 -120q175 120 199 120q20 0 36 -16t16 -34q0 -17 -11 -31zM779 1330q6 -3 12 -12t11 -29q0 -19 -16 -35.5t-35 -16.5l-28 9q-77 54 -173 54h-147q-87 0 -143.5 -59.5t-56.5 -140.5l3 -40
l4 -19l7 -18q13 -26 46 -65l445 -447q44 -43 66 -98l8 -23l10 -38l4 -23l1 -29q0 -121 -82 -207q-87 -93 -219 -93h-146q-127 0 -228 71l-17 18l-5 22q0 15 15 33t34 18l29 -9q79 -53 172 -53h146q81 0 141 60t60 141l-3 34q-1 8 -4 17.5t-7 18.5q-11 34 -45 71l-447 447
q-35 35 -68 98q-21 54 -21 113q0 121 82 207q87 93 219 93h147q51 0 115 -18t114 -52z"/>
            <glyph glyph-name="scaron" unicode="&#x161;"
                   d="M438 1160q-17 -12 -37 0l-221 151q-11 14 -11 30q0 20 16 36q18 15 36 15q24 0 201 -126q173 126 197 126q20 0 36 -16t16 -34q0 -17 -11 -31zM698 880l8 -15l3 -17q0 -18 -16 -35q-16 -14 -35 -14l-23 3q-3 2 -5 4q-5 5 -12 14q-27 36 -71 58l-45 16q-23 6 -47 6h-137
q-52 0 -84 -34.5t-32 -81.5q0 -51 43 -88l385 -314q39 -30 58 -76q20 -43 20 -89q0 -88 -58 -150q-62 -67 -157 -67h-137q-75 0 -135 29.5t-108 90.5l-8 15l-3 17q0 11 15 30t36 19q13 0 22 -5q9 -3 18 -16q19 -27 70 -59q42 -21 93 -21h137q51 0 83 35t32 81q0 43 -42 88
l-385 314q-39 33 -60 76l-14 49q-5 23 -5 40q0 88 58 150q62 67 158 67h137q73 0 136 -30.5t107 -89.5z"/>
            <glyph glyph-name="Zcaron" unicode="&#x17d;" horiz-adv-x="900"
                   d="M490 1547q-17 -12 -37 0l-221 151q-11 14 -11 30q0 20 16 36q18 15 36 15q24 0 203 -124q171 124 195 124q20 0 36 -16t16 -34q0 -17 -11 -31zM798 1329l-568 -1229h523q18 0 34 -16t16 -34t-13 -34t-37 -16h-601q-53 0 -53 40l1 16l1 6l6 9l568 1229h-523q-23 0 -37 14
q-13 16 -13 36q0 11 12.5 30.5t37.5 19.5h601q53 0 53 -40l-1 -16l-2 -6z"/>
            <glyph glyph-name="zcaron" unicode="&#x17e;"
                   d="M427 1162q-17 -12 -37 0l-221 151q-11 14 -11 30q0 20 16 36q18 15 36 15q24 0 201 -117q173 117 197 117q20 0 36 -16t16 -34q0 -17 -11 -31zM694 926l-459 -826h415q18 0 34 -16t16 -34t-13 -34t-37 -16h-500q-54 0 -54 40q0 17 10 34l459 826h-415q-23 0 -37 14
q-13 16 -13 36q0 11 12.5 30.5t37.5 19.5h500q54 0 54 -40q0 -17 -10 -34z"/>
            <glyph glyph-name="brokenbar" unicode="&#xa6;" horiz-adv-x="300"
                   d="M100 1400h100v-750h-100v750zM100 350h100v-750h-100v750z"/>
            <glyph glyph-name="onesuperior" unicode="&#xb9;" horiz-adv-x="536"
                   d="M395 931q0 -24 -14 -38q-14 -12 -17 -9q-9 0 -35 12q-15 12 -15 38v543l-141 -141q-15 -15 -34 -15q-21 0 -30 7t-9 28q0 8 15 34l226 226q14 14 34 14q1 -3 10.5 -8.5t9.5 -27.5v-663z"/>
            <glyph glyph-name="twosuperior" unicode="&#xb2;" horiz-adv-x="603"
                   d="M442 938h-299q-9 0 -18 8q-7 8 -7 19q0 7 4 12l274 415l11 20l7 17q6 18 6 37q0 51 -41 86q-18 16 -42.5 25.5t-49.5 9.5q-34 0 -64 -19t-48 -66q-3 -8 -9 -12q-5 -3 -14 -4q-10 0 -18 6.5t-8 17.5l2 9q21 61 65 92q40 27 92 27q71 0 128 -49q59 -51 59 -123
q0 -24 -7.5 -47.5t-26.5 -54.5l-248 -376h252q9 0 17 -8t8 -17t-6.5 -17t-18.5 -8v0z"/>
            <glyph glyph-name="threesuperior" unicode="&#xb3;" horiz-adv-x="529"
                   d="M330 1326q34 -17 57.5 -54t23.5 -79v-100q0 -63 -44 -106.5t-106 -43.5h-125q-12 0 -19 7q-6 8 -6 18q0 5 6 15t19 10h125q42 0 71 29t29 71v100q0 41 -29 70.5t-71 29.5h-25q-12 0 -19 7q-6 8 -6 18q0 5 6 15t19 10q42 0 71 29t29 71v50q0 41 -29 70.5t-71 29.5h-100
q-12 0 -19 7q-6 8 -6 18q0 5 6 15t19 10h100q63 0 106.5 -43.5t43.5 -106.5v-50l-1 -17v-10l-3 -10q-2 -13 -11 -28q-13 -27 -41 -52v0z"/>
            <glyph glyph-name="onehalf" unicode="&#xbd;" horiz-adv-x="1477"
                   d="M490 753q0 -21 -14 -33q-13 -10 -35 -10q-8 0 -33 10q-15 11 -15 33l-1 781l-208 -185q-14 -13 -33 -13q-20 0 -34.5 13t-14.5 31q0 7 15 29l290 259q13 12 32 12q20 0 35 -11.5t15 -30.5zM1103 1520l-802 -1700q-6 -16 -17 -21.5t-28 -8.5q-22 0 -37 14q-15 12 -15 35
q0 13 5 22l803 1699l13 17l31 13q22 0 36 -14q16 -13 16 -34q0 -13 -5 -22zM1370 -79h-470q-14 0 -28 13q-11 14 -11 31q0 11 6 19l400 481l16 32l12 28q9 29 9 60q0 81 -64 138q-28 26 -66.5 42t-78.5 16q-54 0 -101 -31.5t-76 -106.5q-4 -13 -13 -19q-9 -5 -22 -8
q-17 0 -29 11t-12 29l2 15q33 98 103 148q63 44 144 44q113 0 202 -79q92 -84 92 -199q0 -40 -11.5 -78t-40.5 -87l-325 -421l362 3q14 0 27 -13t13 -28q0 -14 -10.5 -27t-29.5 -13z"/>
            <glyph glyph-name="onequarter" unicode="&#xbc;" horiz-adv-x="1414"
                   d="M458 753q0 -21 -14 -33q-13 -10 -35 -10q-8 0 -33 10q-15 11 -15 33l-1 781l-208 -185q-14 -13 -33 -13q-20 0 -34.5 13t-14.5 31q0 7 15 29l290 259q13 12 32 12q20 0 35 -11.5t15 -30.5zM1167 250l96 4q14 0 26.5 -13t12.5 -27q0 -15 -10 -27.5t-29 -12.5l-96 -4v-200
q0 -19 -11 -30q-11 -10 -28 -10q-8 0 -34 10q-12 9 -12 30v200h-274q-18 0 -29 11t-11 27l1 10l139 716q3 16 14 24l24 8q16 0 28 -11t12 -28l-1 -9l-129 -668h226v161q0 13 12 26.5t34 13.5q14 0 26.5 -10t12.5 -30v-161zM1071 1520l-802 -1700q-6 -16 -17 -21.5t-28 -8.5
q-22 0 -37 14q-15 12 -15 35q0 13 5 22l803 1699l13 17l31 13q22 0 36 -14q16 -13 16 -34q0 -13 -5 -22z"/>
            <glyph glyph-name="threequarters" unicode="&#xbe;" horiz-adv-x="1430"
                   d="M1183 250l96 4q14 0 26.5 -13t12.5 -27q0 -15 -10 -27.5t-29 -12.5l-96 -4v-200q0 -19 -11 -30q-11 -10 -28 -10q-8 0 -34 10q-12 9 -12 30v200h-274q-18 0 -29 11t-11 27l1 10l139 716q3 16 14 24l24 8q16 0 28 -11t12 -28l-1 -9l-129 -668h226v161q0 13 12 26.5
t34 13.5q14 0 26.5 -10t12.5 -30v-161zM1087 1520l-802 -1700q-6 -16 -17 -21.5t-28 -8.5q-22 0 -37 14q-15 12 -15 35q0 13 5 22l803 1699l13 17l31 13q22 0 36 -14q16 -13 16 -34q0 -13 -5 -22zM466 1319q58 -29 98 -94t40 -139l6 -83q0 -109 -75 -185.5t-183 -76.5h-214
q-20 0 -32 12q-11 14 -11 32q0 9 10.5 26t32.5 17h214q72 0 122 51t50 124l-6 83q0 73 -49.5 124t-122.5 51h-43q-19 0 -31 12q-12 14 -12 32q0 9 11 26t32 17q73 0 122.5 51t49.5 124l-4 20q0 73 -49.5 124t-122.5 51h-171q-20 0 -32 12q-11 14 -11 31q0 10 10.5 27
t32.5 17h171q109 0 183.5 -76t74.5 -186l4 -20l-1 -29l-1 -17l-5 -18q-3 -23 -18 -50q-22 -46 -70 -90z"/>
            <glyph glyph-name="gbreve" unicode="&#x11f;" horiz-adv-x="500"
                   d="M198 27l2 15q0 21 -16 34.5t-36 13.5q-17 0 -29.5 -9.5t-18.5 -29.5l-50 -198l-2 -15q0 -18 15 -33t37 -15q15 0 27 9t21 30zM398 27l2 15q0 21 -16 34.5t-36 13.5q-17 0 -29.5 -9.5t-18.5 -29.5l-50 -198l-2 -15q0 -18 15 -33t37 -15q15 0 27 9t21 30z"/>
            <glyph glyph-name="uni009C" horiz-adv-x="784"
                   d="M401 201h-102v1002h102v-1002zM603 117h-504v-111h504v111zM603 1406h-504v-111h504v111z"/>
            <glyph glyph-name="uni009D" horiz-adv-x="1083"
                   d="M401 199h-102v1002h102v-1002zM919 117h-820v-111h820v111zM919 1406h-820v-111h820v111zM717 202h-102v1002h102v-1002z"/>
            <glyph glyph-name="uni009E" horiz-adv-x="1406"
                   d="M401 203h-102v1001h102v-1001zM1206 117h-1107v-111h1107v111zM1206 1406h-1107v-111h1107v111zM717 200h-102v1001h102v-1001zM1012 203h-102v1005h102v-1005z"/>
            <glyph glyph-name="uni009F" horiz-adv-x="1606"
                   d="M1299 1161l-350 -922q-12 -32 -48 -32t-48 32l-350 922l-2 11q0 13 15 23.5t36 10.5q12 0 23 -6q13 -4 24 -20l302 -795l302 795q3 9 15 18q12 6 32 8q20 0 35.5 -9.5t15.5 -25.5zM393 200h-102v1006h102v-1006zM1411 117h-1283v-111h1283v111zM1403 1406h-1283v-111
h1283v111z"/>
            <glyph glyph-name="uni00AD" unicode="&#xad;" horiz-adv-x="0"
                   d="M700 450h-600q-23 0 -37 14q-13 16 -13 36q0 11 12.5 30.5t37.5 19.5h600q18 0 34 -16t16 -34t-13 -34t-37 -16z"/>
            <glyph glyph-name="mu" unicode="&#xb5;" horiz-adv-x="900"
                   d="M609 71q-25 -24 -76 -53q-40 -18 -83 -18h-123q-36 6 -59 18q-39 19 -68 49v-417q0 -23 -13.5 -36.5t-36.5 -13.5t-36.5 13.5t-13.5 36.5v1300q0 23 13.5 36.5t36.5 13.5t36.5 -13.5t13.5 -36.5v-701q0 -61 44 -106q23 -19 49 -33l26 -7l31 -3h100q54 0 101 50l19 23
l16 26q13 23 14 51v700q0 23 13.5 36.5t34.5 13.5q25 0 38.5 -13.5t13.5 -36.5v-810q0 -40 40 -40h10q23 0 36.5 -13.5t13.5 -36.5t-13.5 -36.5t-36.5 -13.5h-10q-50 0 -78 16t-53 55z"/>
            <glyph glyph-name="mu" unicode="&#x3bc;" horiz-adv-x="900"
                   d="M609 71q-25 -24 -76 -53q-40 -18 -83 -18h-123q-36 6 -59 18q-39 19 -68 49v-417q0 -23 -13.5 -36.5t-36.5 -13.5t-36.5 13.5t-13.5 36.5v1300q0 23 13.5 36.5t36.5 13.5t36.5 -13.5t13.5 -36.5v-701q0 -61 44 -106q23 -19 49 -33l26 -7l31 -3h100q54 0 101 50l19 23
l16 26q13 23 14 51v700q0 23 13.5 36.5t34.5 13.5q25 0 38.5 -13.5t13.5 -36.5v-810q0 -40 40 -40h10q23 0 36.5 -13.5t13.5 -36.5t-13.5 -36.5t-36.5 -13.5h-10q-50 0 -78 16t-53 55z"/>
            <glyph glyph-name="c275" unicode="&#x120;" horiz-adv-x="900"
                   d="M200 50q0 21 14.5 35.5t35.5 14.5q12 0 31 -14.5t19 -35.5t-14.5 -35.5t-35.5 -14.5t-35.5 15.5t-14.5 34.5zM400 50q0 21 14.5 35.5t35.5 14.5q12 0 31 -14.5t19 -35.5t-14.5 -35.5t-35.5 -14.5t-35.5 15.5t-14.5 34.5zM600 50q0 21 14.5 35.5t35.5 14.5q12 0 31 -14.5
t19 -35.5t-14.5 -35.5t-35.5 -14.5t-35.5 15.5t-14.5 34.5z"/>
            <glyph glyph-name="c276" unicode="&#x121;" horiz-adv-x="1200"
                   d="M1100 500q0 -84 -58 -142t-142 -58q-41 0 -100 27l-450 260l-20 8q-13 5 -30 5q-42 0 -71 -29t-29 -71t29 -71t71 -29q18 0 34 -16t16 -34t-13 -34t-37 -16q-84 0 -142 58t-58 142t58 142t142 58q17 0 46 -6q23 -3 54 -21l450 -259q23 -14 50 -14q42 0 71 29t29 71
t-29 71t-71 29q-23 0 -37 14q-13 16 -13 36q0 11 12.5 30.5t37.5 19.5q84 0 142 -58t58 -142z"/>
            <glyph glyph-name="c278" unicode="&#x123;" horiz-adv-x="814"
                   d="M410 560l215 215q15 15 34 15q21 0 36 -15t15 -36q0 -8 -15 -34l-215 -215l215 -215q15 -15 15 -34q0 -21 -15 -36t-36 -15q-8 0 -34 15l-215 215l-215 -215q-15 -15 -34 -15q-21 0 -36 15t-15 36q0 8 15 34l215 215l-215 215q-15 15 -15 34q0 21 15 36t36 15q8 0 34 -15
z"/>
            <glyph glyph-name="c279" unicode="&#x124;" horiz-adv-x="220"
                   d="M73 549q0 15 9 24t28 12q15 0 25 -11l4 -9l7 -16q0 -13 -8 -21q-6 -9 -28 -16q-16 0 -27 10z"/>
            <glyph glyph-name="Alpha" unicode="&#x391;" horiz-adv-x="1000"
                   d="M294 401l-98 -363q-3 -17 -16.5 -27t-30.5 -10q-20 0 -35.5 13.5t-15.5 35.5l2 14l350 1290q12 45 48 45t48 -45l350 -1290l2 -15q0 -18 -16 -35q-16 -13 -35 -13q-16 0 -28.5 8.5t-18.5 28.5l-98 363h-408zM675 501l-177 659l-177 -659h354z"/>
            <glyph glyph-name="Beta" unicode="&#x392;" horiz-adv-x="900"
                   d="M200 800h250q82 -1 141 58t59 142v100q0 83 -57.5 141.5t-142.5 58.5h-250v-500zM200 100h300q81 0 140.5 57t59.5 143v200q1 78 -60 139t-140 61h-300v-600zM150 0q-50 0 -50 50v1300q0 50 50 50h300q123 0 211.5 -88.5t88.5 -211.5v-100q0 -73 -27 -129t-85 -105
q71 -36 116.5 -111t45.5 -155v-200q0 -120 -93 -210t-207 -90h-350z"/>
            <glyph glyph-name="Gamma" unicode="&#x393;"
                   d="M650 1300h-450v-1250q0 -50 -50 -50t-50 50v1300q0 50 50 50h500q50 0 50 -50t-50 -50z"/>
            <glyph glyph-name="Delta" unicode="&#x394;" horiz-adv-x="1000"
                   d="M897 63q3 -13 3 -23q0 -40 -50 -40h-700q-50 0 -50 40q0 10 3 23l349 1300q12 37 48 37t48 -37zM780 100l-280 1064l-285 -1064h565z"/>
            <glyph glyph-name="Delta" unicode="&#x2206;" horiz-adv-x="1000"
                   d="M897 63q3 -13 3 -23q0 -40 -50 -40h-700q-50 0 -50 40q0 10 3 23l349 1300q12 37 48 37t48 -37zM780 100l-280 1064l-285 -1064h565z"/>
            <glyph glyph-name="Epsilon" unicode="&#x395;"
                   d="M200 700v-600h450q50 0 50 -50t-50 -50h-500q-50 0 -50 50v1299q0 51 50 51h500q50 0 50 -50t-50 -50h-450v-500h250q50 0 50 -50t-50 -50h-250z"/>
            <glyph glyph-name="Zeta" unicode="&#x396;" horiz-adv-x="900"
                   d="M791 1328l-562 -1228h521q50 0 50 -50t-50 -50h-599q-51 0 -51 40q0 12 7 30l562 1230h-519q-50 0 -50 50t51 50h596q53 0 53 -41q0 -14 -9 -31z"/>
            <glyph glyph-name="Eta" unicode="&#x397;" horiz-adv-x="900"
                   d="M700 800l-1 550q1 50 51 50t50 -50v-1300q0 -50 -51 -50q-49 0 -49 50v650h-500v-650q0 -50 -50 -50t-50 50v1300q0 50 50 50t50 -50v-550h500z"/>
            <glyph glyph-name="Theta" unicode="&#x398;" horiz-adv-x="900"
                   d="M800 300q0 -121 -89.5 -210.5t-210.5 -89.5h-100q-122 0 -211 86.5t-89 213.5v800q0 124 87.5 212t212.5 88h100q117 0 208.5 -88t91.5 -212v-800zM700 300v800q0 81 -60 140.5t-140 59.5h-100q-75 0 -137.5 -58.5t-62.5 -141.5v-800q0 -75 58.5 -137.5t141.5 -62.5h100
q82 0 141 57.5t59 142.5zM550 700h-200q-50 0 -50 50t50 50h200q50 0 50 -50t-50 -50z"/>
            <glyph glyph-name="Iota" unicode="&#x399;" horiz-adv-x="300"
                   d="M200 50q0 -50 -50 -50t-50 50v1300q0 50 50 50t50 -50v-1300z"/>
            <glyph glyph-name="Kappa" unicode="&#x39a;" horiz-adv-x="900"
                   d="M200 533v-483q0 -50 -50 -50t-50 50v1300q0 50 50 50t50 -51v-649l509 679q17 21 41 21q50 0 50 -50q0 -17 -11 -31l-355 -473l359 -776q7 -16 7 -25q0 -45 -53 -45q-30 0 -43 29l-338 728z"/>
            <glyph glyph-name="Lambda" unicode="&#x39b;" horiz-adv-x="1000"
                   d="M898 63q2 -9 2 -13q0 -50 -51 -50q-34 0 -47 37l-302 1121l-302 -1121q-13 -37 -48 -37q-50 0 -50 50q0 4 2 13l350 1299q12 38 48 38t48 -38z"/>
            <glyph glyph-name="Mu" unicode="&#x39c;" horiz-adv-x="1100"
                   d="M1000 50q0 -50 -50 -50t-50 50v1115l-305 -495q-22 -31 -45 -31q-24 0 -45 31l-305 495v-1115q0 -50 -50 -50t-50 50v1300q0 50 50 50q22 0 44 -31l355 -578l357 578q22 31 44 31q50 0 50 -50v-1300z"/>
            <glyph glyph-name="Nu" unicode="&#x39d;" horiz-adv-x="900"
                   d="M800 50q0 -50 -50 -50q-30 0 -45 29l-505 1093v-1072q0 -50 -50 -50t-50 50v1300q0 50 50 50q27 0 44 -30l505 -1094l1 1074q0 50 49 50q51 0 51 -50v-1300z"/>
            <glyph glyph-name="Xi" unicode="&#x39e;" horiz-adv-x="900"
                   d="M600 700h-300q-50 0 -50 50t50 50h300q50 0 50 -50t-50 -50zM750 0h-600q-50 0 -50 50t50 50h600q50 0 50 -50t-50 -50zM750 1299h-600q-50 1 -50 51t50 50h600q50 0 50 -50t-50 -51z"/>
            <glyph glyph-name="Omicron" unicode="&#x39f;" horiz-adv-x="900"
                   d="M800 300q0 -121 -89.5 -210.5t-210.5 -89.5h-100q-122 0 -211 86.5t-89 213.5v800q0 124 87.5 212t212.5 88h100q117 0 208.5 -88t91.5 -212v-800zM699 300v800q0 81 -59.5 140t-139.5 60h-100q-75 -1 -137.5 -59t-62.5 -141v-800q0 -75 58.5 -137.5t141.5 -62.5h100
q82 0 140.5 57.5t58.5 142.5z"/>
            <glyph glyph-name="Pi" unicode="&#x3a0;" horiz-adv-x="900"
                   d="M800 50q0 -50 -51 -50q-49 0 -49 50v1250h-500v-1250q0 -50 -50 -50t-50 50v1300q0 50 50 50h600q50 0 50 -50v-1300z"/>
            <glyph glyph-name="Rho" unicode="&#x3a1;" horiz-adv-x="900"
                   d="M200 700h300q82 0 141 58t59 142v200q0 81 -60 140t-140 60h-300v-600zM200 600v-550q0 -50 -50 -50t-50 50v1300q0 50 50 50h350q117 0 208.5 -88t92.5 -212l-1 -200q0 -125 -88 -212.5t-212 -87.5h-300z"/>
            <glyph glyph-name="Sigma" unicode="&#x3a3;" horiz-adv-x="900"
                   d="M750 0h-600q-50 0 -50 50q0 4 8 20l289 629l-289 629q-8 15 -8 22q0 50 50 50h600q50 0 50 -50t-50 -50h-520l266 -579q4 -10 4 -22q0 -13 -4 -21l-266 -578h520q50 0 50 -50t-50 -50z"/>
            <glyph glyph-name="Sigma" unicode="&#x2211;" horiz-adv-x="900"
                   d="M750 0h-600q-50 0 -50 50q0 4 8 20l289 629l-289 629q-8 15 -8 22q0 50 50 50h600q50 0 50 -50t-50 -50h-520l266 -579q4 -10 4 -22q0 -13 -4 -21l-266 -578h520q50 0 50 -50t-50 -50z"/>
            <glyph glyph-name="Tau" unicode="&#x3a4;" horiz-adv-x="900"
                   d="M400 1300h-250q-50 0 -50 50t50 50h600q50 0 50 -50t-50 -50h-250v-1250q0 -50 -50 -50t-50 50v1250z"/>
            <glyph glyph-name="Upsilon" unicode="&#x3a5;" horiz-adv-x="1000"
                   d="M450 686l-343 639q-7 16 -7 27q0 48 52 48q26 0 43 -27l305 -567l304 567q16 27 44 27q52 0 52 -48q0 -12 -8 -27l-342 -639v-636q0 -50 -50 -50t-50 50v636z"/>
            <glyph glyph-name="Phi" unicode="&#x3a6;" horiz-adv-x="1000"
                   d="M550 300q105 0 177.5 72.5t72.5 177.5v300q0 103 -73 176t-177 74v-800zM450 300v800q-105 -1 -177.5 -73.5t-72.5 -176.5v-300q0 -105 72.5 -177.5t177.5 -72.5zM550 50q0 -50 -50 -50t-50 50v150q-136 0 -243 102t-107 248v300q0 140 101.5 244.5t248.5 105.5v150
q0 50 50 50t50 -50v-151q144 0 247 -102t103 -247v-300q0 -144 -102.5 -247t-247.5 -103v-150z"/>
            <glyph glyph-name="Chi" unicode="&#x3a7;" horiz-adv-x="1000"
                   d="M500 806l304 568q16 26 44 26q52 0 52 -49q0 -10 -8 -25l-335 -626l335 -625q8 -15 8 -26q0 -49 -53 -49q-28 0 -43 27l-304 567l-305 -567q-15 -27 -44 -27q-51 0 -51 49q0 11 7 26l335 625l-335 626q-7 12 -7 25q0 49 52 49q26 0 43 -26z"/>
            <glyph glyph-name="Psi" unicode="&#x3a8;" horiz-adv-x="1000"
                   d="M550 500q94 0 172 71.5t78 178.5v600q0 50 50 50t50 -50v-600q0 -145 -102.5 -248t-247.5 -102v-350q0 -50 -50 -50t-50 50v350q-144 -1 -247 101.5t-103 248.5v600q0 50 50 50t50 -50v-600q0 -102 73.5 -176t176.5 -74v850q0 50 50 50t50 -50v-850z"/>
            <glyph glyph-name="uni03A9" unicode="&#x3a9;" horiz-adv-x="1000"
                   d="M900 500q0 -112 -69 -194t-181 -103v-103h100q22 0 36 -14t14 -36t-14 -36t-36 -14h-150q-50 0 -50 50v200q0 50 50 50q75 -1 137.5 58t62.5 142v600q0 77 -60 138.5t-140 61.5h-200q-74 -1 -137 -59t-63 -141v-600q0 -78 59 -139.5t141 -60.5q50 0 50 -50v-200
q0 -50 -50 -50h-150q-23 0 -36.5 14t-13.5 36t13.5 36t36.5 14h100v103q-103 17 -176.5 102.5t-73.5 194.5v600q0 124 87.5 212t212.5 88h200q120 0 210 -89t90 -211v-600z"/>
            <glyph glyph-name="alpha" unicode="&#x3b1;" horiz-adv-x="900"
                   d="M582 500l-85 326q-8 25 -38.5 49.5t-58.5 24.5h-100q-36 0 -68 -29t-32 -71v-600q0 -42 30 -71t70 -29h100q33 0 61 21.5t36 53.5zM633 697l69 266q10 37 47 37q51 0 51 -48q0 -5 -2 -15l-114 -437l114 -437q2 -10 2 -15q0 -48 -50 -48q-38 0 -48 37l-69 266l-40 -153
q-13 -65 -68.5 -107.5t-124.5 -42.5h-100q-84 0 -142 57.5t-58 142.5v600q0 82 58 141t142 59h100q66 0 120.5 -40t72.5 -109z"/>
            <glyph glyph-name="beta" unicode="&#x3b2;"
                   d="M572 867q58 -31 93 -89.5t35 -128.5v-399q0 -103 -72.5 -176.5t-177.5 -73.5h-100q-50 0 -50 50t50 50h100q62 0 106 43.5t44 106.5v400q0 61 -42.5 105.5t-107.5 44.5h-100q-50 0 -50 50t50 50h50q59 0 104.5 46t45.5 104v98q0 56 -43.5 104t-106.5 48h-51
q-57 0 -103 -47t-46 -105v-1498q0 -50 -50 -50t-50 50v1498q0 102 72 177t177 75h51q105 0 177.5 -72.5t72.5 -179.5v-98q0 -66 -17.5 -104t-60.5 -79z"/>
            <glyph glyph-name="gamma" unicode="&#x3b3;"
                   d="M400 465l-25 98l-31 97q-35 103 -83 174q-14 30 -44 48.5t-61 18.5q-27 0 -41.5 15t-14.5 37q0 20 13 33.5t38 13.5q63 0 117 -29.5t88 -90.5q56 -93 99 -216l27 80l36 80q36 93 80 150l18 18q9 7 28 8q22 0 39 -15t17 -33q0 -13 -8 -25l-57 -106l-50 -115
q-37 -97 -76 -244l24 -131l20 -128q16 -142 16 -234v-62l-1 -39v-19l-4 -19l-2 -29v-12l-4 -21l-14 -57q-11 -50 -40.5 -80.5t-61.5 -30.5q-28 0 -47.5 21t-42.5 85l-14 109l-5 117l3 122v23l3 24l10 88l9 65l4 40l7 26l12 72z"/>
            <glyph glyph-name="delta" unicode="&#x3b4;"
                   d="M600 250v500q1 61 -42 105.5t-108 44.5h-100q-62 0 -106 -44t-44 -106v-501q0 -61 44 -105t106 -44h100q62 0 106 44t44 106zM423 1000l-190 199l-12 14l-12 23l-8 23l-2 24q0 46 33 81.5t83 35.5h86q98 0 179 -60q21 -15 21 -39q0 -20 -14 -36t-36 -16q-17 0 -31 11
q-52 39 -119 39h-86q-8 0 -18 -16l6 -12l299 -324q46 -32 72 -84.5t26 -112.5v-500q0 -105 -73 -177.5t-177 -72.5h-100q-104 0 -177 72.5t-73 177.5v500q0 104 73 177t177 73h73z"/>
            <glyph glyph-name="epsilon" unicode="&#x3b5;"
                   d="M204 496q-47 42 -75.5 97t-28.5 106v50q0 105 73 178t177 73q153 0 309 -26q20 -3 30.5 -17.5t10.5 -31.5q0 -22 -16 -37q-10 -12 -41 -12l-147 17q-75 7 -146 7q-63 0 -106.5 -43.5t-43.5 -107.5v-50q0 -62 41.5 -105.5t103.5 -43.5h105q50 0 50 -50t-50 -50h-105
q-52 0 -98.5 -43t-46.5 -107v-50q0 -63 43.5 -106.5t106.5 -43.5q156 0 293 24q23 3 41 -12q16 -15 16 -37q0 -13 -7 -28q-7 -10 -34 -21q-146 -26 -309 -26q-104 0 -177 73t-73 177v50q0 57 28.5 109.5t75.5 86.5z"/>
            <glyph glyph-name="zeta" unicode="&#x3b6;"
                   d="M700 -175q0 -93 -67 -159t-158 -66h-225q-50 0 -50 50t50 50h225q52 1 88.5 38t36.5 87v49q0 51 -36.5 88t-88.5 38h-126q-96 0 -172.5 75t-76.5 175v100q0 31 8 61q100 394 372 689h-154q-83 0 -154.5 64.5t-71.5 160.5v25q0 50 50 50t50 -50v-25q0 -50 36.5 -87.5
t89.5 -37.5h274q50 0 50 -50q0 -22 -17 -39q-148 -136 -264 -327q-52 -89 -95 -186.5t-70 -211.5l-4 -36v-100q0 -54 43.5 -102t105.5 -48h126q91 0 158 -66t67 -160v-49z"/>
            <glyph glyph-name="eta" unicode="&#x3b7;" horiz-adv-x="900"
                   d="M278 928q26 32 83 52l29 9l23 5l47 6h90q96 0 173 -59.5t77 -150.5v-1140q0 -50 -50 -50t-50 50v1140q0 36 -46 73t-104 37h-90q-53 0 -100 -26q-60 -30 -60 -84v-740q0 -50 -50 -50t-50 50v795q0 18 -16.5 36.5t-33.5 18.5q-50 0 -50 49q0 51 50 51q33 0 71 -24
q32 -17 57 -48z"/>
            <glyph glyph-name="theta" unicode="&#x3b8;" horiz-adv-x="1100"
                   d="M800 900v275q-1 50 -38 87t-87 38h-150q-51 0 -87.5 -37t-37.5 -88v-150q0 -51 37 -88t88 -37h275zM800 800h-275q-91 0 -158 66t-67 159v150q0 84 67 154.5t158 70.5h150q85 0 154.5 -65t70.5 -160v-275h50q50 0 50 -50t-50 -50h-50v-600q-1 -88 -60 -144t-141 -56
q-55 0 -94.5 22t-72.5 69l-255 390q-14 19 -27 19q-22 0 -36 -12.5t-14 -37.5q0 -50 -50 -50t-50 50q0 65 42.5 107.5t107.5 42.5q35 0 61.5 -14.5t49.5 -49.5l254 -391q15 -22 35 -33.5t50 -11.5q38 0 69 31t31 69v600z"/>
            <glyph glyph-name="iota" unicode="&#x3b9;" horiz-adv-x="550"
                   d="M417 52l-116 -43q-25 -9 -51 -9q-70 0 -110 40t-40 110v800q0 50 50 50t50 -50v-800q0 -22 14 -36t36 -14q8 0 16 3l116 43q11 4 18 4q22 0 36 -14t14 -36q0 -20 -7 -30.5t-26 -17.5z"/>
            <glyph glyph-name="kappa" unicode="&#x3ba;" horiz-adv-x="950"
                   d="M399 411l-99 -128v-233q0 -50 -51 -50q-49 0 -49 50l-1 809q1 18 -10.5 29.5t-28.5 11.5h-10q-50 0 -50 50t50 50h10q58 0 99 -41t41 -99v-411l410 531q16 20 40 20q22 0 37.5 -15.5t15.5 -34.5q0 -16 -12 -32l-327 -423l250 -377q11 -18 35 -18h51q50 0 50 -50t-50 -50
h-51q-35 0 -64 12.5t-54 49.5z"/>
            <glyph glyph-name="lambda" unicode="&#x3bb;" horiz-adv-x="850"
                   d="M352 958l-84 311q-2 12 -12 21.5t-26 9.5h-30q-50 0 -50 50t50 50h30q47 0 83 -28t52 -78l315 -1189q1 -5 20 -5q50 0 50 -50t-50 -50h-28q-33 0 -51 16t-29 54l-190 703l-205 -736q-13 -37 -47 -37q-50 0 -50 50q0 6 2 13z"/>
            <glyph glyph-name="nu" unicode="&#x3bd;"
                   d="M700 751q0 -228 -76 -407q-11 -28 -42 -87l-16 -29l-35 -53q-54 -81 -134 -155q-24 -20 -41 -20q-32 0 -41 47l-135 812q-5 27 -30 36q-29 7 -38 20q-12 16 -12 35q0 50 50 50h10q30 0 67.5 -32.5t49.5 -92.5l119 -713q101 118 152.5 264t51.5 325l-2 64l-2 64
q-2 36 -6 71q-1 22 14 36t36 14q23 0 35.5 -13t14.5 -37q10 -98 10 -199z"/>
            <glyph glyph-name="xi" unicode="&#x3be;" horiz-adv-x="900"
                   d="M265 1200q-57 9 -94.5 43t-59.5 91q-3 8 -3 16q0 50 52 50q11 0 22 -5q13 -4 24.5 -30t34.5 -48q26 -17 57 -17h302q50 0 50 -50t-50 -50h-151q-64 0 -108 -45t-44 -105v-100q0 -62 44 -106t106 -44h153q50 0 50 -50t-50 -50h-200q-84 0 -142 -58t-58 -142v-200
q0 -84 58 -142t142 -58h175q86 0 155.5 -69.5t69.5 -155.5v-50q0 -92 -66.5 -158.5t-158.5 -66.5h-325q-50 0 -50 50t50 50h325q51 0 88 37t37 88v50q0 50 -37 87.5t-88 37.5h-175q-124 0 -212 87t-88 213v200q0 88 46 160.5t126 110.5q-40 35 -57 82t-17 97v100
q0 42 16.5 75.5t50.5 74.5z"/>
            <glyph glyph-name="omicron" unicode="&#x3bf;"
                   d="M700 250q0 -104 -73 -177t-177 -73h-100q-104 0 -177 73t-73 177v500q0 104 73 177t177 73h100q104 0 177 -73t73 -177v-500zM600 250v500q0 62 -44 106t-106 44h-100q-62 0 -106 -43.5t-44 -106.5v-500q0 -62 44 -106t106 -44h100q62 0 106 44t44 106z"/>
            <glyph glyph-name="rho" unicode="&#x3c1;"
                   d="M600 250v500q0 62 -44 106t-106 44h-100q-62 0 -106 -44t-44 -106v-500q0 -62 44 -106t106 -44h100q62 0 106 44t44 106zM360 0q23 -57 36 -120l8 -61l4 -69v-41l-4 -37q0 -5 -4 -25q-6 -25 -19 -36q-14 -11 -31 -11q-22 0 -36 14t-14 36l1 8l5 44l2 47v42l-5 42l-3 23
l-10 34q-19 76 -54 137q-59 26 -97.5 92t-38.5 131v500q0 104 73 177t177 73h100q104 0 177 -73t73 -177v-500q0 -104 -73 -177t-177 -73h-90z"/>
            <glyph glyph-name="sigma1" unicode="&#x3c2;" horiz-adv-x="987"
                   d="M966 1052l-42 -150q-112 35 -224 35q-201 0 -320 -124.5t-119 -292.5q0 -116 65.5 -205.5t259.5 -140.5q139 -37 201 -69.5t97 -90t35 -132.5q0 -137 -111 -225t-277 -88q-67 0 -152 14l44 165q58 -12 101 -12q96 0 151 41.5t55 100.5q0 54 -39.5 82.5t-165.5 55.5
q-222 47 -330.5 173t-108.5 300q0 241 172.5 419t464.5 178q123 0 243 -34z"/>
            <glyph glyph-name="sigma" unicode="&#x3c3;" horiz-adv-x="900"
                   d="M600 250v500q0 62 -43 106t-107 44h-100q-62 0 -106 -44t-44 -106v-500q0 -62 44 -106t106 -44h100q62 0 106 44t44 106zM500 994q62 0 126 18q54 15 105 34q12 4 19 4q22 0 36 -14t14 -36q0 -37 -31 -47q-54 -21 -133 -38q29 -31 46.5 -69.5t17.5 -95.5v-500
q0 -104 -73 -177t-177 -73h-100q-104 0 -177 73t-73 177v500q0 104 73 177t177 73h100q27 0 50 -6z"/>
            <glyph glyph-name="tau" unicode="&#x3c4;" horiz-adv-x="850"
                   d="M350 900h-200q-22 0 -36 14t-14 36t14 36t36 14h400q47 0 66.5 6.5t51.5 31.5q14 12 32 12q22 0 36 -14t14 -36q0 -21 -20 -39q-46 -36 -79.5 -48.5t-100.5 -12.5h-100v-750q0 -22 14 -36t36 -14h48q24 0 38 -14t14 -36t-14 -36t-38 -14h-48q-60 0 -105 46.5t-45 103.5
v750z"/>
            <glyph glyph-name="upsilon" unicode="&#x3c5;"
                   d="M669 962q15 -65 23 -128q8 -77 8 -132q0 -116 -15 -198q-13 -65 -31 -121q-23 -76 -54 -144q-35 -75 -83 -149q-25 -37 -69.5 -63.5t-97.5 -26.5q-76 0 -138 55t-62 145v685q0 15 -16 15q-19 0 -26.5 13t-7.5 31q0 25 13 40.5t37 15.5q40 0 70 -30t30 -70v-700
q0 -38 31 -69t69 -31q19 0 42.5 10t41.5 35q31 50 61.5 115.5t60.5 149.5q22 76 33 144q11 71 11 146q-7 118 -29 238q-1 8 -1 12q0 22 14 36t36 14q18 0 30 -7.5t19 -30.5z"/>
            <glyph glyph-name="phi" unicode="&#x3c6;" horiz-adv-x="1000"
                   d="M550 100q104 0 177 73t73 175v154q0 80 -13 167q-13 80 -40 156q-10 33 -37.5 53.5t-59.5 20.5q-39 0 -69.5 -27t-30.5 -74v-698zM450 0q-136 0 -243 101.5t-107 248.5v150q0 241 105 470q13 30 43 30q22 0 36.5 -14t14.5 -36q0 -14 -4 -22q-95 -203 -95 -429v-151
q0 -100 73.5 -174t176.5 -74v698q0 85 63 149q58 53 138 53q63 0 113 -33.5t75 -101.5q61 -180 61 -363v-154q0 -144 -102.5 -246t-247.5 -102v-350q0 -22 -14 -36t-36 -14t-36 14t-14 36v350z"/>
            <glyph glyph-name="phi" unicode="&#x3d5;" horiz-adv-x="1000"
                   d="M550 100q104 0 177 73t73 175v154q0 80 -13 167q-13 80 -40 156q-10 33 -37.5 53.5t-59.5 20.5q-39 0 -69.5 -27t-30.5 -74v-698zM450 0q-136 0 -243 101.5t-107 248.5v150q0 241 105 470q13 30 43 30q22 0 36.5 -14t14.5 -36q0 -14 -4 -22q-95 -203 -95 -429v-151
q0 -100 73.5 -174t176.5 -74v698q0 85 63 149q58 53 138 53q63 0 113 -33.5t75 -101.5q61 -180 61 -363v-154q0 -144 -102.5 -246t-247.5 -102v-350q0 -22 -14 -36t-36 -14t-36 14t-14 36v350z"/>
            <glyph glyph-name="chi" unicode="&#x3c7;" horiz-adv-x="900"
                   d="M449 158l-201 -525q-5 -14 -18 -23.5t-27 -9.5q-22 0 -37 14t-15 35l3 20l241 630l-205 536q-7 23 -20.5 38.5t-34.5 26.5q-9 3 -22 14t-13 36q0 22 14 36t36 14q9 0 18 -4q47 -21 73.5 -54t41.5 -70l166 -435l202 529q5 14 17.5 23.5t26.5 9.5q22 0 37.5 -13.5
t15.5 -35.5q0 -11 -4 -20l-242 -631l205 -533q9 -20 22.5 -36t36.5 -30q17 -10 25.5 -20.5t8.5 -29.5q0 -22 -14 -36t-36 -14q-13 0 -23 4q-33 13 -64.5 47t-48.5 78z"/>
            <glyph glyph-name="psi" unicode="&#x3c8;" horiz-adv-x="1000"
                   d="M550 100q99 1 174.5 73t75.5 177v600q0 22 14 36t36 14t36 -14t14 -36v-600q0 -143 -102.5 -246.5t-247.5 -103.5v-350q0 -22 -14 -36t-36 -14t-36 14t-14 36v350q-144 0 -247 103t-103 247v600q0 22 14 36t36 14t36 -14t14 -36v-600q0 -105 75.5 -177.5t174.5 -72.5
v1050q0 22 14 36t36 14t36 -14t14 -36v-1050z"/>
            <glyph glyph-name="omega" unicode="&#x3c9;" horiz-adv-x="1100"
                   d="M600 200q0 -42 30 -71t70 -29h100q42 0 71 29t29 71v200q0 278 -97 531q-3 9 -3 19q0 22 14 36t36 14q17 0 28 -8.5t18 -24.5q104 -276 104 -567v-200q0 -77 -58.5 -138.5t-141.5 -61.5h-101q-48 0 -87.5 20t-63.5 50q-24 -30 -61.5 -50t-86.5 -20h-101
q-84 0 -141.5 57.5t-57.5 142.5v200q0 291 102 567q6 18 18 25.5t30 7.5q22 0 36 -14t14 -36q0 -10 -3 -19q-97 -259 -97 -531v-200q0 -42 30 -71t70 -29h100q42 0 71 29t29 71v250q0 22 14 36t36 14t36 -14t14 -36v-250z"/>
            <glyph glyph-name="Iio" unicode="&#x401;"
                   d="M201 699v-599h450q18 0 34 -16t16 -34t-13 -34t-37 -16h-500q-50 0 -50 50v1300q0 50 50 50h500q18 0 34 -16t16 -34t-13 -34t-37 -16h-450v-501h250q18 0 34 -16t16 -34t-13 -34t-37 -16h-250zM221 1633q25 0 35.5 -11t14.5 -40q0 -18 -12.5 -33.5t-37.5 -15.5
q-24 0 -36.5 14t-12.5 35q2 22 14.5 36.5t34.5 14.5v0zM540 1634q25 0 35.5 -11t14.5 -40q0 -18 -12.5 -33.5t-37.5 -15.5q-24 0 -36.5 14t-12.5 35q2 22 14.5 36.5t34.5 14.5v0zM221 1633q25 0 35.5 -11t14.5 -40q0 -18 -12.5 -33.5t-37.5 -15.5q-24 0 -36.5 14t-12.5 35
q2 22 14.5 36.5t34.5 14.5v0zM540 1634q25 0 35.5 -11t14.5 -40q0 -18 -12.5 -33.5t-37.5 -15.5q-24 0 -36.5 14t-12.5 35q2 22 14.5 36.5t34.5 14.5v0z"/>
            <glyph glyph-name="uni0402" unicode="&#x402;" horiz-adv-x="1073"
                   d="M485 981v-931q0 -24 -14 -38q-14 -12 -36 -12q-9 0 -35 12q-15 12 -15 38v1250h-250q-23 0 -37 14q-13 16 -13 36q0 11 12.5 30.5t37.5 19.5h601q18 0 34 -16t16 -34t-13 -34t-37 -16h-251v-219l281 -3q84 0 142.5 -57.5t58.5 -142.5v-767q0 -24 -6 -45t-18.5 -36
t-32.5 -23t-48 -7q-44 2 -83 1t-84 0q-18 0 -27 15t-9 33t9.5 32.5t29.5 14.5q24 0 45 0.5t42 -0.5q28 0 44 6.5t24.5 18t10 28.5t0.5 38q0 99 0.5 182t1 163.5t1 163.5t0.5 182q0 42 -29 71t-72 29z"/>
            <glyph glyph-name="uni0403" unicode="&#x403;"
                   d="M650 1300h-450v-1250q0 -24 -14 -38q-14 -12 -36 -12q-9 0 -35 12q-15 12 -15 38v1300q0 50 50 50h500q18 0 34 -16t16 -34t-13 -34t-37 -16zM247 1564l184 168q19 18 39 15t33 -17t14 -34t-18 -38l-184 -168q-19 -18 -39.5 -15t-33 17t-13.5 34t18 38z"/>
            <glyph glyph-name="uni0405" unicode="&#x405;" horiz-adv-x="0"
                   d="M779 1330q6 -3 12 -12t11 -29q0 -19 -16 -35.5t-35 -16.5l-28 9q-77 54 -173 54h-147q-87 0 -143.5 -59.5t-56.5 -140.5l3 -40l4 -19l7 -18q13 -26 46 -65l445 -447q44 -43 66 -98l8 -23l10 -38l4 -23l1 -29q0 -121 -82 -207q-87 -93 -219 -93h-146q-127 0 -228 71
l-17 18l-5 22q0 15 15 33t34 18l29 -9q79 -53 172 -53h146q81 0 141 60t60 141l-3 34q-1 8 -4 17.5t-7 18.5q-11 34 -45 71l-447 447q-35 35 -68 98q-21 54 -21 113q0 121 82 207q87 93 219 93h147q51 0 115 -18t114 -52z"/>
            <glyph glyph-name="uni0406" unicode="&#x406;" horiz-adv-x="0"
                   d="M200 50q0 -24 -14 -38q-14 -12 -36 -12q-9 0 -35 12q-15 12 -15 38v1300q0 16 15 33t35 17q18 0 34 -13t16 -37v-1300z"/>
            <glyph glyph-name="uni0407" unicode="&#x407;" horiz-adv-x="598"
                   d="M354 50q0 -24 -14 -38q-14 -12 -36 -12q-9 0 -35 12q-15 12 -15 38v1300q0 16 15 33t35 17q18 0 34 -13t16 -37v-1300zM143 1646q25 0 35.5 -11t14.5 -40q0 -18 -12.5 -33.5t-37.5 -15.5q-24 0 -36.5 14t-12.5 35q2 22 14.5 36.5t34.5 14.5v0zM462 1647q25 0 35.5 -11
t14.5 -40q0 -18 -12.5 -33.5t-37.5 -15.5q-24 0 -36.5 14t-12.5 35q2 22 14.5 36.5t34.5 14.5v0zM143 1646q25 0 35.5 -11t14.5 -40q0 -18 -12.5 -33.5t-37.5 -15.5q-24 0 -36.5 14t-12.5 35q2 22 14.5 36.5t34.5 14.5v0zM462 1647q25 0 35.5 -11t14.5 -40
q0 -18 -12.5 -33.5t-37.5 -15.5q-24 0 -36.5 14t-12.5 35q2 22 14.5 36.5t34.5 14.5v0z"/>
            <glyph glyph-name="uni0408" unicode="&#x408;" horiz-adv-x="0"
                   d="M600 300q0 -125 -87.5 -212.5t-212.5 -87.5h-150q-23 0 -37 14q-13 16 -13 36q0 11 12.5 30.5t37.5 19.5h150q83 0 141.5 58.5t58.5 141.5v1050q0 16 15 33t35 17q18 0 34 -13t16 -37v-1050z"/>
            <glyph glyph-name="uni0409" unicode="&#x409;" horiz-adv-x="1618"
                   d="M915 799h300q123 0 213 -87q44 -42 66 -96l15 -53l5 -32l2 -31v-200q0 -123 -88 -211.5t-213 -88.5h-350h-6h-5q-9 0 -35 12q-15 12 -15 38v1250h-212l-390 -1265q-12 -36 -47 -36q-21 0 -36.5 13.5t-15.5 35.5l3 17l401 1300q11 35 48 35h299h6h5q18 0 34 -13t16 -37
v-551zM915 699v-599h300q81 0 141 57t60 143v200q0 78 -61 138.5t-140 60.5h-300z"/>
            <glyph glyph-name="uni040A" unicode="&#x40a;" horiz-adv-x="1526"
                   d="M723 799v551q0 16 15 33t35 17h5q18 0 34 -13t16 -37v-551h300q123 0 213 -87q44 -42 66 -96l15 -53l5 -32l2 -31v-200q0 -123 -88 -211.5t-213 -88.5h-350h-5h-5q-14 2 -23 8q-4 2 -7 4q-15 12 -15 38v649h-501v-649q0 -24 -14 -38q-14 -12 -36 -12q-9 0 -35 12
q-15 12 -15 38v1300q0 16 15 33t35 17q18 0 34 -13t16 -37v-551h501zM828 699v-599h300q81 0 141 57t60 143v200q0 78 -61 138.5t-140 60.5h-300z"/>
            <glyph glyph-name="uni040B" unicode="&#x40b;" horiz-adv-x="1110"
                   d="M400 1300h-250q-23 0 -37 14q-13 16 -13 36q0 11 12.5 30.5t37.5 19.5h601q18 0 34 -16t16 -34t-13 -34t-37 -16h-251v-301h300q83 0 141.5 -57.5t58.5 -142.5v-750q0 -24 -14 -38q-14 -12 -36 -12q-9 0 -35 12q-15 12 -15 38v750q0 42 -29 71t-71 29h-300v-849v-1
q0 -24 -14 -38q-14 -12 -36 -12q-9 0 -35 12q-15 12 -15 38v900v5v346z"/>
            <glyph glyph-name="uni040C" unicode="&#x40c;" horiz-adv-x="900"
                   d="M200 534v-484q0 -24 -14 -38q-14 -12 -36 -12q-9 0 -35 12q-15 12 -15 38v1300q0 16 15 33t35 17q18 0 34 -13t16 -37v-649l511 679q15 21 39 21q18 0 35 -15.5t17 -35.5q0 -16 -11 -30l-356 -473l361 -776l3 -13q0 -7 2 -10q0 -18 -16 -34q-16 -14 -36 -14l-23 6l-20 23
l-339 728zM324 1607l184 168q19 18 39 15t33 -17t14 -34t-18 -38l-184 -168q-19 -18 -39.5 -15t-33 17t-13.5 34t18 38z"/>
            <glyph glyph-name="uni040E" unicode="&#x40e;" horiz-adv-x="900"
                   d="M701 601h-301q-113 0 -212 87q-42 44 -66 96l-15 53l-5 32l-2 31v450q0 16 15 33t35 17q18 0 34 -13t16 -37v-450q0 -83 58 -141t142 -58h301v649q0 16 15 33t35 17q18 0 34 -13t16 -37v-1050q0 -123 -88 -211.5t-213 -88.5h-250q-23 0 -37 14q-13 16 -13 36
q0 11 12.5 30.5t37.5 19.5h250q81 0 141 57t60 143v301zM314 1783q2 -75 41 -117.5t115 -44.5q33 0 61.5 13.5t49 36.5t32 52.5t11.5 61.5l99 -1q1 -50 -15 -97.5t-48 -84.5t-79.5 -59.5t-109.5 -21.5q-64 1 -112.5 20t-80.5 53t-48.5 82t-17.5 107h102z"/>
            <glyph glyph-name="uni040F" unicode="&#x40f;" horiz-adv-x="900"
                   d="M798 53q0 -50 -50 -50h-249v-174q0 -26 -15.5 -39t-34.5 -13t-34.5 13t-15.5 39v174h-252q-50 0 -50 50l3 1297q0 26 15 38q26 12 35 12q22 0 36 -12q14 -14 14 -38l-3 -1247h501l3 1247q0 26 15 38q26 12 35 12q22 0 36 -12q14 -14 14 -38z"/>
            <glyph glyph-name="Agrave" unicode="&#x410;" horiz-adv-x="1021"
                   d="M289 401l-98 -363q-3 -17 -16.5 -27t-30.5 -10q-20 0 -35.5 13.5t-15.5 35.5l2 14l350 1290q12 45 48 45t48 -45l350 -1290l2 -15q0 -18 -16 -35q-16 -13 -35 -13q-16 0 -28.5 8.5t-18.5 28.5l-98 363h-4h-400h-4zM670 501l-177 659l-177 -659h354z"/>
            <glyph glyph-name="Aacute" unicode="&#x411;" horiz-adv-x="900"
                   d="M708 1399q26 0 39 -15.5t13 -34.5t-13 -34.5t-39 -15.5l-508 1v-501h325q59 -5 109 -31.5t87 -64.5t57.5 -82.5t20.5 -86.5l1 -260q-8 -70 -39 -121.5t-72.5 -85t-85 -50t-75.5 -16.5l-329 -1q-46 -2 -73 4t-25 36v1320q1 3 2 9t4 12t10 11t20 7h571v0zM527 102
q46 7 79 29t53.5 48t30 52.5t9.5 42.5l-1 260q-2 28 -18 56t-40 50.5t-54.5 38.5t-61.5 22l-323 -2q-1 -4 -1 -30v-66v-91v-103v-105q0 -51 0.5 -93.5t0.5 -72.5v-38q82 1 163 1t163 1z"/>
            <glyph glyph-name="Acircumflex" unicode="&#x412;" horiz-adv-x="900"
                   d="M199 799h250q82 0 141 59t59 142v100q0 83 -57.5 141.5t-142.5 58.5h-250v-501zM199 100h300q81 0 141 57t60 143v200q0 78 -61 138.5t-140 60.5h-300v-599zM149 0q-50 0 -50 50v1300q0 50 50 50h300q123 0 212 -88q44 -42 66 -96l15 -53l5 -32l2 -31v-100
q0 -73 -27 -129t-85 -105q71 -36 117 -111t46 -155v-200q0 -120 -93.5 -210t-207.5 -90h-350z"/>
            <glyph glyph-name="Atilde" unicode="&#x413;"
                   d="M650 1300h-450v-1250q0 -24 -14 -38q-14 -12 -36 -12q-9 0 -35 12q-15 12 -15 38v1300q0 50 50 50h500q18 0 34 -16t16 -34t-13 -34t-37 -16z"/>
            <glyph glyph-name="Adieresis" unicode="&#x414;" horiz-adv-x="1000"
                   d="M850 100q50 0 50 -50v-99q0 -18 -16 -34t-34 -16t-34 13t-16 37v49h-600v-49q0 -18 -16 -34t-34 -16t-34 13t-16 37v99q0 50 50 50h53l97 1255q0 21 13 33l13 8l24 5h401q50 0 50 -50v-1250zM304 100h397v1201h-305z"/>
            <glyph glyph-name="Aring" unicode="&#x415;"
                   d="M201 699v-599h450q18 0 34 -16t16 -34t-13 -34t-37 -16h-500q-50 0 -50 50v1300q0 50 50 50h500q18 0 34 -16t16 -34t-13 -34t-37 -16h-450v-501h250q18 0 34 -16t16 -34t-13 -34t-37 -16h-250z"/>
            <glyph glyph-name="AE" unicode="&#x416;" horiz-adv-x="1100"
                   d="M598 806l307 568q14 27 43 27q22 0 37 -14t15 -35q0 -12 -7 -26l-313 -579l314 -676q6 -14 6 -26q0 -18 -16 -34q-16 -13 -34 -13q-15 0 -27 6q-9 6 -19 25l-306 658v-637q0 -24 -14 -38q-14 -12 -36 -12q-9 0 -35 12q-15 12 -15 38v633l-304 -654q-6 -12 -19 -22l-25 -7
q-20 0 -36 13.5t-16 34.5l6 23l314 676l-313 579l-7 26q0 11 15 30t38 19q27 0 42 -27l305 -564v540q0 21 15 36t36 15t35 -12.5t14 -38.5v-544z"/>
            <glyph glyph-name="Ccedilla" unicode="&#x417;" horiz-adv-x="900"
                   d="M660 750q52 -39 98 -107q17 -30 27 -69l7 -36l3 -38v-200q0 -123 -88 -211.5t-213 -88.5h-100q-54 0 -101 16q-45 17 -88 52q-72 59 -104 174l-1 12q0 11 15 30t37 19q15 0 29 -11q14 -9 18 -30q12 -62 69.5 -112t125.5 -50h100q81 0 141 57t60 143v200q0 78 -61 138.5
t-140 60.5h-149q-23 0 -37 14q-13 16 -13 36q0 11 12.5 30.5t37.5 19.5h149q83 0 142 59t59 142v100q0 82 -59 141t-142 59h-70q-57 0 -105.5 -30.5t-76.5 -88.5q-14 -31 -45 -31q-22 0 -37 14t-15 36q0 13 5 21q36 80 112 129.5t162 49.5h70q123 0 212 -87.5t89 -212.5
v-100q0 -75 -37 -142q-17 -32 -40 -58q-17 -19 -58 -50z"/>
            <glyph glyph-name="Egrave" unicode="&#x418;" horiz-adv-x="900"
                   d="M801 60q0 -24 -14 -38q-14 -12 -36 -12q-9 0 -35 12q-15 12 -15 38v1073l-506 -1094q-18 -36 -49 -36q-18 0 -33 15q-13 16 -13 42v1300q0 16 15 33t35 17q18 0 34 -13t16 -37v-1073l506 1094q18 36 49 36q15 0 30.5 -16t15.5 -41v-1300z"/>
            <glyph glyph-name="Eacute" unicode="&#x419;" horiz-adv-x="900"
                   d="M551 1500h-201q-23 0 -37 14q-13 16 -13 36q0 11 12.5 30.5t37.5 19.5h201q18 0 34 -16t16 -34t-13 -34t-37 -16zM800 50q0 -24 -14 -38q-14 -12 -36 -12q-9 0 -35 12q-15 12 -15 38v1074l-505 -1095q-18 -36 -49 -36q-18 0 -33 15q-13 16 -13 42v1301q0 16 15 33t35 17
q18 0 34 -13t16 -37v-1074l505 1095q18 36 49 36q15 0 30.5 -16t15.5 -41v-1301z"/>
            <glyph glyph-name="Ecircumflex" unicode="&#x41a;" horiz-adv-x="900"
                   d="M200 534v-484q0 -24 -14 -38q-14 -12 -36 -12q-9 0 -35 12q-15 12 -15 38v1300q0 16 15 33t35 17q18 0 34 -13t16 -37v-649l511 679q15 21 39 21q18 0 35 -15.5t17 -35.5q0 -16 -11 -30l-356 -473l361 -776l3 -13q0 -7 2 -10q0 -18 -16 -34q-16 -14 -36 -14l-23 6l-20 23
l-339 728z"/>
            <glyph glyph-name="Edieresis" unicode="&#x41b;" horiz-adv-x="1000"
                   d="M900 50q0 -24 -14 -38q-14 -12 -36 -12q-9 0 -35 12q-15 12 -15 38v1250h-212l-390 -1265q-12 -36 -47 -36q-21 0 -36.5 13.5t-15.5 35.5l3 17l401 1300q11 35 48 35h299q50 0 50 -50v-1300z"/>
            <glyph glyph-name="Igrave" unicode="&#x41c;" horiz-adv-x="1100"
                   d="M1000 50q0 -24 -14 -38q-14 -12 -36 -12q-9 0 -35 12q-15 12 -15 38v1123l-308 -499q-19 -31 -43 -31t-43 31l-306 498v-1122q0 -24 -14 -38q-14 -12 -36 -12q-9 0 -35 12q-15 12 -15 38v1300q0 28 13.5 43t32.5 15q13 0 24 -7q4 -1 23 -25l356 -580l358 580q18 32 48 32
q18 0 31.5 -16t13.5 -42v-1300z"/>
            <glyph glyph-name="Iacute" unicode="&#x41d;" horiz-adv-x="900"
                   d="M701 799v551q0 16 15 33t35 17q18 0 34 -13t16 -37v-1300q0 -24 -14 -38q-14 -12 -36 -12q-9 0 -35 12q-15 12 -15 38v649h-501v-649q0 -24 -14 -38q-14 -12 -36 -12q-9 0 -35 12q-15 12 -15 38v1300q0 16 15 33t35 17q18 0 34 -13t16 -37v-551h501z"/>
            <glyph glyph-name="Icircumflex" unicode="&#x41e;" horiz-adv-x="900"
                   d="M801 300q0 -123 -88 -211.5t-213 -88.5h-100q-115 0 -207.5 87t-92.5 213v800q0 120 87 210t213 90h100q123 0 212 -87.5t89 -212.5v-800zM701 300v800q0 82 -59 141t-142 59h-100q-83 0 -141.5 -58.5t-58.5 -141.5v-800q0 -81 60.5 -140.5t139.5 -59.5h100q81 0 141 57
t60 143z"/>
            <glyph glyph-name="Idieresis" unicode="&#x41f;" horiz-adv-x="900"
                   d="M801 50q0 -24 -14 -38q-14 -12 -36 -12q-9 0 -35 12q-15 12 -15 38v1250h-501v-1250q0 -24 -14 -38q-14 -12 -36 -12q-9 0 -35 12q-15 12 -15 38v1300q0 50 50 50h601q50 0 50 -50v-1300z"/>
            <glyph glyph-name="Eth" unicode="&#x420;" horiz-adv-x="900"
                   d="M200 701h300q81 0 141 57t60 142v200q0 82 -59 141t-142 59h-300v-599zM200 601v-551q0 -24 -14 -38q-14 -12 -36 -12q-9 0 -35 12q-15 12 -15 38v1300q0 50 50 50h350q123 0 212 -87.5t89 -212.5v-200q0 -123 -88 -211t-213 -88h-300z"/>
            <glyph glyph-name="Ntilde" unicode="&#x421;"
                   d="M650 0h-249q-117 0 -209 87.5t-92 212.5v800q0 120 87 210t214 90h249q18 0 34 -16t16 -34t-13 -34t-37 -16h-249q-83 0 -142 -57.5t-59 -142.5v-800q0 -82 59 -141t142 -59h249q18 0 34 -16t16 -34t-13 -34t-37 -16z"/>
            <glyph glyph-name="Ograve" unicode="&#x422;" horiz-adv-x="900"
                   d="M400 1300h-250q-23 0 -37 14q-13 16 -13 36q0 11 12.5 30.5t37.5 19.5h601q18 0 34 -16t16 -34t-13 -34t-37 -16h-251v-1250q0 -24 -14 -38q-14 -12 -36 -12q-9 0 -35 12q-15 12 -15 38v1250z"/>
            <glyph glyph-name="Oacute" unicode="&#x423;" horiz-adv-x="900"
                   d="M701 601h-301q-113 0 -212 87q-42 44 -66 96l-15 53l-5 32l-2 31v450q0 16 15 33t35 17q18 0 34 -13t16 -37v-450q0 -83 58 -141t142 -58h301v649q0 16 15 33t35 17q18 0 34 -13t16 -37v-1050q0 -123 -88 -211.5t-213 -88.5h-250q-23 0 -37 14q-13 16 -13 36
q0 11 12.5 30.5t37.5 19.5h250q81 0 141 57t60 143v301z"/>
            <glyph glyph-name="Ocircumflex" unicode="&#x424;" horiz-adv-x="1300"
                   d="M700 1100v-700h99q115 0 208 87t93 213v100q0 123 -87.5 211.5t-213.5 88.5h-99zM600 400v700h-100q-124 0 -213 -88q-42 -42 -66 -96l-15 -53l-5 -32l-2 -31v-100q0 -125 88.5 -212.5t212.5 -87.5h100zM600 300h-100q-79 0 -149 27t-131 85q-18 18 -50 60q-21 33 -39 72
q-32 76 -32 156v100q0 162 117 282q56 56 129 87q37 15 75.5 23t79.5 8h100v150q0 16 15 33t35 17q18 0 34 -13t16 -37v-150h99q167 0 284 -116t117 -284v-100q0 -162 -117 -282q-54 -54 -129 -87q-18 -7 -33.5 -12t-38.5 -10t-41 -7t-42 -2h-99v-250q0 -24 -14 -38
q-14 -12 -36 -12q-9 0 -35 12q-15 12 -15 38v250z"/>
            <glyph glyph-name="Otilde" unicode="&#x425;" horiz-adv-x="1000"
                   d="M501 807l306 568q14 27 43 27q22 0 37 -14t15 -35q0 -12 -7 -26l-337 -626l337 -626q7 -11 7 -26q0 -18 -16 -35q-16 -14 -37 -14q-27 0 -42 27l-306 568l-306 -568q-14 -27 -43 -27q-22 0 -37 14t-15 35q0 12 7 26l337 626l-337 626l-7 26q0 11 15 30t38 19q27 0 42 -27
z"/>
            <glyph glyph-name="Odieresis" unicode="&#x426;" horiz-adv-x="1000"
                   d="M701 99v1251q0 16 15 33t35 17q18 0 34 -13t16 -37v-1251h49q50 0 50 -50v-199q0 -18 -16 -34t-34 -16t-34 13t-16 37v149h-650q-50 0 -50 50v1301q0 16 15 33t35 17q18 0 34 -13t16 -37v-1251h501z"/>
            <glyph glyph-name="multiply" unicode="&#x427;" horiz-adv-x="900"
                   d="M701 601h-301q-113 0 -212 87q-42 44 -66 96l-15 53l-5 32l-2 31v450q0 16 15 33t35 17q18 0 34 -13t16 -37v-450q0 -83 58 -141t142 -58h301v649q0 16 15 33t35 17q18 0 34 -13t16 -37v-1300q0 -24 -14 -38q-14 -12 -36 -12q-9 0 -35 12q-15 12 -15 38v551z"/>
            <glyph glyph-name="Oslash" unicode="&#x428;" horiz-adv-x="1100"
                   d="M499 100v1250q0 16 15 33t35 17q18 0 34 -13t16 -37v-1250h301v1250q0 16 15 33t35 17q18 0 34 -13t16 -37v-1300q0 -50 -50 -50h-800q-50 0 -50 50v1300q0 16 15 33t35 17q18 0 34 -13t16 -37v-1250h299z"/>
            <glyph glyph-name="Ugrave" unicode="&#x429;" horiz-adv-x="1200"
                   d="M901 99v1251q0 16 15 33t35 17q18 0 34 -13t16 -37v-1251h49q50 0 50 -50v-199q0 -18 -16 -34t-34 -16t-34 13t-16 37v149h-850q-50 0 -50 50v1301q0 16 15 33t35 17q18 0 34 -13t16 -37v-1251h300v1251q0 16 15 33t35 17q18 0 34 -13t16 -37v-1251h301z"/>
            <glyph glyph-name="Uacute" unicode="&#x42a;" horiz-adv-x="1100"
                   d="M400 699v-599h300q83 0 141.5 58.5t58.5 141.5v200q0 83 -58 141t-142 58h-300zM400 799h300q113 0 212 -87q44 -42 66 -96l15 -53l5 -32l2 -31v-200q0 -125 -87.5 -212.5t-212.5 -87.5h-350q-50 0 -50 50v1250h-150q-23 0 -37 14q-13 16 -13 36q0 11 12.5 30.5
t37.5 19.5h200q50 0 50 -50v-551z"/>
            <glyph glyph-name="Ucircumflex" unicode="&#x42b;" horiz-adv-x="1000"
                   d="M900 50q0 -24 -14 -38q-14 -12 -36 -12q-9 0 -35 12q-15 12 -15 38v1300q0 16 15 33t35 17q18 0 34 -13t16 -37v-1300zM200 699v-599h200q81 0 141 57t60 143v200q0 78 -61 138.5t-140 60.5h-200zM200 799h200q123 0 213 -87q44 -42 66 -96l15 -53l5 -32l2 -31v-200
q0 -123 -88 -211.5t-213 -88.5h-250q-50 0 -50 50v1300q0 16 15 33t35 17q18 0 34 -13t16 -37v-551z"/>
            <glyph glyph-name="Udieresis" unicode="&#x42c;" horiz-adv-x="900"
                   d="M200 699v-599h300q81 0 141 57t60 143v200q0 78 -61 138.5t-140 60.5h-300zM200 799h300q123 0 213 -87q44 -42 66 -96l15 -53l5 -32l2 -31v-200q0 -123 -88 -211.5t-213 -88.5h-350q-50 0 -50 50v1300q0 16 15 33t35 17q18 0 34 -13t16 -37v-551z"/>
            <glyph glyph-name="Yacute" unicode="&#x42d;" horiz-adv-x="900"
                   d="M701 699h-351q-23 0 -37 14q-13 16 -13 36q0 11 12.5 30.5t37.5 19.5h351v301q0 82 -59 141t-142 59h-350q-23 0 -37 14q-13 16 -13 36q0 11 12.5 30.5t37.5 19.5h350q123 0 212 -87.5t89 -212.5v-800q0 -123 -88 -211.5t-213 -88.5h-350q-23 0 -37 14q-13 16 -13 36
q0 11 12.5 30.5t37.5 19.5h350q81 0 141 57t60 143v399z"/>
            <glyph glyph-name="Thorn" unicode="&#x42e;" horiz-adv-x="1000"
                   d="M800 300v800q0 93 -62 149q-58 50 -138 50q-81 0 -137 -49q-63 -54 -63 -150v-800q0 -95 62 -150q56 -50 138 -50q81 0 137 50q63 56 63 150zM200 799h100v301q0 141 93 225q84 75 207 75q110 0 206 -75q94 -83 94 -225v-800q0 -141 -93 -225q-84 -75 -207 -75
q-110 0 -206 75q-94 83 -94 225v399h-100v-649q0 -24 -14 -38q-14 -12 -36 -12q-9 0 -35 12q-15 12 -15 38v1300q0 16 15 33t35 17q18 0 34 -13t16 -37v-551z"/>
            <glyph glyph-name="germandbls" unicode="&#x42f;" horiz-adv-x="900"
                   d="M701 701v599h-301q-83 0 -141.5 -58.5t-58.5 -141.5v-200q0 -83 58 -141t142 -58h301zM502 601l-308 -575q-14 -27 -42 -27q-22 0 -37.5 14t-15.5 36q0 12 7 25l282 527q-120 0 -204 87t-84 212v200q0 120 87 210t213 90h351q50 0 50 -50v-1300q0 -24 -14 -38
q-14 -12 -36 -12q-9 0 -35 12q-15 12 -15 38v551h-199z"/>
            <glyph glyph-name="agrave" unicode="&#x430;"
                   d="M600 200v700h-300q-42 0 -71 -29t-29 -71v-600q0 -42 29 -71t71 -29h200q42 0 71 29t29 71zM768 96q36 -12 36 -47q0 -22 -14 -37q-12 -15 -34 -15l-18 3q-22 6 -48 28q-9 5 -40 39q-59 -67 -150 -67h-200q-84 0 -142 58t-58 142v600q0 75 57 137.5t143 62.5h350
q50 0 50 -50v-750q0 -30 18 -63q15 -23 50 -41z"/>
            <glyph glyph-name="aacute" unicode="&#x431;"
                   d="M600 200v600q0 42 -29 71t-72 29h-198q-42 0 -71.5 -29.5t-29.5 -70.5v-600q0 -42 29 -71t72 -29h198q42 0 71.5 29.5t29.5 70.5zM640 943l2 -2l2 -2q56 -58 56 -139v-600q0 -82 -57.5 -141t-143.5 -59h-198q-83 0 -142 59t-59 141v600q0 84 58 142t143 58h136l-322 314
l-16 21q-6 11 -6 23q0 18 15 30t42 12h500q18 0 34 -16t16 -34t-13 -34t-37 -16h-377z"/>
            <glyph glyph-name="acircumflex" unicode="&#x432;"
                   d="M200 1000l77 53q31 22 86 73l12 13l16 26q9 15 9 36q0 45 -29.5 72t-70.5 27q-42 0 -71 -26q-29 -24 -29 -73v-201zM600 200v600q0 42 -29 71t-72 29h-198q-42 0 -71.5 -29.5t-29.5 -70.5v-600q0 -42 29 -71t72 -29h198q42 0 71.5 29.5t29.5 70.5zM363 1000h136
q84 0 142.5 -57.5t58.5 -142.5v-600q0 -82 -57.5 -141t-143.5 -59h-198q-83 0 -142 59t-59 141v600v401q0 93 62 148q58 50 138 50q81 0 137 -49q62 -54 62 -149l-1 -36l-6 -25q-9 -31 -38 -64q-6 -9 -45 -39z"/>
            <glyph glyph-name="atilde" unicode="&#x433;"
                   d="M701 133q-21 -59 -79 -96q-27 -15 -60 -27l-33 -7l-29 -3h-200q-87 0 -143.5 60.5t-56.5 140.5q0 84 63 144l407 382q31 31 31 72q0 39 -28 70t-73 31h-200q-30 0 -61.5 -18.5t-45.5 -50.5q-12 -31 -45 -31q-20 0 -35.5 13.5t-15.5 34.5l3 19q21 53 78.5 93t121.5 40h200
q87 0 144 -60.5t57 -140.5q0 -84 -63 -144l-407 -382q-31 -31 -31 -72q0 -30 27 -71q27 -30 73 -30h200q23 0 65 18q30 18 42 50t46 32q20 0 35.5 -13.5t15.5 -34.5z"/>
            <glyph glyph-name="adieresis" unicode="&#x434;"
                   d="M600 900h-299q-42 0 -71.5 -29.5t-29.5 -70.5v-600q0 -42 29 -71t72 -29h198q42 0 71.5 29.5t29.5 70.5v700zM600 1000v201q0 41 -29 70t-72 29h-349q-23 0 -37 14q-13 16 -13 36q0 11 12.5 30.5t37.5 19.5h349q83 0 142 -59t59 -140v-1001q0 -82 -57.5 -141t-143.5 -59
h-198q-83 0 -142 59t-59 141v600q0 84 58 142t143 58h299z"/>
            <glyph glyph-name="aring" unicode="&#x435;"
                   d="M200 550h400v250q0 42 -29 71t-71 29h-200q-42 0 -71 -29t-29 -71v-250zM200 450v-250q0 -42 29 -71t71 -29h350q18 0 34 -16t16 -34t-13 -34t-37 -16h-350q-84 0 -142 58t-58 142v600q0 75 57 137.5t143 62.5h200q83 0 141.5 -57.5t58.5 -142.5v-300q0 -50 -50 -50h-450
z"/>
            <glyph glyph-name="ae" unicode="&#x436;" horiz-adv-x="1000"
                   d="M547 588l262 390l13 13q9 6 27 9q15 0 33 -14.5t18 -34.5l-9 -29l-284 -422l284 -422l7 -15l2 -14q0 -18 -16 -35q-16 -14 -36 -14q-23 0 -39 22l-262 390v-362q0 -24 -14 -38q-14 -12 -36 -12q-9 0 -35 12q-15 12 -15 38v359l-253 -387q-8 -12 -19 -18l-22 -5
q-18 0 -36 15q-16 16 -16 36l9 28l276 422l-276 422l-7 15l-2 14q0 11 15.5 30.5t37.5 19.5q24 0 40 -23l253 -387v359q0 16 15 33t35 17q18 0 34 -13t16 -37v-362z"/>
            <glyph glyph-name="ccedilla" unicode="&#x437;" horiz-adv-x="750"
                   d="M582 500q68 -60 68 -150v-150q0 -81 -63 -141q-22 -20 -67 -43q-48 -16 -81 -16h-150q-60 0 -111 35.5t-79 102.5l-3 18q0 18 15 33t37 15q33 0 45 -33q9 -25 37 -53q26 -18 59 -18h150q42 0 77 29q34 31 34 71v150q0 39 -34 69.5t-77 30.5h-100q-23 0 -37 14
q-13 16 -13 36q0 11 12.5 30.5t37.5 19.5h100q42 0 77 29q34 31 34 71v150q0 39 -34 69.5t-77 30.5h-100q-30 0 -57.5 -18.5t-37.5 -50.5q-3 -7 -19 -26l-6 -3l-21 -5q-20 0 -35.5 13.5t-15.5 34.5l3 18q21 62 72.5 99.5t116.5 37.5h100q84 0 147.5 -59.5t63.5 -140.5v-150
q0 -50 -17 -85q-12 -33 -51 -65z"/>
            <glyph glyph-name="egrave" unicode="&#x438;"
                   d="M700 50q0 -50 -50 -50h-350q-84 0 -142 58t-58 142v750q0 16 15 33t35 17q18 0 34 -13t16 -37v-750q0 -42 29 -71t71 -29h300v850q0 16 15 33t35 17q18 0 34 -13t16 -37v-900z"/>
            <glyph glyph-name="eacute" unicode="&#x439;"
                   d="M499 1300h-198q-23 0 -37 14q-13 16 -13 36q0 11 12.5 30.5t37.5 19.5h198q18 0 34 -16t16 -34t-13 -34t-37 -16zM700 50q0 -50 -50 -50h-349q-83 0 -142 59t-59 141v750q0 16 15 33t35 17q18 0 34 -13t16 -37v-750q0 -42 29 -71t72 -29h299v850q0 16 15 33t35 17
q18 0 34 -13t16 -37v-900z"/>
            <glyph glyph-name="ecircumflex" unicode="&#x43a;"
                   d="M379 573l314 -496l8 -28q0 -18 -16 -35q-16 -14 -36 -14q-13 0 -22 5t-18 18l-299 473l-109 -121v-325q0 -24 -14 -38q-14 -12 -36 -12q-9 0 -35 12q-15 12 -15 38v900q0 16 15 33t35 17q18 0 34 -13t16 -37v-425l414 455q17 18 37 18q18 0 34.5 -15.5t16.5 -36.5
q0 -19 -14 -34z"/>
            <glyph glyph-name="edieresis" unicode="&#x43b;"
                   d="M700 50q0 -24 -14 -38q-14 -12 -36 -12q-9 0 -35 12q-15 12 -15 38v850h-210l-191 -861q-9 -39 -47 -39q-21 0 -36.5 13.5t-15.5 35.5l1 12l200 900q9 39 49 39h300q50 0 50 -50v-900z"/>
            <glyph glyph-name="igrave" unicode="&#x43c;" horiz-adv-x="900"
                   d="M800 50q0 -24 -14 -38q-14 -12 -36 -12q-9 0 -35 12q-15 12 -15 38v734l-208 -312q-18 -29 -42 -29q-23 0 -42 29l-208 312v-734q0 -24 -14 -38q-14 -12 -36 -12q-9 0 -35 12q-15 12 -15 38v900q0 21 15 36t36 15q9 0 21 -6q12 -3 20 -17l258 -387l258 387q17 24 43 24
q10 0 29.5 -14.5t19.5 -37.5v-900z"/>
            <glyph glyph-name="iacute" unicode="&#x43d;"
                   d="M600 550v400q0 16 15 33t35 17q18 0 34 -13t16 -37v-900q0 -24 -14 -38q-14 -12 -36 -12q-9 0 -35 12q-15 12 -15 38v400h-400v-400q0 -24 -14 -38q-14 -12 -36 -12q-9 0 -35 12q-15 12 -15 38v900q0 16 15 33t35 17q18 0 34 -13t16 -37v-400h400z"/>
            <glyph glyph-name="icircumflex" unicode="&#x43e;"
                   d="M700 200q0 -84 -58 -142t-142 -58h-200q-84 0 -142 58t-58 142v600q0 75 57 137.5t143 62.5h200q83 0 141.5 -57.5t58.5 -142.5v-600zM600 200v600q0 42 -29 71t-71 29h-200q-42 0 -71 -29t-29 -71v-600q0 -42 29 -71t71 -29h200q42 0 71 29t29 71z"/>
            <glyph glyph-name="idieresis" unicode="&#x43f;"
                   d="M700 50q0 -24 -14 -38q-14 -12 -36 -12q-9 0 -35 12q-15 12 -15 38v750q0 42 -29 71t-71 29h-300v-850q0 -24 -14 -38q-14 -12 -36 -12q-9 0 -35 12q-15 12 -15 38v900q0 50 50 50h350q83 0 141.5 -57.5t58.5 -142.5v-750z"/>
            <glyph glyph-name="eth" unicode="&#x440;"
                   d="M200 99h301q39 0 69 30t30 71v601q0 41 -29 70t-70 29h-301v-801zM200 -1v-349q0 -18 -16 -34t-34 -16t-34 13t-16 37v1300q0 50 50 50h351q81 0 140 -57.5t59 -141.5v-601q0 -83 -57.5 -142t-141.5 -59h-301z"/>
            <glyph glyph-name="ntilde" unicode="&#x441;"
                   d="M650 0h-350q-84 0 -142 58t-58 142v600q0 75 57 137.5t143 62.5h350q18 0 34 -16t16 -34t-13 -34t-37 -16h-350q-42 0 -71 -29t-29 -71v-600q0 -42 29 -71t71 -29h350q18 0 34 -16t16 -34t-13 -34t-37 -16z"/>
            <glyph glyph-name="ograve" unicode="&#x442;" horiz-adv-x="1100"
                   d="M500 900h-300v-850q0 -24 -14 -38q-14 -12 -36 -12q-9 0 -35 12q-15 12 -15 38v900q0 50 50 50h650q83 0 141.5 -57.5t58.5 -142.5v-750q0 -24 -14 -38q-14 -12 -36 -12q-9 0 -35 12q-15 12 -15 38v750q0 42 -29 71t-71 29h-200v-850q0 -24 -14 -38q-14 -12 -36 -12
q-9 0 -35 12q-15 12 -15 38v850z"/>
            <glyph glyph-name="oacute" unicode="&#x443;"
                   d="M600 0h-299q-83 0 -142 59t-59 142v750q0 16 15 33t35 17q18 0 34 -13t16 -37v-750q0 -42 30.5 -71.5t70.5 -29.5h299v851q0 16 15 33t35 17q18 0 34 -13t16 -37v-1150q0 -82 -57.5 -141t-141.5 -59h-301q-13 0 -37 15q-13 16 -13 35q0 9 12 35q12 15 38 15h301
q41 0 70 29t29 71v199z"/>
            <glyph glyph-name="ocircumflex" unicode="&#x444;" horiz-adv-x="1100"
                   d="M600 902v-802h100q76 0 137.5 60.5t61.5 140.5v400q0 83 -57.5 142t-141.5 59h-100zM500 100v802h-101q-78 0 -138.5 -60.5t-60.5 -140.5v-400q0 -74 57 -137.5t142 -63.5h101zM500 0h-101q-120 0 -209.5 87t-89.5 214v400q0 123 87 213q44 44 96 66l53 15l32 5l31 2h101
v149q0 16 15 33t35 17q18 0 34 -13t16 -37v-149h100q123 0 211 -88t88 -213v-400q0 -123 -87 -213q-42 -42 -96 -66l-53 -15l-32 -5l-31 -2h-100v-349q0 -18 -16 -34t-34 -16t-34 13t-16 37v349z"/>
            <glyph glyph-name="otilde" unicode="&#x445;"
                   d="M457 501l237 -427q7 -11 7 -26q0 -18 -16 -34q-16 -14 -37 -14q-28 0 -42 26l-206 371l-206 -371l-18 -19l-25 -7q-22 0 -37 14t-15 35q0 12 7 25l237 426l-237 428l-7 26q0 18 15 33t38 15q28 0 42 -26l206 -373l206 371l18 19l25 7q22 0 37 -14t15 -35q0 -12 -7 -25z
"/>
            <glyph glyph-name="odieresis" unicode="&#x446;" horiz-adv-x="900"
                   d="M601 99v851q0 16 15 33t35 17q18 0 34 -13t16 -37v-851h50q50 0 50 -50v-199q0 -18 -16 -34t-34 -16t-34 13t-16 37v149h-401q-84 0 -142 58t-58 142v751q0 16 15 33t35 17q18 0 34 -13t16 -37v-751q0 -42 29 -71t71 -29h301z"/>
            <glyph glyph-name="divide" unicode="&#x447;"
                   d="M600 550v400q0 16 15 33t35 17q18 0 34 -13t16 -37v-900q0 -24 -14 -38q-14 -12 -36 -12q-9 0 -35 12q-15 12 -15 38v400h-300q-84 0 -142 58t-58 142v300q0 16 15 33t35 17q18 0 34 -13t16 -37v-300q0 -42 29 -71t71 -29h300z"/>
            <glyph glyph-name="oslash" unicode="&#x448;" horiz-adv-x="1100"
                   d="M600 100h300v850q0 16 15 33t35 17q18 0 34 -13t16 -37v-900q0 -50 -50 -50h-650q-84 0 -142 58t-58 142v750q0 16 15 33t35 17q18 0 34 -13t16 -37v-750q0 -42 29 -71t71 -29h200v850q0 16 15 33t35 17q18 0 34 -13t16 -37v-850z"/>
            <glyph glyph-name="ugrave" unicode="&#x449;" horiz-adv-x="1200"
                   d="M500 100v851q0 16 15 33t35 17q18 0 34 -13t16 -37v-851h301v851q0 16 15 33t35 17q18 0 34 -13t16 -37v-851h50q50 0 50 -50v-199q0 -18 -16 -34t-34 -16t-34 13t-16 37v149h-701q-84 0 -142 58t-58 142v751q0 16 15 33t35 17q18 0 34 -13t16 -37v-751q0 -42 29 -71
t71 -29h200z"/>
            <glyph glyph-name="uacute" unicode="&#x44a;" horiz-adv-x="1000"
                   d="M400 450v-350h300q42 0 71 29t29 71v150q0 42 -29 71t-71 29h-300zM400 550h300q83 0 141.5 -57.5t58.5 -142.5v-150q0 -84 -58 -142t-142 -58h-350q-50 0 -50 50v850h-150q-23 0 -37 14q-13 16 -13 36q0 11 12.5 30.5t37.5 19.5h200q50 0 50 -50v-400z"/>
            <glyph glyph-name="ucircumflex" unicode="&#x44b;" horiz-adv-x="900"
                   d="M800 50q0 -24 -14 -38q-14 -12 -36 -12q-9 0 -35 12q-15 12 -15 38v900q0 16 15 33t35 17q18 0 34 -13t16 -37v-900zM200 450v-350h200q42 0 71 29t29 71v150q0 42 -29 71t-71 29h-200zM200 550h200q83 0 141.5 -57.5t58.5 -142.5v-150q0 -84 -58 -142t-142 -58h-250
q-50 0 -50 50v900q0 16 15 33t35 17q18 0 34 -13t16 -37v-400z"/>
            <glyph glyph-name="udieresis" unicode="&#x44c;"
                   d="M200 450v-350h300q42 0 71 29t29 71v150q0 42 -29 71t-71 29h-300zM200 550h300q83 0 141.5 -57.5t58.5 -142.5v-150q0 -84 -58 -142t-142 -58h-350q-50 0 -50 50v900q0 16 15 33t35 17q18 0 34 -13t16 -37v-400z"/>
            <glyph glyph-name="yacute" unicode="&#x44d;"
                   d="M600 450h-200q-23 0 -37 14q-13 16 -13 36q0 11 12.5 30.5t37.5 19.5h200v250q0 42 -29 71t-71 29h-350q-23 0 -37 14q-13 16 -13 36q0 11 12.5 30.5t37.5 19.5h350q83 0 141.5 -57.5t58.5 -142.5v-600q0 -84 -58 -142t-142 -58h-350q-23 0 -37 14q-13 16 -13 36
q0 11 12.5 30.5t37.5 19.5h350q42 0 71 29t29 71v250z"/>
            <glyph glyph-name="thorn" unicode="&#x44e;" horiz-adv-x="900"
                   d="M700 200v600q0 42 -29 71t-71 29h-100q-42 0 -71 -29t-29 -71v-600q0 -42 29 -71t71 -29h100q42 0 71 29t29 71zM200 550h100v250q0 75 57 137.5t143 62.5h100q82 0 141 -59t59 -141v-600q0 -83 -58.5 -141.5t-141.5 -58.5h-100q-84 0 -142 58t-58 142v250h-100v-400
q0 -24 -14 -38q-14 -12 -36 -12q-9 0 -35 12q-15 12 -15 38v900q0 16 15 33t35 17q18 0 34 -13t16 -37v-400z"/>
            <glyph glyph-name="ydieresis" unicode="&#x44f;"
                   d="M700 50q0 -24 -14 -38q-14 -12 -36 -12q-9 0 -35 12q-15 12 -15 38v400h-171l-235 -424l-18 -19l-25 -7q-22 0 -37 14t-15 35q0 12 7 25l209 376h-15q-84 0 -142 58t-58 142v150q0 75 57 137.5t143 62.5h350q50 0 50 -50v-900zM600 550v350h-300q-42 0 -71 -29t-29 -71
v-150q0 -42 29 -71t71 -29h300z"/>
            <glyph glyph-name="uni0451" unicode="&#x451;"
                   d="M200 549h400v250q0 42 -29 71t-71 29h-201q-41 0 -70 -29t-29 -71v-250zM200 450v-250q0 -42 29 -71t70 -29h350q18 0 34 -16t16 -34t-13 -34t-37 -16h-350q-83 0 -141 58t-58 142v599q0 75 57 137.5t142 62.5h201q84 0 142 -58t58 -142v-299q0 -50 -51 -50h-449z
M248 1394q25 0 35.5 -11t14.5 -40q0 -18 -12.5 -33.5t-37.5 -15.5q-24 0 -36.5 14t-12.5 35q2 22 14.5 36.5t34.5 14.5v0zM567 1395q25 0 35.5 -11t14.5 -40q0 -18 -12.5 -33.5t-37.5 -15.5q-24 0 -36.5 14t-12.5 35q2 22 14.5 36.5t34.5 14.5v0zM248 1394q25 0 35.5 -11
t14.5 -40q0 -18 -12.5 -33.5t-37.5 -15.5q-24 0 -36.5 14t-12.5 35q2 22 14.5 36.5t34.5 14.5v0zM567 1395q25 0 35.5 -11t14.5 -40q0 -18 -12.5 -33.5t-37.5 -15.5q-24 0 -36.5 14t-12.5 35q2 22 14.5 36.5t34.5 14.5v0z"/>
            <glyph glyph-name="uni0452" unicode="&#x452;" horiz-adv-x="1022"
                   d="M381 901h303q84 0 142.5 -57.5t58.5 -142.5l3 -883q0 -17 -6 -37.5t-20 -39t-36.5 -31.5t-55.5 -14q-34 -1 -78 -1.5t-75 -0.5q-26 0 -40.5 16.5t-16.5 36.5t9.5 36.5t37.5 16.5q24 1 40 0.5t29 -0.5h26t30 2q33 3 43.5 22t10.5 54q0 99 -0.5 203t-0.5 208v209v203
q0 42 -29 71t-72 29h-299l-2 -746q0 -24 -14 -38q-14 -12 -36 -12q-9 0 -35 12q-15 12 -15 38l1 1041h-130q-26 0 -39 15.5t-13 34.5t13 34.5t39 15.5h130l1 150q0 16 15 33t35 17q18 0 34 -13t16 -37l-1 -151h277q26 0 39 -16t13 -35q0 -18 -13 -33.5t-39 -15.5l-279 2z
"/>
            <glyph glyph-name="uni0453" unicode="&#x453;"
                   d="M643 904h-450l7 -854q0 -24 -14 -38q-14 -12 -36 -12q-9 0 -35 12q-15 12 -15 38l-7 904q0 50 50 50h500q18 0 34 -16t16 -34t-13 -34t-37 -16zM235 1218l184 168q19 18 39 15t33 -17t14 -34t-18 -38l-184 -168q-19 -18 -39.5 -15t-33 17t-13.5 34t18 38z"/>
            <glyph glyph-name="ordmasculine" unicode="&#x454;"
                   d="M200 550h200q23 0 37 -14q13 -16 13 -36q0 -18 -13 -34t-37 -16h-200v-250q0 -42 29 -71t71 -29h350q23 0 37 -14q13 -16 13 -36q0 -18 -13 -35l-5 -3l-15 -8l-27 -4h-350q-41 0 -70.5 13.5t-60.5 45.5q-59 57 -59 141v600q0 84 58 142t142 58h350q23 0 37 -14
q13 -16 13 -36q0 -18 -13 -34t-37 -16h-350q-42 0 -71 -29t-29 -71v-250z"/>
            <glyph glyph-name="uni0455" unicode="&#x455;" horiz-adv-x="0"
                   d="M698 880l8 -15l3 -17q0 -18 -16 -35q-16 -14 -35 -14l-23 3q-3 2 -5 4q-5 5 -12 14q-27 36 -71 58l-45 16q-23 6 -47 6h-137q-52 0 -84 -34.5t-32 -81.5q0 -51 43 -88l385 -314q39 -30 58 -76q20 -43 20 -89q0 -88 -58 -150q-62 -67 -157 -67h-137q-75 0 -135 29.5
t-108 90.5l-8 15l-3 17q0 11 15 30t36 19q13 0 22 -5q9 -3 18 -16q19 -27 70 -59q42 -21 93 -21h137q51 0 83 35t32 81q0 43 -42 88l-385 314q-39 33 -60 76l-14 49q-5 23 -5 40q0 88 58 150q62 67 158 67h137q73 0 136 -30.5t107 -89.5z"/>
            <glyph glyph-name="uni0456" unicode="&#x456;" horiz-adv-x="0"
                   d="M150 1400q15 0 32.5 -14.5t17.5 -35.5q0 -18 -12.5 -33.5t-37.5 -15.5q-24 0 -36.5 14t-12.5 35q0 11 12.5 30.5t36.5 19.5zM200 951v-901q0 -16 -15 -37q-16 -13 -34 -13q-9 0 -35 12q-15 12 -15 38v901q0 13 15 31t35 18q18 0 33.5 -12.5t15.5 -36.5z"/>
            <glyph glyph-name="uni0457" unicode="&#x457;" horiz-adv-x="592"
                   d="M329 951v-901q0 -16 -15 -37q-16 -13 -34 -13q-9 0 -35 12q-15 12 -15 38v901q0 13 15 31t35 18q18 0 33.5 -12.5t15.5 -36.5zM134 1404q25 0 35.5 -11t14.5 -40q0 -18 -12.5 -33.5t-37.5 -15.5q-24 0 -36.5 14t-12.5 35q2 22 14.5 36.5t34.5 14.5v0zM453 1405
q25 0 35.5 -11t14.5 -40q0 -18 -12.5 -33.5t-37.5 -15.5q-24 0 -36.5 14t-12.5 35q2 22 14.5 36.5t34.5 14.5v0zM134 1404q25 0 35.5 -11t14.5 -40q0 -18 -12.5 -33.5t-37.5 -15.5q-24 0 -36.5 14t-12.5 35q2 22 14.5 36.5t34.5 14.5v0zM453 1405q25 0 35.5 -11t14.5 -40
q0 -18 -12.5 -33.5t-37.5 -15.5q-24 0 -36.5 14t-12.5 35q2 22 14.5 36.5t34.5 14.5v0z"/>
            <glyph glyph-name="uni0458" unicode="&#x458;" horiz-adv-x="392"
                   d="M242 1300q-25 0 -39 14q-13 16 -13 37t12 36t40 15q21 0 37 -16t16 -35q0 -22 -14 -36.5t-39 -14.5zM292 -243q0 -51 -13 -77.5t-46 -67.5q-59 -60 -144 -60h-52q-15 0 -32.5 14.5t-17.5 35.5q0 18 13 34t37 16h52q42 0 72.5 31t30.5 74v1183q0 16 15 33t35 17
q18 0 34 -13t16 -37v-1183z"/>
            <glyph glyph-name="uni0459" unicode="&#x459;" horiz-adv-x="1341"
                   d="M706 550h300q83 0 141.5 -57.5t58.5 -142.5v-150q0 -84 -58 -142t-142 -58h-350h-2h-5q-4 0 -10 1l-1 1h-2l-4 2l-6 2l-12 6q-15 12 -15 38v850h-210l-191 -861q-9 -39 -47 -39q-21 0 -36.5 13.5t-15.5 35.5l1 12l200 900q9 39 49 39h301h1h2h3q18 0 34 -13t16 -37v-400z
M706 450v-350h300q42 0 71 29t29 71v150q0 42 -29 71t-71 29h-300z"/>
            <glyph glyph-name="uni045A" unicode="&#x45a;" horiz-adv-x="1360"
                   d="M626 551v400q0 16 15 33t35 17q7 2 14 2q18 0 34 -13t16 -37v-400h300q83 0 141.5 -57.5t58.5 -142.5v-150q0 -84 -58 -142t-142 -58h-348q-7 -2 -16 -2t-35 12q-15 12 -15 38v400h-400v-400q0 -24 -14 -38q-14 -12 -36 -12q-9 0 -35 12q-15 12 -15 38v900q0 16 15 33
t35 17q18 0 34 -13t16 -37v-400h400zM740 453v-350h300q42 0 71 29t29 71v150q0 42 -29 71t-71 29h-300z"/>
            <glyph glyph-name="uni045B" unicode="&#x45b;" horiz-adv-x="1003"
                   d="M399 1000h303q84 0 142.5 -57.5t58.5 -142.5v-750q0 -24 -14 -38q-14 -12 -36 -12q-9 0 -35 12q-15 12 -15 38v750q0 42 -29 71t-72 29h-299v-850q0 -24 -14 -38q-14 -12 -36 -12q-9 0 -35 12q-15 12 -15 38l-1 1145l-188 1q-26 0 -39 15.5t-13 34.5t13 34.5t39 15.5
l188 -1v258q0 16 15 33t35 17q18 0 34 -13t16 -37v-259l334 -1q26 0 39 -16t13 -35q0 -18 -13 -33.5t-39 -15.5l-336 3z"/>
            <glyph glyph-name="uni045C" unicode="&#x45c;"
                   d="M379 573l314 -496l8 -28q0 -18 -16 -35q-16 -14 -36 -14q-13 0 -22 5t-18 18l-299 473l-109 -121v-325q0 -24 -14 -38q-14 -12 -36 -12q-9 0 -35 12q-15 12 -15 38v900q0 16 15 33t35 17q18 0 34 -13t16 -37v-425l414 455q17 18 37 18q18 0 34.5 -15.5t16.5 -36.5
q0 -19 -14 -34zM282 1219l184 168q19 18 39 15t33 -17t14 -34t-18 -38l-184 -168q-19 -18 -39.5 -15t-33 17t-13.5 34t18 38z"/>
            <glyph glyph-name="uni045E" unicode="&#x45e;"
                   d="M600 0h-299q-83 0 -142 59t-59 142v750q0 16 15 33t35 17q18 0 34 -13t16 -37v-750q0 -42 30.5 -71.5t70.5 -29.5h299v851q0 16 15 33t35 17q18 0 34 -13t16 -37v-1150q0 -82 -57.5 -141t-141.5 -59h-301q-13 0 -37 15q-13 16 -13 35q0 9 12 35q12 15 38 15h301
q41 0 70 29t29 71v199zM255 1397q2 -75 41 -117.5t115 -44.5q33 0 61.5 13.5t49 36.5t32 52.5t11.5 61.5l99 -1q1 -50 -15 -97.5t-48 -84.5t-79.5 -59.5t-109.5 -21.5q-64 1 -112.5 20t-80.5 53t-48.5 82t-17.5 107h102z"/>
            <glyph glyph-name="uni045F" unicode="&#x45f;" horiz-adv-x="822"
                   d="M712 55q0 -50 -50 -50l-209 -1v-153q0 -26 -15.5 -39t-34.5 -13t-34.5 13t-15.5 39v153h-190q-50 0 -50 50l1 893q0 26 15 38q26 12 35 12q22 0 36 -12q14 -14 14 -38l-1 -843l399 1l1 843q0 26 15 38q26 12 35 12q22 0 36 -12q14 -14 14 -38z"/>
            <glyph glyph-name="uni0490" unicode="&#x490;"
                   d="M597 1400v165q0 26 15.5 39t34.5 13t34.5 -13t15.5 -39v-200v-16q0 -18 -11.5 -33.5t-35.5 -15.5h-450v-1250q0 -24 -14 -38q-14 -12 -36 -12q-9 0 -35 12q-15 12 -15 38v1300q0 50 50 50h447z"/>
            <glyph glyph-name="uni0491" unicode="&#x491;"
                   d="M596 1005l-1 123q0 26 15.5 39t34.5 13t34.5 -13t15.5 -39l1 -158v-16q0 -18 -11.5 -33.5t-35.5 -15.5h-450l1 -855q0 -24 -14 -38q-14 -12 -36 -12q-9 0 -35 12q-15 12 -15 38l-1 905q0 50 50 50h447z"/>
            <glyph glyph-name="uni20AC" unicode="&#x20ac;" horiz-adv-x="1201"
                   d="M298 755q-3 -42 -3 -83h78q33 0 59 -0.5t48 -0.5t48 -0.5t58 -0.5h79q22 0 32.5 -11.5t10 -26t-12 -26.5t-33.5 -12h-364q-2 -202 122 -379q117 -148 261 -135q57 0 117.5 33.5t119.5 83.5q15 15 32 16.5t29 -6.5t15 -23t-10 -31q-28 -24 -56.5 -48.5t-63 -45.5
t-79 -37.5t-104.5 -24.5q-235 -6 -361 185q-106 155 -122 409h-101q-19 0 -28 11.5t-8.5 25.5t10 26t27.5 12l96 3v16q0 30 2 67h-99q-18 1 -29 12.5t-12.5 26t8 26t32.5 12.5l108 1q34 237 162 391q147 178 376 178q43 0 81 -10t74 -24q21 -13 36 -24.5t26 -23t19.5 -25
t16.5 -29.5q4 -13 -2.5 -26t-18.5 -21t-26 -8q-13 0 -23 14q-50 81 -166 81q-190 6 -305 -123q-129 -150 -149 -347h85t64.5 -0.5t54.5 -0.5t54.5 -0.5t64.5 -0.5h85q21 0 32 -12t11.5 -26.5t-10 -26.5t-32.5 -11h-416z"/>
            <glyph glyph-name="uni2116" unicode="&#x2116;" horiz-adv-x="1591"
                   d="M1480 834q0 -84 -58 -142t-142 -58h-123q-83 6 -141 64t-58 142v368q0 75 57 137.5t143 62.5l122 -6q83 0 141.5 -57.5t58.5 -142.5v-368zM1380 834v368q0 42 -29 71t-71 29l-122 6q-42 0 -71 -29t-29 -71v-368q0 -42 28.5 -74t70.5 -32h123q42 0 71 29t29 71zM801 50
q0 -13 -15 -37q-16 -13 -35 -13l-25 6l-20 23l-506 1094v-1073q0 -24 -14 -38q-14 -12 -36 -12q-9 0 -35 12q-15 12 -15 38v1300q0 16 15 33t35 17q12 0 24.5 -6t20.5 -23l506 -1094v1073q0 16 15 33t35 17q18 0 34 -13t16 -37v-1300z"/>
            <glyph glyph-name="arrowleft" unicode="&#x2190;" horiz-adv-x="2048"
                   d="M492 876h76q-59 -118 -88.5 -165.5t-106.5 -143.5h1595v-101h-1595q104 -108 198 -309h-78q-129 144 -222 218.5t-192 122.5v45q87 37 184 113t229 220z"/>
            <glyph glyph-name="arrowup" unicode="&#x2191;" horiz-adv-x="1024"
                   d="M153 926q145 133 220.5 230t112.5 183h46q47 -99 121.5 -192t218.5 -222v-77q-201 94 -309 197v-1474h-101v1474q-96 -76 -143.5 -106t-165.5 -89v76z"/>
            <glyph glyph-name="arrowright" unicode="&#x2192;" horiz-adv-x="2048"
                   d="M1555 876q133 -145 230 -220.5t183 -112.5v-45q-99 -48 -192 -122.5t-222 -218.5h-77q94 201 197 309h-1595v101h1595q-76 97 -106 144t-89 165h76z"/>
            <glyph glyph-name="arrowdown" unicode="&#x2193;" horiz-adv-x="1024"
                   d="M153 -16v76q119 -59 166 -89t143 -106v1474h101v-1474q108 103 309 197v-77q-144 -129 -218.5 -222t-121.5 -192h-46q-37 86 -112.5 183t-220.5 230z"/>
            <glyph glyph-name="diameter" unicode="&#x2205;" horiz-adv-x="1200"
                   d="M100 700q0 69 18 133t50.5 119.5t78 101t101 78t119.5 50.5t133 18q103 0 194.5 -39.5t159 -107t107 -159t39.5 -194.5q0 -69 -18 -133t-50.5 -119.5t-78 -101t-101 -78t-119.5 -50.5t-133 -18t-133 18t-119.5 50.5t-101 78t-78 101t-50.5 119.5t-18 133zM200 700
q0 -83 31.5 -156t85.5 -127t127 -85.5t156 -31.5t156 31.5t127 85.5t85.5 127t31.5 156t-31.5 156t-85.5 127t-127 85.5t-156 31.5t-156 -31.5t-127 -85.5t-85.5 -127t-31.5 -156zM175 56l780 1350l110 -56l-782 -1350z"/>
            <glyph glyph-name="diameter" unicode="&#xe712;" horiz-adv-x="1200"
                   d="M100 700q0 69 18 133t50.5 119.5t78 101t101 78t119.5 50.5t133 18q103 0 194.5 -39.5t159 -107t107 -159t39.5 -194.5q0 -69 -18 -133t-50.5 -119.5t-78 -101t-101 -78t-119.5 -50.5t-133 -18t-133 18t-119.5 50.5t-101 78t-78 101t-50.5 119.5t-18 133zM200 700
q0 -83 31.5 -156t85.5 -127t127 -85.5t156 -31.5t156 31.5t127 85.5t85.5 127t31.5 156t-31.5 156t-85.5 127t-127 85.5t-156 31.5t-156 -31.5t-127 -85.5t-85.5 -127t-31.5 -156zM175 56l780 1350l110 -56l-782 -1350z"/>
            <glyph glyph-name="diameter" unicode="&#x2300;" horiz-adv-x="1200"
                   d="M100 700q0 69 18 133t50.5 119.5t78 101t101 78t119.5 50.5t133 18q103 0 194.5 -39.5t159 -107t107 -159t39.5 -194.5q0 -69 -18 -133t-50.5 -119.5t-78 -101t-101 -78t-119.5 -50.5t-133 -18t-133 18t-119.5 50.5t-101 78t-78 101t-50.5 119.5t-18 133zM200 700
q0 -83 31.5 -156t85.5 -127t127 -85.5t156 -31.5t156 31.5t127 85.5t85.5 127t31.5 156t-31.5 156t-85.5 127t-127 85.5t-156 31.5t-156 -31.5t-127 -85.5t-85.5 -127t-31.5 -156zM175 56l780 1350l110 -56l-782 -1350z"/>
            <glyph glyph-name="approxequal" unicode="&#x2248;"
                   d="M728 310l-41 -24l-43 -19l-48 -13l-47 -4q-96 0 -179 60q-53 40 -119 40q-65 0 -120 -40q-14 -11 -31 -11q-19 0 -35 15q-15 18 -15 37q0 24 22 40q79 59 179 59q99 0 179 -59q53 -41 119 -41q69 0 120 41l32 10q16 0 32.5 -15.5t16.5 -36.5q0 -24 -22 -39zM728 611
q-37 -25 -83 -43l-47 -13l-49 -4q-99 0 -179 60q-51 39 -119 39q-58 0 -120 -39q-6 -7 -31 -11q-20 0 -35 15t-15 36q0 24 22 39q79 60 179 60q99 0 179 -60q53 -40 119 -40q69 0 120 40l32 11q16 0 32.5 -17t16.5 -35q0 -23 -22 -38z"/>
            <glyph glyph-name="notequal" unicode="&#x2260;" horiz-adv-x="700"
                   d="M194 300h-94q-50 0 -50 49q0 50 50 51h144l100 200h-244q-50 -1 -50 50q0 50 50 50h294l61 122q14 28 45 28q50 0 50 -50q0 -10 -5 -22l-39 -78h94q50 0 50 -50q0 -51 -50 -50h-144l-100 -200h244q50 0 50 -50t-50 -50h-294l-61 -122q-14 -28 -45 -28q-50 0 -50 50
q0 10 5 22z"/>
            <glyph glyph-name="lessequal" unicode="&#x2264;" horiz-adv-x="801"
                   d="M672 545q28 -15 28 -43q0 -22 -13.5 -37t-33.5 -15q-11 0 -25 5l-493 250q-35 19 -35 45q0 18 35 44l493 250l25 6q12 0 33 -17l10 -16l4 -18q0 -30 -28 -45l-404 -204zM672 195q28 -15 28 -43q0 -22 -13.5 -37t-34.5 -15q-11 0 -25 5l-498 250q-29 15 -29 43
q0 19 13 35.5t36 16.5l24 -7z"/>
            <glyph glyph-name="greaterequal" unicode="&#x2265;" horiz-adv-x="801"
                   d="M532 750l-404 204q-28 15 -28 45l4 18l10 16q21 17 33 17l25 -6l493 -250q35 -26 35 -44q0 -26 -35 -45l-493 -250q-14 -5 -25 -5q-20 0 -33.5 15t-13.5 37q0 28 28 43zM627 443l24 7q23 0 36 -16.5t13 -35.5q0 -28 -29 -43l-498 -250q-14 -5 -25 -5q-21 0 -34.5 15
t-13.5 37q0 28 28 43z"/>
            <glyph glyph-name="perpendicular" unicode="&#x22a5;" horiz-adv-x="1124"
                   d="M1087 0h-1050v98h477v951h98v-951h475v-98z"/>
            <glyph glyph-name="revlogicalnot" unicode="&#x2310;"
                   d="M50 600q0 50 50 50h600q50 0 50 -50t-50 -50h-550v-200q0 -50 -50 -50t-50 50v250z"/>
            <glyph glyph-name="uni2332" unicode="&#x2332;" horiz-adv-x="1124"
                   d="M1087 524l-1015 -422v844zM903 549l-782 323v-323h782zM903 500h-782v-324z"/>
            <glyph glyph-name="uni2333" unicode="&#x2333;" horiz-adv-x="1124"
                   d="M1087 381h-1015v422zM844 430l-723 299v-299h723z"/>
            <glyph glyph-name="uni2334" unicode="&#x2334;" horiz-adv-x="1124"
                   d="M1020 172h-916v686h99v-588h719v588h98v-686z"/>
            <glyph glyph-name="uni2335" unicode="&#x2335;" horiz-adv-x="1124"
                   d="M1020 858l-459 -686l-457 686h119l338 -508l340 508h119z"/>
            <glyph glyph-name="uni24BA" unicode="&#x24ba;" horiz-adv-x="2048"
                   d="M1024 1491q229 0 428.5 -115.5t314.5 -314.5t115 -428q0 -228 -115.5 -427t-315 -314t-427.5 -115t-427.5 115t-315 314t-115.5 427q0 229 115 428.5t314.5 314.5t428.5 115zM1024 -94q298 0 513.5 214.5t215.5 512.5q0 194 -98 363.5t-267.5 267.5t-363.5 98
q-300 0 -514.5 -215t-214.5 -514q0 -298 215.5 -512.5t513.5 -214.5zM1384 164h-712v952h690v-112h-563v-291h526v-113h-526v-324h585v-112z"/>
            <glyph glyph-name="uni24C2" unicode="&#x24c2;" horiz-adv-x="2048"
                   d="M1024 1491q229 0 428.5 -115.5t314.5 -314.5t115 -428q0 -228 -115.5 -427t-315 -314t-427.5 -115t-427.5 115t-315 314t-115.5 427q0 229 115 428.5t314.5 314.5t428.5 115zM1024 -94q298 0 513.5 214.5t215.5 512.5q0 194 -98 363.5t-267.5 267.5t-363.5 98
q-300 0 -514.5 -215t-214.5 -514q0 -298 215.5 -512.5t513.5 -214.5zM1475 164h-119v797h-4l-275 -797h-112l-273 811h-4v-811h-121v952h191q260 -780 268 -815h2l279 815h168v-952z"/>
            <glyph glyph-name="uni24C5" unicode="&#x24c5;" horiz-adv-x="2048"
                   d="M1024 1491q229 0 428.5 -115.5t314.5 -314.5t115 -428q0 -228 -115.5 -427t-315 -314t-427.5 -115t-427.5 115t-315 314t-115.5 427q0 229 115 428.5t314.5 314.5t428.5 115zM1024 -94q298 0 513.5 214.5t215.5 512.5q0 194 -98 363.5t-267.5 267.5t-363.5 98
q-300 0 -514.5 -215t-214.5 -514q0 -298 215.5 -512.5t513.5 -214.5zM711 1116h360q117 0 195 -20.5t125 -92.5t47 -161q0 -139 -90 -216t-267 -77h-243v-385h-127v952zM838 664h243q113 0 169.5 43.5t56.5 130.5q0 55 -28.5 99.5t-72 55.5t-127.5 11h-241v-340z"/>
            <glyph glyph-name="H22073" unicode="&#x25a1;" horiz-adv-x="1229"
                   d="M1055 1208v-880h-881v880h881zM979 1133h-729v-730h729v730z"/>
            <glyph glyph-name="H22073" unicode="&#xe72e;" horiz-adv-x="1229"
                   d="M1055 1208v-880h-881v880h881zM979 1133h-729v-730h729v730z"/>
            <glyph glyph-name="uniE720" unicode="&#xe720;" horiz-adv-x="1097"
                   d="M891 8h-685v1375h102v-1286h583v-89z"/>
            <glyph glyph-name="uniE721" unicode="&#xe721;" horiz-adv-x="1934"
                   d="M1742 1h-685v1375h102v-1286h583v-89zM199 89h597v1286h105v-1375h-702v89z"/>
            <glyph glyph-name="uniE722" unicode="&#xe722;" horiz-adv-x="1934"
                   d="M1679 1307h-583v-1309h-102v1400h685v-91zM136 1399h702v-1400h-105v1309h-597v91z"/>
            <glyph glyph-name="uniE723" unicode="&#xe723;" horiz-adv-x="1934"
                   d="M696 595h102v-597h-102v597zM199 493v102h597v-102h-597zM1022 764h-102v597h102v-597zM1519 866v-102h-597v102h597z"/>
            <glyph glyph-name="uniE724" unicode="&#xe724;" horiz-adv-x="1934"
                   d="M1749 1314h-583v-1309h-102v1400h685v-91zM206 1406h702v-1400h-105v1309h-597v91zM1166 6h583v111h-583v-111zM221 5h583v111h-583v-111z"/>
            <glyph glyph-name="uniE725" unicode="&#xe725;" horiz-adv-x="1210"
                   d="M884 1314h-583v-1309h-102v1400h685v-91zM301 6h583v111h-583v-111z"/>
            <glyph glyph-name="uniE726" unicode="&#xe726;" horiz-adv-x="1892"
                   d="M884 1314h-583v-1309h-102v1400h685v-91zM301 6h583v111h-583v-111zM1048 1405h685v-1400h-102v1309h-583v91zM1631 117h-583v-111h583v111z"/>
            <glyph glyph-name="uniE727" unicode="&#xe727;" horiz-adv-x="1892"
                   d="M204 1405h685v-1400h-102v1309h-583v91zM787 117h-583v-111h583v111zM1127 -2h-102v726h102v-726zM1656 99v-102h-629v102h629z"/>
            <glyph glyph-name="uniE728" unicode="&#xe728;" horiz-adv-x="2198"
                   d="M1540 6h-102v1400h102v-1400zM2040 118h-500v-111h500v111zM1438 117h-500v-111h500v111zM2040 1400h-500v-111h500v111zM1438 1400h-500v-111h500v111zM784 1315h-583v-1309h-102v1400h685v-91zM201 7h583v111h-583v-111z"/>
            <glyph glyph-name="uniE729" unicode="&#xe729;" horiz-adv-x="1533"
                   d="M801 6h-102v1400h102v-1400zM1301 118h-500v-111h500v111zM699 117h-500v-111h500v111zM1301 1400h-500v-111h500v111zM699 1400h-500v-111h500v111z"/>
            <glyph glyph-name="uniE72A" unicode="&#xe72a;" horiz-adv-x="2809"
                   d="M801 6h-102v1400h102v-1400zM1301 118h-500v-111h500v111zM699 117h-500v-111h500v111zM1301 1400h-500v-111h500v111zM699 1400h-500v-111h500v111zM2095 6h-102v1400h102v-1400zM2595 118h-500v-111h500v111zM1993 118h-500v-111h500v111zM2595 1401h-500v-111h500v111
zM1993 1400h-500v-111h500v111z"/>
            <glyph glyph-name="uniE72C" unicode="&#xe72c;" horiz-adv-x="1533"
                   d="M801 6h-102v1400h102v-1400zM1301 118h-500v-111h500v111zM699 1400h-500v-111h500v111z"/>
            <glyph glyph-name="uniE72D" unicode="&#xe72d;" horiz-adv-x="1103"
                   d="M884 1314h-583v-1309h-102v1400h685v-91zM301 6h583v111h-583v-111zM773 1314v-314h111v314h-111zM773 431v-314h111v314h-111z"/>
            <glyph glyph-name="uniE733" unicode="&#xe733;" horiz-adv-x="1638"
                   d="M596 1069q-28 -25 -46 -41.5t-35 -34t-37 -41t-52 -62.5q-39 -57 -66.5 -93t-48 -69t-35.5 -70t-28 -95q42 -114 91.5 -200.5t117.5 -145t159 -88t215 -29.5t233.5 47t191 128.5t128.5 191t47 233.5t-47 233.5t-128.5 191t-191 128.5t-233.5 47q-132 0 -234 -40.5
t-185 -130.5q52 -13 95 -30t89 -30zM321 1179q97 103 227.5 162t282.5 59q96 0 185.5 -25t167.5 -70.5t142 -109.5t109.5 -142t70.5 -167.5t25 -185.5q0 -97 -25 -186t-70.5 -167t-109.5 -142t-142 -109.5t-167.5 -70.5t-185.5 -25q-145 0 -253 34t-189 103.5t-140 175.5
t-106 250q-21 58 -31 111t-12.5 103t1 98t8.5 96q6 51 15 93t22 82t30.5 80.5t40.5 88.5z"/>
            <glyph glyph-name="uniE734" unicode="&#xe734;" horiz-adv-x="2490"
                   d="M231 700q0 -124 47 -233.5t128.5 -191t191 -128.5t233.5 -47t233.5 47t191 128.5t128.5 191t47 233.5t-47 233.5t-128.5 191t-191 128.5t-233.5 47t-233.5 -47t-191 -128.5t-128.5 -191t-47 -233.5zM831 0q-97 0 -186 25t-167 70.5t-142 109.5t-109.5 142t-70.5 167.5
t-25 185.5t25 185.5t70.5 167.5t109.5 142t142 109.5t167.5 70.5t185.5 25t185.5 -25t167.5 -70.5t142 -109.5t109.5 -142t70.5 -167.5t25 -185.5q0 -95 -24.5 -183.5t-69 -165.5t-107 -141t-138.5 -110h522l-118 200l771 -250l-771 -250l128 200h-893z"/>
            <glyph glyph-name="uniE737" unicode="&#xe737;" horiz-adv-x="3358"
                   d="M2787 220q13 11 -32 152.5t-127.5 275.5t-199.5 252.5t-261.5 207.5t-313 140.5t-353.5 51.5q-174 0 -337.5 -51.5t-308 -140.5t-265 -207.5t-207 -252.5t-134.5 -275.5t-48 -276.5v-96h-100v96q-3 176 49.5 341.5t147.5 310t226.5 264.5t288 206.5t331.5 134t357 47.5
q206 0 390.5 -52.5t340 -145t279.5 -217.5t210.5 -270t133 -303t45.5 -220l3 10l-46 -43zM2855 1l302 242l-4 163l-298 -247v-158zM2855 160l-298 246l-4 -163l302 -241v158z"/>
            <glyph glyph-name="Mkvadrat" unicode="&#xe738;" horiz-adv-x="1463"
                   d="M800 50q0 -24 -14 -38q-14 -12 -36 -12q-9 0 -35 12q-15 12 -15 38v734l-208 -312q-18 -29 -42 -29q-23 0 -42 29l-208 312v-734q0 -24 -14 -38q-14 -12 -36 -12q-9 0 -35 12q-15 12 -15 38v900q0 21 15 36t36 15q9 0 21 -6q12 -3 20 -17l258 -387l258 387q17 24 43 24
q10 0 29.5 -14.5t19.5 -37.5v-900zM1293 755h-299q-9 0 -18 8q-7 8 -7 19q0 7 4 12l274 415l11 20l7 17q6 18 6 37q0 51 -41 86q-18 16 -42.5 25.5t-49.5 9.5q-34 0 -64 -19t-48 -66q-3 -8 -9 -12q-5 -3 -14 -4q-10 0 -18 6.5t-8 17.5l2 9q21 61 65 92q40 27 92 27
q71 0 128 -49q59 -51 59 -123q0 -24 -7.5 -47.5t-26.5 -54.5l-248 -376h252q9 0 17 -8t8 -17t-6.5 -17t-18.5 -8v0z"/>
            <glyph glyph-name="Mkub" unicode="&#xe739;" horiz-adv-x="1463"
                   d="M800 50q0 -24 -14 -38q-14 -12 -36 -12q-9 0 -35 12q-15 12 -15 38v734l-208 -312q-18 -29 -42 -29q-23 0 -42 29l-208 312v-734q0 -24 -14 -38q-14 -12 -36 -12q-9 0 -35 12q-15 12 -15 38v900q0 21 15 36t36 15q9 0 21 -6q12 -3 20 -17l258 -387l258 387q17 24 43 24
q10 0 29.5 -14.5t19.5 -37.5v-900zM1294 1102q34 -17 57.5 -54t23.5 -79v-100q0 -63 -44 -106.5t-106 -43.5h-125q-12 0 -19 7q-6 8 -6 18q0 5 6 15t19 10h125q42 0 71 29t29 71v100q0 41 -29 70.5t-71 29.5h-25q-12 0 -19 7q-6 8 -6 18q0 5 6 15t19 10q42 0 71 29t29 71v50
q0 41 -29 70.5t-71 29.5h-100q-12 0 -19 7q-6 8 -6 18q0 5 6 15t19 10h100q63 0 106.5 -43.5t43.5 -106.5v-50l-1 -17v-10l-3 -10q-2 -13 -11 -28q-13 -27 -41 -52v0z"/>
            <glyph glyph-name="uniE740" unicode="&#xe740;" horiz-adv-x="1596"
                   d="M801 50q0 -24 -14 -38q-14 -12 -36 -12q-9 0 -35 12q-15 12 -15 38v1250h-501v-1250q0 -24 -14 -38q-14 -12 -36 -12q-9 0 -35 12q-15 12 -15 38v1300q0 50 50 50h601q50 0 50 -50v-1300zM797 541v-484q0 -24 -14 -38q-14 -12 -36 -12q-9 0 -35 12q-15 12 -15 38v1300
q0 16 15 33t35 17q18 0 34 -13t16 -37v-649l511 679q15 21 39 21q18 0 35 -15.5t17 -35.5q0 -16 -11 -30l-356 -473l361 -776l3 -13q0 -7 2 -10q0 -18 -16 -34q-16 -14 -36 -14l-23 6l-20 23l-339 728z"/>
            </font>
</defs>
</svg>
