<svg width="34" height="34" viewBox="0 0 34 34" fill="none" xmlns="http://www.w3.org/2000/svg">
<path d="M17 2.125C9.9875 2.125 4.25 7.75625 4.25 14.7687V18.4875C4.25 18.5938 4.25 18.5938 4.25 18.7C4.25 18.8062 4.25 19.0187 4.25 19.125C4.25 22.1 6.5875 24.4375 9.5625 24.4375C10.2 24.4375 10.625 24.0125 10.625 23.375V14.875C10.625 14.2375 10.2 13.8125 9.5625 13.8125C8.39375 13.8125 7.225 14.2375 6.375 14.875V14.6625C6.375 8.925 11.1562 4.25 17 4.25C22.8438 4.25 27.625 8.925 27.625 14.7687V14.875C26.775 14.2375 25.6063 13.8125 24.4375 13.8125C23.8 13.8125 23.375 14.2375 23.375 14.875V23.375C23.375 24.0125 23.8 24.4375 24.4375 24.4375C25.1812 24.4375 25.925 24.225 26.5625 24.0125C25.5 26.2437 23.5875 27.9438 21.25 28.9C21.25 28.7938 21.25 28.7938 21.25 28.6875C21.25 28.05 20.825 27.625 20.1875 27.625H17C16.3625 27.625 15.9375 28.05 15.9375 28.6875V30.8125C15.9375 31.45 16.3625 31.875 17 31.875C24.0125 31.875 29.75 26.35 29.75 19.55V18.4875V15.9375V14.7687C29.75 7.75625 24.0125 2.125 17 2.125Z" fill="#191919"/>
</svg>
