<svg width="28" height="44" viewBox="0 0 28 44" fill="none" xmlns="http://www.w3.org/2000/svg">
<path d="M22.9026 13.8456C22.9026 12.0636 22.3742 10.3216 21.3842 8.83997C20.3942 7.3583 18.987 6.20347 17.3407 5.52154C15.6943 4.8396 13.8827 4.66117 12.135 5.00882C10.3872 5.35647 8.78181 6.21458 7.52176 7.47464C6.2617 8.73469 5.40359 10.3401 5.05594 12.0879C4.70829 13.8356 4.88672 15.6472 5.56865 17.2935C6.25059 18.9399 7.40541 20.347 8.88708 21.3371C10.3688 22.3271 12.1107 22.8555 13.8927 22.8555C16.2817 22.8535 18.5722 21.9036 20.2614 20.2143C21.9507 18.5251 22.9006 16.2345 22.9026 13.8456V13.8456ZM11.181 18.4341V16.5662H13.9279C14.1493 16.5659 14.3615 16.4778 14.518 16.3212C14.6746 16.1647 14.7627 15.9525 14.7629 15.7311V15.4828C14.7627 15.2614 14.6746 15.0491 14.518 14.8926C14.3615 14.7361 14.1493 14.648 13.9279 14.6477H13.9004C13.2661 14.6474 12.652 14.4239 12.1658 14.0165C11.6796 13.6091 11.3522 13.0436 11.2408 12.4191C11.1295 11.7946 11.2414 11.1508 11.5568 10.6005C11.8723 10.0502 12.3713 9.6283 12.9665 9.40877V8.07047H14.8344V9.24286H16.722V11.1108H13.8993C13.6832 11.1186 13.4786 11.21 13.3285 11.3656C13.1784 11.5213 13.0945 11.7291 13.0945 11.9453C13.0945 12.1615 13.1784 12.3693 13.3285 12.525C13.4786 12.6806 13.6832 12.772 13.8993 12.7798H13.9268C14.6434 12.7807 15.3304 13.0657 15.8371 13.5724C16.3438 14.0792 16.6289 14.7662 16.6298 15.4828V15.7311C16.629 16.2888 16.456 16.8327 16.1345 17.2884C15.8129 17.744 15.3585 18.0893 14.8333 18.2769V19.7174H12.9654V18.4341H11.181Z" fill="#191919"/>
<path d="M23.3017 29.5098C21.3053 29.4153 17.6002 29.635 14.8841 32.1029V27.0254C18.2647 26.7696 21.4147 25.2138 23.6724 22.6846C25.9301 20.1554 27.1199 16.8498 26.9919 13.4619C26.8639 10.074 25.4281 6.86757 22.986 4.51596C20.5438 2.16435 17.2855 0.850586 13.8952 0.850586C10.5049 0.850586 7.24651 2.16435 4.80438 4.51596C2.36225 6.86757 0.926409 10.074 0.798415 13.4619C0.670421 16.8498 1.86024 20.1554 4.11797 22.6846C6.3757 25.2138 9.52567 26.7696 12.9063 27.0254V32.0798C10.1923 29.6295 6.50047 29.412 4.5106 29.5065C3.85551 29.5355 3.23502 29.8087 2.77135 30.2724C2.30767 30.7361 2.03442 31.3566 2.00541 32.0117C1.90872 34.0532 2.13946 37.8857 4.77211 40.6161C6.66858 42.584 9.43638 43.6081 13.0041 43.6652C13.114 43.6652 15.0379 43.6652 15.3049 43.6509C18.6342 43.5103 21.2328 42.4917 23.0413 40.6161C25.6784 37.8857 25.9036 34.0532 25.8069 32.0117C25.7774 31.3571 25.5038 30.7372 25.0402 30.2742C24.5765 29.8112 23.9564 29.5385 23.3017 29.5098V29.5098ZM3.12945 13.8457C3.12945 11.716 3.76098 9.63415 4.94417 7.86338C6.12737 6.0926 7.80909 4.71245 9.77667 3.89745C11.7442 3.08245 13.9093 2.86921 15.9981 3.28469C18.0869 3.70017 20.0055 4.72572 21.5115 6.23164C23.0174 7.73756 24.0429 9.65623 24.4584 11.745C24.8739 13.8338 24.6606 15.9988 23.8456 17.9664C23.0306 19.934 21.6505 21.6157 19.8797 22.7989C18.1089 23.9821 16.0271 24.6136 13.8974 24.6136C11.0424 24.6107 8.30526 23.4753 6.28651 21.4566C4.26777 19.4378 3.13236 16.7007 3.12945 13.8457V13.8457ZM3.9766 32.104C3.98507 31.9412 4.05354 31.7873 4.1688 31.6721C4.28406 31.5568 4.43792 31.4883 4.6007 31.4799C6.32357 31.3985 9.54515 31.5765 11.7427 33.695C13.1876 35.0871 13.9974 37.1385 14.16 39.8008C13.2125 38.4304 11.8682 37.3828 10.3077 36.799L9.63965 38.8196C9.74293 38.8559 11.7636 39.5679 12.7865 41.6764C9.89017 41.5885 7.67285 40.7699 6.19391 39.2394C4.07768 37.0451 3.89968 33.8268 3.9766 32.104ZM21.6129 39.2459C20.3252 40.5809 18.4715 41.3743 16.096 41.6127C16.1367 41.4275 16.1585 41.2386 16.1608 41.049C16.1872 38.6889 15.807 36.6627 15.028 34.9882C15.3199 34.5176 15.6687 34.0848 16.0663 33.6994C18.0101 31.8249 20.7559 31.4689 22.5557 31.4689C22.7886 31.4689 23.0062 31.4755 23.2039 31.4842C23.3665 31.493 23.5201 31.5616 23.6351 31.6768C23.7502 31.792 23.8185 31.9458 23.8269 32.1083C23.9137 33.8268 23.7346 37.0451 21.6173 39.2416L21.6129 39.2459Z" fill="#191919"/>
</svg>
