<svg width="32" height="32" viewBox="0 0 32 32" fill="none" xmlns="http://www.w3.org/2000/svg">
<g clip-path="url(#clip0_2_4784)">
<path d="M25.5304 8.6464C25.228 8.3456 24.8136 8.1936 24.3992 8.1936C23.9848 8.1936 23.5704 8.3456 23.268 8.6464L19.5992 12.3152V1.6C19.5992 0.7168 18.8824 0 17.9992 0C17.116 0 16.3992 0.7168 16.3992 1.6V12.3152L12.7304 8.6464C12.428 8.3456 12.0264 8.1776 11.5992 8.1776C11.172 8.1776 10.7704 8.3456 10.468 8.6464C9.844 9.2704 9.844 10.2848 10.468 10.9088L17.9992 18.4L25.5336 10.9056C26.1544 10.2864 26.1544 9.2704 25.5304 8.6464Z" fill="#191919"/>
<path d="M32.3788 22.4C32.3788 22.232 32.3724 22.0624 32.3164 21.8944L29.1164 12.2944C28.8988 11.64 28.2892 11.2 27.5996 11.2H27.2492C27.0988 11.5008 26.9132 11.7888 26.662 12.04L24.2908 14.4H26.4476L29.1148 22.4H6.88601L9.55321 14.4H11.71L9.33721 12.04C9.08601 11.7888 8.89881 11.5008 8.75001 11.2H8.39961C7.71001 11.2 7.10041 11.64 6.88281 12.2944L3.68281 21.8944C3.62681 22.0624 3.62041 22.232 3.62041 22.4C3.59961 22.4 3.59961 30.4 3.59961 30.4C3.59961 31.2847 4.31481 32 5.19961 32H30.7996C31.6844 32 32.3996 31.2847 32.3996 30.4C32.3996 30.4 32.3996 22.4 32.3788 22.4Z" fill="#191919"/>
</g>
<defs>
<clipPath id="clip0_2_4784">
<rect width="32" height="32" fill="white"/>
</clipPath>
</defs>
</svg>
