<svg width="35" height="36" viewBox="0 0 35 36" fill="none" xmlns="http://www.w3.org/2000/svg">
<path d="M0.882812 1.76626V34.2344C0.882812 35.2097 1.6513 36 2.59937 36H16.4276C17.3758 36 18.1442 35.2096 18.1442 34.2344V34.1849C26.9651 34.1838 34.1159 26.8282 34.1159 17.7546C34.1159 8.68055 26.964 1.32434 18.142 1.32434C18.1225 1.32434 18.103 1.32553 18.0836 1.32607C17.8924 0.565055 17.2264 0 16.4271 0H2.59937C1.65183 0.000541033 0.882812 0.79099 0.882812 1.76626ZM18.1442 29.2794H19.5724V25.8329H18.1442V9.67745H19.5724V6.23086H18.1442V4.85609C25.0586 4.85728 30.6826 10.6432 30.6826 17.7546C30.6826 24.8661 25.0585 30.6525 18.1442 30.6537V29.2794ZM9.73409 16.2832C9.84056 15.4946 10.0282 14.8213 10.3171 14.3017C10.8018 13.4294 11.6458 12.9875 12.8245 12.9875C14.0031 12.9875 14.8472 13.4295 15.3318 14.3017C15.7872 15.1209 16.0178 16.2844 16.0178 17.7611C16.0178 19.2384 15.7867 20.3995 15.3312 21.2147C14.846 22.0833 14.0025 22.5235 12.8244 22.5235C11.6457 22.5235 10.8022 22.0833 10.317 21.2147C10.0269 20.6949 9.83814 20.0199 9.7322 19.2259C9.67213 18.7745 9.63089 18.296 9.63089 17.761C9.6311 17.2208 9.67287 16.7381 9.73409 16.2832ZM7.02075 19.2259C6.99382 19.0918 6.94922 18.9858 6.89315 18.904C6.79415 18.7598 6.66486 18.6845 6.55324 18.6369C6.43079 18.585 6.25742 18.5474 6.03881 18.5244C5.88259 18.5085 5.7413 18.4544 5.61769 18.3773C5.3488 18.2089 5.17196 17.9217 5.17196 17.5933C5.17196 17.2443 5.36016 16.9394 5.64231 16.777C5.74877 16.7158 5.86775 16.6728 5.99652 16.6587C6.25973 16.6298 6.39586 16.5863 6.4634 16.554C6.62993 16.478 6.84675 16.3204 6.84675 15.8054C6.84675 15.5494 6.77984 15.351 6.64193 15.198C6.51032 15.0527 6.3198 14.9814 6.05996 14.9814C6.00041 14.9814 5.94729 14.9873 5.89458 14.9944C5.68512 15.0221 5.53006 15.1033 5.42822 15.2451C5.35322 15.3493 5.29778 15.4775 5.26348 15.6254C5.16165 16.0667 4.74568 16.3869 4.2747 16.3869H4.04757C4.01443 16.3869 3.98287 16.3799 3.95026 16.3763C3.70651 16.3522 3.48622 16.2433 3.33683 16.0602C3.1886 15.8783 3.12917 15.6512 3.16977 15.4199C3.20754 15.1998 3.26193 14.982 3.33115 14.7719C3.4879 14.3788 3.72544 14.0292 4.04357 13.7155C4.19233 13.5754 4.36117 13.4631 4.53907 13.3642C4.66036 13.2965 4.78397 13.2324 4.91905 13.1835C5.24749 13.0652 5.64862 13.0051 6.1115 13.0051C6.23911 13.0051 6.35578 13.021 6.47655 13.0316C7.18203 13.091 7.77999 13.3142 8.24519 13.7179C8.8037 14.2022 9.0869 14.8585 9.0869 15.6678C9.0869 15.8861 9.05481 16.0886 9.00621 16.2834C8.92615 16.6065 8.78708 16.8996 8.57531 17.152C8.50724 17.2327 8.43739 17.3057 8.36533 17.3709C8.44486 17.4322 8.53007 17.5058 8.6217 17.5917C9.05365 18.0036 9.2832 18.5575 9.32897 19.226C9.33412 19.3043 9.34843 19.3778 9.34843 19.4591C9.34843 20.2648 9.07438 20.9834 8.53302 21.5926C8.05004 22.1353 7.35435 22.4295 6.48286 22.4948C6.36441 22.5031 6.25395 22.5225 6.12928 22.5225C5.52333 22.5225 5.00321 22.4195 4.56432 22.2224C4.06535 21.9982 3.67232 21.6515 3.39701 21.1766C3.22132 20.8699 3.0955 20.5009 3.02281 20.0789C2.97936 19.8258 3.0428 19.5787 3.20186 19.3833C3.37071 19.176 3.62361 19.0572 3.89597 19.0572H3.94405H4.20327C4.7016 19.0572 5.11189 19.3444 5.17995 19.7406C5.20173 19.8701 5.23655 19.9854 5.28294 20.0831C5.40424 20.3362 5.60507 20.4769 5.89521 20.5245C5.96675 20.5363 6.03944 20.5469 6.12234 20.5469C6.37472 20.5469 6.58922 20.4603 6.77806 20.2809C6.96005 20.1085 7.04811 19.8555 7.04811 19.5076C7.04937 19.399 7.03727 19.3095 7.02075 19.2259Z" fill="#191919"/>
<path d="M26.0266 16.2833H29.3911V19.226H26.0266V16.2833ZM23.0026 10.3402L22.0133 9.74807L23.2916 7.48926L24.2809 8.08136L23.0026 10.3402ZM27.5859 11.4637L28.1592 12.4836L25.954 13.7943L25.3812 12.775L27.5859 11.4637ZM25.9562 21.7179L28.1614 23.0279L27.5892 24.0467L25.384 22.7366L25.9562 21.7179ZM23.2932 28.0189L22.015 25.76L23.0043 25.1679L24.2826 27.4267L23.2932 28.0189ZM12.8238 20.5467C13.0126 20.5467 13.159 20.4984 13.2718 20.4001C13.4252 20.2653 13.5751 19.8404 13.6449 19.3413C13.7049 18.9123 13.7352 18.3791 13.7352 17.7599C13.7352 16.75 13.6625 15.9984 13.5189 15.5269C13.4033 15.1486 13.1893 14.9796 12.8238 14.9796C12.4564 14.9796 12.2396 15.1491 12.1188 15.53C11.9701 16.0014 11.8945 16.7512 11.8945 17.76C11.8945 18.7228 11.9706 19.4633 12.12 19.9606C12.2419 20.3666 12.4587 20.5467 12.8238 20.5467Z" fill="#191919"/>
</svg>
