<svg width="30" height="30" viewBox="0 0 30 30" fill="none" xmlns="http://www.w3.org/2000/svg">
<path d="M30.0002 15C30.0002 8.48499 24.7188 3.20361 18.2037 3.20361C17.4751 3.20361 16.7622 3.27012 16.0703 3.39648C21.5669 4.40066 25.7333 9.21353 25.7333 15C25.7333 20.7865 21.5669 25.5993 16.0703 26.6035C16.7624 26.7298 17.4753 26.7963 18.2037 26.7963C24.7187 26.7963 30.0002 21.515 30.0002 15Z" fill="black"/>
<path d="M22.841 15.0001C22.841 8.69264 17.7278 3.57959 11.4203 3.57959C5.11298 3.57959 0 8.69264 0 15.0001C0 21.3076 5.11298 26.4206 11.4204 26.4206C17.7278 26.4206 22.841 21.3076 22.841 15.0001ZM13.713 21.1838C13.713 21.6509 13.3345 22.0296 12.8673 22.0296H11.3093C10.8422 22.0296 10.4635 21.651 10.4635 21.1838V11.6909L9.49931 12.2114C9.26983 12.3352 8.99613 12.3465 8.75746 12.2416C8.51871 12.1368 8.34184 11.9278 8.27758 11.675L7.96973 10.4618C7.8742 10.0848 8.04774 9.69147 8.39048 9.50809L11.076 8.0707C11.1987 8.00492 11.3358 7.97055 11.4751 7.97055H12.8672C13.3343 7.97055 13.713 8.34925 13.713 8.81639L13.713 21.1838Z" fill="black"/>
</svg>
