<svg width="34" height="40" viewBox="0 0 34 40" fill="none" xmlns="http://www.w3.org/2000/svg">
<path d="M9.71429 14.375C9.71429 11.9626 11.6209 10 13.9643 10H24.2857V4.375C24.2857 3.33945 23.4702 2.5 22.4643 2.5H16.3466C15.5054 1.00703 13.9367 0 12.1429 0C10.349 0 8.78035 1.00703 7.93915 2.5H1.82143C0.815469 2.5 0 3.33945 0 4.375V30.625C0 31.6605 0.815469 32.5 1.82143 32.5H9.71429V14.375ZM12.1429 3.125C13.1488 3.125 13.9643 3.96445 13.9643 5C13.9643 6.03555 13.1488 6.875 12.1429 6.875C11.1369 6.875 10.3214 6.03555 10.3214 5C10.3214 3.96445 11.1369 3.125 12.1429 3.125ZM26.1071 22.5H34V38.125C34 39.1605 33.1845 40 32.1786 40H13.9643C12.9583 40 12.1429 39.1605 12.1429 38.125V14.375C12.1429 13.3395 12.9583 12.5 13.9643 12.5H24.2857V20.625C24.2857 21.6562 25.1054 22.5 26.1071 22.5ZM34 19.5266V20H26.7143V12.5H27.1741C27.6572 12.5 28.1204 12.6975 28.462 13.0491L33.4665 18.2008C33.8081 18.5524 34 19.0293 34 19.5266Z" fill="#191919"/>
</svg>
