<svg width="39" height="39" viewBox="0 0 39 39" fill="none" xmlns="http://www.w3.org/2000/svg">
<path d="M19.5 17.875C20.7856 17.875 22.0423 17.4938 23.1112 16.7796C24.1801 16.0653 25.0132 15.0502 25.5052 13.8624C25.9972 12.6747 26.1259 11.3678 25.8751 10.1069C25.6243 8.84604 25.0052 7.68785 24.0962 6.77881C23.1872 5.86977 22.029 5.2507 20.7681 4.9999C19.5072 4.74909 18.2003 4.87782 17.0126 5.36979C15.8248 5.86176 14.8097 6.69488 14.0954 7.7638C13.3812 8.83272 13 10.0894 13 11.375C13 13.0989 13.6848 14.7522 14.9038 15.9712C16.1228 17.1902 17.7761 17.875 19.5 17.875Z" fill="#191919"/>
<path d="M29.25 34.125C29.681 34.125 30.0943 33.9538 30.399 33.6491C30.7038 33.3443 30.875 32.931 30.875 32.5C30.875 29.4832 29.6766 26.5899 27.5433 24.4567C25.4101 22.3234 22.5168 21.125 19.5 21.125C16.4832 21.125 13.5899 22.3234 11.4567 24.4567C9.32343 26.5899 8.125 29.4832 8.125 32.5C8.125 32.931 8.29621 33.3443 8.60095 33.6491C8.9057 33.9538 9.31902 34.125 9.75 34.125H29.25Z" fill="#191919"/>
</svg>
