<svg width="34" height="37" viewBox="0 0 34 37" fill="none" xmlns="http://www.w3.org/2000/svg">
<path d="M9.71429 13.2969C9.71429 11.0654 11.6209 9.25 13.9643 9.25H24.2857V4.04688C24.2857 3.08899 23.4702 2.3125 22.4643 2.3125H16.3466C15.5054 0.931504 13.9367 0 12.1429 0C10.349 0 8.78035 0.931504 7.93915 2.3125H1.82143C0.815469 2.3125 0 3.08899 0 4.04688V28.3281C0 29.286 0.815469 30.0625 1.82143 30.0625H9.71429V13.2969ZM12.1429 2.89062C13.1488 2.89062 13.9643 3.66712 13.9643 4.625C13.9643 5.58288 13.1488 6.35938 12.1429 6.35938C11.1369 6.35938 10.3214 5.58288 10.3214 4.625C10.3214 3.66712 11.1369 2.89062 12.1429 2.89062ZM26.1071 20.8125H34V35.2656C34 36.2235 33.1845 37 32.1786 37H13.9643C12.9583 37 12.1429 36.2235 12.1429 35.2656V13.2969C12.1429 12.339 12.9583 11.5625 13.9643 11.5625H24.2857V19.0781C24.2857 20.032 25.1054 20.8125 26.1071 20.8125ZM34 18.0621V18.5H26.7143V11.5625H27.1741C27.6572 11.5625 28.1204 11.7452 28.462 12.0705L33.4665 16.8357C33.8081 17.161 34 17.6021 34 18.0621Z" fill="#191919"/>
</svg>
