<svg width="38" height="38" viewBox="0 0 38 38" fill="none" xmlns="http://www.w3.org/2000/svg">
<path d="M12.6667 17.4166C13.7627 17.4166 14.8341 17.0916 15.7455 16.4826C16.6568 15.8737 17.3671 15.0082 17.7865 13.9956C18.2059 12.983 18.3157 11.8688 18.1019 10.7938C17.888 9.71882 17.3602 8.73139 16.5852 7.95637C15.8102 7.18136 14.8228 6.65356 13.7478 6.43974C12.6728 6.22591 11.5586 6.33565 10.546 6.75509C9.53336 7.17452 8.66787 7.88481 8.05894 8.79614C7.45001 9.70746 7.125 10.7789 7.125 11.8749C7.125 13.3447 7.70885 14.7542 8.74812 15.7935C9.78738 16.8327 11.1969 17.4166 12.6667 17.4166ZM12.6667 9.49992C13.1364 9.49992 13.5956 9.63921 13.9861 9.90018C14.3767 10.1611 14.6811 10.5321 14.8609 10.966C15.0406 11.4 15.0877 11.8776 14.996 12.3383C14.9044 12.799 14.6782 13.2222 14.346 13.5543C14.0139 13.8864 13.5907 14.1126 13.13 14.2043C12.6693 14.2959 12.1918 14.2489 11.7578 14.0691C11.3238 13.8894 10.9529 13.585 10.6919 13.1944C10.431 12.8038 10.2917 12.3447 10.2917 11.8749C10.2917 11.245 10.5419 10.6409 10.9873 10.1955C11.4327 9.75014 12.0368 9.49992 12.6667 9.49992Z" fill="#191919"/>
<path d="M25.3327 22.1667C24.2366 22.1667 23.1652 22.4918 22.2539 23.1007C21.3426 23.7096 20.6323 24.5751 20.2129 25.5877C19.7934 26.6003 19.6837 27.7146 19.8975 28.7895C20.1113 29.8645 20.6391 30.8519 21.4141 31.627C22.1892 32.402 23.1766 32.9298 24.2516 33.1436C25.3265 33.3574 26.4408 33.2477 27.4534 32.8282C28.466 32.4088 29.3315 31.6985 29.9404 30.7872C30.5493 29.8759 30.8743 28.8045 30.8743 27.7084C30.8743 26.2387 30.2905 24.8291 29.2512 23.7899C28.212 22.7506 26.8024 22.1667 25.3327 22.1667ZM25.3327 30.0834C24.863 30.0834 24.4038 29.9441 24.0132 29.6832C23.6226 29.4222 23.3182 29.0513 23.1385 28.6173C22.9587 28.1833 22.9117 27.7058 23.0033 27.2451C23.095 26.7844 23.3212 26.3612 23.6533 26.029C23.9855 25.6969 24.4086 25.4707 24.8693 25.379C25.33 25.2874 25.8076 25.3344 26.2416 25.5142C26.6755 25.694 27.0465 25.9984 27.3074 26.3889C27.5684 26.7795 27.7077 27.2387 27.7077 27.7084C27.7077 28.3383 27.4575 28.9424 27.0121 29.3878C26.5667 29.8332 25.9626 30.0834 25.3327 30.0834Z" fill="#191919"/>
<path d="M31.2557 6.7451C31.1248 6.61393 30.9693 6.50986 30.7981 6.43885C30.6269 6.36785 30.4435 6.3313 30.2582 6.3313C30.0728 6.3313 29.8894 6.36785 29.7182 6.43885C29.547 6.50986 29.3915 6.61393 29.2607 6.7451L6.74565 29.2601C6.4844 29.5267 6.33681 29.8843 6.33399 30.2576C6.33356 30.5366 6.41598 30.8095 6.57079 31.0416C6.7256 31.2737 6.94584 31.4547 7.2036 31.5615C7.46135 31.6684 7.74502 31.6963 8.01866 31.6417C8.29229 31.5872 8.54357 31.4526 8.74065 31.2551L31.2557 8.7401C31.3868 8.60921 31.4909 8.45373 31.5619 8.28257C31.6329 8.1114 31.6695 7.92791 31.6695 7.7426C31.6695 7.55729 31.6329 7.37381 31.5619 7.20264C31.4909 7.03148 31.3868 6.876 31.2557 6.7451Z" fill="#191919"/>
</svg>
