<svg width="28" height="28" viewBox="0 0 28 28" fill="none" xmlns="http://www.w3.org/2000/svg">
<path fill-rule="evenodd" clip-rule="evenodd" d="M0 14C0 6.26803 6.26803 0 14 0C21.732 0 28 6.26803 28 14C28 21.732 21.732 28 14 28C6.26803 28 0 21.732 0 14ZM14.0007 6.53333C11.9729 6.53333 11.7184 6.5422 10.9219 6.57842C10.127 6.61482 9.58446 6.74071 9.10968 6.92533C8.61858 7.11602 8.20202 7.37117 7.78697 7.78633C7.37164 8.20137 7.11649 8.61793 6.92516 9.10887C6.74007 9.58382 6.61407 10.1266 6.57831 10.9211C6.54267 11.7176 6.53333 11.9722 6.53333 14.0001C6.53333 16.0279 6.54237 16.2816 6.57842 17.0781C6.615 17.873 6.74082 18.4155 6.92533 18.8903C7.1162 19.3814 7.37129 19.798 7.78651 20.213C8.20138 20.6284 8.61793 20.8841 9.10875 21.0748C9.58382 21.2595 10.1265 21.3853 10.9213 21.4217C11.7178 21.458 11.9721 21.4668 13.9998 21.4668C16.0278 21.4668 16.2815 21.458 17.078 21.4217C17.8728 21.3853 18.416 21.2595 18.8911 21.0748C19.3821 20.8841 19.798 20.6284 20.2128 20.213C20.6282 19.798 20.8833 19.3814 21.0747 18.8905C21.2582 18.4155 21.3842 17.8728 21.4216 17.0782C21.4573 16.2818 21.4667 16.0279 21.4667 14.0001C21.4667 11.9722 21.4573 11.7178 21.4216 10.9213C21.3842 10.1264 21.2582 9.58382 21.0747 9.10904C20.8833 8.61793 20.6282 8.20137 20.2128 7.78633C19.7975 7.371 19.3822 7.11591 18.8907 6.92533C18.4146 6.74071 17.8718 6.61482 17.0768 6.57842C16.2804 6.5422 16.0268 6.53333 13.9984 6.53333H14.0007Z" fill="black"/>
<path fill-rule="evenodd" clip-rule="evenodd" d="M13.3302 7.87894C13.529 7.87865 13.7509 7.87894 14.0001 7.87894C15.9937 7.87894 16.23 7.88612 17.0172 7.92188C17.7452 7.95518 18.1404 8.07681 18.4036 8.17901C18.752 8.31434 19.0004 8.4761 19.2616 8.73743C19.5229 8.99877 19.6848 9.24768 19.8204 9.59616C19.9226 9.85901 20.0444 10.2542 20.0775 10.9822C20.1133 11.7692 20.1211 12.0057 20.1211 13.9984C20.1211 15.9911 20.1133 16.2275 20.0775 17.0146C20.0442 17.7426 19.9226 18.1378 19.8204 18.4006C19.685 18.7491 19.5229 18.9972 19.2616 19.2584C19.0003 19.5198 18.7522 19.6815 18.4036 19.8169C18.1407 19.9195 17.7452 20.0409 17.0172 20.0742C16.2301 20.1099 15.9937 20.1177 14.0001 20.1177C12.0063 20.1177 11.77 20.1099 10.9829 20.0742C10.2549 20.0406 9.85973 19.9189 9.59641 19.8167C9.24793 19.6813 8.99902 19.5196 8.73769 19.2583C8.47636 18.9969 8.3146 18.7487 8.17897 18.4001C8.07677 18.1371 7.95497 17.7421 7.92184 17.0141C7.88602 16.2269 7.87891 15.9905 7.87891 13.9965C7.87891 12.0026 7.88602 11.7674 7.92184 10.9803C7.95509 10.2523 8.07677 9.85714 8.17897 9.59394C8.31431 9.24552 8.47636 8.99661 8.73769 8.73528C8.99902 8.47394 9.24793 8.31218 9.59641 8.1765C9.85961 8.07383 10.2549 7.9525 10.9829 7.91907C11.6717 7.88798 11.9386 7.87865 13.3302 7.87708V7.87894ZM17.9857 9.1187C17.4911 9.1187 17.0897 9.51962 17.0897 10.0144C17.0897 10.5091 17.4911 10.9104 17.9857 10.9104C18.4804 10.9104 18.8817 10.5091 18.8817 10.0144C18.8817 9.51974 18.4804 9.1187 17.9857 9.1187ZM14.0001 10.1656C11.8824 10.1656 10.1656 11.8825 10.1656 14.0001C10.1656 16.1177 11.8824 17.8338 14.0001 17.8338C16.1177 17.8338 17.8339 16.1177 17.8339 14.0001C17.8339 11.8825 16.1177 10.1656 14.0001 10.1656Z" fill="black"/>
<path fill-rule="evenodd" clip-rule="evenodd" d="M14.0006 11.5111C15.3751 11.5111 16.4895 12.6254 16.4895 14C16.4895 15.3745 15.3751 16.4889 14.0006 16.4889C12.6259 16.4889 11.5117 15.3745 11.5117 14C11.5117 12.6254 12.6259 11.5111 14.0006 11.5111Z" fill="black"/>
</svg>
