<svg width="23" height="23" viewBox="0 0 23 23" fill="none" xmlns="http://www.w3.org/2000/svg">
<path d="M22.6277 11.4145C22.6277 13.0082 22.5957 14.6065 22.6368 16.2001C22.7052 19.0211 20.9394 21.201 18.6898 22.1719C17.7864 22.5611 16.8373 22.7672 15.8563 22.7672C12.7854 22.7718 9.70996 22.813 6.63909 22.7535C4.32568 22.7077 2.42293 21.7368 1.0586 19.8226C0.342221 18.8151 0 17.6702 0 16.4291C0 13.1456 0 9.86664 0 6.5831C0 3.90407 1.30044 2.03103 3.60929 0.812876C4.61314 0.286228 5.70369 0.0618305 6.83986 0.057251C9.81947 0.057251 12.8036 0.0389328 15.7832 0.0664101C18.0967 0.0847282 20.0268 0.97316 21.4504 2.84161C22.2444 3.88575 22.6277 5.08559 22.6277 6.4045C22.6277 8.07146 22.6277 9.74299 22.6277 11.4145ZM1.68373 11.4145C1.68373 13.0952 1.68373 14.7713 1.68373 16.452C1.68373 17.2031 1.85712 17.9083 2.24497 18.5449C3.26251 20.2164 4.80023 21.0316 6.70754 21.0636C9.76928 21.1094 12.8356 21.0819 15.9019 21.0728C16.6548 21.0728 17.3848 20.9171 18.0647 20.5919C19.9173 19.7035 20.9531 18.2884 20.9439 16.1635C20.9257 12.912 20.9394 9.66056 20.9394 6.40908C20.9394 5.48859 20.6793 4.64596 20.1363 3.90407C19.0868 2.47983 17.6358 1.77916 15.9019 1.76084C12.8447 1.72421 9.78753 1.7471 6.73035 1.75168C6.07785 1.75168 5.44816 1.88449 4.83673 2.11347C3.15756 2.74086 1.59703 4.32997 1.67004 6.67011C1.7248 8.25464 1.68373 9.83458 1.68373 11.4145Z" fill="#89D7CF"/>
<path d="M11.3399 16.2688C8.39684 16.2688 6.0241 13.9149 6.01954 10.984C6.01497 8.09889 8.40596 5.73585 11.3308 5.73585C14.2648 5.73127 16.6467 8.08973 16.6512 10.9977C16.6512 13.9012 14.2739 16.2642 11.3399 16.2688ZM11.3399 14.5744C13.3431 14.5744 14.9675 12.9669 14.9629 10.9886C14.9584 9.02854 13.334 7.4257 11.3399 7.4257C9.3368 7.4257 7.70327 9.02396 7.70327 10.9977C7.70783 12.9761 9.3368 14.5789 11.3399 14.5744Z" fill="#89D7CF"/>
<path d="M17.2657 4.13281C17.8817 4.13281 18.3837 4.65946 18.3837 5.30518C18.3791 5.95089 17.8726 6.47296 17.2566 6.46838C16.6497 6.4638 16.1524 5.94173 16.1524 5.30976C16.1478 4.66404 16.6497 4.13281 17.2657 4.13281Z" fill="#89D7CF"/>
</svg>
