<svg width="90" height="57" viewBox="0 0 90 57" fill="none" xmlns="http://www.w3.org/2000/svg">
<path d="M44.9414 0.322718V0H22.7142C9.99378 0 3.63355 4.46426 3.63355 13.3928C3.63355 16.9696 4.77651 19.8875 7.06242 22.1465C9.37523 24.4324 12.2721 26.6242 15.6068 27.5386C11.2501 27.9958 7.49271 29.1118 4.48068 31.4246C1.44176 33.7643 -0.050808 37.0318 0.00297546 41.2272C0.00297546 46.5789 2.01996 50.5456 6.05393 53.1274C10.0879 55.7091 15.2514 57 21.5444 57H44.9414V56.6773C42.1176 55.9512 40.2486 54.862 39.3342 53.4098C38.3929 51.9306 37.9223 49.3758 37.9223 45.7452V11.2144C37.9223 7.61076 38.3929 5.06936 39.3342 3.59023C40.2486 2.138 42.1176 1.04883 44.9414 0.322718ZM30.9839 2.21868V25.7027H23.8684C19.8344 25.7027 16.6364 25.4544 14.2429 23.1953C11.8494 20.9094 10.6527 17.7764 10.6527 13.7962C10.6527 11.7254 11.0023 9.92357 11.7015 8.39066C12.3738 6.85775 13.342 5.66101 14.6059 4.80042C15.8699 3.91295 17.3087 3.26752 18.9223 2.86412C20.5359 2.43383 22.3512 2.21868 24.3682 2.21868H30.9839ZM30.9839 29.3745V54.7813H21.8268C17.5507 54.7813 14.095 53.6787 11.4595 51.4735C8.82393 49.2413 7.50616 46.0142 7.50616 41.7919C7.50616 38.8875 8.24572 36.4402 9.72485 34.4501C11.204 32.4331 13.0865 30.9943 15.3724 30.1338C17.7683 29.2318 20.1903 29.4984 22.9504 29.3745H30.9839Z" fill="white"/>
<path d="M58.2471 29.3745H50.5825V45.7452C50.5825 49.4834 51.0397 52.0517 51.9541 53.4501C52.8685 54.8485 54.751 55.9243 57.6016 56.6773V57H36.625V56.6773C39.4488 55.9243 41.3313 54.8485 42.2726 53.4501C43.1869 52.1054 43.6441 49.5372 43.6441 45.7452V11.2144C43.6441 9.46638 43.5769 8.09483 43.4424 7.09979C43.3079 6.07785 42.9987 5.09625 42.5146 4.15499C42.0574 3.18684 41.3582 2.42038 40.4169 1.85563C39.4757 1.26398 38.2117 0.753008 36.625 0.322718V0H61.1515C63.0878 0 64.9166 0.134466 66.6377 0.403397C68.3589 0.672328 70.0397 1.14296 71.6802 1.81529C73.3476 2.46072 74.7729 3.29441 75.9562 4.31635C77.1395 5.33829 78.0942 6.6695 78.8203 8.30998C79.5464 9.92357 79.9095 11.7792 79.9095 13.8769C79.8826 18.368 78.4707 21.8372 75.6738 24.2845C72.8501 26.7856 69.1531 27.4678 64.9309 28.5435L77.9329 47.3992C80.4877 50.949 82.4644 53.2619 83.8628 54.3376C85.2075 55.3595 87.1707 56.1394 89.7524 56.6773V57H84.7906C80.3532 57 77.4757 56.6504 76.1579 55.9512C74.9208 55.2788 73.0518 53.1274 70.5507 49.4968L58.2471 29.3745ZM50.5825 2.21868V25.7027H58.2471C62.039 25.7027 66.4471 25.5248 67.9273 24.7847C71.5991 22.9488 72.5273 19.753 72.5273 15.5308C72.5273 11.443 71.4247 8.20241 69.2195 5.80892C67.0411 3.41543 63.935 2.21868 59.901 2.21868H50.5825Z" fill="white"/>
<path d="M31.2109 25.7026H51.4059V29.3744H31.2109V25.7026Z" fill="white"/>
</svg>
