<svg width="38" height="38" viewBox="0 0 38 38" fill="none" xmlns="http://www.w3.org/2000/svg">
<path d="M12.6667 17.4168C13.7627 17.4168 14.8341 17.0918 15.7455 16.4829C16.6568 15.874 17.3671 15.0085 17.7865 13.9959C18.2059 12.9833 18.3157 11.869 18.1019 10.794C17.888 9.71906 17.3602 8.73163 16.5852 7.95662C15.8102 7.1816 14.8228 6.65381 13.7478 6.43998C12.6728 6.22615 11.5586 6.3359 10.546 6.75533C9.53336 7.17477 8.66787 7.88506 8.05894 8.79638C7.45001 9.7077 7.125 10.7791 7.125 11.8752C7.125 13.3449 7.70885 14.7545 8.74812 15.7937C9.78738 16.833 11.1969 17.4168 12.6667 17.4168ZM12.6667 9.50017C13.1364 9.50017 13.5956 9.63946 13.9861 9.90042C14.3767 10.1614 14.6811 10.5323 14.8609 10.9663C15.0406 11.4003 15.0877 11.8778 14.996 12.3385C14.9044 12.7992 14.6782 13.2224 14.346 13.5545C14.0139 13.8867 13.5907 14.1129 13.13 14.2045C12.6693 14.2962 12.1918 14.2491 11.7578 14.0694C11.3238 13.8896 10.9529 13.5852 10.6919 13.1946C10.431 12.8041 10.2917 12.3449 10.2917 11.8752C10.2917 11.2453 10.5419 10.6412 10.9873 10.1958C11.4327 9.75039 12.0368 9.50017 12.6667 9.50017Z" fill="#002A26"/>
<path d="M25.3327 22.1665C24.2366 22.1665 23.1652 22.4915 22.2539 23.1004C21.3426 23.7094 20.6323 24.5749 20.2129 25.5875C19.7934 26.6001 19.6837 27.7143 19.8975 28.7893C20.1113 29.8643 20.6391 30.8517 21.4141 31.6267C22.1892 32.4017 23.1766 32.9295 24.2516 33.1434C25.3265 33.3572 26.4408 33.2474 27.4534 32.828C28.466 32.4086 29.3315 31.6983 29.9404 30.787C30.5493 29.8756 30.8743 28.8042 30.8743 27.7082C30.8743 26.2384 30.2905 24.8289 29.2512 23.7896C28.212 22.7504 26.8024 22.1665 25.3327 22.1665ZM25.3327 30.0832C24.863 30.0832 24.4038 29.9439 24.0132 29.6829C23.6226 29.4219 23.3182 29.051 23.1385 28.617C22.9587 28.1831 22.9117 27.7055 23.0033 27.2448C23.095 26.7841 23.3212 26.3609 23.6533 26.0288C23.9855 25.6966 24.4086 25.4704 24.8693 25.3788C25.33 25.2872 25.8076 25.3342 26.2416 25.514C26.6755 25.6937 27.0465 25.9981 27.3074 26.3887C27.5684 26.7793 27.7077 27.2384 27.7077 27.7082C27.7077 28.3381 27.4575 28.9421 27.0121 29.3875C26.5667 29.8329 25.9626 30.0832 25.3327 30.0832Z" fill="#002A26"/>
<path d="M31.2557 6.74486C31.1248 6.61369 30.9693 6.50962 30.7981 6.43861C30.6269 6.3676 30.4435 6.33105 30.2582 6.33105C30.0728 6.33105 29.8894 6.3676 29.7182 6.43861C29.547 6.50962 29.3915 6.61369 29.2607 6.74486L6.74565 29.2599C6.4844 29.5265 6.33681 29.8841 6.33399 30.2574C6.33356 30.5364 6.41598 30.8092 6.57079 31.0414C6.7256 31.2735 6.94584 31.4544 7.2036 31.5613C7.46135 31.6681 7.74502 31.696 8.01866 31.6415C8.29229 31.5869 8.54357 31.4524 8.74065 31.2549L31.2557 8.73986C31.3868 8.60897 31.4909 8.45349 31.5619 8.28232C31.6329 8.11116 31.6695 7.92767 31.6695 7.74236C31.6695 7.55705 31.6329 7.37356 31.5619 7.2024C31.4909 7.03123 31.3868 6.87575 31.2557 6.74486Z" fill="#002A26"/>
</svg>
