<svg width="39" height="39" viewBox="0 0 39 39" fill="none" xmlns="http://www.w3.org/2000/svg">
<g clip-path="url(#clip0_2_8546)">
<path d="M21.3145 10.5625C22.2119 10.5625 22.9395 9.83496 22.9395 8.9375C22.9395 8.04004 22.2119 7.3125 21.3145 7.3125C20.417 7.3125 19.6895 8.04004 19.6895 8.9375C19.6895 9.83496 20.417 10.5625 21.3145 10.5625Z" fill="#55D6C6"/>
<path d="M26.5957 10.5625C27.4932 10.5625 28.2207 9.83496 28.2207 8.9375C28.2207 8.04004 27.4932 7.3125 26.5957 7.3125C25.6982 7.3125 24.9707 8.04004 24.9707 8.9375C24.9707 9.83496 25.6982 10.5625 26.5957 10.5625Z" fill="#55D6C6"/>
<path d="M31.877 10.5625C32.7744 10.5625 33.502 9.83496 33.502 8.9375C33.502 8.04004 32.7744 7.3125 31.877 7.3125C30.9795 7.3125 30.252 8.04004 30.252 8.9375C30.252 9.83496 30.9795 10.5625 31.877 10.5625Z" fill="#55D6C6"/>
<path d="M30.063 0H20.313C18.2823 0.0095445 16.3149 0.70734 14.732 1.97942C13.1491 3.25151 12.0443 5.02271 11.5981 7.00375C11.5486 7.21343 11.5414 7.43086 11.5767 7.64338C11.612 7.8559 11.6893 8.05927 11.804 8.24167C11.9186 8.42406 12.0684 8.58183 12.2446 8.7058C12.4208 8.82978 12.6199 8.91747 12.8303 8.9638C13.0407 9.01012 13.2582 9.01415 13.4702 8.97564C13.6821 8.93713 13.8843 8.85686 14.065 8.73949C14.2456 8.62212 14.4012 8.46999 14.5225 8.29197C14.6438 8.11394 14.7285 7.91357 14.7717 7.7025C15.0558 6.4431 15.7583 5.31718 16.7648 4.50852C17.7712 3.69986 19.0219 3.25621 20.313 3.25H30.063C31.5714 3.25 33.018 3.84922 34.0846 4.91583C35.1512 5.98244 35.7505 7.42908 35.7505 8.9375C35.7505 10.4459 35.1512 11.8926 34.0846 12.9592C33.018 14.0258 31.5714 14.625 30.063 14.625H28.438C28.0688 14.6248 27.7106 14.7503 27.4223 14.9809L25.9956 16.1184C25.9625 15.7114 25.7775 15.3319 25.4773 15.0552C25.1771 14.7785 24.7837 14.6249 24.3755 14.625H22.7505C22.3195 14.625 21.9062 14.7962 21.6014 15.101C21.2967 15.4057 21.1255 15.819 21.1255 16.25C21.1255 16.681 21.2967 17.0943 21.6014 17.399C21.9062 17.7038 22.3195 17.875 22.7505 17.875V19.5C22.7503 19.8062 22.8368 20.1062 22.9997 20.3654C23.1627 20.6247 23.3956 20.8326 23.6715 20.9652C23.9475 21.0979 24.2554 21.1498 24.5596 21.1151C24.8638 21.0804 25.1521 20.9605 25.3911 20.7691L29.0067 17.875H30.063C32.4333 17.875 34.7066 16.9334 36.3827 15.2573C38.0588 13.5812 39.0005 11.3079 39.0005 8.9375C39.0005 6.56713 38.0588 4.29384 36.3827 2.61773C34.7066 0.941627 32.4333 0 30.063 0V0Z" fill="#55D6C6"/>
<path d="M18.6875 28.1596L17.6637 27.7875C17.2975 26.9629 17.2511 26.0314 17.5338 25.1745C18.3984 24.2368 19.0571 23.1285 19.4674 21.9208C19.8777 20.7132 20.0305 19.4329 19.916 18.1626C19.916 14.2285 17.3501 11.375 13.8125 11.375C10.2749 11.375 7.709 14.2285 7.709 18.1578C7.59464 19.422 7.74606 20.6963 8.15353 21.8985C8.56101 23.1008 9.21552 24.2045 10.075 25.1388C10.3795 26.003 10.3405 26.9512 9.96612 27.7875L8.93913 28.1661C4.96437 29.6286 2.09138 30.6849 1.2155 32.4334C0.4321 34.2516 0.0188865 36.2078 0 38.1875C0 38.403 0.0856024 38.6097 0.237976 38.762C0.390349 38.9144 0.597012 39 0.8125 39H26.8125C27.028 39 27.2347 38.9144 27.387 38.762C27.5394 38.6097 27.625 38.403 27.625 38.1875C27.607 36.2056 27.1937 34.2471 26.4095 32.4269C25.5336 30.6784 22.6606 29.6205 18.6875 28.1596Z" fill="#55D6C6"/>
</g>
<defs>
<clipPath id="clip0_2_8546">
<rect width="39" height="39" fill="white"/>
</clipPath>
</defs>
</svg>
