<svg width="43" height="43" viewBox="0 0 43 43" fill="none" xmlns="http://www.w3.org/2000/svg">
<g clip-path="url(#clip0_2_8562)">
<path d="M22.916 9.58358C22.916 10.6421 23.7741 11.5002 24.8327 11.5002H33.3327H41.8327C42.8912 11.5002 43.7493 10.6421 43.7493 9.58358C43.7493 8.52503 42.8912 7.66691 41.8327 7.66691H33.3327H24.8327C23.7741 7.66691 22.916 8.52503 22.916 9.58358Z" fill="#55D6C6"/>
<path d="M22.916 23.0001C22.916 24.0586 23.7741 24.9167 24.8327 24.9167H33.3327H41.8327C42.8912 24.9167 43.7493 24.0586 43.7493 23.0001C43.7493 21.9415 42.8912 21.0834 41.8327 21.0834H33.3327H24.8327C23.7741 21.0834 22.916 21.9415 22.916 23.0001Z" fill="#55D6C6"/>
<path d="M22.916 36.4168C22.916 37.4754 23.7741 38.3335 24.8327 38.3335H33.3327H41.8327C42.8912 38.3335 43.7493 37.4754 43.7493 36.4168C43.7493 35.3583 42.8912 34.5002 41.8327 34.5002H33.3327H24.8327C23.7741 34.5002 22.916 35.3583 22.916 36.4168Z" fill="#55D6C6"/>
<ellipse cx="9.5" cy="23.4599" rx="5.5" ry="5.06" fill="#55D6C6"/>
<ellipse cx="9.5" cy="37.2599" rx="5.5" ry="5.06" fill="#55D6C6"/>
<ellipse cx="9.5" cy="9.6601" rx="5.5" ry="5.06" fill="#55D6C6"/>
<ellipse cx="9.5" cy="23.4599" rx="2.5" ry="2.3" fill="#010716"/>
<ellipse cx="9.5" cy="37.26" rx="2.5" ry="2.3" fill="#010716"/>
</g>
<defs>
<clipPath id="clip0_2_8562">
<rect width="43" height="43" fill="white"/>
</clipPath>
</defs>
</svg>
