<svg width="37" height="37" viewBox="0 0 37 37" fill="none" xmlns="http://www.w3.org/2000/svg">
<path d="M18.7562 0.720215C16.9186 0.720123 15.1223 1.26495 13.5943 2.28579C12.0664 3.30664 10.8755 4.75765 10.1722 6.45534C9.46893 8.15303 9.28487 10.0211 9.64331 11.8234C10.0018 13.6257 10.8866 15.2813 12.1859 16.5807C13.4853 17.8801 15.1408 18.765 16.943 19.1235C18.7453 19.482 20.6134 19.2981 22.3112 18.5949C24.0089 17.8917 25.46 16.7009 26.4809 15.173C27.5018 13.6451 28.0467 11.8487 28.0467 10.0111C28.0467 7.54712 27.0679 5.184 25.3256 3.44163C23.5833 1.69925 21.2203 0.720338 18.7562 0.720215ZM18.0288 9.3533H19.4572C20.0973 9.3527 20.7115 9.60642 21.1645 10.0587C21.6176 10.5109 21.8725 11.1246 21.8731 11.7647C21.8737 12.4049 21.62 13.019 21.1677 13.4721C20.7155 13.9252 20.1018 14.18 19.4617 14.1806V15.3698C19.4642 15.4738 19.4459 15.5774 19.4078 15.6742C19.3698 15.7711 19.3127 15.8594 19.24 15.9339C19.1673 16.0084 19.0804 16.0676 18.9845 16.108C18.8886 16.1484 18.7855 16.1693 18.6814 16.1693C18.5773 16.1693 18.4743 16.1484 18.3784 16.108C18.2825 16.0676 18.1956 16.0084 18.1229 15.9339C18.0502 15.8594 17.9931 15.7711 17.955 15.6742C17.917 15.5774 17.8987 15.4738 17.9012 15.3698V14.1809H16.273C16.066 14.1809 15.8675 14.0987 15.7211 13.9523C15.5747 13.806 15.4925 13.6075 15.4925 13.4005C15.4925 13.1935 15.5747 12.995 15.7211 12.8486C15.8675 12.7022 16.066 12.62 16.273 12.62H19.4572C19.57 12.6213 19.6819 12.6002 19.7865 12.558C19.8912 12.5157 19.9863 12.4531 20.0666 12.3738C20.1468 12.2945 20.2105 12.2 20.254 12.0959C20.2975 11.9918 20.3199 11.8801 20.3199 11.7673C20.3199 11.6544 20.2975 11.5427 20.254 11.4386C20.2105 11.3345 20.1468 11.2401 20.0666 11.1607C19.9863 11.0814 19.8912 11.0188 19.7865 10.9766C19.6819 10.9343 19.57 10.9132 19.4572 10.9145H18.0288C17.3675 10.916 16.7319 10.6586 16.2579 10.1974C15.7839 9.73628 15.5092 9.10795 15.4925 8.44685C15.4759 7.78575 15.7185 7.14438 16.1687 6.65991C16.6188 6.17545 17.2407 5.88636 17.9012 5.85449V4.65262C17.8987 4.54856 17.917 4.44504 17.955 4.34816C17.9931 4.25129 18.0502 4.163 18.1229 4.08851C18.1956 4.01401 18.2825 3.95481 18.3784 3.9144C18.4743 3.87398 18.5773 3.85315 18.6814 3.85315C18.7855 3.85315 18.8886 3.87398 18.9845 3.9144C19.0804 3.95481 19.1673 4.01401 19.24 4.08851C19.3127 4.163 19.3698 4.25129 19.4078 4.34816C19.4459 4.44504 19.4642 4.54856 19.4617 4.65262V5.8413H21.2395C21.4465 5.8413 21.645 5.92353 21.7914 6.0699C21.9378 6.21626 22.02 6.41478 22.02 6.62177C22.02 6.82877 21.9378 7.02728 21.7914 7.17365C21.645 7.32001 21.4465 7.40224 21.2395 7.40224H18.0288C17.7701 7.40224 17.522 7.50501 17.339 7.68795C17.1561 7.87089 17.0533 8.119 17.0533 8.37771C17.0533 8.63642 17.1561 8.88454 17.339 9.06747C17.522 9.25041 17.7701 9.35318 18.0288 9.35318V9.3533Z" fill="#55D6C6"/>
<path d="M8.73337 21.2378H4.94214C4.86289 21.2378 4.78442 21.2534 4.7112 21.2837C4.63799 21.3141 4.57147 21.3585 4.51544 21.4146C4.45942 21.4706 4.41499 21.5372 4.38469 21.6104C4.35439 21.6836 4.33882 21.7621 4.33887 21.8414V34.7804C4.33888 34.9404 4.40245 35.0938 4.51558 35.207C4.62872 35.3201 4.78215 35.3836 4.94214 35.3836H8.73337C9.08207 35.3836 9.41648 35.245 9.66303 34.9984C9.90958 34.7518 10.0481 34.4174 10.0481 34.0687V22.5524C10.048 22.2038 9.90947 21.8694 9.66293 21.6229C9.41638 21.3764 9.08202 21.2379 8.73337 21.2378Z" fill="#55D6C6"/>
<path d="M32.565 22.7576C32.3646 22.4524 32.0913 22.202 31.7699 22.0288C31.4485 21.8556 31.089 21.7652 30.7239 21.7656H29.2381C28.6007 21.7643 27.9772 21.9529 27.4474 22.3074C26.9176 22.662 26.5054 23.1663 26.2634 23.7561C26.1197 24.0989 25.9196 24.4152 25.6713 24.6919C25.2493 25.3398 24.6783 25.8773 24.0061 26.2595C23.3339 26.6416 22.58 26.8572 21.8073 26.8883L17.4065 26.8886C17.1995 26.8886 17.001 26.8064 16.8546 26.66C16.7082 26.5136 16.626 26.3151 16.626 26.1081C16.626 25.9011 16.7082 25.7026 16.8546 25.5562C17.001 25.4099 17.1995 25.3276 17.4065 25.3276H21.7865C22.3492 25.3132 22.8959 25.1373 23.3615 24.8209V24.7944C23.363 24.3973 23.2861 24.0037 23.1352 23.6363C22.9843 23.2689 22.7623 22.935 22.4821 22.6536C22.2018 22.3722 21.8687 22.1489 21.5019 21.9965C21.1351 21.8441 20.7419 21.7657 20.3447 21.7656H17.1153C16.5252 21.7639 15.9406 21.879 15.3952 22.1042C14.8497 22.3295 14.3543 22.6604 13.9373 23.078L13.8549 23.1601C13.2438 23.7702 12.4592 24.1766 11.6084 24.3237V32.9445H23.3856C25.1318 32.9456 26.8399 32.4342 28.2982 31.4736C29.7565 30.5131 30.9008 29.1457 31.5892 27.5409L32.7494 24.8406C32.8941 24.5054 32.953 24.1394 32.9208 23.7758C32.8886 23.4121 32.7663 23.0622 32.565 22.7576Z" fill="#55D6C6"/>
</svg>
