<svg width="40" height="40" viewBox="0 0 40 40" fill="none" xmlns="http://www.w3.org/2000/svg">
<path d="M35 30H5C4.00544 30 3.05161 29.6049 2.34835 28.9017C1.64509 28.1984 1.25 27.2446 1.25 26.25V6.25C1.25 5.25544 1.64509 4.30161 2.34835 3.59835C3.05161 2.89509 4.00544 2.5 5 2.5H35C35.9946 2.5 36.9484 2.89509 37.6516 3.59835C38.3549 4.30161 38.75 5.25544 38.75 6.25V26.25C38.75 27.2446 38.3549 28.1984 37.6516 28.9017C36.9484 29.6049 35.9946 30 35 30ZM5 5C4.66848 5 4.35054 5.1317 4.11612 5.36612C3.8817 5.60054 3.75 5.91848 3.75 6.25V26.25C3.75 26.5815 3.8817 26.8995 4.11612 27.1339C4.35054 27.3683 4.66848 27.5 5 27.5H35C35.3315 27.5 35.6495 27.3683 35.8839 27.1339C36.1183 26.8995 36.25 26.5815 36.25 26.25V6.25C36.25 5.91848 36.1183 5.60054 35.8839 5.36612C35.6495 5.1317 35.3315 5 35 5H5Z" fill="#55D6C6"/>
<path d="M26.2505 37.5001H13.7505C13.5681 37.5025 13.3873 37.4648 13.221 37.3899C13.0547 37.315 12.9067 37.2046 12.7876 37.0664C12.6685 36.9282 12.5811 36.7656 12.5315 36.5901C12.4819 36.4145 12.4713 36.2302 12.5005 36.0501L13.7505 28.5501C13.7984 28.2543 13.951 27.9856 14.1804 27.7929C14.4099 27.6001 14.7009 27.4962 15.0005 27.5001H25.0005C25.3001 27.4962 25.5911 27.6001 25.8206 27.7929C26.05 27.9856 26.2026 28.2543 26.2505 28.5501L27.5005 36.0501C27.5297 36.2302 27.5191 36.4145 27.4695 36.5901C27.4199 36.7656 27.3325 36.9282 27.2134 37.0664C27.0943 37.2046 26.9463 37.315 26.78 37.3899C26.6136 37.4648 26.4329 37.5025 26.2505 37.5001ZM15.2255 35.0001H24.7755L23.938 30.0001H16.063L15.2255 35.0001Z" fill="#55D6C6"/>
<path d="M30 37.5H10C9.66848 37.5 9.35054 37.3683 9.11612 37.1339C8.8817 36.8995 8.75 36.5815 8.75 36.25C8.75 35.9185 8.8817 35.6005 9.11612 35.3661C9.35054 35.1317 9.66848 35 10 35H30C30.3315 35 30.6495 35.1317 30.8839 35.3661C31.1183 35.6005 31.25 35.9185 31.25 36.25C31.25 36.5815 31.1183 36.8995 30.8839 37.1339C30.6495 37.3683 30.3315 37.5 30 37.5Z" fill="#55D6C6"/>
<path d="M37.5 23.75H2.5C2.16848 23.75 1.85054 23.6183 1.61612 23.3839C1.3817 23.1495 1.25 22.8315 1.25 22.5C1.25 22.1685 1.3817 21.8505 1.61612 21.6161C1.85054 21.3817 2.16848 21.25 2.5 21.25H37.5C37.8315 21.25 38.1495 21.3817 38.3839 21.6161C38.6183 21.8505 38.75 22.1685 38.75 22.5C38.75 22.8315 38.6183 23.1495 38.3839 23.3839C38.1495 23.6183 37.8315 23.75 37.5 23.75Z" fill="#55D6C6"/>
</svg>
