<svg width="50" height="50" viewBox="0 0 50 50" fill="none" xmlns="http://www.w3.org/2000/svg">
<path d="M26.158 28C26.052 28 25.945 28.022 25.839 28.064L24 28.808V31.966L25.227 31.472C26.304 31.038 27 30.008 27 28.847C27 28.324 26.563 28 26.158 28Z" fill="#55D6C6"/>
<path d="M39.998 15.4919C39.998 14.6619 39.682 13.8319 39.05 13.1999C39.028 13.1779 39.001 13.1589 38.978 13.1379C38.982 13.2139 39 13.2869 39 13.3649C39 14.4299 38.586 15.4309 37.834 16.1829C37.406 16.6119 36.943 16.8559 36.508 17.0569L11.123 27.1989C9.226 27.9659 8 29.7809 8 31.8239V46.0029C8 46.9989 8.493 47.9259 9.32 48.4839C9.824 48.8239 10.41 48.9989 11 48.9989C11.379 48.9989 11.761 48.9269 12.124 48.7809L37.498 38.5539C39.024 37.9379 40.007 36.4789 40 34.8399V15.4919H39.998ZM25.974 33.3269L24 34.1219V35.6349L27 34.4259V36.5819L24 37.7909V39.1939L22 39.9999V38.5969L21 38.9999V36.8439L22 36.4409V34.9269L21 35.3299V33.1699L22 32.7669V27.4599V27.4569L25.09 26.2109C25.445 26.0669 25.806 26.0009 26.158 26.0009C27.661 25.9999 29 27.2129 29 28.8469C29 30.8179 27.802 32.5909 25.974 33.3269Z" fill="#55D6C6"/>
<path d="M36.419 11.961C36.284 11.827 36.136 11.717 35.954 11.616L35.427 11.348L12.174 1.24498C11.252 0.84998 10.197 0.93998 9.354 1.49298C8.507 2.04898 8 2.98598 8 3.99998V19.387C8 21.379 9.181 23.179 11.008 23.973L12.331 24.548L27.104 18.655L10 11.075V6.11698L32.992 16.307L35.7 15.227C35.931 15.12 36.203 14.985 36.419 14.769C36.794 14.394 37 13.896 37 13.365C37 12.834 36.794 12.335 36.419 11.961Z" fill="#55D6C6"/>
</svg>
