<svg width="38" height="38" viewBox="0 0 38 38" fill="none" xmlns="http://www.w3.org/2000/svg">
<path d="M19.2632 0.739624C17.376 0.73953 15.5311 1.29908 13.9618 2.34752C12.3926 3.39595 11.1695 4.88618 10.4472 6.62975C9.7249 8.37332 9.53587 10.2919 9.904 12.1429C10.2721 13.9939 11.1809 15.6942 12.5153 17.0287C13.8498 18.3633 15.55 19.2721 17.401 19.6403C19.252 20.0085 21.1706 19.8196 22.9142 19.0974C24.6578 18.3752 26.1481 17.1522 27.1966 15.583C28.2451 14.0138 28.8048 12.1689 28.8048 10.2817C28.8048 7.75104 27.7995 5.32406 26.0101 3.53459C24.2208 1.74512 21.7938 0.73975 19.2632 0.739624ZM18.5161 9.60603H19.9831C20.6405 9.60542 21.2713 9.866 21.7366 10.3305C22.2019 10.7949 22.4637 11.4252 22.4643 12.0826C22.4649 12.7401 22.2043 13.3708 21.7399 13.8362C21.2754 14.3015 20.6452 14.5632 19.9877 14.5638V15.7851C19.9903 15.892 19.9715 15.9983 19.9324 16.0978C19.8933 16.1973 19.8347 16.288 19.76 16.3645C19.6854 16.441 19.5961 16.5018 19.4976 16.5433C19.3991 16.5848 19.2933 16.6062 19.1864 16.6062C19.0795 16.6062 18.9737 16.5848 18.8751 16.5433C18.7766 16.5018 18.6874 16.441 18.6127 16.3645C18.5381 16.288 18.4795 16.1973 18.4404 16.0978C18.4013 15.9983 18.3825 15.892 18.3851 15.7851V14.5641H16.7128C16.5002 14.5641 16.2964 14.4797 16.146 14.3294C15.9957 14.1791 15.9113 13.9752 15.9113 13.7626C15.9113 13.55 15.9957 13.3461 16.146 13.1958C16.2964 13.0455 16.5002 12.961 16.7128 12.961H19.9831C20.0989 12.9624 20.2139 12.9407 20.3214 12.8973C20.4288 12.8539 20.5266 12.7896 20.609 12.7081C20.6914 12.6267 20.7568 12.5297 20.8015 12.4228C20.8461 12.3158 20.8691 12.2011 20.8691 12.0852C20.8691 11.9694 20.8461 11.8546 20.8015 11.7477C20.7568 11.6408 20.6914 11.5438 20.609 11.4623C20.5266 11.3809 20.4288 11.3166 20.3214 11.2732C20.2139 11.2298 20.0989 11.2081 19.9831 11.2095H18.5161C17.8369 11.211 17.1841 10.9466 16.6973 10.473C16.2105 9.99936 15.9284 9.35405 15.9113 8.67509C15.8942 7.99612 16.1434 7.33741 16.6057 6.83985C17.068 6.3423 17.7067 6.0454 18.3851 6.01266V4.77831C18.3825 4.67144 18.4013 4.56512 18.4404 4.46563C18.4795 4.36613 18.5381 4.27546 18.6127 4.19895C18.6874 4.12244 18.7766 4.06165 18.8751 4.02013C18.9737 3.97862 19.0795 3.95724 19.1864 3.95724C19.2933 3.95724 19.3991 3.97862 19.4976 4.02013C19.5961 4.06165 19.6854 4.12244 19.76 4.19895C19.8347 4.27546 19.8933 4.36613 19.9324 4.46563C19.9715 4.56512 19.9903 4.67144 19.9877 4.77831V5.99912H21.8136C22.0262 5.99912 22.2301 6.08357 22.3804 6.23389C22.5307 6.38422 22.6152 6.5881 22.6152 6.80068C22.6152 7.01327 22.5307 7.21715 22.3804 7.36747C22.2301 7.5178 22.0262 7.60225 21.8136 7.60225H18.5161C18.2504 7.60225 17.9956 7.7078 17.8077 7.89568C17.6198 8.08356 17.5143 8.33838 17.5143 8.60408C17.5143 8.86978 17.6198 9.1246 17.8077 9.31248C17.9956 9.50037 18.2504 9.60592 18.5161 9.60592V9.60603Z" fill="#55D6C6"/>
<path d="M8.96835 21.8119H5.07466C4.99327 21.8119 4.91267 21.8279 4.83748 21.8591C4.76228 21.8902 4.69396 21.9359 4.63643 21.9934C4.57889 22.051 4.53326 22.1194 4.50214 22.1946C4.47102 22.2698 4.45503 22.3504 4.45508 22.4318V35.7205C4.45509 35.8849 4.52038 36.0424 4.63657 36.1586C4.75276 36.2748 4.91034 36.3401 5.07466 36.3401H8.96835C9.32648 36.34 9.66992 36.1977 9.92313 35.9444C10.1763 35.6912 10.3186 35.3477 10.3186 34.9896V23.1621C10.3185 22.804 10.1762 22.4606 9.92303 22.2074C9.66982 21.9542 9.32643 21.812 8.96835 21.8119Z" fill="#55D6C6"/>
<path d="M33.4449 23.3727C33.239 23.0593 32.9584 22.802 32.6283 22.6242C32.2982 22.4463 31.929 22.3534 31.554 22.3539H30.0281C29.3734 22.3525 28.7331 22.5462 28.1889 22.9103C27.6448 23.2744 27.2215 23.7924 26.973 24.3981C26.8254 24.7502 26.6199 25.0751 26.3648 25.3592C25.9315 26.0247 25.3451 26.5767 24.6547 26.9692C23.9643 27.3616 23.19 27.5831 22.3965 27.615L17.8767 27.6153C17.6641 27.6153 17.4602 27.5308 17.3099 27.3805C17.1595 27.2302 17.0751 27.0263 17.0751 26.8137C17.0751 26.6011 17.1595 26.3973 17.3099 26.2469C17.4602 26.0966 17.6641 26.0122 17.8767 26.0122H22.375C22.953 25.9973 23.5145 25.8167 23.9926 25.4917V25.4646C23.9942 25.0567 23.9152 24.6524 23.7602 24.2751C23.6052 23.8978 23.3773 23.5548 23.0894 23.2658C22.8015 22.9768 22.4595 22.7475 22.0828 22.591C21.7061 22.4345 21.3022 22.3539 20.8943 22.3539H17.5776C16.9715 22.3521 16.3711 22.4703 15.811 22.7017C15.2508 22.933 14.742 23.2729 14.3137 23.7017L14.2291 23.7861C13.6015 24.4127 12.7957 24.83 11.9219 24.9811V33.8349H24.0174C25.8108 33.836 27.5651 33.3108 29.0628 32.3243C30.5604 31.3378 31.7357 29.9334 32.4427 28.2853L33.6342 25.5119C33.7828 25.1677 33.8433 24.7918 33.8103 24.4183C33.7772 24.0448 33.6516 23.6855 33.4449 23.3727Z" fill="#55D6C6"/>
</svg>
