<svg width="40" height="33" viewBox="0 0 40 33" fill="none" xmlns="http://www.w3.org/2000/svg">
<path d="M25.6501 0.0417023C24.9766 0.10033 23.9807 0.406042 23.2664 0.77457C22.7766 1.02584 22.397 1.31899 21.9684 1.77965C20.9766 2.83498 20.3807 4.17508 20.2052 5.75807C20.1358 6.36112 20.1072 8.9785 20.1603 9.69462C20.2093 10.3898 20.3399 11.1101 20.5521 11.8723C21.2542 14.3933 22.544 15.9052 24.5725 16.5836C25.0337 16.7385 25.4868 16.793 26.3276 16.793C27.6991 16.793 28.2746 16.6799 29.1644 16.2318C30.3521 15.6329 31.0827 14.8414 31.7603 13.4218C32.2623 12.3706 32.5603 11.2734 32.7235 9.92495C32.8133 9.15439 32.8256 6.79665 32.7439 6.11404C32.6052 4.9917 32.3643 4.09132 31.9848 3.28307C31.6868 2.65071 31.4909 2.36594 31.0052 1.86759C30.2623 1.10541 29.5684 0.65731 28.6664 0.359976C28.1195 0.179899 27.646 0.0961437 26.8542 0.0417023C26.2133 -0.00436401 26.1929 -0.00436401 25.6501 0.0417023ZM26.0827 1.8634C26.148 1.8969 26.2215 1.96391 26.246 2.00579C26.3031 2.11886 26.2991 2.31569 26.2378 2.39526C26.2093 2.43295 25.9358 2.63815 25.6337 2.85173C25.3317 3.06112 24.8827 3.40871 24.6337 3.62228C24.144 4.04944 23.3113 4.89538 22.9848 5.30998C22.748 5.60312 22.646 5.68269 22.4582 5.72038C22.3521 5.74132 22.3113 5.72457 22.2052 5.61987C22.0991 5.51099 22.0827 5.46074 22.0827 5.2681C22.0827 4.97914 22.2052 4.54779 22.4093 4.11226C22.8827 3.09881 23.446 2.52926 24.3766 2.12723C25.0501 1.83409 25.8052 1.71683 26.0827 1.8634Z" fill="#55D6C6"/>
<path d="M9.27762 0.10457C8.62047 0.226017 7.8368 0.573606 7.33884 0.958885C6.96333 1.25203 6.45721 1.82158 6.2368 2.20267C5.64904 3.20774 5.45721 4.1835 5.45312 6.17691C5.45312 7.36206 5.49802 7.86878 5.67761 8.66866C6.21639 11.085 7.547 12.5298 9.51435 12.8397C10.0205 12.9193 10.8776 12.8984 11.347 12.7937C12.0735 12.6303 12.8613 12.2157 13.3593 11.7341C14.2695 10.8505 14.9103 9.28427 15.1225 7.42488C15.2409 6.40305 15.1878 4.96244 15.0001 3.94061C14.6082 1.83414 13.1552 0.376779 11.1633 0.0836315C10.7633 0.0250015 9.63272 0.0375652 9.27762 0.10457ZM10.2041 1.61218C10.5021 1.77132 10.3756 1.99746 9.747 2.433C9.30211 2.73871 8.91435 3.0863 8.20006 3.81498C7.81639 4.20026 7.46945 4.53109 7.42455 4.54366C7.30211 4.58554 7.15108 4.4599 7.12251 4.29658C7.03272 3.8066 7.66129 2.59632 8.23272 2.16498C8.82455 1.72107 9.85721 1.42792 10.2041 1.61218Z" fill="#55D6C6"/>
<path d="M9.57177 14.5484C9.26973 14.6992 9.0534 14.896 8.98402 15.0886C8.90646 15.2897 8.93095 15.6498 9.04524 15.989C9.13912 16.278 9.23708 16.4832 9.61667 17.1993L9.73504 17.4171L9.57585 17.9112C9.37177 18.552 8.80034 20.2062 8.69014 20.4658C8.62891 20.6166 8.60034 20.6501 8.57177 20.604C8.55136 20.5663 8.24932 19.6157 7.8983 18.4892C6.94728 15.432 6.64932 14.5275 6.59218 14.5024C6.55953 14.494 6.31055 14.6196 6.03299 14.7871C5.0085 15.4069 3.77993 15.9681 2.42891 16.4371C1.40034 16.7931 1.13095 16.9355 0.80034 17.304C0.477891 17.66 0.249319 18.1081 0.122789 18.6357C-0.036395 19.2932 -0.036395 21.563 0.12687 22.4676L0.167687 22.723L0.543197 22.9366C1.31463 23.3805 2.86973 24.0171 4.00034 24.3521C5.4534 24.7834 6.9432 25.0473 8.633 25.1687C9.633 25.2399 11.6493 25.2902 11.6779 25.2441C11.6901 25.2232 11.7146 25.0138 11.731 24.7793C11.8208 23.3261 12.2656 22.1367 13.0044 21.3829C13.4861 20.8888 13.882 20.6878 15.3065 20.2062C16.7963 19.7036 17.8452 19.2513 19.3473 18.4598C19.8289 18.2086 20.2412 17.9824 20.2616 17.9615C20.3269 17.9029 20.1146 17.5385 19.8575 17.2705C19.5554 16.9564 19.282 16.8182 18.2044 16.4371C16.7636 15.9304 15.8493 15.5074 14.6901 14.8206C14.3881 14.6364 14.1146 14.4898 14.0901 14.4898C14.0452 14.4898 13.7799 15.3022 12.7146 18.6985C12.2861 20.0638 12.0942 20.604 12.0412 20.604C12.0248 20.604 12.0003 20.5705 11.9881 20.5286C11.9759 20.4909 11.7269 19.7706 11.433 18.9331L10.8983 17.4129L11.131 17.0276C11.531 16.3617 11.7146 15.855 11.7146 15.3902C11.7146 15.0593 11.5963 14.8541 11.3065 14.6615C11.0085 14.4605 10.7759 14.406 10.2534 14.406C9.88606 14.406 9.833 14.4144 9.57177 14.5484Z" fill="#55D6C6"/>
<path d="M25.8787 18.8492C25.3889 18.933 24.9481 19.2512 24.7522 19.67C24.6542 19.871 24.6461 19.9297 24.6665 20.2186C24.7032 20.8007 25.0093 21.5755 25.4991 22.3418L25.744 22.7187L25.2787 24.0588C24.6828 25.7926 24.3726 26.6637 24.2869 26.8396L24.2175 26.9861L23.9481 26.1486C23.8012 25.6921 23.3277 24.1761 22.8991 22.7816C21.9726 19.7705 21.7154 18.9623 21.6746 18.9162C21.6256 18.8576 21.5277 18.9036 20.8991 19.2847C20.5726 19.4816 19.9685 19.8208 19.5522 20.0344C18.2583 20.7044 17.4256 21.0562 15.993 21.5294C15.4909 21.6927 14.9685 21.8854 14.8297 21.9524C14.1399 22.3 13.5807 23.0245 13.2705 23.9793C13.0175 24.7582 13.0052 24.8922 13.0134 26.3831C13.0216 27.7902 13.0746 28.9125 13.1481 29.2727C13.2216 29.6203 13.3195 29.7208 13.8787 30.0349C15.4052 30.8892 17.5889 31.7016 19.6991 32.2C25.6746 33.6154 32.4175 33.071 37.6501 30.751C38.344 30.4453 39.1685 30.0223 39.5195 29.7962C39.7318 29.658 39.7603 29.6203 39.8175 29.4276C39.9481 28.9502 39.9807 28.4351 39.9767 26.7809C39.9767 25.7256 39.9563 25.0179 39.9236 24.775C39.7563 23.5479 39.0828 22.434 38.2256 21.9817C38.0665 21.8979 37.4828 21.6718 36.9195 21.4833C34.9195 20.8049 33.4665 20.1307 31.9195 19.1675C31.4705 18.8869 31.4052 18.8576 31.3603 18.9162C31.3032 18.9916 30.3032 22.0989 29.3971 25.0011C29.0624 26.0732 28.7726 26.9443 28.7563 26.9401C28.7358 26.9359 28.6787 26.8144 28.6216 26.6679C28.3848 26.0271 27.2665 22.7983 27.2665 22.7439C27.2665 22.7146 27.3848 22.4968 27.5277 22.2623C28.0624 21.387 28.2869 20.8175 28.3154 20.2479C28.3358 19.9171 28.3277 19.8417 28.2461 19.6491C28.0828 19.2638 27.695 18.9748 27.1889 18.8618C26.8909 18.7989 26.2256 18.7906 25.8787 18.8492Z" fill="#55D6C6"/>
</svg>
