<svg width="41" height="41" viewBox="0 0 41 41" fill="none" xmlns="http://www.w3.org/2000/svg">
<path d="M40.1524 21.8704C40.1354 21.3307 39.9314 20.8136 39.5752 20.4078C39.219 20.0019 38.7328 19.7325 38.1999 19.6457C35.5385 19.1678 32.9835 16.8055 31.6992 15.4422C31.4803 15.2086 31.2164 15.0217 30.9234 14.8927C30.6305 14.7637 30.3145 14.6953 29.9944 14.6915L29.9903 14.6923L29.9862 14.6915C29.6605 14.6893 29.3378 14.7547 29.0386 14.8834C28.7393 15.0122 28.47 15.2016 28.2477 15.4397C26.9608 16.8055 24.4039 19.1678 21.7457 19.6457C21.2123 19.7354 20.7265 20.0072 20.3709 20.4149C20.0154 20.8225 19.8121 21.3408 19.7957 21.8814C19.76 23.9268 19.9287 25.9706 20.2993 27.9824V27.9831C21.4625 34.1178 24.5409 38.2301 29.2026 39.8758C29.4542 39.9645 29.7191 40.0096 29.9859 40.0092C30.2476 40.0096 30.5073 39.9636 30.7529 39.8733C35.4125 38.1848 38.4923 34.0733 39.6603 27.9833V27.9823C40.0368 25.9677 40.2018 23.9192 40.1524 21.8704ZM29.1217 26.956H21.8752C21.6144 25.2869 21.4972 23.5985 21.5249 21.9094C21.5332 21.7692 21.5905 21.6364 21.6866 21.534C21.7827 21.4316 21.9116 21.3661 22.051 21.3488C24.8293 20.8491 27.3699 18.8045 29.1217 17.0258V26.956ZM30.8508 37.9724V28.6851H37.7413C36.6339 33.334 34.3223 36.4521 30.8508 37.9724Z" fill="#55D6C6"/>
<path d="M21.4388 17.9435C22.9748 17.6672 24.9203 16.3902 26.8015 14.4421C26.8031 14.3578 26.8087 14.2743 26.8087 14.1895C26.8098 11.4228 25.9281 8.72793 24.2917 6.49704C22.6554 4.26614 20.3499 2.61562 17.7106 1.78564C15.0714 0.955656 12.2361 0.989528 9.61746 1.88232C6.99879 2.77512 4.73335 4.48025 3.15077 6.7496C1.56819 9.01895 0.751064 11.7341 0.818293 14.5C0.885521 17.2658 1.8336 19.9381 3.52456 22.1278C5.21552 24.3176 7.56114 25.9107 10.2201 26.6752C12.879 27.4397 15.7126 27.3358 18.3084 26.3786C18.1257 24.8773 18.0447 23.3654 18.0657 21.8531C18.0893 20.912 18.4383 20.0081 19.0533 19.2953C19.6683 18.5824 20.5113 18.1047 21.4388 17.9435ZM12.9644 12.7178H14.6329C14.9981 12.7161 15.36 12.7865 15.6979 12.925C16.0357 13.0635 16.3429 13.2674 16.6017 13.525C16.8605 13.7826 17.0659 14.0888 17.2061 14.426C17.3462 14.7632 17.4184 15.1247 17.4184 15.4899C17.4184 15.8551 17.3462 16.2166 17.2061 16.5538C17.0659 16.891 16.8605 17.1972 16.6017 17.4548C16.3429 17.7124 16.0357 17.9163 15.6979 18.0548C15.36 18.1933 14.9981 18.2637 14.6329 18.262H14.5917V19.697C14.5945 19.8123 14.5742 19.927 14.532 20.0343C14.4898 20.1417 14.4266 20.2395 14.346 20.3221C14.2655 20.4046 14.1692 20.4702 14.0629 20.515C13.9566 20.5598 13.8424 20.5829 13.7271 20.5829C13.6117 20.5829 13.4976 20.5598 13.3913 20.515C13.285 20.4702 13.1887 20.4046 13.1081 20.3221C13.0276 20.2395 12.9644 20.1417 12.9222 20.0343C12.88 19.927 12.8597 19.8123 12.8625 19.697V18.262H10.9137C10.6881 18.2565 10.4735 18.163 10.3158 18.0014C10.1582 17.8399 10.0699 17.6231 10.0699 17.3974C10.0699 17.1717 10.1582 16.9549 10.3158 16.7933C10.4735 16.6318 10.6881 16.5383 10.9137 16.5328H14.6329C14.7706 16.5339 14.9071 16.5077 15.0345 16.4558C15.162 16.4038 15.278 16.3272 15.3757 16.2303C15.4734 16.1333 15.5509 16.018 15.6039 15.8909C15.6568 15.7638 15.684 15.6275 15.684 15.4899C15.684 15.3523 15.6568 15.216 15.6039 15.0889C15.5509 14.9618 15.4734 14.8465 15.3757 14.7495C15.278 14.6526 15.162 14.5759 15.0345 14.524C14.9071 14.4721 14.7706 14.4459 14.6329 14.447H12.9644C12.2006 14.4479 11.467 14.1486 10.9219 13.6136C10.3767 13.0785 10.0637 12.3507 10.0503 11.587C10.037 10.8233 10.3243 10.0849 10.8504 9.5311C11.3764 8.97731 12.0991 8.65248 12.8625 8.62666V7.18115C12.868 6.95549 12.9615 6.74093 13.123 6.58327C13.2846 6.42561 13.5014 6.33736 13.7271 6.33736C13.9528 6.33736 14.1696 6.42561 14.3311 6.58327C14.4927 6.74093 14.5862 6.95549 14.5917 7.18115V8.61615H16.7144C16.8297 8.61335 16.9444 8.63363 17.0518 8.67582C17.1591 8.71801 17.2569 8.78124 17.3395 8.86181C17.422 8.94237 17.4876 9.03863 17.5324 9.14492C17.5772 9.25122 17.6003 9.3654 17.6003 9.48074C17.6003 9.59609 17.5772 9.71027 17.5324 9.81656C17.4876 9.92285 17.422 10.0191 17.3395 10.0997C17.2569 10.1802 17.1591 10.2435 17.0518 10.2857C16.9444 10.3278 16.8297 10.3481 16.7144 10.3453H12.9644C12.6513 10.3476 12.3519 10.4736 12.1313 10.6958C11.9107 10.918 11.787 11.2184 11.787 11.5315C11.787 11.8446 11.9107 12.1449 12.1313 12.3671C12.3519 12.5893 12.6513 12.7153 12.9644 12.7176V12.7178Z" fill="#55D6C6"/>
</svg>
