<svg width="61" height="60" viewBox="0 0 61 60" fill="none" xmlns="http://www.w3.org/2000/svg">
<path d="M29.0645 0.833155C28.7507 0.956156 28.1639 1.25616 27.7547 1.48836C27.1409 1.84296 3.76611 19.1458 3.05631 19.7734C2.68791 20.101 2.48331 21.0016 2.66031 21.5476C2.98791 22.5166 2.57871 22.489 13.0037 22.5298L22.3235 22.5706L21.8321 21.5878C21.1223 20.1826 20.8085 18.8314 20.8085 17.1802C20.8085 15.4882 21.0677 14.3692 21.7637 12.9364C22.9511 10.48 24.9977 8.70636 27.6311 7.81956C28.9001 7.39656 31.3151 7.28736 32.7347 7.61496C36.2141 8.37936 39.1619 11.245 40.0625 14.7382C40.3625 15.9388 40.4309 18.1084 40.1987 19.1728C39.9941 20.0596 39.5303 21.2878 39.1343 21.97L38.7929 22.5568H47.8265C54.3629 22.5568 57.0239 22.516 57.4055 22.393C57.9647 22.2292 58.6061 21.6016 58.6061 21.2194C58.5923 20.3734 58.2377 20.1004 45.6431 10.726C38.4389 5.36376 32.8991 1.33836 32.3531 1.06536C31.5617 0.656157 31.2749 0.587755 30.5111 0.601555C29.9927 0.601555 29.3783 0.696955 29.0645 0.833155Z" fill="#55D6C6"/>
<path d="M29.8845 9.34862C29.8569 9.44402 29.8023 9.85322 29.7891 10.263L29.7483 10.986L28.9707 11.2314C27.6471 11.6406 26.9241 12.4188 26.6781 13.6878C26.4459 14.916 26.6919 15.8028 27.4833 16.5534C27.8517 16.8948 28.4931 17.3178 28.9437 17.4948C30.6903 18.2178 31.1949 18.5046 31.3863 18.8868C31.7823 19.6374 31.4955 20.4834 30.7449 20.7972C30.1443 21.0564 28.1523 21.0156 27.3879 20.7288L26.8011 20.5242L26.6649 20.8788C26.5011 21.3018 26.2419 22.4478 26.2965 22.4892C26.5011 22.68 27.9201 23.0076 28.7661 23.0622L29.8167 23.1438V23.9898C29.8167 24.795 29.8443 24.8496 30.1581 24.9312C30.3489 24.9858 30.6495 24.9858 30.8403 24.9312C31.1679 24.8496 31.1817 24.795 31.1817 23.9352V23.0346L32.1369 22.5846C33.6789 21.8616 34.2795 20.7834 34.1565 18.9822C34.0749 17.9724 33.7335 17.2902 33.0789 16.8126C32.8467 16.6488 31.9737 16.2258 31.1415 15.8574C29.3811 15.093 29.1081 14.8338 29.1627 14.0562C29.2311 13.224 29.6949 12.9372 30.9501 12.9648C31.4961 12.9786 32.2191 13.0878 32.5467 13.197C33.1059 13.3878 33.1743 13.3878 33.3243 13.197C33.4881 12.9786 33.8157 11.6412 33.7335 11.5596C33.6927 11.505 32.2185 11.1504 31.5639 11.0274C31.1955 10.959 31.1817 10.9182 31.1817 10.1538C31.1817 9.28082 31.1001 9.18482 30.3495 9.18482C30.1299 9.18482 29.9115 9.26642 29.8845 9.34862Z" fill="#55D6C6"/>
<path d="M8.77382 23.9757C7.88702 24.2079 7.25942 24.7401 6.83642 25.5861C5.90822 27.4557 6.86342 29.5569 8.91062 30.0753L9.48362 30.2253V37.8393V45.4533L9.04682 45.5487C6.97262 45.9987 5.90822 48.1413 6.80882 50.0793C7.21802 50.9391 7.99622 51.5391 8.97842 51.7575C9.48362 51.8667 15.7194 51.8937 31.0434 51.8667L52.3986 51.8259L53.04 51.4437C54.1998 50.7615 54.7182 49.7925 54.6228 48.4143C54.582 47.7045 54.4866 47.4183 54.159 46.9545C53.6676 46.2447 53.0262 45.7947 52.2348 45.5901L51.648 45.4539V37.8537V30.2529L52.2348 30.1029C54.2274 29.5707 55.1958 27.5241 54.3366 25.6545C54.1452 25.2315 53.8044 24.7677 53.5176 24.5493C52.5348 23.7987 52.344 23.7849 44.757 23.7849H37.7844L37.3068 24.2763C36.3108 25.3269 34.2774 26.4189 32.5854 26.7873C31.521 27.0327 29.3244 26.9649 28.137 26.6643C26.7312 26.2959 25.1214 25.4499 24.1116 24.5217L23.2926 23.7849L16.347 23.7987C11.2302 23.7987 9.25142 23.8533 8.77382 23.9757ZM21.4914 37.8399V45.4815H18.6942H15.897V37.8399V30.1983H18.6942H21.4914V37.8399ZM33.363 37.8399V45.4815H30.5658H27.7686V37.8399V30.1983H30.5658H33.363V37.8399ZM45.2346 37.8399V45.4815H42.5058H39.7764V37.8399V30.1983H42.5058H45.2346V37.8399Z" fill="#55D6C6"/>
<path d="M3.95732 53.3141C2.83832 53.8055 1.97852 55.0877 1.97852 56.2613C1.97852 57.4487 2.85212 58.7447 3.98432 59.2223C4.35272 59.3723 8.93792 59.3999 30.5931 59.3999C55.7283 59.3999 56.7927 59.3861 57.3249 59.1407C58.3623 58.6631 59.1537 57.4487 59.1537 56.2751C59.1537 55.1153 58.3623 53.8601 57.3249 53.3825C56.7927 53.1365 55.7283 53.1233 30.5661 53.1365C9.26552 53.1365 4.28492 53.1641 3.95732 53.3141Z" fill="#55D6C6"/>
</svg>
