<svg width="59" height="59" viewBox="0 0 59 59" fill="none" xmlns="http://www.w3.org/2000/svg">
<path d="M38.8985 57.0355H7.77014C3.81124 57.0355 0.589844 53.8141 0.589844 49.8493V9.15105C0.589844 5.18625 3.81124 1.96484 7.77014 1.96484H38.8985C42.8574 1.96484 46.0788 5.18624 46.0788 9.14515V22.1488C46.0788 23.4704 45.005 24.5442 43.6834 24.5442C42.3618 24.5442 41.288 23.4704 41.288 22.1488V9.15105C41.288 7.82945 40.2142 6.75565 38.8926 6.75565H7.77014C6.44854 6.75565 5.37474 7.82945 5.37474 9.15105V49.8552C5.37474 51.1768 6.44854 52.2506 7.77014 52.2506H38.8985C40.2201 52.2506 41.2939 51.1768 41.2939 49.8552V45.2414C41.2939 43.9198 42.3677 42.846 43.6893 42.846C45.0109 42.846 46.0847 43.9198 46.0847 45.2414V49.8552C46.0788 53.8141 42.8574 57.0355 38.8985 57.0355Z" fill="#55D6C6"/>
<path d="M53.3299 18.4849L36.4028 35.4179L35.2051 42.256L41.6892 40.2795L58.4098 23.5648L53.3299 18.4849Z" fill="#55D6C6"/>
<path d="M12.5606 43.8664C12.36 43.8664 12.1594 43.8192 11.9765 43.713C11.3983 43.3885 11.1977 42.6569 11.5222 42.0787C16.6494 32.9928 18.6318 33.3054 19.2926 33.4116C19.7764 33.4883 20.626 33.8247 20.921 35.2465C21.1688 36.4678 21.2396 37.695 21.2986 38.6862C21.3104 38.8986 21.3281 39.1405 21.3399 39.3765L22.2072 38.4325C23.989 36.4619 25.0746 35.276 26.4375 35.6005C27.6116 35.8719 27.9656 37.1463 28.0836 37.5652C28.2783 38.2614 28.2783 38.9163 28.2193 39.4709C28.3963 39.3942 28.6028 39.2998 28.8329 39.1995C29.4347 38.9222 30.1427 39.1877 30.42 39.7954C30.6914 40.3972 30.4318 41.1052 29.8241 41.3825C27.9184 42.2498 26.8859 42.6746 26.0717 42.002C25.3519 41.412 25.5584 40.5506 25.6941 39.9724C25.818 39.4473 25.9596 38.8455 25.7826 38.2201C25.7826 38.2083 25.7767 38.2024 25.7767 38.1906C25.3047 38.5918 24.5908 39.3824 23.989 40.0491L23.0273 41.1052C22.514 41.6598 21.4579 42.8044 20.272 42.3737C19.0979 41.9548 19.0212 40.645 18.915 38.8396C18.8619 37.99 18.8088 37.0342 18.6495 36.102C17.5462 37.0696 15.4399 40.0432 13.6168 43.2764C13.3867 43.6481 12.9795 43.8664 12.5606 43.8664Z" fill="#55D6C6"/>
<path d="M10.166 16.3315H36.5036V18.727H10.166V16.3315Z" fill="#55D6C6"/>
<path d="M10.166 21.1221H36.5036V23.5175H10.166V21.1221Z" fill="#55D6C6"/>
<path d="M10.166 25.9072H31.7128V28.3026H10.166V25.9072Z" fill="#55D6C6"/>
</svg>
