<svg width="62" height="62" viewBox="0 0 62 62" fill="none" xmlns="http://www.w3.org/2000/svg">
<path d="M53.6029 18.183V18.1867C54.0116 17.324 54.25 16.4233 54.25 15.5V11.625C54.25 5.20703 43.8397 0 31 0C18.1603 0 7.75 5.20703 7.75 11.625C7.75 11.3071 7.79541 10.9968 7.84457 10.6865C3.04248 12.8133 0 15.9163 0 19.375V23.25C0 26.845 3.26953 30.0578 8.39713 32.1882C7.98843 33.0511 7.75 33.9517 7.75 34.875V38.75C7.75 40.1123 8.242 41.4103 9.1048 42.625C8.242 43.8397 7.75 45.1377 7.75 46.5V50.375C7.75 56.793 18.1603 62 31 62C43.8397 62 54.25 56.793 54.25 50.375V46.5C54.25 45.1149 53.7391 43.7943 52.8537 42.5645C52.8462 42.572 52.8385 42.5833 52.8309 42.591C53.4818 41.6676 53.9927 40.7065 54.1554 39.6885C58.9575 37.558 62 34.4587 62 31V27.125C62 23.5301 58.7305 20.3135 53.6029 18.183ZM31 1.9375C43.5597 1.9375 52.3125 7.04233 52.3125 11.625C52.3125 16.2039 43.5597 21.3125 31 21.3125C18.4403 21.3125 9.6875 16.2039 9.6875 11.625C9.6875 7.04233 18.4403 1.9375 31 1.9375ZM1.9375 19.375C1.9375 17.112 4.08316 14.7318 7.75 12.8927V15.5C7.75 21.918 18.1603 27.125 31 27.125C32.9186 27.125 34.7728 26.9963 36.5552 26.7769C33.0018 28.1429 28.4873 29.0625 23.25 29.0625C10.6903 29.0625 1.9375 23.9539 1.9375 19.375ZM52.3125 46.5C52.3125 51.0788 43.5597 56.1875 31 56.1875C18.4403 56.1875 9.6875 51.0788 9.6875 46.5C9.6875 45.7394 10.013 44.9674 10.4709 44.203C10.4671 44.1992 10.4595 44.1916 10.4557 44.1841C14.3572 47.8661 22.0921 50.375 31 50.375C39.9193 50.375 47.6164 47.8472 51.5103 44.1576C51.5065 44.1613 51.5065 44.1613 51.5027 44.1651C51.9795 44.9409 52.3125 45.7243 52.3125 46.5ZM44.3128 42.2769C40.7556 43.6468 36.2411 44.5625 31 44.5625C18.4403 44.5625 9.6875 39.4538 9.6875 34.875C9.6875 34.2165 9.91455 33.5505 10.2589 32.8921C12.1587 33.5316 14.2588 34.035 16.5029 34.3717C19.3939 39.1473 28.2565 42.625 38.75 42.625C40.6761 42.625 42.5379 42.4964 44.3278 42.2731C44.3241 42.2731 44.3203 42.2769 44.3128 42.2769ZM38.75 36.8125C33.7776 36.8125 29.4409 35.9951 25.967 34.7425C36.8919 34.0992 45.5199 29.7134 46.4053 24.1885C49.0428 23.0192 51.1546 21.5622 52.513 19.9048C52.5093 19.9048 52.5093 19.9048 52.5093 19.9048C57.2017 21.812 60.0625 24.5366 60.0625 27.125C60.0625 31.7038 51.3097 36.8125 38.75 36.8125ZM35.14 14.4481C35.14 14.0394 34.8145 13.7253 34.1637 13.5171C33.5128 13.3052 32.0634 13.0327 29.8195 12.7072C27.8025 12.4234 26.2244 12.1395 25.0892 11.8596C23.9539 11.5796 23.0306 11.1859 22.3229 10.6864C21.6152 10.1793 21.2596 9.58893 21.2596 8.92291C21.2596 8.04498 21.8953 7.25025 23.1593 6.54645C24.4233 5.84641 26.4137 5.4187 29.1308 5.25983V3.875H32.8015V5.26007C36.9036 5.46448 39.5601 6.41046 40.7672 8.1134L35.7115 8.96106C34.7239 7.79553 33.2025 7.21271 31.1365 7.21271C30.0995 7.21271 29.267 7.34143 28.6427 7.60626C28.0144 7.86359 27.7004 8.18146 27.7004 8.55237C27.7004 8.93079 28.0032 9.21838 28.6086 9.42279C29.2104 9.62332 30.5084 9.86938 32.4913 10.1721C34.671 10.4976 36.3814 10.8041 37.6189 11.0955C38.8601 11.3831 39.8477 11.7842 40.5894 12.295C41.3274 12.8059 41.698 13.4037 41.698 14.0849C41.698 15.137 40.9337 16.0073 39.4087 16.7073C37.8837 17.4073 35.6814 17.8199 32.8015 17.9448V19.7383H29.1308V17.9521C24.3287 17.7516 21.358 16.605 20.2115 14.5236L25.8878 13.9182C26.4138 15.2275 28.1545 15.8822 31.11 15.8822C32.491 15.8822 33.5129 15.7422 34.1638 15.4621C34.8147 15.182 35.14 14.8454 35.14 14.4481Z" fill="#55D6C6"/>
</svg>
