<svg width="54" height="55" viewBox="0 0 54 55" fill="none" xmlns="http://www.w3.org/2000/svg">
<path d="M22.4129 0.0966797C21.0946 0.429688 20.7254 1.20312 20.7992 3.44824C20.8414 4.68359 20.8731 4.94141 21.0735 5.26367C21.3688 5.76855 21.8117 6.09082 22.4129 6.25195L22.8981 6.38086L22.8664 7.61621L22.8348 8.85156L21.4848 9.19531C14.9563 10.8604 9.58792 15.2754 6.55042 21.4521C4.16683 26.3184 3.56565 32.1514 4.90511 37.4795C6.75081 44.8701 12.1403 50.9395 19.1645 53.5498C21.7907 54.5273 24.0266 54.9248 27.0008 54.9248C29.3633 54.9248 30.8188 54.7422 32.8332 54.1943C40.8489 52.0137 47.0504 45.6328 49.1071 37.4688C50.0246 33.8164 50.0141 29.4658 49.086 25.8994C48.1157 22.1396 46.2067 18.6162 43.6227 15.8232C43.1797 15.3506 42.8211 14.9209 42.8211 14.8779C42.8211 14.835 43.2746 14.2227 43.8336 13.5137C45.1942 11.7842 45.2996 11.5908 45.2891 10.7959C45.2891 9.87207 45.036 9.52832 43.4117 8.22852C41.7664 6.91797 41.4606 6.73535 40.7645 6.72461C39.8785 6.71387 39.4989 7.02539 38.0012 8.94824C36.9887 10.2588 36.6407 10.6348 36.5035 10.5703C35.2379 10.0332 33.9512 9.58203 32.6961 9.24902L31.1668 8.84082L31.1352 7.59473L31.1035 6.34863L31.5043 6.27344C32.0106 6.17676 32.4957 5.88672 32.7699 5.5C33.1602 4.95215 33.2551 4.42578 33.2024 2.88965C33.1602 1.6543 33.1285 1.39648 32.9282 1.07422C32.6645 0.623047 32.2637 0.300781 31.7574 0.128906C31.3567 -0.0107422 22.9719 -0.0429688 22.4129 0.0966797ZM29.3 14.9854C31.1879 15.2646 32.6539 15.7266 34.3942 16.5967C38.6551 18.7344 41.9141 22.8271 43.0848 27.5C43.7176 30.0352 43.7387 33.3975 43.1375 35.793C42.7473 37.3184 41.9774 39.2197 41.2285 40.4658C37.1258 47.2979 29.0574 50.2949 21.6219 47.7275C16.2852 45.8906 12.1719 41.2715 10.8219 35.6104C10.2524 33.1934 10.284 29.9922 10.9168 27.5C12.2563 22.1504 16.3485 17.5957 21.4637 15.791C23.9844 14.8887 26.7266 14.6094 29.3 14.9854Z" fill="#55D6C6"/>
<path d="M13.732 22.0216C13.3734 22.2472 13.0781 22.7951 13.0781 23.2248C13.0781 23.3537 13.173 23.6652 13.2996 23.923C13.4789 24.3097 14.291 25.0402 17.8031 28.0158C20.1656 30.0138 22.275 31.7863 22.4859 31.9582C22.7602 32.173 22.9078 32.4093 23.0027 32.7531C23.5512 34.8371 25.5762 36.2121 27.5801 35.879C29.7738 35.5138 31.2293 33.6662 31.0922 31.4318C30.9445 29.0685 28.8773 27.3175 26.5254 27.5539L25.8926 27.6183L20.5664 24.7501C15.7676 22.1613 15.1875 21.8712 14.6602 21.839C14.2066 21.8068 14.0063 21.839 13.732 22.0216Z" fill="#55D6C6"/>
</svg>
