<svg width="73" height="60" viewBox="0 0 73 60" fill="none" xmlns="http://www.w3.org/2000/svg">
<g clip-path="url(#clip0_2_7428)">
<path d="M46.9897 0.0758629C45.7774 0.182461 43.9848 0.738298 42.6991 1.40835C41.8174 1.8652 41.1342 2.3982 40.3627 3.23576C38.5774 5.15454 37.5048 7.59109 37.1889 10.4693C37.064 11.5657 37.0125 16.3246 37.108 17.6266C37.1962 18.8906 37.4313 20.2002 37.8134 21.586C39.077 26.1698 41.3987 28.9185 45.0501 30.152C45.8803 30.4337 46.6958 30.5327 48.2092 30.5327C50.6778 30.5327 51.7137 30.3271 53.3154 29.5124C55.4533 28.4236 56.7684 26.9845 57.988 24.4033C58.8917 22.4921 59.428 20.4972 59.7219 18.0454C59.8835 16.6444 59.9056 12.3576 59.7586 11.1165C59.5088 9.07586 59.0754 7.43881 58.3921 5.96926C57.8558 4.81952 57.5031 4.30175 56.6288 3.39566C55.2917 2.00987 54.0427 1.19515 52.419 0.654543C51.4345 0.327131 50.5823 0.174847 49.157 0.0758629C48.0035 -0.00789452 47.9668 -0.00789452 46.9897 0.0758629ZM47.7684 3.38805C47.886 3.44896 48.0182 3.57079 48.0623 3.64693C48.1652 3.85251 48.1578 4.21038 48.0476 4.35505C47.9962 4.42358 47.5039 4.79667 46.9603 5.185C46.4166 5.56571 45.6084 6.19769 45.1603 6.58602C44.2786 7.36267 42.7799 8.90074 42.1921 9.65454C41.766 10.1875 41.5823 10.3322 41.2444 10.4007C41.0533 10.4388 40.9799 10.4083 40.7889 10.218C40.5978 10.02 40.5684 9.92865 40.5684 9.5784C40.5684 9.05302 40.7889 8.26875 41.1562 7.47688C42.0084 5.63424 43.0223 4.59871 44.6974 3.86774C45.9097 3.33475 47.2688 3.12155 47.7684 3.38805Z" fill="#55D6C6"/>
<path d="M17.5208 0.190395C16.3379 0.411207 14.9273 1.04319 14.031 1.74369C13.3551 2.27669 12.4441 3.31222 12.0473 4.00512C10.9894 5.83253 10.6441 7.60664 10.6367 11.231C10.6367 13.3858 10.7175 14.3071 11.0408 15.7615C12.0106 20.1549 14.4057 22.7818 17.9469 23.3452C18.8579 23.4899 20.4008 23.4518 21.2457 23.2615C22.5535 22.9645 23.9714 22.2107 24.8677 21.3351C26.5061 19.7285 27.6596 16.8808 28.0416 13.5C28.2547 11.6422 28.1592 9.02288 27.8212 7.16501C27.1159 3.33507 24.5004 0.68532 20.9151 0.152325C20.1951 0.0457249 18.16 0.0685673 17.5208 0.190395ZM19.1886 2.93151C19.7249 3.22085 19.4971 3.63202 18.3657 4.4239C17.5649 4.97974 16.8669 5.61172 15.5812 6.93659C14.8906 7.6371 14.2661 8.23862 14.1853 8.26146C13.9649 8.3376 13.693 8.10918 13.6416 7.81222C13.48 6.92136 14.6114 4.72085 15.64 3.93659C16.7053 3.12948 18.5641 2.59649 19.1886 2.93151Z" fill="#55D6C6"/>
<path d="M18.0503 26.4517C17.5066 26.7258 17.1172 27.0837 16.9923 27.434C16.8527 27.7994 16.8968 28.4543 17.1025 29.071C17.2715 29.5964 17.4478 29.9695 18.1311 31.2715L18.3442 31.6675L18.0576 32.5659C17.6903 33.7309 16.6617 36.7385 16.4633 37.2106C16.3531 37.4847 16.3017 37.5456 16.2503 37.4619C16.2135 37.3933 15.6699 35.6649 15.038 33.6167C13.3262 28.0583 12.7899 26.4136 12.687 26.368C12.6282 26.3527 12.1801 26.5812 11.6805 26.8857C9.8364 28.0126 7.62497 29.0329 5.19313 29.8857C3.34171 30.5329 2.85681 30.7918 2.26171 31.4619C1.6813 32.1091 1.26987 32.9238 1.04211 33.8832C0.755583 35.0786 0.755583 39.2055 1.04946 40.8502L1.12293 41.3147L1.79885 41.703C3.18742 42.5101 5.9866 43.6675 8.02171 44.2766C10.6372 45.0609 13.3189 45.5406 16.3605 45.7614C18.1605 45.8908 21.7899 45.9822 21.8413 45.8984C21.8633 45.8603 21.9074 45.4796 21.9368 45.0532C22.0984 42.4111 22.8993 40.2487 24.2291 38.8781C25.096 37.9796 25.8087 37.6142 28.3727 36.7385C31.0544 35.8248 32.9425 35.0025 35.6462 33.5634C36.5131 33.1065 37.2552 32.6954 37.2919 32.6573C37.4095 32.5507 37.0274 31.8883 36.5646 31.401C36.0209 30.8299 35.5287 30.5786 33.5891 29.8857C30.9956 28.9644 29.3499 28.1954 27.2633 26.9466C26.7197 26.6116 26.2274 26.3451 26.1833 26.3451C26.1025 26.3451 25.625 27.8223 23.7074 33.9974C22.936 36.4796 22.5907 37.4619 22.4952 37.4619C22.4658 37.4619 22.4217 37.401 22.3997 37.3248C22.3776 37.2563 21.9295 35.9466 21.4005 34.4238L20.438 31.6598L20.8568 30.9593C21.5768 29.7487 21.9074 28.8274 21.9074 27.9822C21.9074 27.3807 21.6944 27.0076 21.1727 26.6573C20.6364 26.2918 20.2176 26.1928 19.2772 26.1928C18.616 26.1928 18.5205 26.2081 18.0503 26.4517Z" fill="#55D6C6"/>
<path d="M47.4008 34.2715C46.5192 34.4238 45.7257 35.0024 45.3731 35.7639C45.1967 36.1293 45.182 36.2359 45.2188 36.7613C45.2849 37.8197 45.8359 39.2283 46.7175 40.6217L47.1584 41.307L46.3208 43.7436C45.2482 46.8958 44.6898 48.4796 44.5355 48.7994L44.4106 49.0659L43.9257 47.543C43.6612 46.7131 42.809 43.9567 42.0375 41.4212C40.3698 35.9466 39.9069 34.4771 39.8335 34.3933C39.7453 34.2867 39.569 34.3705 38.4375 35.0633C37.8498 35.4212 36.7624 36.038 36.0131 36.4263C33.6841 37.6446 32.1853 38.2842 29.6065 39.1446C28.7028 39.4415 27.7624 39.7918 27.5126 39.9136C26.271 40.5456 25.2645 41.8628 24.7061 43.5989C24.2506 45.0151 24.2286 45.2588 24.2433 47.9694C24.2579 50.5278 24.3535 52.5684 24.4857 53.2232C24.6179 53.8552 24.7943 54.038 25.8008 54.609C28.5486 56.1623 32.4792 57.6395 36.2775 58.5456C47.0335 61.1192 59.1706 60.1293 68.5894 55.9111C69.8384 55.3552 71.3225 54.5862 71.9543 54.175C72.3363 53.9238 72.3878 53.8552 72.4906 53.505C72.7257 52.637 72.7845 51.7004 72.7771 48.6928C72.7771 46.774 72.7404 45.4872 72.6816 45.0456C72.3804 42.8146 71.1682 40.7892 69.6253 39.9669C69.3388 39.8146 68.2882 39.4035 67.2743 39.0608C63.6743 37.8273 61.0588 36.6014 58.2743 34.8502C57.4661 34.34 57.3486 34.2867 57.2678 34.3933C57.1649 34.5304 55.3649 40.1801 53.7339 45.4568C53.1314 47.406 52.6098 48.9897 52.5804 48.9821C52.5437 48.9745 52.4408 48.7537 52.338 48.4872C51.9118 47.3222 49.8988 41.4517 49.8988 41.3527C49.8988 41.2994 50.1118 40.9035 50.369 40.4771C51.3314 38.8857 51.7355 37.8502 51.7869 36.8146C51.8237 36.2131 51.809 36.076 51.662 35.7258C51.3682 35.0253 50.6702 34.4999 49.7592 34.2943C49.2229 34.1801 48.0253 34.1649 47.4008 34.2715Z" fill="#55D6C6"/>
</g>
<defs>
<clipPath id="clip0_2_7428">
<rect width="72" height="60" fill="white" transform="translate(0.822266)"/>
</clipPath>
</defs>
</svg>
