<svg width="62" height="61" viewBox="0 0 62 61" fill="none" xmlns="http://www.w3.org/2000/svg">
<g clip-path="url(#clip0_2_7441)">
<path d="M16.6374 1.96494C11.1153 2.29853 6.15307 5.17578 3.03755 9.85801C1.6019 12.0145 0.714306 14.4032 0.333056 17.0958C0.190087 18.1145 0.190087 20.4556 0.339013 21.498C0.875146 25.3999 2.57886 28.8907 5.46206 32.0122L5.7897 32.3696L5.79565 32.0301C5.80161 31.1187 6.03989 30.2251 6.5105 29.3852C6.75473 28.9443 7.26704 28.4201 13.8913 21.778L21.0159 14.6475L18.913 12.5446C17.7633 11.3949 16.8162 10.418 16.8162 10.3822C16.8162 10.3465 17.0604 10.0844 17.3642 9.79844L17.9123 9.28017L24.3161 15.678C30.5888 21.9389 30.7377 22.0818 31.2083 22.3201C31.953 22.7014 32.5785 22.8265 33.5256 22.7967C34.1988 22.7729 34.3775 22.7431 34.866 22.5763C35.5629 22.338 36.0455 22.0759 36.6173 21.6112C37.9934 20.5032 38.7678 18.6685 38.5593 17.0005C38.4581 16.1665 38.2257 15.5768 37.7551 14.9155C37.6122 14.7189 35.5153 12.5863 33.0967 10.1737C29.7072 6.79013 28.5634 5.68213 28.0928 5.33662C25.8232 3.66269 23.1723 2.56064 20.3844 2.13173C19.7053 2.03046 17.9063 1.8875 17.531 1.91132C17.4476 1.91132 17.0485 1.93515 16.6374 1.96494Z" fill="#55D6C6"/>
<path d="M42.5973 1.96502C39.9286 2.12586 37.1765 2.94793 34.9426 4.25252C33.912 4.86014 32.7623 5.69412 32.0296 6.36727L31.7556 6.61746L35.3536 10.2334C39.1959 14.0816 39.2733 14.171 39.6963 15.1777C40.0358 15.9879 40.1371 16.5419 40.1311 17.5963C40.1252 18.4243 40.1073 18.6268 39.9703 19.1332C39.184 22.0819 36.6403 24.2145 33.6856 24.3932C31.9343 24.5005 30.3318 23.8988 29.0094 22.6359L28.6639 22.3083L21.6346 29.3376C16.8094 34.1568 14.5397 36.4622 14.4027 36.6886C13.7772 37.7132 13.7475 38.9701 14.3134 40.1258C15.2784 42.0797 17.7327 42.8183 19.5019 41.6865C19.7819 41.5078 21.855 39.4705 27.1984 34.133C31.2194 30.118 34.5315 26.8237 34.5554 26.8118C34.5792 26.8058 34.9307 27.1335 35.3417 27.5445L36.0863 28.2891L28.7473 35.6342C23.3621 41.0193 21.3486 43.0745 21.1699 43.3545C20.0381 45.1237 20.7768 47.578 22.7307 48.543C23.8506 49.0971 24.905 49.0851 26.0487 48.5133C26.3227 48.3822 27.6214 47.1074 33.7929 40.9419C37.8734 36.8673 41.2391 33.5313 41.2689 33.5313C41.3047 33.5313 41.6264 33.8292 41.9838 34.1866L42.639 34.8419L35.1868 42.306C28.2886 49.2102 27.7167 49.794 27.5439 50.1514C27.1627 50.9616 27.0793 51.8135 27.2997 52.6832C27.4665 53.3385 27.7763 53.8567 28.3064 54.3809C29.0392 55.1017 29.8672 55.4592 30.8441 55.4651C31.4934 55.4711 31.9879 55.3519 32.5657 55.0541C32.9529 54.8515 33.5188 54.3035 39.3925 48.4835C51.2708 36.7183 56.2926 31.6668 56.9538 30.8388C59.2472 27.9555 60.5876 24.8996 61.0522 21.4981C61.1833 20.5688 61.2012 18.2396 61.088 17.3282C60.5995 13.4025 58.8958 9.89978 56.1019 7.11189C52.9626 3.96658 49.0846 2.23309 44.6049 1.95906C44.0509 1.92928 43.5505 1.90545 43.5028 1.91141C43.4552 1.91141 43.0501 1.94119 42.5973 1.96502Z" fill="#55D6C6"/>
<path d="M15.1059 22.7612C10.4237 27.4494 8.05873 29.862 7.91576 30.0883C7.23666 31.1665 7.20688 32.5307 7.83832 33.74C8.08852 34.2106 8.81528 34.9433 9.30971 35.2173C10.3641 35.8011 11.621 35.8309 12.7052 35.3067C13.0626 35.1339 13.6822 34.5263 20.1992 28.0272L27.2999 20.9324L24.7265 18.3589C23.3087 16.9412 22.1352 15.7795 22.1173 15.7795C22.0995 15.7795 18.9482 18.9248 15.1059 22.7612Z" fill="#55D6C6"/>
</g>
<defs>
<clipPath id="clip0_2_7441">
<rect width="61" height="61" fill="white" transform="translate(0.195312)"/>
</clipPath>
</defs>
</svg>
