<svg width="66" height="34" viewBox="0 0 66 34" fill="none" xmlns="http://www.w3.org/2000/svg">
<path d="M6.76465 1.49121H12.3896V33H5.64404V10.0605H0.23877V5.77588C1.20557 5.65869 2.0918 5.43164 2.89746 5.09473C3.70312 4.74316 4.32568 4.36963 4.76514 3.97412C5.21924 3.57861 5.6001 3.19775 5.90771 2.83154C6.22998 2.45068 6.45703 2.12842 6.58887 1.86475L6.76465 1.49121ZM26.5181 26.6938C27.5435 27.6021 28.7593 28.0562 30.1655 28.0562C31.5864 28.0562 32.8022 27.6021 33.813 26.6938C34.8384 25.771 35.3511 24.7236 35.3511 23.5518C35.3511 22.3799 34.8384 21.3398 33.813 20.4316C32.8022 19.5088 31.5864 19.0474 30.1655 19.0474C28.7593 19.0474 27.5435 19.5088 26.5181 20.4316C25.5073 21.3398 25.002 22.3799 25.002 23.5518C25.002 24.7236 25.5073 25.771 26.5181 26.6938ZM27.2432 12.6094C28.0049 13.2979 28.9863 13.6421 30.1875 13.6421C31.3887 13.6421 32.3628 13.2979 33.1099 12.6094C33.8569 11.9209 34.2305 11.0713 34.2305 10.0605C34.2305 9.03516 33.8569 8.17822 33.1099 7.48975C32.3628 6.80127 31.3887 6.45703 30.1875 6.45703C28.9863 6.45703 28.0049 6.80127 27.2432 7.48975C26.4961 8.17822 26.1226 9.03516 26.1226 10.0605C26.1226 11.0713 26.4961 11.9209 27.2432 12.6094ZM38.3833 30.6929C36.2153 32.6851 33.4761 33.6812 30.1655 33.6812C26.8696 33.6812 24.1304 32.6851 21.9478 30.6929C19.7798 28.686 18.6958 26.3057 18.6958 23.5518C18.6958 22.585 18.8569 21.6621 19.1792 20.7832C19.5161 19.9043 19.9116 19.1792 20.3657 18.6079C20.8198 18.0366 21.2739 17.5386 21.728 17.1138C22.1968 16.689 22.5996 16.374 22.9365 16.1689L23.4199 15.9053C23.332 15.8467 23.2075 15.7661 23.0464 15.6636C22.8853 15.5464 22.5923 15.2974 22.1675 14.9165C21.7427 14.521 21.3691 14.1035 21.0469 13.6641C20.7393 13.21 20.4609 12.624 20.2119 11.9062C19.9629 11.1738 19.8384 10.4048 19.8384 9.59912C19.8384 7.25537 20.8271 5.21191 22.8047 3.46875C24.7822 1.71094 27.2358 0.832031 30.1655 0.832031C33.1099 0.832031 35.5708 1.71094 37.5483 3.46875C39.5405 5.21191 40.5366 7.25537 40.5366 9.59912C40.5366 10.8589 40.2363 12.0161 39.6357 13.0708C39.0352 14.1108 38.4346 14.8433 37.834 15.2681L36.9331 15.9053C37.0503 15.9639 37.2114 16.0591 37.4165 16.1909C37.6362 16.3228 38.0171 16.623 38.5591 17.0918C39.1157 17.5605 39.5991 18.0732 40.0093 18.6299C40.4194 19.1865 40.793 19.9043 41.1299 20.7832C41.4814 21.6621 41.6572 22.585 41.6572 23.5518C41.6572 26.3057 40.5659 28.686 38.3833 30.6929ZM58.3125 30.2974H53.1489V22.6509H45.5024V17.0259H53.1489V9.37939H58.3125V17.0259H65.981V22.6509H58.3125V30.2974Z" fill="#55D6C6"/>
</svg>
