<svg width="69" height="69" viewBox="0 0 69 69" fill="none" xmlns="http://www.w3.org/2000/svg">
<path d="M22.7116 31.625C24.6729 31.625 26.5902 31.0348 28.221 29.9292C29.8518 28.8235 31.1228 27.2519 31.8734 25.4133C32.624 23.5746 32.8203 21.5513 32.4377 19.5994C32.0551 17.6475 31.1106 15.8545 29.7237 14.4472C28.3369 13.04 26.5699 12.0816 24.6462 11.6934C22.7226 11.3051 20.7287 11.5044 18.9166 12.266C17.1046 13.0276 15.5558 14.3173 14.4662 15.9721C13.3765 17.6268 12.7949 19.5723 12.7949 21.5625C12.7949 24.2312 13.8397 26.7907 15.6994 28.6778C17.5592 30.5648 20.0815 31.625 22.7116 31.625ZM22.7116 17.25C23.5522 17.25 24.3739 17.5029 25.0728 17.9768C25.7717 18.4507 26.3164 19.1242 26.6381 19.9122C26.9598 20.7002 27.0439 21.5673 26.8799 22.4038C26.7159 23.2404 26.3112 24.0088 25.7168 24.6119C25.1224 25.215 24.3651 25.6257 23.5407 25.7921C22.7163 25.9585 21.8618 25.8731 21.0852 25.5467C20.3086 25.2203 19.6448 24.6676 19.1778 23.9584C18.7108 23.2492 18.4616 22.4154 18.4616 21.5625C18.4616 20.4188 18.9094 19.3219 19.7064 18.5131C20.5034 17.7044 21.5844 17.25 22.7116 17.25Z" fill="#55D6C6"/>
<path d="M45.3776 40.25C43.4163 40.25 41.499 40.8402 39.8682 41.9458C38.2374 43.0515 36.9664 44.6231 36.2158 46.4617C35.4652 48.3004 35.2689 50.3237 35.6515 52.2756C36.0341 54.2275 36.9786 56.0205 38.3655 57.4278C39.7523 58.835 41.5193 59.7934 43.443 60.1817C45.3666 60.5699 47.3605 60.3706 49.1726 59.609C50.9846 58.8474 52.5334 57.5577 53.623 55.9029C54.7127 54.2482 55.2943 52.3027 55.2943 50.3125C55.2943 47.6438 54.2495 45.0843 52.3898 43.1972C50.53 41.3102 48.0077 40.25 45.3776 40.25ZM45.3776 54.625C44.537 54.625 43.7153 54.3721 43.0164 53.8982C42.3175 53.4243 41.7728 52.7508 41.4511 51.9628C41.1294 51.1748 41.0453 50.3077 41.2093 49.4712C41.3733 48.6346 41.778 47.8662 42.3724 47.2631C42.9668 46.66 43.7241 46.2493 44.5485 46.0829C45.3729 45.9165 46.2274 46.0019 47.004 46.3283C47.7806 46.6547 48.4444 47.2074 48.9114 47.9166C49.3783 48.6258 49.6276 49.4596 49.6276 50.3125C49.6276 51.4562 49.1798 52.5531 48.3828 53.3619C47.5858 54.1706 46.5048 54.625 45.3776 54.625Z" fill="#55D6C6"/>
<path d="M55.9756 12.2475C55.7413 12.0093 55.4631 11.8203 55.1568 11.6914C54.8505 11.5625 54.5222 11.4961 54.1906 11.4961C53.859 11.4961 53.5306 11.5625 53.2243 11.6914C52.918 11.8203 52.6398 12.0093 52.4056 12.2475L12.1156 53.13C11.6481 53.6141 11.384 54.2634 11.3789 54.9412C11.3782 55.4479 11.5256 55.9433 11.8027 56.3648C12.0797 56.7863 12.4738 57.1149 12.9351 57.3089C13.3963 57.5029 13.9039 57.5535 14.3936 57.4545C14.8832 57.3554 15.3329 57.1111 15.6856 56.7525L55.9756 15.87C56.2103 15.6323 56.3965 15.35 56.5236 15.0392C56.6507 14.7284 56.7161 14.3952 56.7161 14.0587C56.7161 13.7222 56.6507 13.3891 56.5236 13.0783C56.3965 12.7675 56.2103 12.4852 55.9756 12.2475Z" fill="#55D6C6"/>
</svg>
