<svg width="71" height="71" viewBox="0 0 71 71" fill="none" xmlns="http://www.w3.org/2000/svg">
<path d="M35.9557 32.5417C38.2632 32.5417 40.5188 31.8477 42.4374 30.5474C44.356 29.2471 45.8513 27.399 46.7343 25.2368C47.6173 23.0745 47.8484 20.6952 47.3982 18.3998C46.9481 16.1043 45.8369 13.9958 44.2053 12.3409C42.5737 10.686 40.4949 9.55897 38.2318 9.10238C35.9687 8.64579 33.6229 8.88013 31.4911 9.77576C29.3593 10.6714 27.5372 12.1881 26.2553 14.1341C24.9733 16.0801 24.2891 18.3679 24.2891 20.7083C24.2891 23.8467 25.5182 26.8566 27.7061 29.0758C29.8941 31.295 32.8615 32.5417 35.9557 32.5417Z" fill="#55D6C6"/>
<path d="M53.4557 62.1252C54.2293 62.1252 54.9711 61.8135 55.5181 61.2587C56.0651 60.7039 56.3724 59.9514 56.3724 59.1668C56.3724 53.6746 54.2214 48.4074 50.3925 44.5238C46.5636 40.6403 41.3706 38.4585 35.9557 38.4585C30.5409 38.4585 25.3478 40.6403 21.519 44.5238C17.6901 48.4074 15.5391 53.6746 15.5391 59.1668C15.5391 59.9514 15.8464 60.7039 16.3933 61.2587C16.9403 61.8135 17.6822 62.1252 18.4557 62.1252H53.4557Z" fill="#55D6C6"/>
</svg>
