<svg width="39" height="40" viewBox="0 0 39 40" fill="none" xmlns="http://www.w3.org/2000/svg">
<path d="M4.59535 0.0242996C3.85427 0.130424 3.38643 0.269199 2.83165 0.542667C2.31828 0.799809 1.90013 1.09777 1.49025 1.51001C0.786431 2.20797 0.302037 3.11002 0.0950301 4.11002C0.0246479 4.45287 0.0205078 5.23246 0.0205078 19.6529V34.8365L0.132291 35.0692C0.198533 35.2161 0.343438 35.3957 0.525603 35.5712C2.17751 37.1672 4.71127 39.5467 4.8479 39.6365C5.21223 39.8733 5.77115 39.8978 6.18102 39.6978C6.34248 39.6161 6.9221 39.0896 8.58643 37.51C9.79121 36.3631 10.789 35.4325 10.8055 35.4365C10.8221 35.4447 11.853 36.4161 13.0992 37.5998C15.6578 40.0325 15.5874 39.9794 16.1711 39.9794C16.759 39.9794 16.7549 39.9835 19.0858 37.7631C20.1995 36.6978 21.1145 35.8202 21.1145 35.8039C21.1145 35.7916 21.0399 35.5876 20.9447 35.3549C20.7377 34.8284 20.4769 33.8243 20.4065 33.2855C20.3817 33.061 20.3444 32.8651 20.3278 32.8488C20.3154 32.8284 19.3756 33.6978 18.2412 34.7794L16.1753 36.7386L16.0469 36.6161C15.9766 36.5508 14.9498 35.5753 13.7657 34.4529C12.118 32.8855 11.5632 32.3794 11.3934 32.2978C10.9753 32.0978 10.4122 32.1304 10.0313 32.3835C9.95681 32.4365 8.95076 33.3753 7.79567 34.4733C6.64057 35.5712 5.6635 36.4937 5.6221 36.5223C5.55586 36.5712 5.41095 36.4488 4.16064 35.257L2.77369 33.9386V19.3631C2.77369 4.97532 2.77369 4.78349 2.8565 4.47328C2.96828 4.02838 3.11732 3.78349 3.47751 3.4243C3.96605 2.93859 4.47115 2.7345 5.19153 2.7345C6.56191 2.7345 7.6756 3.76716 7.6756 5.04063C7.6756 6.07736 6.9221 6.99573 5.85395 7.26511C5.68006 7.31001 5.43994 7.34675 5.32401 7.34675C5.03834 7.34675 4.65331 7.44879 4.45458 7.5794C4.03643 7.84879 3.83357 8.22022 3.82943 8.71409C3.82943 9.00389 3.84599 9.07328 3.96605 9.31409C4.11509 9.61205 4.3221 9.81614 4.63261 9.96716L4.82306 10.061L17.1938 10.0733L29.5603 10.0814V15.9712V21.857L30.5664 21.861C31.2495 21.861 31.6883 21.8814 31.9533 21.9263L32.3342 21.9876V15.9427V9.89777L32.6282 9.80389C33.3444 9.5794 34.0151 9.18348 34.5906 8.64471C36.2508 7.09369 36.6606 4.75083 35.6132 2.759C34.988 1.56716 33.7998 0.603893 32.4791 0.2243C31.6511 -0.0124359 32.4915 -0.000190735 18.0094 0.00389099C10.6896 0.00797272 4.65331 0.0161362 4.59535 0.0242996ZM31.5145 2.79165C32.2017 2.93859 32.8724 3.43655 33.1829 4.03654C33.4355 4.53042 33.4893 5.21614 33.3154 5.71818C33.1125 6.31001 32.6654 6.81614 32.1106 7.08144C31.5145 7.36715 32.4584 7.34675 20.6094 7.34675C14.718 7.34675 9.89471 7.33858 9.89471 7.33042C9.89471 7.32226 9.94853 7.18756 10.0148 7.03654C10.3046 6.35899 10.4329 5.75083 10.4329 5.04063C10.4329 4.31409 10.2508 3.51001 9.95681 2.93859L9.85331 2.7345H20.5431C29.5934 2.7345 31.2785 2.74675 31.5145 2.79165Z" fill="#55D6C6"/>
<path d="M10.1513 12.5756C8.46211 12.6858 7.00478 13.1062 6.20987 13.7062C5.89522 13.947 5.75032 14.1184 5.59714 14.4409L5.48535 14.6735V19.2245V23.7756L5.60128 24.0164C5.75446 24.3388 5.95319 24.5756 6.2637 24.7919C7.17452 25.4286 8.66497 25.8164 10.528 25.9021L11.1283 25.9307L11.1449 26.649C11.1573 27.3307 11.1656 27.3796 11.2691 27.6041C11.414 27.9062 11.8073 28.298 12.1965 28.5225C13.2729 29.1551 15.1857 29.5184 17.0777 29.4572C19.4459 29.3796 21.2592 28.796 21.9506 27.898C22.2612 27.4939 22.2487 27.6041 22.2653 24.9511L22.2777 22.5796L22.1535 22.3062C21.9921 21.9551 21.8347 21.7633 21.5159 21.5266C21.0315 21.1674 20.3443 20.8817 19.479 20.6817C18.8207 20.5266 18.2991 20.4572 17.4006 20.4L16.6016 20.3511V17.6123C16.6016 14.547 16.6016 14.5674 16.3159 14.1633C15.5417 13.0654 12.9252 12.3919 10.1513 12.5756ZM7.08758 16.6939C7.70032 16.9674 8.80574 17.2164 9.82421 17.3103C10.5239 17.3715 12.2462 17.3388 12.8341 17.2449C13.7159 17.1103 14.5564 16.8858 15.1194 16.6409L15.2726 16.5715L15.4217 16.7184C15.7156 17.0082 15.6991 17.2245 15.3596 17.5266C14.8586 17.9674 13.7739 18.3225 12.3994 18.4939C11.8653 18.5633 10.2051 18.5633 9.66688 18.4939C7.68376 18.249 6.23058 17.5511 6.45828 16.9592C6.49554 16.8654 6.76051 16.5715 6.80605 16.5715C6.81433 16.5715 6.94268 16.6245 7.08758 16.6939ZM7.82038 19.0817C10.0229 19.7021 13.0411 19.6123 14.8793 18.8654L15.2768 18.7021L15.4424 18.8817C15.6577 19.1103 15.6825 19.2205 15.5666 19.4205C15.1567 20.1347 13.1694 20.6939 11.0331 20.6939C8.85128 20.6939 6.86401 20.1184 6.47484 19.3756C6.3879 19.2164 6.42516 19.0939 6.62803 18.8776L6.79363 18.7021L7.12484 18.8409C7.31115 18.9184 7.62166 19.0245 7.82038 19.0817ZM7.12484 20.9837C8.10191 21.3837 9.61306 21.6327 11.0662 21.6327H11.7162L11.5258 21.8654C11.2898 22.147 11.1946 22.3551 11.1532 22.649L11.1242 22.8694L10.6026 22.8409C9.17421 22.7633 8.15574 22.5551 7.30701 22.1674C6.67357 21.8735 6.35892 21.5347 6.45828 21.2449C6.49554 21.1347 6.74395 20.8572 6.80605 20.8572C6.81433 20.8572 6.9551 20.9143 7.12484 20.9837ZM7.41879 23.2286C8.23026 23.5266 9.57994 23.7551 10.5363 23.7551C11.1863 23.7551 11.1366 23.7021 11.1366 24.3919V24.9796H10.8385C10.1099 24.9796 8.92994 24.8286 8.27994 24.6531C7.28631 24.3837 6.52866 23.9429 6.43344 23.5756C6.40446 23.4531 6.50796 23.249 6.67771 23.098C6.80191 22.9878 6.80605 22.9837 6.95096 23.049C7.03376 23.0817 7.24077 23.1633 7.41879 23.2286ZM12.7968 24.5347C14.9041 25.396 18.535 25.3878 20.6506 24.5225L20.9529 24.4L21.0936 24.5307C21.3876 24.8123 21.3835 25.0205 21.0812 25.3062C20.5968 25.7633 19.45 26.1511 18.1086 26.3062C17.4089 26.3878 16.0013 26.3878 15.3016 26.3062C13.3806 26.0858 11.9067 25.3796 12.1303 24.7919C12.1758 24.6776 12.4076 24.4082 12.4656 24.4082C12.478 24.4082 12.6271 24.4654 12.7968 24.5347ZM13.5131 26.9184C14.4694 27.1878 15.4341 27.3062 16.7051 27.3062C18.2949 27.3062 19.628 27.0858 20.6506 26.6531L20.928 26.5347L21.0688 26.6653C21.2717 26.8572 21.3379 27.0286 21.2675 27.1919C20.957 27.9184 18.8745 28.5307 16.7051 28.5307C14.6143 28.5307 12.5733 27.9592 12.1758 27.2653C12.0557 27.0531 12.0889 26.898 12.2959 26.6939L12.4573 26.5347L12.801 26.6735C12.9914 26.7511 13.3102 26.8572 13.5131 26.9184Z" fill="#55D6C6"/>
<path d="M29.602 23.3673C26.6418 23.7305 24.0956 25.6244 22.9198 28.3428C22.688 28.8775 22.5058 29.4611 22.3899 30.0611C22.2698 30.6979 22.2409 31.9999 22.3361 32.6693C22.866 36.453 25.9338 39.3632 29.809 39.7591C30.43 39.8244 31.4733 39.7836 32.0654 39.6774C33.8125 39.3591 35.3071 38.5876 36.5367 37.3713C38.4536 35.4774 39.323 32.8081 38.8718 30.2081C38.2383 26.5305 35.2533 23.7509 31.4982 23.3509C30.9724 23.2938 30.1485 23.3019 29.602 23.3673ZM31.7549 24.6693C33.7339 24.9958 35.4644 26.106 36.545 27.7387C37.9195 29.8203 38.0768 32.4489 36.9507 34.6611C35.8743 36.7836 33.796 38.2162 31.403 38.4897C29.751 38.6734 28.0039 38.2448 26.6418 37.3142C25.0934 36.253 24.0832 34.7509 23.6733 32.8979C23.5905 32.5223 23.5823 32.355 23.5823 31.5509C23.5823 30.5224 23.6361 30.1754 23.9135 29.3468C24.6007 27.3019 26.3189 25.6081 28.3931 24.9387C28.923 24.7673 29.3743 24.6693 29.8753 24.6122C30.3058 24.5632 31.3119 24.5958 31.7549 24.6693Z" fill="#55D6C6"/>
<path d="M29.8872 26.9915C29.8085 27.0445 29.7257 27.1466 29.6967 27.2241C29.6636 27.3261 29.6471 27.8445 29.6471 28.9874L29.6429 30.6119H28.0117C26.4053 30.6119 26.3805 30.6119 26.2687 30.7017C26.0824 30.8445 26.041 31.0037 26.041 31.571C26.041 32.1384 26.0824 32.2976 26.2687 32.4404C26.3805 32.5302 26.4053 32.5302 28.0117 32.5302H29.6388L29.6512 34.2119C29.6636 36.0894 29.6636 36.0853 29.9493 36.22C30.1604 36.318 31.2203 36.3139 31.4232 36.2119C31.7088 36.0731 31.713 36.0568 31.713 34.1915V32.5302H33.3276C35.1203 32.5302 35.1245 32.5302 35.2487 32.269C35.3439 32.069 35.3439 31.0731 35.2487 30.8731C35.1245 30.6119 35.1203 30.6119 33.3276 30.6119H31.713V28.9425V27.2772L31.6178 27.1384C31.4687 26.918 31.3901 26.8976 30.6738 26.8976C30.0694 26.8976 30.0197 26.9017 29.8872 26.9915Z" fill="#55D6C6"/>
</svg>
