<svg width="29" height="36" viewBox="0 0 29 36" fill="none" xmlns="http://www.w3.org/2000/svg">
<path d="M14.7562 0.720215C12.9186 0.720123 11.1223 1.26495 9.59435 2.28579C8.0664 3.30664 6.87549 4.75765 6.17221 6.45534C5.46893 8.15303 5.28487 10.0211 5.64331 11.8234C6.00175 13.6257 6.88659 15.2813 8.18593 16.5807C9.48528 17.8801 11.1408 18.765 12.943 19.1235C14.7453 19.482 16.6134 19.2981 18.3112 18.5949C20.0089 17.8917 21.46 16.7009 22.4809 15.173C23.5018 13.6451 24.0467 11.8487 24.0467 10.0111C24.0467 7.54712 23.0679 5.184 21.3256 3.44163C19.5833 1.69925 17.2203 0.720338 14.7562 0.720215ZM14.0288 9.3533H15.4572C16.0973 9.3527 16.7115 9.60642 17.1645 10.0587C17.6176 10.5109 17.8725 11.1246 17.8731 11.7647C17.8737 12.4049 17.62 13.019 17.1677 13.4721C16.7155 13.9252 16.1018 14.18 15.4617 14.1806V15.3698C15.4642 15.4738 15.4459 15.5774 15.4078 15.6742C15.3698 15.7711 15.3127 15.8594 15.24 15.9339C15.1673 16.0084 15.0804 16.0676 14.9845 16.108C14.8886 16.1484 14.7855 16.1693 14.6814 16.1693C14.5773 16.1693 14.4743 16.1484 14.3784 16.108C14.2825 16.0676 14.1956 16.0084 14.1229 15.9339C14.0502 15.8594 13.9931 15.7711 13.955 15.6742C13.917 15.5774 13.8987 15.4738 13.9012 15.3698V14.1809H12.273C12.066 14.1809 11.8675 14.0987 11.7211 13.9523C11.5747 13.806 11.4925 13.6075 11.4925 13.4005C11.4925 13.1935 11.5747 12.995 11.7211 12.8486C11.8675 12.7022 12.066 12.62 12.273 12.62H15.4572C15.57 12.6213 15.6819 12.6002 15.7865 12.558C15.8912 12.5157 15.9863 12.4531 16.0666 12.3738C16.1468 12.2945 16.2105 12.2 16.254 12.0959C16.2975 11.9918 16.3199 11.8801 16.3199 11.7673C16.3199 11.6544 16.2975 11.5427 16.254 11.4386C16.2105 11.3345 16.1468 11.2401 16.0666 11.1607C15.9863 11.0814 15.8912 11.0188 15.7865 10.9766C15.6819 10.9343 15.57 10.9132 15.4572 10.9145H14.0288C13.3675 10.916 12.7319 10.6586 12.2579 10.1974C11.7839 9.73628 11.5092 9.10795 11.4925 8.44685C11.4759 7.78575 11.7185 7.14438 12.1687 6.65991C12.6188 6.17545 13.2407 5.88636 13.9012 5.85449V4.65262C13.8987 4.54856 13.917 4.44504 13.955 4.34816C13.9931 4.25129 14.0502 4.163 14.1229 4.08851C14.1956 4.01401 14.2825 3.95481 14.3784 3.9144C14.4743 3.87398 14.5773 3.85315 14.6814 3.85315C14.7855 3.85315 14.8886 3.87398 14.9845 3.9144C15.0804 3.95481 15.1673 4.01401 15.24 4.08851C15.3127 4.163 15.3698 4.25129 15.4078 4.34816C15.4459 4.44504 15.4642 4.54856 15.4617 4.65262V5.8413H17.2395C17.4465 5.8413 17.645 5.92353 17.7914 6.0699C17.9378 6.21626 18.02 6.41478 18.02 6.62177C18.02 6.82877 17.9378 7.02728 17.7914 7.17365C17.645 7.32001 17.4465 7.40224 17.2395 7.40224H14.0288C13.7701 7.40224 13.522 7.50501 13.339 7.68795C13.1561 7.87089 13.0533 8.119 13.0533 8.37771C13.0533 8.63642 13.1561 8.88454 13.339 9.06747C13.522 9.25041 13.7701 9.35318 14.0288 9.35318V9.3533Z" fill="#55D6C6"/>
<path d="M4.73337 21.2378H0.942141C0.862892 21.2378 0.784417 21.2534 0.711202 21.2837C0.637987 21.3141 0.571467 21.3585 0.515443 21.4146C0.459418 21.4706 0.414988 21.5372 0.38469 21.6104C0.354393 21.6836 0.338822 21.7621 0.338867 21.8414V34.7804C0.338883 34.9404 0.402448 35.0938 0.515582 35.207C0.628716 35.3201 0.782153 35.3836 0.942141 35.3836H4.73337C5.08207 35.3836 5.41648 35.245 5.66303 34.9984C5.90958 34.7518 6.04808 34.4174 6.04808 34.0687V22.5524C6.04801 22.2038 5.90947 21.8694 5.66293 21.6229C5.41638 21.3764 5.08202 21.2379 4.73337 21.2378Z" fill="#55D6C6"/>
<path d="M28.565 22.7576C28.3646 22.4524 28.0913 22.202 27.7699 22.0288C27.4485 21.8556 27.089 21.7652 26.7239 21.7656H25.2381C24.6007 21.7643 23.9772 21.9529 23.4474 22.3074C22.9176 22.662 22.5054 23.1663 22.2634 23.7561C22.1197 24.0989 21.9196 24.4152 21.6713 24.6919C21.2493 25.3398 20.6783 25.8773 20.0061 26.2595C19.3339 26.6416 18.58 26.8572 17.8073 26.8883L13.4065 26.8886C13.1995 26.8886 13.001 26.8064 12.8546 26.66C12.7082 26.5136 12.626 26.3151 12.626 26.1081C12.626 25.9011 12.7082 25.7026 12.8546 25.5562C13.001 25.4099 13.1995 25.3276 13.4065 25.3276H17.7865C18.3492 25.3132 18.8959 25.1373 19.3615 24.8209V24.7944C19.363 24.3973 19.2861 24.0037 19.1352 23.6363C18.9843 23.2689 18.7623 22.935 18.4821 22.6536C18.2018 22.3722 17.8687 22.1489 17.5019 21.9965C17.1351 21.8441 16.7419 21.7657 16.3447 21.7656H13.1153C12.5252 21.7639 11.9406 21.879 11.3952 22.1042C10.8497 22.3295 10.3543 22.6604 9.93732 23.078L9.85488 23.1601C9.24384 23.7702 8.45924 24.1766 7.6084 24.3237V32.9445H19.3856C21.1318 32.9456 22.8399 32.4342 24.2982 31.4736C25.7565 30.5131 26.9008 29.1457 27.5892 27.5409L28.7494 24.8406C28.8941 24.5054 28.953 24.1394 28.9208 23.7758C28.8886 23.4121 28.7663 23.0622 28.565 22.7576Z" fill="#55D6C6"/>
</svg>
