<svg width="22" height="37" viewBox="0 0 22 37" fill="none" xmlns="http://www.w3.org/2000/svg">
<path d="M10.0503 0.145512C9.97211 0.156673 9.68734 0.19574 9.40816 0.229221C8.7381 0.312935 7.71628 0.564064 7.04623 0.815197C4.43303 1.78065 2.31679 3.63345 1.13861 5.9885C-0.10098 8.44959 -0.251742 10.8883 0.61374 14.6274C1.6579 19.1534 4.41628 25.7107 7.94521 32.0615C9.04521 34.0427 10.6254 36.5707 10.9325 36.8497C11.0386 36.9446 11.0498 36.9446 11.2508 36.7102C11.9655 35.8787 14.0259 32.5024 15.5335 29.6897C19.0569 23.1212 21.2625 17.1387 21.8711 12.5123C21.9884 11.6083 22.0051 9.58247 21.899 8.98533C21.4411 6.43496 20.2518 4.34777 18.3533 2.7517C16.801 1.4514 14.9472 0.608711 12.8422 0.251545C12.3396 0.162254 10.3686 0.0897064 10.0503 0.145512ZM12.6747 4.98956C14.8691 5.59785 16.5498 7.35019 16.9462 9.45969C17.0858 10.1908 17.0411 11.2399 16.8346 11.9152C16.1868 14.0972 14.3051 15.6933 11.9655 16.0449C11.2731 16.1509 10.7818 16.1509 10.0894 16.0449C8.71019 15.8384 7.6046 15.2692 6.61628 14.2647C5.5442 13.1764 5.02491 11.9319 5.02491 10.4754C5.02491 7.69619 7.06856 5.38579 9.98887 4.85562C10.1285 4.82772 10.6757 4.81656 11.195 4.82772C12.0102 4.84446 12.2224 4.86678 12.6747 4.98956Z" fill="#191919"/>
</svg>
