<svg width="35" height="35" viewBox="0 0 35 35" fill="none" xmlns="http://www.w3.org/2000/svg">
<path d="M17.7433 0.681641C16.005 0.681554 14.3057 1.19693 12.8604 2.16259C11.415 3.12826 10.2885 4.50084 9.62323 6.10676C8.95797 7.71268 8.78386 9.47981 9.12292 11.1847C9.46199 12.8896 10.299 14.4556 11.5281 15.6848C12.7572 16.9139 14.3232 17.751 16.0281 18.0902C17.7329 18.4293 19.5001 18.2553 21.106 17.5901C22.712 16.9249 24.0846 15.7985 25.0503 14.3532C26.0161 12.9078 26.5315 11.2086 26.5315 9.47036C26.5315 7.13952 25.6056 4.90414 23.9575 3.25595C22.3094 1.60776 20.0741 0.681757 17.7433 0.681641ZM17.0551 8.84807H18.4063C19.0118 8.8475 19.5928 9.08751 20.0214 9.5153C20.45 9.94308 20.6911 10.5236 20.6916 11.1291C20.6922 11.7347 20.4522 12.3157 20.0244 12.7442C19.5966 13.1728 19.0161 13.4139 18.4106 13.4145V14.5393C18.413 14.6378 18.3956 14.7357 18.3596 14.8273C18.3236 14.919 18.2696 15.0025 18.2009 15.073C18.1321 15.1434 18.0499 15.1994 17.9592 15.2377C17.8684 15.2759 17.771 15.2956 17.6725 15.2956C17.574 15.2956 17.4766 15.2759 17.3858 15.2377C17.2951 15.1994 17.2129 15.1434 17.1441 15.073C17.0754 15.0025 17.0214 14.919 16.9854 14.8273C16.9494 14.7357 16.932 14.6378 16.9344 14.5393V13.4148H15.3942C15.1984 13.4148 15.0106 13.337 14.8722 13.1985C14.7337 13.0601 14.6559 12.8723 14.6559 12.6765C14.6559 12.4807 14.7337 12.2929 14.8722 12.1544C15.0106 12.016 15.1984 11.9382 15.3942 11.9382H18.4063C18.513 11.9394 18.6189 11.9195 18.7179 11.8795C18.8168 11.8395 18.9069 11.7803 18.9828 11.7053C19.0587 11.6303 19.1189 11.5409 19.1601 11.4424C19.2012 11.3439 19.2224 11.2383 19.2224 11.1315C19.2224 11.0248 19.2012 10.9192 19.1601 10.8207C19.1189 10.7222 19.0587 10.6328 18.9828 10.5578C18.9069 10.4828 18.8168 10.4236 18.7179 10.3836C18.6189 10.3436 18.513 10.3237 18.4063 10.3249H17.0551C16.4296 10.3263 15.8283 10.0828 15.3799 9.64658C14.9316 9.21035 14.6717 8.61598 14.656 7.99062C14.6402 7.36526 14.8698 6.75855 15.2956 6.30027C15.7214 5.842 16.3096 5.56853 16.9344 5.53838V4.40148C16.932 4.30305 16.9494 4.20513 16.9854 4.11349C17.0214 4.02184 17.0754 3.93833 17.1441 3.86786C17.2129 3.79739 17.2951 3.7414 17.3858 3.70316C17.4766 3.66493 17.574 3.64523 17.6725 3.64523C17.771 3.64523 17.8684 3.66493 17.9592 3.70316C18.0499 3.7414 18.1321 3.79739 18.2009 3.86786C18.2696 3.93833 18.3236 4.02184 18.3596 4.11349C18.3956 4.20513 18.413 4.30305 18.4106 4.40148V5.52591H20.0923C20.2881 5.52591 20.4759 5.6037 20.6144 5.74215C20.7528 5.88061 20.8306 6.06839 20.8306 6.2642C20.8306 6.46 20.7528 6.64778 20.6144 6.78624C20.4759 6.92469 20.2881 7.00248 20.0923 7.00248H17.0551C16.8104 7.00248 16.5757 7.09969 16.4027 7.27274C16.2296 7.44579 16.1324 7.68049 16.1324 7.92522C16.1324 8.16995 16.2296 8.40465 16.4027 8.5777C16.5757 8.75074 16.8104 8.84796 17.0551 8.84796V8.84807Z" fill="#1A1A1A"/>
<path d="M8.26145 20.0903H4.67516C4.60019 20.0903 4.52596 20.1051 4.4567 20.1338C4.38744 20.1625 4.32452 20.2045 4.27152 20.2576C4.21853 20.3106 4.1765 20.3735 4.14784 20.4428C4.11918 20.5121 4.10445 20.5863 4.10449 20.6613V32.9009C4.10451 33.0523 4.16464 33.1974 4.27166 33.3044C4.37867 33.4114 4.52382 33.4715 4.67516 33.4715H8.26145C8.59131 33.4715 8.90764 33.3404 9.14086 33.1071C9.37408 32.8739 9.5051 32.5575 9.5051 32.2277V21.3339C9.50503 21.0041 9.37398 20.6878 9.14076 20.4546C8.90755 20.2214 8.59126 20.0904 8.26145 20.0903Z" fill="#1A1A1A"/>
<path d="M30.8043 21.5277C30.6147 21.239 30.3562 21.0021 30.0522 20.8383C29.7481 20.6745 29.4081 20.5889 29.0627 20.5894H27.6573C27.0542 20.5881 26.4645 20.7665 25.9633 21.1019C25.4621 21.4372 25.0722 21.9143 24.8433 22.4722C24.7074 22.7965 24.5181 23.0958 24.2832 23.3574C23.884 23.9704 23.3439 24.4788 22.708 24.8403C22.0721 25.2017 21.359 25.4057 20.6281 25.4351L16.4651 25.4354C16.2693 25.4354 16.0815 25.3576 15.9431 25.2192C15.8046 25.0807 15.7269 24.8929 15.7269 24.6971C15.7269 24.5013 15.8046 24.3135 15.9431 24.1751C16.0815 24.0366 16.2693 23.9588 16.4651 23.9588H20.6084C21.1407 23.9452 21.6579 23.7788 22.0983 23.4794V23.4545C22.0997 23.0788 22.027 22.7065 21.8842 22.3589C21.7415 22.0114 21.5315 21.6955 21.2664 21.4293C21.0012 21.1631 20.6861 20.9519 20.3392 20.8078C19.9922 20.6636 19.6202 20.5894 19.2445 20.5894H16.1897C15.6315 20.5878 15.0785 20.6966 14.5625 20.9097C14.0466 21.1227 13.5779 21.4358 13.1835 21.8308L13.1055 21.9085C12.5275 22.4856 11.7853 22.87 10.9805 23.0092V31.164H22.1211C23.7729 31.165 25.3887 30.6812 26.7681 29.7726C28.1476 28.864 29.23 27.5705 29.8812 26.0525L30.9787 23.4981C31.1156 23.181 31.1713 22.8348 31.1408 22.4908C31.1104 22.1468 30.9947 21.8158 30.8043 21.5277Z" fill="#1A1A1A"/>
</svg>
