<svg width="38" height="38" viewBox="0 0 38 38" fill="none" xmlns="http://www.w3.org/2000/svg">
<g clip-path="url(#clip0_2_8327)">
<path d="M24.9113 39.9631C24.9524 39.8688 25.0018 39.7784 25.059 39.6929C24.9743 39.823 24.9102 39.9654 24.869 40.1151C24.873 40.0635 24.8874 40.0133 24.9113 39.9674V39.9631ZM25.4179 39.2538C25.3558 39.3117 25.2993 39.3753 25.249 39.4438C25.2716 39.3867 25.3079 39.3359 25.3546 39.296C25.3757 39.2665 25.3968 39.2665 25.4179 39.2538ZM35.889 14.6805C35.4182 14.6818 34.9605 14.5258 34.5886 14.2371C30.2583 10.5552 24.7646 8.52474 19.0807 8.50542C13.3967 8.4861 7.88934 10.4792 3.53415 14.1316C3.12081 14.5087 2.57468 14.7063 2.01575 14.6809C1.45681 14.6556 0.930796 14.4094 0.553262 13.9965C0.367298 13.7939 0.223218 13.5566 0.129311 13.2982C0.0354048 13.0397 -0.00647457 12.7653 0.00608236 12.4906C0.0186393 12.2159 0.0853847 11.9464 0.202479 11.6976C0.319573 11.4488 0.484704 11.2257 0.688373 11.0409C0.844595 10.8826 17.8348 -4.15063 37.1895 10.9354C37.4074 11.1042 37.5898 11.3145 37.726 11.5542C37.8621 11.7939 37.9494 12.0583 37.9828 12.3319C38.0162 12.6056 37.995 12.8832 37.9204 13.1486C37.8458 13.414 37.7194 13.662 37.5484 13.8783C37.3504 14.1287 37.0983 14.3311 36.8109 14.47C36.5235 14.609 36.2083 14.6809 35.889 14.6805ZM24.5777 26.756C24.1439 27.104 23.5928 27.2718 23.0387 27.2247C22.4846 27.1775 21.9698 26.919 21.601 26.5027C20.932 25.7442 20.0051 25.2612 19.0002 25.1474C17.996 25.2645 17.0708 25.7496 16.4035 26.509C16.0346 26.9265 15.5189 27.1858 14.9638 27.233C14.4087 27.2802 13.8567 27.1116 13.4226 26.7624C13.2113 26.5886 13.0364 26.3747 12.9082 26.1331C12.7799 25.8914 12.7007 25.6268 12.6752 25.3544C12.6497 25.082 12.6784 24.8073 12.7595 24.546C12.8407 24.2847 12.9728 24.0421 13.1481 23.8321C14.6432 22.139 16.7464 21.1049 19.0002 20.9547C21.2526 21.1044 23.3553 22.136 24.8521 23.8258C25.0269 24.0359 25.1585 24.2783 25.2393 24.5394C25.3202 24.8004 25.3487 25.0748 25.3232 25.3469C25.2977 25.6189 25.2187 25.8833 25.0908 26.1247C24.9628 26.3662 24.7885 26.58 24.5777 26.7539V26.756Z" fill="#191919"/>
<path d="M31.0754 20.3133C30.6883 20.715 30.1579 20.9472 29.6001 20.959C29.0423 20.9709 28.5026 20.7615 28.0987 20.3766C25.5789 18.1539 22.3586 16.8867 18.9998 16.7962C15.64 16.889 12.4195 18.1593 9.90094 20.385C9.49709 20.7699 8.9573 20.9793 8.39954 20.9675C7.84177 20.9556 7.31138 20.7234 6.92427 20.3217C6.73296 20.1249 6.5823 19.8923 6.48089 19.6372C6.37948 19.3822 6.3293 19.1096 6.33322 18.8352C6.33714 18.5607 6.39509 18.2897 6.50374 18.0377C6.6124 17.7856 6.76964 17.5574 6.96649 17.3662C10.248 14.3394 14.5358 12.6379 18.9998 12.5908C23.4633 12.6367 27.751 14.3368 31.0332 17.3619C31.4294 17.7481 31.6564 18.2756 31.6643 18.8289C31.6722 19.3821 31.4604 19.9159 31.0754 20.3133Z" fill="#191919"/>
<path d="M18.9998 33.5094C20.1657 33.5094 21.1109 32.5727 21.1109 31.4173C21.1109 30.2619 20.1657 29.3252 18.9998 29.3252C17.8338 29.3252 16.8887 30.2619 16.8887 31.4173C16.8887 32.5727 17.8338 33.5094 18.9998 33.5094Z" fill="#191919"/>
</g>
<defs>
<clipPath id="clip0_2_8327">
<rect width="38" height="38" fill="white"/>
</clipPath>
</defs>
</svg>
