<svg width="25" height="15" viewBox="0 0 25 15" fill="none" xmlns="http://www.w3.org/2000/svg">
<path d="M24.0847 13.8258C23.2554 14.3454 19.8814 14.5 19.0648 13.9066C18.6168 13.5813 18.2072 13.174 17.8179 12.7867C17.5462 12.5156 17.237 12.384 17.0033 12.09C16.813 11.8491 16.682 11.5652 16.4808 11.3282C16.1418 10.9294 15.6193 10.5904 15.2057 11.0774C14.5838 11.8097 15.3039 13.2492 14.4742 13.7966C14.1959 13.9804 13.9152 14.0336 13.5677 14.0073L12.7977 14.0425C12.3451 14.0513 11.6286 14.0553 11.1143 13.9624C10.54 13.859 10.0664 13.5452 9.54779 13.3148C8.56251 12.878 7.62351 12.2826 6.90933 11.4578C4.96569 9.21191 2.3548 6.12282 1.34064 3.29893C1.13157 2.71866 0.581167 1.57026 1.10334 1.07237C1.81358 0.556429 5.30079 0.410377 5.8443 1.2089C6.06551 1.53285 6.20467 2.00842 6.36089 2.37568C6.55519 2.83386 6.66088 3.26611 6.9648 3.67177C7.23393 4.03181 7.43282 4.3935 7.64123 4.78833C7.87524 5.23108 8.0958 5.65578 8.38035 6.06374C8.57334 6.34108 9.0837 6.89214 9.406 6.93349C10.193 7.03425 10.1438 5.12146 10.0854 4.6541C10.0296 4.20412 10.0148 3.72691 10.0296 3.27037C10.0424 2.88112 10.0775 2.33268 9.84678 2.01465C9.47098 1.49609 8.63406 1.88435 8.56842 1.18757C8.70692 0.989662 8.67738 0.814072 9.60096 0.510152C10.3279 0.270889 10.7976 0.278437 11.2771 0.316838C12.2552 0.395279 13.292 0.130416 14.2356 0.447464C15.1368 0.751056 14.9977 2.03205 14.9675 2.80005C14.9271 3.84867 14.9701 4.8717 14.9675 5.93542C14.9662 6.42018 14.9471 6.89115 15.5372 6.8521C16.0913 6.81501 16.1474 6.34929 16.4116 5.96463C16.7795 5.42866 17.1166 4.88548 17.4911 4.35116C17.9955 3.62943 18.1475 2.81843 18.6224 2.07898C18.7924 1.81412 18.9384 1.23615 19.2 1.02708C19.3983 0.86921 19.7744 0.936821 20.014 0.936821H20.5837C21.0203 0.942072 21.4653 0.948308 21.9133 0.964062C22.5589 0.98638 23.2819 0.846236 23.9223 0.936493C26.6845 1.3264 20.4505 7.23512 20.7748 8.28932C20.9993 9.01728 22.4211 9.83288 22.9344 10.4296C23.6187 11.2232 25.7163 12.8048 24.0847 13.8258Z" fill="#89D7CF"/>
</svg>
