<svg width="238" height="55" fill="none" xmlns="http://www.w3.org/2000/svg"><path d="M54.445 37.107l-1.946-5.162-9.96-.008-1.954 5.158-2.22-.002L46.453 16.1l2.16.002 8.052 21.007-2.22-.002zm-11.154-7.15l8.46.008-4.22-11.254-4.24 11.247zm29.588-13.834l2.1.001-.018 21-1.8-.001-11.685-17.11-.015 17.1-2.1-.002.018-21 1.8.002 11.686 17.11.014-17.1zm6.89.005l2.1.002-.017 21-2.1-.002.018-21zm26.115.023l-.018 21-2.1-.002.015-17.82-7.36 12.294h-.3l-7.34-12.307-.015 17.82-2.1-.002.018-21 2.61.003 6.98 11.706 7-11.695 2.61.003zm18.756 21.015l-1.945-5.161-9.96-.009-1.955 5.159-2.22-.002 8.088-20.993 2.16.002 8.052 21.006-2.22-.002zm-11.154-7.149l8.46.007-4.22-11.253-4.24 11.246zm27.794-13.836l-.001 1.98-6.45-.006-.016 19.02-2.1-.002.016-19.02-6.45-.005.001-1.98 15 .013zm3.002.002l2.1.002-.018 21-2.1-.002.018-21zm24.268 18.23c-2.102 2.099-4.673 3.147-7.713 3.144-3.04-.002-5.609-1.055-7.707-3.156-2.098-2.122-3.146-4.693-3.143-7.713.002-3.02 1.054-5.58 3.156-7.677 2.102-2.119 4.673-3.176 7.713-3.174 3.04.003 5.609 1.065 7.707 3.187 2.098 2.101 3.146 4.662 3.144 7.682-.003 3.02-1.055 5.59-3.157 7.708zm-13.949-1.451c1.679 1.701 3.758 2.553 6.238 2.555 2.48.002 4.561-.846 6.242-2.545 1.682-1.718 2.524-3.807 2.526-6.267.002-2.46-.836-4.541-2.515-6.242-1.679-1.722-3.758-2.584-6.238-2.586-2.48-.002-4.561.856-6.242 2.575-1.681 1.698-2.523 3.778-2.525 6.238-.002 2.46.836 4.55 2.514 6.272zm34.206-16.741l2.1.002-.018 21-1.8-.002-11.685-17.11-.015 17.1-2.1-.002.018-21 1.8.002 11.685 17.11.015-17.1zm13.179 21.371c-1.92-.002-3.569-.453-4.948-1.354-1.36-.921-2.309-2.182-2.847-3.783l1.801-1.048c.379 1.3 1.078 2.32 2.097 3.062 1.019.72 2.329 1.082 3.929 1.083 1.56.001 2.77-.338 3.631-1.017.881-.7 1.321-1.619 1.322-2.759.001-1.1-.398-1.93-1.198-2.49-.799-.561-2.119-1.143-3.958-1.744-2.179-.722-3.619-1.303-4.319-1.744-1.599-.961-2.398-2.352-2.396-4.172.001-1.78.623-3.18 1.864-4.198 1.24-1.04 2.771-1.558 4.591-1.556 1.64.001 3.059.432 4.259 1.293a7.646 7.646 0 012.667 3.242l-1.771.989c-.958-2.32-2.677-3.482-5.157-3.484-1.3-.001-2.35.318-3.151.957-.8.64-1.201 1.529-1.202 2.669-.001 1.04.358 1.82 1.078 2.34.72.521 1.909 1.052 3.569 1.594.759.26 1.299.451 1.619.571.34.1.82.281 1.44.541.64.241 1.109.462 1.409.662.3.18.66.44 1.08.78.439.321.749.651.929.991.199.32.369.72.509 1.2.159.461.239.961.238 1.501-.001 1.78-.652 3.21-1.953 4.288-1.301 1.06-3.012 1.588-5.132 1.586z" fill="#9ECC00"/><rect x="1.069" y="1.094" width="235.148" height="52.662" rx="9" stroke="#9ECC00" stroke-width="2"/></svg>