<svg width="267" height="56" fill="none" xmlns="http://www.w3.org/2000/svg"><path d="M58.318 26.851c1.02.44 1.83 1.11 2.43 2.01.62.88.93 1.89.93 3.03 0 1.62-.57 3-1.71 4.14-1.14 1.14-2.52 1.71-4.14 1.71h-9.15v-21h8.46c1.56 0 2.89.56 3.99 1.68 1.1 1.1 1.65 2.42 1.65 3.96 0 1.96-.82 3.45-2.46 4.47zm-3.18-8.13h-6.36v7.32h6.36c.98 0 1.81-.35 2.49-1.05.7-.72 1.05-1.59 1.05-2.61 0-1-.35-1.86-1.05-2.58-.68-.72-1.51-1.08-2.49-1.08zm.69 17.04c1.04 0 1.92-.37 2.64-1.11.74-.76 1.11-1.68 1.11-2.76 0-1.06-.37-1.97-1.11-2.73-.72-.76-1.6-1.14-2.64-1.14h-7.05v7.74h7.05zm22.353 1.98l-4.92-8.4h-5.88v8.4h-2.1v-21h8.4c1.74 0 3.22.62 4.44 1.86 1.24 1.22 1.86 2.7 1.86 4.44 0 1.42-.43 2.69-1.29 3.81a6.105 6.105 0 01-3.24 2.22l5.13 8.67h-2.4zm-10.8-19.02v8.64h6.3c1.16 0 2.15-.42 2.97-1.26.82-.86 1.23-1.88 1.23-3.06 0-1.2-.41-2.22-1.23-3.06-.82-.84-1.81-1.26-2.97-1.26h-6.3zm30.191 19.02l-1.95-5.16h-9.96l-1.95 5.16h-2.22l8.07-21h2.16l8.07 21h-2.22zm-11.16-7.14h8.46l-4.23-11.25-4.23 11.25zm29.576-13.86h2.1v21h-1.8l-11.7-17.1v17.1h-2.1v-21h1.8l11.7 17.1v-17.1zm14.991 0c2.86 0 5.22 1.02 7.08 3.06 1.88 2.02 2.82 4.5 2.82 7.44 0 2.94-.94 5.43-2.82 7.47-1.86 2.02-4.22 3.03-7.08 3.03h-8.1v-21h8.1zm0 19.02c2.3 0 4.18-.82 5.64-2.46 1.48-1.64 2.22-3.66 2.22-6.06 0-2.4-.74-4.42-2.22-6.06-1.46-1.64-3.34-2.46-5.64-2.46h-6v17.04h6zm27.592 2.34c-1.92 0-3.57-.45-4.95-1.35-1.36-.92-2.31-2.18-2.85-3.78l1.8-1.05c.38 1.3 1.08 2.32 2.1 3.06 1.02.72 2.33 1.08 3.93 1.08 1.56 0 2.77-.34 3.63-1.02.88-.7 1.32-1.62 1.32-2.76 0-1.1-.4-1.93-1.2-2.49-.8-.56-2.12-1.14-3.96-1.74-2.18-.72-3.62-1.3-4.32-1.74-1.6-.96-2.4-2.35-2.4-4.17 0-1.78.62-3.18 1.86-4.2 1.24-1.04 2.77-1.56 4.59-1.56 1.64 0 3.06.43 4.26 1.29 1.2.84 2.09 1.92 2.67 3.24l-1.77.99c-.96-2.32-2.68-3.48-5.16-3.48-1.3 0-2.35.32-3.15.96-.8.64-1.2 1.53-1.2 2.67 0 1.04.36 1.82 1.08 2.34.72.52 1.91 1.05 3.57 1.59.76.26 1.3.45 1.62.57.34.1.82.28 1.44.54.64.24 1.11.46 1.41.66.3.18.66.44 1.08.78.44.32.75.65.93.99.2.32.37.72.51 1.2.16.46.24.96.24 1.5 0 1.78-.65 3.21-1.95 4.29-1.3 1.06-3.01 1.59-5.13 1.59zm23.123-21.36v1.98h-6.45v19.02h-2.1v-19.02h-6.45v-1.98h15zm18.151 0l-7.59 12.39v8.61h-2.1v-8.67l-7.56-12.33h2.37l6.27 10.29 6.24-10.29h2.37zm4.792 19.02h9.6v1.98h-11.7v-21h2.1v19.02zm14.707 0h10.2v1.98h-12.3v-21h12.15v1.98h-10.05v7.44h9.3v1.98h-9.3v7.62z" fill="#9ECC00"/><rect x="1.543" y="1.485" width="263.95" height="52.662" rx="9" stroke="#9ECC00" stroke-width="2"/></svg>