<svg width="303" height="56" fill="none" xmlns="http://www.w3.org/2000/svg"><path d="M63.089 36.604c-3.18 0-5.81-1.05-7.89-3.15-2.08-2.1-3.12-4.67-3.12-7.71s1.04-5.61 3.12-7.71c2.08-2.1 4.71-3.15 7.89-3.15 1.94 0 3.72.47 5.34 1.41 1.62.92 2.87 2.17 3.75 3.75l-1.86 1.08c-.66-1.28-1.64-2.3-2.94-3.06-1.3-.76-2.73-1.14-4.29-1.14-2.62 0-4.76.85-6.42 2.55-1.66 1.7-2.49 3.79-2.49 6.27 0 2.48.83 4.57 2.49 6.27 1.66 1.7 3.8 2.55 6.42 2.55 1.56 0 2.99-.38 4.29-1.14 1.3-.76 2.28-1.78 2.94-3.06l1.86 1.05c-.86 1.58-2.11 2.84-3.75 3.78-1.62.94-3.4 1.41-5.34 1.41zm29.913-3.15c-2.1 2.1-4.67 3.15-7.71 3.15s-5.61-1.05-7.71-3.15c-2.1-2.12-3.15-4.69-3.15-7.71 0-3.02 1.05-5.58 3.15-7.68 2.1-2.12 4.67-3.18 7.71-3.18s5.61 1.06 7.71 3.18c2.1 2.1 3.15 4.66 3.15 7.68 0 3.02-1.05 5.59-3.15 7.71zm-13.95-1.44c1.68 1.7 3.76 2.55 6.24 2.55 2.48 0 4.56-.85 6.24-2.55 1.68-1.72 2.52-3.81 2.52-6.27 0-2.46-.84-4.54-2.52-6.24-1.68-1.72-3.76-2.58-6.24-2.58-2.48 0-4.56.86-6.24 2.58-1.68 1.7-2.52 3.78-2.52 6.24 0 2.46.84 4.55 2.52 6.27zm28.191-16.77c1.88 0 3.45.63 4.71 1.89 1.26 1.26 1.89 2.83 1.89 4.71s-.63 3.45-1.89 4.71c-1.26 1.26-2.83 1.89-4.71 1.89h-5.4v7.8h-2.1v-21h7.5zm0 11.22c1.3 0 2.37-.43 3.21-1.29.86-.88 1.29-1.99 1.29-3.33s-.43-2.44-1.29-3.3c-.84-.88-1.91-1.32-3.21-1.32h-5.4v9.24h5.4zm24.76-11.22l-7.59 12.39v8.61h-2.1v-8.67l-7.56-12.33h2.37l6.27 10.29 6.24-10.29h2.37zm7.282 21l-6.09-21h2.22l5.19 18.15 5.46-18.15h2.46l5.46 18.15 5.19-18.15h2.22l-6.09 21h-2.52l-5.49-18.24-5.49 18.24h-2.52zm38.31 0l-4.92-8.4h-5.88v8.4h-2.1v-21h8.4c1.74 0 3.22.62 4.44 1.86 1.24 1.22 1.86 2.7 1.86 4.44 0 1.42-.43 2.69-1.29 3.81a6.105 6.105 0 01-3.24 2.22l5.13 8.67h-2.4zm-10.8-19.02v8.64h6.3c1.16 0 2.15-.42 2.97-1.26.82-.86 1.23-1.88 1.23-3.06 0-1.2-.41-2.22-1.23-3.06-.82-.84-1.81-1.26-2.97-1.26h-6.3zm16.21-1.98h2.1v21h-2.1v-21zm20.114 0v1.98h-6.45v19.02h-2.1v-19.02h-6.45v-1.98h15zm3.001 0h2.1v21h-2.1v-21zm20.414 0h2.1v21h-1.8l-11.7-17.1v17.1h-2.1v-21h1.8l11.7 17.1v-17.1zm26.961 11.01v1.08c0 2.6-.93 4.8-2.79 6.6-1.86 1.78-4.35 2.67-7.47 2.67-3.18 0-5.81-1.05-7.89-3.15-2.08-2.1-3.12-4.67-3.12-7.71s1.04-5.61 3.12-7.71c2.08-2.1 4.71-3.15 7.89-3.15 1.94 0 3.72.47 5.34 1.41 1.62.94 2.87 2.19 3.75 3.75l-1.86 1.08c-.66-1.28-1.64-2.3-2.94-3.06-1.3-.76-2.73-1.14-4.29-1.14-2.62 0-4.76.85-6.42 2.55-1.66 1.7-2.49 3.79-2.49 6.27 0 2.48.83 4.57 2.49 6.27 1.66 1.7 3.8 2.55 6.42 2.55 2.36 0 4.25-.59 5.67-1.77 1.42-1.2 2.23-2.72 2.43-4.56h-8.34v-1.98h10.5z" fill="#9ECC00"/><rect x="1.721" y="1.346" width="299.76" height="52.662" rx="9" stroke="#9ECC00" stroke-width="2"/></svg>