<svg width="123" height="55" fill="none" xmlns="http://www.w3.org/2000/svg"><rect x="1.825" y="1.068" width="120.063" height="52.662" rx="9" fill="#9ECC00" stroke="#9ECC00" stroke-width="2"/><path d="M52.648 26.878v1.08c0 2.6-.93 4.8-2.79 6.6-1.86 1.78-4.35 2.67-7.47 2.67-3.18 0-5.81-1.05-7.89-3.15-2.08-2.1-3.12-4.67-3.12-7.71s1.04-5.61 3.12-7.71c2.08-2.1 4.71-3.15 7.89-3.15 1.94 0 3.72.47 5.34 1.41 1.62.94 2.87 2.19 3.75 3.75l-1.86 1.08c-.66-1.28-1.64-2.3-2.94-3.06-1.3-.76-2.73-1.14-4.29-1.14-2.62 0-4.76.85-6.42 2.55-1.66 1.7-2.49 3.79-2.49 6.27 0 2.48.83 4.57 2.49 6.27 1.66 1.7 3.8 2.55 6.42 2.55 2.36 0 4.25-.59 5.67-1.77 1.42-1.2 2.23-2.72 2.43-4.56h-8.34v-1.98h10.5zm3.602-11.01h2.1v21h-2.1v-21zm18.764 1.98h-9.75v7.74h9.3v1.98h-9.3v9.3h-2.1v-21h11.85v1.98zm9.897 19.38c-1.92 0-3.57-.45-4.95-1.35-1.36-.92-2.31-2.18-2.85-3.78l1.8-1.05c.38 1.3 1.08 2.32 2.1 3.06 1.02.72 2.33 1.08 3.93 1.08 1.56 0 2.77-.34 3.63-1.02.88-.7 1.32-1.62 1.32-2.76 0-1.1-.4-1.93-1.2-2.49-.8-.56-2.12-1.14-3.96-1.74-2.18-.72-3.62-1.3-4.32-1.74-1.6-.96-2.4-2.35-2.4-4.17 0-1.78.62-3.18 1.86-4.2 1.24-1.04 2.77-1.56 4.59-1.56 1.64 0 3.06.43 4.26 1.29 1.2.84 2.09 1.92 2.67 3.24l-1.77.99c-.96-2.32-2.68-3.48-5.16-3.48-1.3 0-2.35.32-3.15.96-.8.64-1.2 1.53-1.2 2.67 0 1.04.36 1.82 1.08 2.34.72.52 1.91 1.05 3.57 1.59.76.26 1.3.45 1.62.57.34.1.82.28 1.44.54.64.24 1.11.46 1.41.66.3.18.66.44 1.08.78.44.32.75.65.93.99.2.32.37.72.51 1.2.16.46.24.96.24 1.5 0 1.78-.65 3.21-1.95 4.29-1.3 1.06-3.01 1.59-5.13 1.59z" fill="#000"/></svg>