<svg width="295" height="55" fill="none" xmlns="http://www.w3.org/2000/svg"><rect x="1.23" y="1.269" width="292.44" height="52.662" rx="9" fill="#9ECC00" stroke="#9ECC00" stroke-width="2"/><path d="M53.778 16.637v21h-2.1v-17.82l-7.35 12.3h-.3l-7.35-12.3v17.82h-2.1v-21h2.61l6.99 11.7 6.99-11.7h2.61zm6.894 19.02h10.2v1.98h-12.3v-21h12.15v1.98h-10.05v7.44h9.3v1.98h-9.3v7.62zm21.909-19.02c2.86 0 5.22 1.02 7.08 3.06 1.88 2.02 2.82 4.5 2.82 7.44 0 2.94-.94 5.43-2.82 7.47-1.86 2.02-4.22 3.03-7.08 3.03h-8.1v-21h8.1zm0 19.02c2.3 0 4.18-.82 5.64-2.46 1.48-1.64 2.22-3.66 2.22-6.06 0-2.4-.74-4.42-2.22-6.06-1.46-1.64-3.34-2.46-5.64-2.46h-6v17.04h6zm13.491-19.02h2.1v21h-2.1v-21zm20.894 21l-1.95-5.16h-9.96l-1.95 5.16h-2.22l8.07-21h2.16l8.07 21h-2.22zm-11.16-7.14h8.46l-4.23-11.25-4.23 11.25zm43.647-2.85v1.08c0 2.6-.93 4.8-2.79 6.6-1.86 1.78-4.35 2.67-7.47 2.67-3.18 0-5.81-1.05-7.89-3.15-2.08-2.1-3.12-4.67-3.12-7.71s1.04-5.61 3.12-7.71c2.08-2.1 4.71-3.15 7.89-3.15 1.94 0 3.72.47 5.34 1.41 1.62.94 2.87 2.19 3.75 3.75l-1.86 1.08c-.66-1.28-1.64-2.3-2.94-3.06-1.3-.76-2.73-1.14-4.29-1.14-2.62 0-4.76.85-6.42 2.55-1.66 1.7-2.49 3.79-2.49 6.27 0 2.48.83 4.57 2.49 6.27 1.66 1.7 3.8 2.55 6.42 2.55 2.36 0 4.25-.59 5.67-1.77 1.42-1.2 2.23-2.72 2.43-4.56h-8.34v-1.98h10.5zm16.502 9.99l-4.92-8.4h-5.88v8.4h-2.1v-21h8.4c1.74 0 3.22.62 4.44 1.86 1.24 1.22 1.86 2.7 1.86 4.44 0 1.42-.43 2.69-1.29 3.81a6.105 6.105 0 01-3.24 2.22l5.13 8.67h-2.4zm-10.8-19.02v8.64h6.3c1.16 0 2.15-.42 2.97-1.26.82-.86 1.23-1.88 1.23-3.06 0-1.2-.41-2.22-1.23-3.06-.82-.84-1.81-1.26-2.97-1.26h-6.3zm30.19 19.02l-1.95-5.16h-9.96l-1.95 5.16h-2.22l8.07-21h2.16l8.07 21h-2.22zm-11.16-7.14h8.46l-4.23-11.25-4.23 11.25zm23.577-13.86c1.88 0 3.45.63 4.71 1.89 1.26 1.26 1.89 2.83 1.89 4.71s-.63 3.45-1.89 4.71c-1.26 1.26-2.83 1.89-4.71 1.89h-5.4v7.8h-2.1v-21h7.5zm0 11.22c1.3 0 2.37-.43 3.21-1.29.86-.88 1.29-1.99 1.29-3.33s-.43-2.44-1.29-3.3c-.84-.88-1.91-1.32-3.21-1.32h-5.4v9.24h5.4zm23.695-11.22h2.1v21h-2.1v-9.81h-11.4v9.81h-2.1v-21h2.1v9.21h11.4v-9.21zm6.891 0h2.1v21h-2.1v-21zm16.724 21.36c-3.18 0-5.81-1.05-7.89-3.15-2.08-2.1-3.12-4.67-3.12-7.71s1.04-5.61 3.12-7.71c2.08-2.1 4.71-3.15 7.89-3.15 1.94 0 3.72.47 5.34 1.41 1.62.92 2.87 2.17 3.75 3.75l-1.86 1.08c-.66-1.28-1.64-2.3-2.94-3.06-1.3-.76-2.73-1.14-4.29-1.14-2.62 0-4.76.85-6.42 2.55-1.66 1.7-2.49 3.79-2.49 6.27 0 2.48.83 4.57 2.49 6.27 1.66 1.7 3.8 2.55 6.42 2.55 1.56 0 2.99-.38 4.29-1.14 1.3-.76 2.28-1.78 2.94-3.06l1.86 1.05c-.86 1.58-2.11 2.84-3.75 3.78-1.62.94-3.4 1.41-5.34 1.41zm19.143 0c-1.92 0-3.57-.45-4.95-1.35-1.36-.92-2.31-2.18-2.85-3.78l1.8-1.05c.38 1.3 1.08 2.32 2.1 3.06 1.02.72 2.33 1.08 3.93 1.08 1.56 0 2.77-.34 3.63-1.02.88-.7 1.32-1.62 1.32-2.76 0-1.1-.4-1.93-1.2-2.49-.8-.56-2.12-1.14-3.96-1.74-2.18-.72-3.62-1.3-4.32-1.74-1.6-.96-2.4-2.35-2.4-4.17 0-1.78.62-3.18 1.86-4.2 1.24-1.04 2.77-1.56 4.59-1.56 1.64 0 3.06.43 4.26 1.29 1.2.84 2.09 1.92 2.67 3.24l-1.77.99c-.96-2.32-2.68-3.48-5.16-3.48-1.3 0-2.35.32-3.15.96-.8.64-1.2 1.53-1.2 2.67 0 1.04.36 1.82 1.08 2.34.72.52 1.91 1.05 3.57 1.59.76.26 1.3.45 1.62.57.34.1.82.28 1.44.54.64.24 1.11.46 1.41.66.3.18.66.44 1.08.78.44.32.75.65.93.99.2.32.37.72.51 1.2.16.46.24.96.24 1.5 0 1.78-.65 3.21-1.95 4.29-1.3 1.06-3.01 1.59-5.13 1.59z" fill="#000"/></svg>