<svg width="112" height="55" fill="none" xmlns="http://www.w3.org/2000/svg"><path d="M47.508 15.998l2.1.004-.008 21L47.8 37 36.106 19.878l-.006 17.1-2.1-.004.008-21 1.8.003 11.693 17.121.007-17.1zm18.74 2.014l-9.75-.018-.003 7.74 9.3.017-.001 1.98-9.3-.017-.004 9.3-2.1-.003.009-21 11.85.021-.001 1.98zm16.79-1.95v1.98l-6.45-.011-.008 19.02-2.1-.004.007-19.02-6.45-.012.001-1.98 15 .027z" fill="#9ECC00"/><rect x="1.232" y="1.272" width="109.576" height="52.662" rx="9" stroke="#9ECC00" stroke-width="2"/></svg>