<svg width="325" height="56" fill="none" xmlns="http://www.w3.org/2000/svg"><path d="M76.206 15.827c1.88 0 3.45.63 4.71 1.89 1.26 1.26 1.89 2.83 1.89 4.71s-.63 3.45-1.89 4.71c-1.26 1.26-2.83 1.89-4.71 1.89h-5.4v7.8h-2.1v-21h7.5zm0 11.22c1.3 0 2.37-.43 3.21-1.29.86-.88 1.29-1.99 1.29-3.33s-.43-2.44-1.29-3.3c-.84-.88-1.91-1.32-3.21-1.32h-5.4v9.24h5.4zm23.095 9.78l-4.92-8.4H88.5v8.4h-2.1v-21h8.4c1.74 0 3.22.62 4.44 1.86 1.24 1.22 1.86 2.7 1.86 4.44 0 1.42-.43 2.69-1.29 3.81a6.105 6.105 0 01-3.24 2.22l5.13 8.67h-2.4zm-10.8-19.02v8.64h6.3c1.16 0 2.15-.42 2.97-1.26.82-.86 1.23-1.88 1.23-3.06 0-1.2-.41-2.22-1.23-3.06-.82-.84-1.81-1.26-2.97-1.26h-6.3zm33.58 16.23c-2.1 2.1-4.67 3.15-7.71 3.15s-5.61-1.05-7.71-3.15c-2.1-2.12-3.15-4.69-3.15-7.71 0-3.02 1.05-5.58 3.15-7.68 2.1-2.12 4.67-3.18 7.71-3.18s5.61 1.06 7.71 3.18c2.1 2.1 3.15 4.66 3.15 7.68 0 3.02-1.05 5.59-3.15 7.71zm-13.95-1.44c1.68 1.7 3.76 2.55 6.24 2.55 2.48 0 4.56-.85 6.24-2.55 1.68-1.72 2.52-3.81 2.52-6.27 0-2.46-.84-4.54-2.52-6.24-1.68-1.72-3.76-2.58-6.24-2.58-2.48 0-4.56.86-6.24 2.58-1.68 1.7-2.52 3.78-2.52 6.24 0 2.46.84 4.55 2.52 6.27zm39.892-16.77v21h-2.1v-17.82l-7.35 12.3h-.3l-7.35-12.3v17.82h-2.1v-21h2.61l6.99 11.7 6.99-11.7h2.61zm22.164 18.21c-2.1 2.1-4.67 3.15-7.71 3.15s-5.61-1.05-7.71-3.15c-2.1-2.12-3.15-4.69-3.15-7.71 0-3.02 1.05-5.58 3.15-7.68 2.1-2.12 4.67-3.18 7.71-3.18s5.61 1.06 7.71 3.18c2.1 2.1 3.15 4.66 3.15 7.68 0 3.02-1.05 5.59-3.15 7.71zm-13.95-1.44c1.68 1.7 3.76 2.55 6.24 2.55 2.48 0 4.56-.85 6.24-2.55 1.68-1.72 2.52-3.81 2.52-6.27 0-2.46-.84-4.54-2.52-6.24-1.68-1.72-3.76-2.58-6.24-2.58-2.48 0-4.56.86-6.24 2.58-1.68 1.7-2.52 3.78-2.52 6.24 0 2.46.84 4.55 2.52 6.27zm33.831 4.23l-7.74-21h2.28l6.54 18.21 6.54-18.21h2.28l-7.74 21h-2.16zm12.612-21h2.1v21h-2.1v-21zm15.014 0c2.86 0 5.22 1.02 7.08 3.06 1.88 2.02 2.82 4.5 2.82 7.44 0 2.94-.94 5.43-2.82 7.47-1.86 2.02-4.22 3.03-7.08 3.03h-8.1v-21h8.1zm0 19.02c2.3 0 4.18-.82 5.64-2.46 1.48-1.64 2.22-3.66 2.22-6.06 0-2.4-.74-4.42-2.22-6.06-1.46-1.64-3.34-2.46-5.64-2.46h-6v17.04h6zm15.592 0h10.2v1.98h-12.3v-21h12.15v1.98h-10.05v7.44h9.3v1.98h-9.3v7.62zm31.032-.81c-2.1 2.1-4.67 3.15-7.71 3.15s-5.61-1.05-7.71-3.15c-2.1-2.12-3.15-4.69-3.15-7.71 0-3.02 1.05-5.58 3.15-7.68 2.1-2.12 4.67-3.18 7.71-3.18s5.61 1.06 7.71 3.18c2.1 2.1 3.15 4.66 3.15 7.68 0 3.02-1.05 5.59-3.15 7.71zm-13.95-1.44c1.68 1.7 3.76 2.55 6.24 2.55 2.48 0 4.56-.85 6.24-2.55 1.68-1.72 2.52-3.81 2.52-6.27 0-2.46-.84-4.54-2.52-6.24-1.68-1.72-3.76-2.58-6.24-2.58-2.48 0-4.56.86-6.24 2.58-1.68 1.7-2.52 3.78-2.52 6.24 0 2.46.84 4.55 2.52 6.27z" fill="#9ECC00"/><rect x="1.384" y="1.533" width="322.455" height="52.662" rx="9" stroke="#9ECC00" stroke-width="2"/></svg>