<svg width="124" height="56" fill="none" xmlns="http://www.w3.org/2000/svg"><rect x="1.991" y="1.371" width="120.063" height="52.662" rx="9" fill="#9ECC00" stroke="#9ECC00" stroke-width="2"/><path d="M42.876 37.497c-1.92 0-3.57-.45-4.95-1.35-1.36-.92-2.31-2.18-2.85-3.78l1.8-1.05c.38 1.3 1.08 2.32 2.1 3.06 1.02.72 2.33 1.08 3.93 1.08 1.56 0 2.77-.34 3.63-1.02.88-.7 1.32-1.62 1.32-2.76 0-1.1-.4-1.93-1.2-2.49-.8-.56-2.12-1.14-3.96-1.74-2.18-.72-3.62-1.3-4.32-1.74-1.6-.96-2.4-2.35-2.4-4.17 0-1.78.62-3.18 1.86-4.2 1.24-1.04 2.77-1.56 4.59-1.56 1.64 0 3.06.43 4.26 1.29 1.2.84 2.09 1.92 2.67 3.24l-1.77.99c-.96-2.32-2.68-3.48-5.16-3.48-1.3 0-2.35.32-3.15.96-.8.64-1.2 1.53-1.2 2.67 0 1.04.36 1.82 1.08 2.34.72.52 1.91 1.05 3.57 1.59.76.26 1.3.45 1.62.57.34.1.82.28 1.44.54.64.24 1.11.46 1.41.66.3.18.66.44 1.08.78.44.32.75.65.93.99.2.32.37.72.51 1.2.16.46.24.96.24 1.5 0 1.78-.65 3.21-1.95 4.29-1.3 1.06-3.01 1.59-5.13 1.59zm10.539-21.36h2.1v21h-2.1v-21zm20.114 0v1.98h-6.45v19.02h-2.1v-19.02h-6.45v-1.98h15zm5.101 19.02h10.2v1.98h-12.3v-21h12.15v1.98H78.63v7.44h9.3v1.98h-9.3v7.62z" fill="#000"/></svg>