<svg width="34" height="34" viewBox="0 0 34 34" fill="none" xmlns="http://www.w3.org/2000/svg">
<path d="M17 33.6016C26.1688 33.6016 33.6016 26.1688 33.6016 17C33.6016 7.83121 26.1688 0.398438 17 0.398438C7.83121 0.398438 0.398438 7.83121 0.398438 17C0.398438 26.1688 7.83121 33.6016 17 33.6016Z" fill="#55D6C6"/>
<path d="M33.6011 17.2458C33.5878 17.2259 33.5745 17.2126 33.5546 17.1927C31.164 14.8087 28.78 12.4247 26.396 10.0407C26.323 9.96769 26.2499 9.90128 26.1769 9.83488C25.6589 9.40324 25.048 9.23058 24.3839 9.29698C23.8195 9.35675 23.3347 9.60909 22.9296 10.0142C20.0742 12.8763 17.2121 15.7317 14.3566 18.5939C14.2171 18.7267 14.257 18.7333 14.1175 18.5939C13.1347 17.611 12.1519 16.6216 11.1624 15.6454C10.5249 15.0146 9.75463 14.8021 8.88471 15.0013C7.88862 15.2271 7.13159 16.1568 7.09174 17.1794C7.06518 17.9032 7.31752 18.5142 7.82885 19.0255C12.4374 23.6407 17.0527 28.256 21.6613 32.8712C21.6812 32.8911 21.7011 32.911 21.721 32.9177C28.5144 30.9056 33.4882 24.67 33.6011 17.2458Z" fill="#55D6C6"/>
<path d="M14.1774 24.7427C13.779 24.7427 13.3739 24.5899 13.0685 24.2845L7.72939 18.9454C6.80635 18.0224 6.80635 16.5216 7.72939 15.5985C8.65244 14.6755 10.1532 14.6755 11.0763 15.5985L14.1774 18.6997L22.9231 9.954C23.8462 9.03096 25.347 9.03096 26.27 9.954C27.1931 10.8771 27.1931 12.3778 26.27 13.3009L15.2864 24.2778C14.981 24.5899 14.5825 24.7427 14.1774 24.7427ZM9.40283 16.1165C9.11064 16.1165 8.81182 16.2294 8.58604 16.4552C8.13447 16.9067 8.13447 17.6372 8.58604 18.0888L13.9251 23.4278C14.0646 23.5673 14.2903 23.5673 14.4298 23.4278L25.4134 12.4442C25.8649 11.9927 25.8649 11.2622 25.4134 10.8106C24.9618 10.3591 24.2313 10.3591 23.7798 10.8106L14.9478 19.6427C14.7419 19.8485 14.4696 19.9614 14.1774 19.9614C13.8853 19.9614 13.613 19.8485 13.4071 19.6427L10.2196 16.4552C9.99385 16.2294 9.70166 16.1165 9.40283 16.1165Z" fill="#010715"/>
</svg>
