<svg version="1.1" id="Слой_1" xmlns="http://www.w3.org/2000/svg" x="0" y="0" viewBox="0 0 1950 950" xml:space="preserve"><style>.st0{display:none}.st1{display:inline}.st2{fill:#141414}.st3{fill:#9ecc00}</style><g class="st0"><g class="st1"><path class="st2" d="M1660 306.7l-27-19.1 39.4-59.6-66.4-20.2 10.1-31.5 65.2 23.6-1.1-74.3h33.8l-2.3 74.3 66.4-23.6 10.1 32.6-66.4 19.1 40.5 59.6-28.1 19.1-38.2-63-36 63z"/></g><g class="st1"><path class="st2" d="M286 791.6c-8.6.1-17.5-.1-25.9-.4-7-.3-16.2-2.1-22.3-6.3-8-5.6-12.8-14.9-15.8-23.8-4.7-14.2-5.6-29.7-5.9-44.6-.1-13.1 3.6-40.2-5.5-51.1-8.7-10.4-26.9-11.1-33.8-23.4-6-10.7 4.1-19.3 11.8-26.3 6.8-6.2 16.5-11.3 21.6-19 5.3-8.1 4.1-12.7 3.9-23.1-.5-66.5-2.9-133.1-5-199.6.1-11.9.8-23.4 5.2-34.5 3.5-8.8 8.8-17 15.4-23.7 5.7-5.7 14.4-11 22-13.6 8.3-2.8 17-3.8 25.8-4.4 5 0 7.5 0 12.6-.1 8.9-.2 17.8 1.6 25.6 4.2 8.8 3 15.9 7.3 23.1 13.4 7.1 6 12.6 14.7 16.7 23.4 5 11 6.4 22.4 7.3 34.3 1.5 48.8 3 97.6 4 146.5-17.7.2-35.4.3-53.1.6-1-46.6-2.5-93.2-3.9-139.8-.8-10.2-1.2-21.2-7.2-29.7-4.2-5.9-9.5-8.9-15.3-8.8h-4.8c-5.8.1-11 3-14.7 8.6-5.7 8.6-5.7 20.7-5.3 31 2 63.8 4.2 127.6 4.8 191.5.1 10.3 1.5 15.5-4 23.4-4.3 6.1-11.7 10.8-17.2 15.7-7.4 6.6-20.8 16-17.3 27.7 3.5 12.1 24.5 16.1 32.8 24.4 10 10.1 6.9 29.6 7.4 43.3-.1 12.5.4 27.2 6.1 38.5 4 7.8 9.1 11.6 14.9 11.6h4.7c5.7 0 11-3.8 15-11.7 5.8-11.3 6.5-25.7 6.4-38.3-.3-9.6.5-22-1.4-31.7-2.1-10.6-8.6-13.9-17.2-19.4-19.8-12.5-28.3-19.2-10.2-39 17.9-.2 35.9-.3 53.7-.5-19.7 21.8-7.4 27.5 12.5 41.3 18.8 13.1 15.3 36.9 15.5 58.1-.4 15.1-1.3 30.7-6.4 44.4-3.4 9-7.7 18.2-16.2 24-6.1 4.2-15.5 6-22.7 6.3-8.3.3-17 .5-25.5.4-4.7.2-7.2.2-12.2.2z"/><path class="st2" d="M558.4 517.6c-.2 12.5-.6 25.6-7.3 36.5-4.4 7.2-11.1 13.2-19.3 16 8.2 2.1 14.9 8.6 19.5 14.7 7 9.1-11.5 25.7-17.2 31.1-14.3 16.4-13.6 24.6 3.2 37.4 5.4 4.1 13.6 7.7 17.1 14 4.2 7.6 3.3 19.3 4.5 27.6 2.2 26.9-.3 54.3 3.7 81 2 13.3 3.9 14.8 5.4 15.3h-52.7c-7-5-6.3-15.7-6.9-23.3-1.9-24-.3-49-2.1-73.3-2.6-20.8-2.4-28-20.1-40.1-15.5-10.6-20.7-18.6-8.8-34.9 1.8-1.8 31.3-32.2 10.1-29.7l-28.3.3c-9.7 10.9-43.2 32.5-35.7 50.8 5.6 13.5 26.6 14.7 32.8 27.9 6.4 13.5 3.5 38.2 3.6 52.4.1 23.2-.1 46.5-.2 69.7h-52.9c.2-27.8.8-55.7.3-83.5-.2-8.8-.2-18.6-1.7-27.4-2.4-13.6-5.5-16.6-17.3-24.4-12.5-8.2-25.1-15.6-15.5-31.1 6.7-11 19.7-17.5 27.9-27.3 7.1-8.5 5.7-15.4 5.7-26.2-.8-89.8-4.4-179.6-6.6-269.4l83.9-.3c18.3-.1 35.7 6.6 49.4 18.6 16.2 14.3 20.8 34.8 22.1 55.5 1.3 47.5 2.5 94.8 3.4 142.1zm-71.3 34c17.5-.1 18.6-23.9 18.3-36.3-.8-43.7-2-87.5-3.2-131.3-.7-10.1-1.2-20.7-7.1-29.1-4.2-6.1-9.7-9.2-16-9.2-8.4.1-16.8.1-25.2.1 1.9 68.7 4.1 137.4 5 206.1l28.2-.3zm175.2 73.6c-11 15.2 9.6 25.9 18.6 33.9 9.6 8.6 10.2 17.2 11.5 29.5 3.8 33.7 1.9 68.5 1.9 102.5h-52.6c-.1-34.1 1.8-68.8-1.8-102.7-1.3-12.4-1.9-20.7-11.7-29.2-8.9-7.7-30.3-18.4-19.3-33.6 5.7-15.6 24-24.3 23.7-42.5-.2-13.5-5.2-28.8-7.7-42-4.5-24.3-9.2-48.5-13.9-72.7-10.9-55.8-22.3-111.4-33.2-167.1 17.5-.1 35-.1 52.5-.2 12 72.1 24.7 144 36.4 216.1h1.6c9.6-72.1 18.3-144.2 27.8-216.3 17.5-.1 35-.1 52.5-.2-8.9 55.5-17.5 111.2-26.2 166.7-4.1 25.8-8.2 51.5-12.4 77.2-2 12.3-2.3 28.5-6.8 40.2-6.7 17.4-28.3 28.2-40.9 40.4zm198.3-324.8c18.2-.1 35.6 6.4 49.2 18.4 16 14.2 20.4 34.3 21.4 54.8.8 57.8 1.5 115.6 1.7 173.4.2 20.7-4.6 37.8-23.8 47.6-17.6 9.1-37.8 12.7-57.5 12.9l-33.8.3c-13.3 12.9-25 24.5-10.5 41 10.8 12.3 19.5 14.4 21.9 31.9 5.1 36.4 3.3 73.8 3.5 110.5h-52.6c-.1-27.7-.1-55.3-.5-83-.2-8.8-1.1-17.2-2.7-25.9-2.4-13.9-4.3-17.1-14.6-26.7-11.4-10.7-20.7-18.1-11.1-33.6 7-11.3 19.3-17.2 25.7-29.2 4.6-8.7 3.8-16.4 3.7-26.2-.3-88.6-2.6-177.3-3.9-266 27.9-.1 55.9-.1 83.9-.2zm17.6 81.3c-.6-10-.9-20.4-6.7-28.8-4.1-6-9.5-9.1-15.8-9.1-8.4.1-16.7.1-25.1.1 1.2 74.7 2.6 149.3 2.8 224l28-.3c17.2-.1 18.7-23.4 18.5-35.9-.2-50-.9-100-1.7-150zm237-39.6c-17.5.1-35 .2-52.4.2.3 44.2.8 88.4 1 132.5l.3 55.9c.1 17.2 2.3 36.8-1 53.6-3.9 19.7-28.6 27.6-30.6 47.2-1.7 16.8 16.7 22.5 22.7 35.4 6.6 14 5.9 37.1 6 52.1.2 24.1.8 48.2 1 72.2h-52.6c-.2-24.1-.7-48.2-.9-72.2-.1-15 .8-38.3-6-52.2-6.2-12.8-25.1-18.3-23.6-35 1.7-19.3 26.7-27.6 31-46.8 3.7-16.6 1.2-36.7 1.1-53.7l-.3-55.9c-.3-44.3-.9-88.5-1.3-132.7-17.5.1-35 .2-52.4.2-.2-14.3-.3-28.5-.4-42.8 52.7-.2 105.5-.3 158.3-.5 0 14.1.1 28.3.1 42.5zm96.5 449.5c-8.5.1-17.3-.1-25.7-.5-7.1-.3-16.4-2.4-22.3-6.7-8.5-6.3-12.8-15.6-16.4-24.9-5.2-13.4-6.3-28.8-6.8-43.3-.1-17.5-.5-40.3-10-55.3-7.9-12.6-22.2-18.6-15.5-35.4 3.9-9.9 13-14.4 19-22.3 5-6.6 8.6-12.9 9.8-21.8 2.4-17.3.1-36.4 0-53.9-.1-76-.8-152-1.1-227.9 17.8-.1 35.5-.1 53.3-.2.2 74.6.8 149.2.8 223.8 0 16.5.1 33 0 49.5-.1 8.2-.9 19.7-5.6 26.9-5.7 8.9-17.3 12.9-21.9 23.5-6.3 14.3.5 22.2 9.7 33.1 12 14 13.6 34.6 14.2 52.6.2 11.5 1.1 25 6.7 35.4 4.3 7.9 9.3 11.7 15.1 11.7h4.7c5.7 0 10.8-4 14.6-11.8 5-10.4 5.9-23.6 5.7-35.2-.5-17.9-2.4-38.8-14-52.7-9.1-11-15.5-19.1-9.2-33.4 4.7-10.6 16.5-14.7 22.1-23.7 4.4-7.1 4.9-19 4.9-27 .1-16.5.1-33 .1-49.5-.1-74.5-.4-149-.6-223.4 17.8-.1 35.5-.1 53.3-.2.1 75.6.4 151.2.3 226.7 0 17.8 1.3 36-.1 53.6-.8 9.4-2.7 15-7.8 22.2-5.9 8.3-15.3 12.9-19.4 23-6.9 16.9 6 23.1 13.5 36.5 8.4 15.1 9.5 37.8 9.7 55.2.3 14.4-1 29.9-5.4 43.1-3.1 9.3-7.1 18.8-15.4 25.2-5.9 4.5-15.4 6.5-22.5 6.8-8.2.3-16.9.5-25.4.5-4.9-.2-7.4-.2-12.4-.2zm222.5-284V373.8c-.4-9.8-.5-20.4-6.3-28.6-4-5.6-9.2-8.5-15-8.5h-4.8c-5.8.1-11.1 2.8-15 8.2-5.9 8.1-6.3 19.8-6.3 29.8 0 22.1.1 44.2.1 66.3 0 21.7 4.6 43.7 15.7 62.4 5 8.5 6.8 9.5 34.6 50.9 4.5 6.8 9.1 13.7 11.5 24 3.1 13.1-.1 20.3.3 31.4.3 10 3.6 24.1 16.9 41.2 13.7 17.5 16.9 43 17.2 65.2.3 14.3-.6 29.6-4.7 42.8-2.9 9.4-6.8 19.1-15.3 25.4-6 4.4-15.4 6.6-22.6 6.8-8.5.3-17.3.5-26 .5h-11c-8.6 0-17.5-.1-25.9-.5-7.4-.3-17-2.5-23.3-6.8-9-6.1-13.7-15.6-17.5-25.2-5.3-13.1-6.8-28.7-7.2-43-.2-17.7-1.6-42.9-11.7-57.8-13.7-20.1-17.4-28.4.2-49.6 16.5-.2 32.9-.3 49.4-.5-15.5 18.8-17.1 28.5-2.8 47.6 9.9 13.4 13.1 36.4 13.6 53.1.2 11.4 2.3 25 7.7 34.8 3.1 5.5 10.6 12 17.6 11.7h3.9c6.8 0 12.6-4 16.5-11.8 5.2-10.1 6.1-23.1 5.9-34.6 1-12.4-4.5-44-13-52.8-10.4-12.3-19.5-26.7-17.2-43.6 1.5-11.1 7.5-13.7 1.7-24.1-4.9-8.7-11.3-16.8-17.3-24.7-12.4-16.4-24-33.4-34.5-51-11.5-19.3-15.1-41-15.7-63.2-.1-27.3-.1-54.7-.1-82 .5-11.5 1.5-22.6 6.3-33.2 3.8-8.6 9.5-17 16.5-22.8 6.7-5.5 14.3-10.3 22.8-13.1 8.4-2.7 17.1-3.7 26-4.2h7.9c8.2-.2 17.6 1.6 25.2 4 8.5 2.7 16.1 7.5 22.9 12.9 7 5.7 12.5 14 16.1 22.6 4.5 10.6 5.5 21.6 5.9 33V507c-16.7.2-32.9.4-49.2.6z"/></g></g><path class="st3" d="M531.7 431.3c-.7-9.9-1.2-20.2-6.9-28.6-4.1-6-9.5-9-15.7-9-8.2.1-16.5.1-24.7.1 1.8 67.3 4 134.7 4.9 202l27.7-.3c17.1-.1 18.2-23.4 17.9-35.6-.9-42.8-2-85.6-3.2-128.6z"/><path class="st3" d="M3.3 225.4v723.8h1697.6V225.4H3.3zm398.1 531.8c-.4 14.8-1.3 30.1-6.3 43.5-3.3 8.8-7.6 17.8-15.9 23.5-6 4.1-15.3 5.9-22.3 6.2-8.1.3-16.7.5-25 .4h-12.3c-8.4.1-17.1-.1-25.3-.4-6.9-.3-15.9-2-21.8-6.1-7.8-5.5-12.5-14.6-15.5-23.4-4.6-13.9-5.5-29.1-5.7-43.7-.1-12.8 3.5-39.4-5.3-50-8.5-10.2-26.4-10.9-33.1-23-5.9-10.5 4-18.9 11.7-25.8 6.7-6.1 16.2-11 21.2-18.6 5.2-7.9 4-12.4 3.9-22.7-.5-65.2-2.8-130.4-4.9-195.6.1-11.7.7-22.9 5.1-33.8 3.5-8.6 8.6-16.7 15.1-23.2 5.6-5.6 14.2-10.8 21.6-13.4 8.1-2.8 16.7-3.8 25.3-4.3 4.9 0 7.4 0 12.3-.1 8.7-.2 17.4 1.5 25.1 4.1 8.6 2.9 15.6 7.1 22.6 13.1 6.9 6 12.4 14.4 16.4 23 4.9 10.7 6.3 21.9 7.2 33.6 1.4 47.9 3 95.7 3.9 143.6-17.3.2-34.7.3-52 .6-1-45.7-2.4-91.3-3.9-137-.7-10-1.1-20.8-7-29.1-4.1-5.7-9.3-8.7-14.9-8.6h-4.7c-5.7.1-10.8 2.9-14.4 8.4-5.6 8.4-5.6 20.3-5.2 30.4 2 62.5 4.1 125.1 4.7 187.6.1 10.1 1.5 15.2-3.9 23-4.2 6-11.4 10.6-16.9 15.4-7.3 6.5-20.3 15.6-17.1 27.1 3.5 11.9 24 15.8 32.1 23.9 9.8 9.9 6.8 29 7.3 42.4-.1 12.3.4 26.7 6 37.7 3.9 7.7 8.9 11.4 14.6 11.4h4.6c5.6 0 10.8-3.8 14.7-11.4 5.7-11 6.4-25.2 6.3-37.6-.3-9.4.5-21.6-1.4-31-2-10.3-8.4-13.6-16.9-19-19.4-12.3-27.7-18.8-9.9-38.2 17.6-.2 35.1-.3 52.6-.5-19.3 21.4-7.2 26.9 12.2 40.5 18.4 13 15 36.3 15.1 57.1zm143 73.2c-6.8-4.9-6.2-15.3-6.8-22.8-1.8-23.5-.3-48-2-71.8-2.6-20.4-2.4-27.5-19.7-39.3-15.2-10.4-20.3-18.2-8.6-34.2 1.8-1.8 30.7-31.5 9.9-29.1l-27.7.3c-9.5 10.7-42.4 31.9-35 49.8 5.5 13.2 26.1 14.4 32.2 27.3 6.3 13.2 3.5 37.5 3.5 51.4.1 22.7-.1 45.5-.2 68.3h-51.8c.2-27.3.7-54.6.3-81.8-.2-8.6-.2-18.3-1.7-26.9-2.4-13.3-5.4-16.3-17-23.9-12.3-8-24.6-15.3-15.2-30.5 6.6-10.7 19.3-17.2 27.3-26.8 6.9-8.3 5.6-15.1 5.6-25.7-.7-88-4.3-176-6.4-264l82.3-.3c18-.1 35 6.4 48.4 18.3 15.9 14 20.4 34.1 21.7 54.4 1.2 46.3 2.4 92.7 3.2 139-.2 12.3-.6 25.1-7.2 35.8-4.3 7-10.9 12.9-18.9 15.6 8.1 2 14.6 8.4 19.1 14.4 6.8 8.9-11.3 25.2-16.9 30.5-14 16.1-13.3 24.1 3.2 36.6 5.3 4 13.3 7.6 16.7 13.7 4.1 7.4 3.2 18.9 4.4 27.1 2.2 26.4-.3 53.2 3.6 79.4 2 13 3.8 14.5 5.3 15-17.1.2-34.3.2-51.6.2zm190.9-241.6c-2 12-2.3 27.9-6.7 39.4-6.5 17-27.7 27.6-40 39.6-10.7 14.9 9.4 25.5 18.2 33.3 9.4 8.5 9.9 16.9 11.3 28.9 3.8 33 1.8 67.1 1.9 100.4h-51.5c-.1-33.4 1.8-67.4-1.8-100.6-1.3-12.2-1.8-20.3-11.5-28.7-8.7-7.5-29.7-18.1-18.9-32.9 5.6-15.3 23.5-23.8 23.2-41.6-.2-13.2-5.1-28.2-7.5-41.2-4.4-23.8-9-47.5-13.6-71.3-10.7-54.6-21.8-109.2-32.5-163.8 17.2-.1 34.3-.1 51.5-.2 11.8 70.6 24.2 141.1 35.7 211.8h1.5c9.4-70.7 18-141.4 27.2-212 17.2-.1 34.3-.1 51.5-.2-8.8 54.5-17.1 108.9-25.7 163.4-4.1 25.3-8.1 50.6-12.3 75.7zm195.1 48.9c-17.3 8.9-37.1 12.4-56.3 12.7l-33.2.3c-13 12.6-24.5 24-10.3 40.1 10.6 12 19.1 14.1 21.5 31.2 5 35.6 3.2 72.3 3.4 108.3h-51.6c-.1-27.1-.1-54.2-.5-81.3-.2-8.6-1.1-16.9-2.6-25.4-2.4-13.6-4.2-16.7-14.3-26.2-11.1-10.5-20.3-17.7-10.9-32.9 6.9-11 18.9-16.8 25.2-28.6 4.5-8.5 3.7-16.1 3.6-25.6-.3-86.9-2.6-173.8-3.8-260.7l82.2-.3c17.8-.1 34.8 6.3 48.2 18 15.7 13.9 20 33.6 21 53.7.7 56.6 1.5 113.3 1.7 169.9.2 20.5-4.5 37.2-23.3 46.8zm150.9-10c-3.8 19.4-28 27.1-30 46.2-1.6 16.4 16.4 22 22.3 34.7 6.4 13.7 5.7 36.3 5.9 51 .2 23.6.7 47.2 1 70.8h-51.6c-.2-23.6-.7-47.2-.9-70.8-.1-14.7.7-37.6-5.9-51.2-6.1-12.5-24.6-17.9-23.1-34.3 1.7-18.9 26.2-27 30.4-45.8 3.6-16.3 1.1-35.9 1.1-52.6l-.3-54.8c-.3-43.4-.9-86.7-1.3-130.1-17.1.1-34.3.2-51.4.2-.2-14-.3-27.9-.4-41.9 51.7-.2 103.4-.3 155.1-.5.1 13.9.2 27.8.2 41.7-17.2.1-34.3.2-51.4.2.3 43.3.7 86.6 1 129.9l.3 54.7c.1 16.9 2.3 36.1-1 52.6zm229-4.9c-.7 9.2-2.6 14.7-7.6 21.7-5.7 8.1-14.9 12.6-19 22.5-6.8 16.6 5.9 22.7 13.2 35.8 8.2 14.8 9.3 37.1 9.5 54.1.3 14.2-1 29.3-5.3 42.2-3 9.1-6.9 18.5-15.1 24.7-5.8 4.4-15.1 6.4-22.1 6.7-8.1.3-16.6.5-24.8.5h-12.2c-8.4.1-17-.1-25.2-.5-6.9-.3-16-2.3-21.8-6.6-8.3-6.1-12.5-15.3-16.1-24.5-5.1-13.1-6.2-28.2-6.7-42.5-.1-17.1-.5-39.5-9.8-54.2-7.8-12.3-21.8-18.2-15.2-34.7 3.8-9.7 12.7-14.2 18.6-21.9 4.9-6.4 8.4-12.7 9.6-21.3 2.3-17 .1-35.7 0-52.9-.1-74.5-.8-148.9-1.1-223.4 17.4-.1 34.8-.1 52.2-.2.2 73.1.7 146.2.8 219.3 0 16.2.1 32.4 0 48.5-.1 8.1-.9 19.3-5.5 26.4-5.6 8.8-16.9 12.6-21.5 23-6.1 14 .5 21.8 9.5 32.4 11.7 13.7 13.4 33.9 13.9 51.6.2 11.3 1.1 24.5 6.6 34.7 4.2 7.7 9.2 11.5 14.8 11.5h4.6c5.6 0 10.6-3.9 14.3-11.5 4.9-10.2 5.7-23.1 5.6-34.6-.5-17.5-2.3-38-13.7-51.7-8.9-10.8-15.2-18.7-9-32.7 4.6-10.5 16.1-14.4 21.7-23.2 4.3-7 4.8-18.6 4.8-26.5.1-16.1.1-32.3.1-48.5-.1-73-.4-146-.6-218.9 17.4-.1 34.8-.1 52.2-.2.1 74.1.4 148.1.3 222.2.1 17.5 1.4 35.4 0 52.7zm177.9 176c-2.8 9.2-6.7 18.7-15 24.8-5.9 4.3-15.1 6.4-22.2 6.7-8.3.3-17 .5-25.5.5h-10.8c-8.5 0-17.1-.1-25.4-.5-7.3-.3-16.7-2.4-22.8-6.7-8.8-6-13.4-15.3-17.2-24.7-5.2-12.8-6.7-28.1-7-42.2-.2-17.3-1.5-42.1-11.5-56.7-13.4-19.7-17.1-27.9.2-48.6 16.1-.2 32.2-.3 48.4-.5-15.2 18.4-16.8 27.9-2.8 46.7 9.7 13.1 12.8 35.6 13.3 52.1.2 11.1 2.2 24.5 7.6 34 3 5.4 10.3 11.8 17.2 11.5h3.9c6.7 0 12.3-3.9 16.2-11.5 5.1-9.9 6-22.7 5.8-33.9 1-12.2-4.4-43.1-12.7-51.7-10.2-12-19.1-26.2-16.9-42.7 1.5-10.9 7.4-13.4 1.6-23.6-4.8-8.5-11.1-16.4-16.9-24.2-12.2-16.1-23.5-32.7-33.8-50-11.3-18.9-14.8-40.2-15.4-62-.1-26.8-.1-53.6-.1-80.4.5-11.3 1.4-22.1 6.1-32.6 3.8-8.4 9.3-16.7 16.1-22.3 6.5-5.4 14-10.1 22.3-12.8 8.2-2.7 16.8-3.6 25.5-4.1h7.7c8-.2 17.2 1.5 24.7 3.9 8.3 2.7 15.8 7.3 22.4 12.7 6.9 5.6 12.3 13.7 15.8 22.1 4.4 10.4 5.3 21.1 5.8 32.3v137.4c-16 .2-31.9.3-47.9.5V421.2c-.4-9.6-.5-20-6.2-28-3.9-5.5-9-8.4-14.7-8.3h-4.7c-5.7.1-10.9 2.8-14.7 8.1-5.7 8-6.1 19.4-6.2 29.2 0 21.7.1 43.3.1 64.9 0 21.3 4.5 42.8 15.4 61.1 4.9 8.3 6.7 9.3 33.9 49.9 4.4 6.7 8.9 13.5 11.3 23.5 3 12.9-.1 19.9.3 30.7.3 9.8 3.5 23.6 16.6 40.4 13.5 17.2 16.6 42.2 16.8 63.8.4 14.3-.6 29.3-4.6 42.3z"/><path class="st3" d="M900.1 429.1c-.6-9.8-.9-20-6.5-28.2-4-5.9-9.3-8.9-15.5-8.9-8.2.1-16.4.1-24.6.1 1.1 73.2 2.6 146.3 2.8 219.5l27.4-.3c16.9-.1 18.4-23 18.1-35.1-.2-49-.9-98-1.7-147.1zm895.2-200.8l-26.4-18.7 38.5-58.4-65-19.8 9.9-30.9 63.9 23.1-1.1-72.7h33l-2.2 72.7 65-23.1 9.9 31.9-65 18.7 39.7 58.4-27.6 18.7-37.5-61.7-35.1 61.8z"/><g class="st0"><g class="st1"><path class="st3" d="M585.4 695c-4.9 0-10.1-.1-14.9-.2-4-.2-9.3-1.2-12.8-3.6-4.6-3.2-7.3-8.6-9-13.7-2.7-8.1-3.2-17.1-3.4-25.7-.1-7.6 2.1-23.1-3.1-29.4-5-6-15.5-6.4-19.4-13.5-3.5-6.1 2.3-11.1 6.8-15.1 3.9-3.6 9.5-6.5 12.4-10.9 3.1-4.7 2.3-7.3 2.3-13.3-.3-38.3-1.6-76.6-2.9-114.8.1-6.8.4-13.4 3-19.8 2-5.1 5.1-9.8 8.9-13.6 3.3-3.3 8.3-6.4 12.7-7.8 4.8-1.6 9.8-2.2 14.9-2.5h7.2c5.1-.1 10.2.9 14.7 2.4 5.1 1.7 9.2 4.2 13.3 7.7 4.1 3.5 7.3 8.5 9.6 13.5 2.9 6.3 3.7 12.9 4.2 19.7.9 28.1 1.8 56.2 2.3 84.3l-30.5.3c-.6-26.8-1.4-53.7-2.3-80.4-.4-5.9-.7-12.2-4.1-17.1-2.4-3.4-5.5-5.1-8.8-5.1h-2.7c-3.4 0-6.3 1.7-8.5 4.9-3.3 4.9-3.2 11.9-3.1 17.8 1.2 36.7 2.4 73.4 2.7 110.2.1 5.9.9 8.9-2.3 13.5-2.4 3.5-6.7 6.2-9.9 9-4.3 3.8-12 9.2-10 15.9 2 7 14.1 9.3 18.9 14.1 5.8 5.8 4 17 4.3 24.9-.1 7.2.2 15.7 3.5 22.2 2.3 4.5 5.2 6.7 8.5 6.7h2.7c3.3 0 6.4-2.2 8.6-6.7 3.3-6.5 3.8-14.8 3.7-22.1-.2-5.6.3-12.7-.8-18.2-1.2-6.1-4.9-8-9.9-11.1-11.4-7.2-16.3-11.1-5.9-22.4l30.9-.3c-11.4 12.6-4.3 15.8 7.2 23.8 10.9 7.6 8.8 21.2 8.9 33.5-.2 8.7-.7 17.7-3.7 25.6-1.9 5.2-4.4 10.5-9.3 13.8-3.5 2.4-9 3.5-13.1 3.6-4.8.2-9.8.3-14.7.2-2.8-.3-4.2-.3-7.1-.3z"/><path class="st3" d="M742.1 537.3c-.1 7.2-.4 14.7-4.2 21-2.5 4.1-6.4 7.6-11.1 9.2 4.7 1.2 8.5 4.9 11.3 8.5 4 5.2-6.6 14.8-9.9 17.8-8.2 9.4-7.8 14.2 1.9 21.5 3.1 2.4 7.8 4.4 9.8 8.1 2.4 4.4 1.9 11.1 2.6 15.9 1.3 15.5-.2 31.3 2.2 46.6 1.2 7.6 2.2 8.5 3.1 8.8h-30.3c-4-2.9-3.6-9-4-13.4-1.1-13.8-.2-28.2-1.2-42.2-1.5-12-1.4-16.1-11.5-23.1-8.9-6.1-11.9-10.7-5.1-20.1 1-1.1 18-18.5 5.8-17.1-5.4.1-10.9.2-16.3.2-5.6 6.3-24.9 18.7-20.5 29.2 3.2 7.7 15.3 8.5 18.9 16 3.7 7.7 2 22 2.1 30.2.1 13.4-.1 26.7-.1 40.1h-30.4c.1-16 .5-32.1.2-48.1-.1-5.1-.1-10.7-1-15.8-1.4-7.8-3.2-9.5-10-14-7.2-4.7-14.4-9-9-17.8 3.9-6.3 11.4-10.1 16-15.7 4.1-4.9 3.3-8.9 3.2-15.1-.4-51.7-2.5-103.3-3.8-155 16.1-.1 32.2-.1 48.3-.2 10.5-.1 20.6 3.8 28.4 10.7 9.3 8.2 12 20 12.7 31.9.7 27.5 1.5 54.7 1.9 81.9zm-40.9 19.5c10.1-.1 10.7-13.8 10.5-20.9-.5-25.2-1.1-50.4-1.8-75.5-.4-5.8-.7-11.9-4.1-16.8-2.4-3.5-5.6-5.3-9.2-5.3-4.8 0-9.7.1-14.5.1 1.1 39.5 2.3 79.1 2.9 118.6 5.4 0 10.8-.1 16.2-.2zM802 599.2c-6.3 8.8 5.6 14.9 10.7 19.6 5.6 4.9 5.9 9.9 6.7 17 2.2 19.4 1.1 39.4 1.1 58.9h-30.2c0-19.6 1-39.6-1-59.1-.7-7.2-1-11.9-6.8-16.8-5.1-4.4-17.4-10.6-11.1-19.3 3.3-9 13.8-14 13.6-24.4-.2-7.8-3-16.6-4.4-24.2-2.6-14-5.3-27.9-8-41.8-6.3-32.1-12.8-64.1-19.1-96.2 10.1-.1 20.1-.1 30.2-.1 6.9 41.4 14.2 82.9 20.9 124.4h.9c5.5-41.4 10.5-83 16-124.5 10.1-.1 20.1-.1 30.2-.1-5.2 31.9-10.1 63.9-15.1 95.9-2.3 14.8-4.7 29.6-7.2 44.4-1.2 7.1-1.3 16.4-3.9 23.1-3.9 9.9-16.3 16.1-23.5 23.2zm114-186.9c10.5-.1 20.5 3.6 28.3 10.6 9.2 8.1 11.7 19.8 12.3 31.5.4 33.3.9 66.5 1 99.8.1 11.9-2.7 21.8-13.7 27.4-10.1 5.2-21.8 7.3-33.1 7.4-6.5.1-13 .1-19.5.2-7.7 7.4-14.4 14.1-6.1 23.5 6.3 7 11.2 8.2 12.6 18.4 3 20.9 1.9 42.5 2 63.6h-30.3c-.1-15.9-.1-31.8-.3-47.7-.1-5.1-.7-9.9-1.5-14.9-1.4-8-2.4-9.8-8.4-15.4-6.5-6.1-11.9-10.4-6.4-19.3 4-6.5 11.1-9.9 14.8-16.8 2.7-5 2.2-9.4 2.2-15.1-.2-51-1.5-102-2.2-153.1 16.1 0 32.2 0 48.3-.1zm10.2 46.8c-.3-5.7-.6-11.7-3.9-16.5-2.4-3.5-5.5-5.2-9.1-5.2-4.8 0-9.6.1-14.4.1.7 43 1.5 85.9 1.6 128.9 5.3-.1 10.7-.1 16.1-.2 9.9-.1 10.7-13.5 10.6-20.6-.1-28.9-.5-57.8-.9-86.5zm136.4-22.8c-10.1.1-20.1.1-30.2.2.2 25.4.5 50.8.6 76.2.1 10.7.1 21.4.2 32.1.1 9.9 1.3 21.1-.6 30.9-2.2 11.4-16.5 15.9-17.6 27.1-1 9.6 9.6 12.9 13.1 20.3 3.8 8 3.4 21.3 3.5 30 .1 13.9.5 27.7.6 41.5h-30.3c-.1-13.9-.4-27.7-.5-41.5-.1-8.6.5-22.1-3.5-30.1-3.6-7.3-14.4-10.5-13.6-20.1 1-11.1 15.4-15.9 17.8-26.9 2.1-9.5.7-21.1.6-30.9-.1-10.7-.1-21.5-.2-32.2-.2-25.5-.5-50.9-.7-76.4-10.1.1-20.1.1-30.2.2-.1-8.2-.2-16.4-.2-24.6l91.1-.3c0 8.2 0 16.3.1 24.5zm55.5 258.7c-4.9.1-10-.1-14.8-.3-4.1-.2-9.4-1.4-12.8-3.9-4.9-3.6-7.3-9-9.4-14.4-3-7.7-3.6-16.5-3.9-24.9-.1-10.1-.3-23.2-5.7-31.8-4.6-7.2-12.8-10.7-8.9-20.4 2.2-5.7 7.4-8.3 11-12.8 2.9-3.8 4.9-7.4 5.6-12.5 1.4-9.9.1-21 0-31-.1-43.7-.5-87.4-.6-131.2 10.2-.1 20.4-.1 30.6-.1.1 42.9.4 85.8.5 128.8 0 9.5.1 19 0 28.5-.1 4.7-.5 11.3-3.2 15.5-3.3 5.1-9.9 7.4-12.6 13.5-3.6 8.2.3 12.8 5.6 19 6.9 8 7.8 19.9 8.1 30.3.1 6.7.6 14.4 3.9 20.3 2.4 4.5 5.4 6.8 8.7 6.8h2.7c3.3 0 6.3-2.3 8.4-6.8 2.9-6 3.4-13.6 3.3-20.3-.3-10.3-1.4-22.3-8-30.4-5.2-6.4-8.9-11-5.3-19.2 2.7-6.1 9.5-8.5 12.7-13.6 2.6-4.1 2.8-11 2.8-15.6.1-9.5.1-19 0-28.5 0-42.9-.2-85.7-.3-128.6 10.2-.1 20.4-.1 30.6-.1.1 43.5.2 87 .2 130.4 0 10.2.7 20.7-.1 30.9-.4 5.4-1.5 8.6-4.5 12.7-3.4 4.8-8.8 7.4-11.1 13.2-4 9.8 3.5 13.3 7.7 21 4.8 8.7 5.5 21.8 5.6 31.7.2 8.3-.6 17.2-3.1 24.8-1.8 5.3-4.1 10.9-8.9 14.5-3.4 2.6-8.9 3.8-13 3.9-4.7.2-9.7.3-14.6.3-2.9.3-4.3.3-7.2.3zm128-163.5v-77c-.2-5.6-.3-11.8-3.6-16.4-2.3-3.2-5.3-4.9-8.6-4.9h-2.7c-3.4 0-6.4 1.6-8.6 4.8-3.4 4.7-3.6 11.4-3.6 17.2 0 12.7 0 25.4.1 38.1 0 12.5 2.6 25.1 9 35.9 2.9 4.9 3.9 5.5 19.9 29.3 2.6 3.9 5.2 7.9 6.6 13.8 1.8 7.6-.1 11.7.2 18.1.2 5.7 2 13.9 9.8 23.7 7.9 10.1 9.7 24.8 9.9 37.5.2 8.2-.3 17.1-2.7 24.7-1.6 5.4-3.9 11-8.8 14.6-3.5 2.6-8.9 3.8-13 3.9-4.9.2-9.9.3-14.9.3h-6.3c-4.9 0-10.1-.1-14.9-.3-4.3-.2-9.8-1.4-13.4-3.9-5.2-3.5-7.8-9-10.1-14.5-3-7.6-3.9-16.5-4.1-24.8-.1-10.2-.9-24.7-6.8-33.3-7.9-11.5-10-16.4.1-28.5 9.4-.1 18.9-.2 28.4-.2-8.9 10.9-9.8 16.4-1.6 27.4 5.7 7.7 7.5 20.9 7.8 30.6.2 6.5 1.3 14.4 4.4 20 1.8 3.2 6.1 6.9 10.1 6.8h2.3c3.9 0 7.2-2.3 9.5-6.8 3-5.8 3.5-13.3 3.4-19.9.6-7.2-2.6-25.3-7.4-30.4-6-7-11.3-15.4-9.9-25.1.9-6.4 4.3-7.8 1-13.9-2.8-5-6.5-9.6-9.9-14.2-7.2-9.4-13.8-19.2-19.8-29.3-6.6-11.1-8.7-23.6-9-36.4 0-15.7-.1-31.5-.1-47.2.3-6.7.9-13 3.6-19.1 2.2-4.9 5.5-9.8 9.5-13.1 3.9-3.2 8.2-6 13.1-7.6 4.8-1.6 9.8-2.1 14.9-2.4h4.5c4.7-.1 10.1.9 14.5 2.3 4.9 1.5 9.3 4.3 13.1 7.4 4 3.3 7.2 8.1 9.3 13 2.6 6.1 3.1 12.4 3.4 19v80.7c-9.9-.1-19.3 0-28.6.1z"/></g></g></svg>