<svg width="28" height="28" viewBox="0 0 28 28" fill="none" xmlns="http://www.w3.org/2000/svg">
<path d="M16.1875 16.625C17.928 16.625 19.5972 15.9336 20.8279 14.7029C22.0586 13.4722 22.75 11.803 22.75 10.0625C22.75 8.32202 22.0586 6.65282 20.8279 5.42211C19.5972 4.1914 17.928 3.5 16.1875 3.5H9.625C9.39294 3.50001 9.17039 3.5922 9.00629 3.75629C8.8422 3.92039 8.75001 4.14294 8.75 4.375V14.875H6.125C5.89294 14.875 5.67038 14.9672 5.50628 15.1313C5.34219 15.2954 5.25 15.5179 5.25 15.75C5.25 15.9821 5.34219 16.2046 5.50628 16.3687C5.67038 16.5328 5.89294 16.625 6.125 16.625H8.75V18.375H6.125C5.89294 18.375 5.67038 18.4672 5.50628 18.6313C5.34219 18.7954 5.25 19.0179 5.25 19.25C5.25 19.4821 5.34219 19.7046 5.50628 19.8687C5.67038 20.0328 5.89294 20.125 6.125 20.125H8.75V23.625C8.75 23.8571 8.84219 24.0796 9.00628 24.2437C9.17038 24.4078 9.39294 24.5 9.625 24.5C9.85706 24.5 10.0796 24.4078 10.2437 24.2437C10.4078 24.0796 10.5 23.8571 10.5 23.625V20.125H15.75C15.9821 20.125 16.2046 20.0328 16.3687 19.8687C16.5328 19.7046 16.625 19.4821 16.625 19.25C16.625 19.0179 16.5328 18.7954 16.3687 18.6313C16.2046 18.4672 15.9821 18.375 15.75 18.375H10.5V16.625H16.1875ZM10.5 5.25H16.1875C17.4639 5.25 18.6879 5.75703 19.5905 6.65955C20.493 7.56207 21 8.78615 21 10.0625C21 11.3389 20.493 12.5629 19.5905 13.4655C18.6879 14.368 17.4639 14.875 16.1875 14.875H10.5V5.25Z" fill="#89D7CF"/>
</svg>
