<svg width="58" height="58" viewBox="0 0 58 58" fill="none" xmlns="http://www.w3.org/2000/svg">
<path d="M24.8418 21.3731H15.1384V24.1455H24.8418V21.3731ZM24.8418 14.4421H15.1384V17.2145H24.8418V14.4421ZM15.1384 31.0823H42.8624V28.3041H15.1384V31.0823ZM37.3176 0.580078H9.59363C6.64143 0.580078 4.04883 3.56708 4.04883 6.51928V51.4751C4.04883 54.4273 6.64143 57.4143 9.59363 57.4143H48.413C51.3652 57.4143 53.9578 55.8135 53.9578 52.8613V17.2145L37.3176 0.580078ZM37.3176 4.73868L49.9964 17.2145H40.09C38.1238 17.2145 37.3176 16.4083 37.3176 14.4421V4.73868ZM51.1796 51.8753C51.1796 53.8415 50.3734 54.6477 48.4072 54.6477H9.59363C7.62743 54.6477 6.82123 53.8415 6.82123 51.8753V7.51108C6.82123 5.54488 7.62743 3.35248 9.59363 3.35248H34.5452V15.8283C34.5452 18.7805 35.7516 19.9869 38.7038 19.9869H51.1796V51.8753ZM15.1384 38.0133H42.8624V35.2409H15.1384V38.0133ZM15.1384 44.9443H42.8624V42.1719H15.1384V44.9443Z" fill="#55D6C6"/>
</svg>
