<svg width="44" height="44" viewBox="0 0 44 44" fill="none" xmlns="http://www.w3.org/2000/svg">
<g clip-path="url(#clip0_2_7760)">
<path d="M20.5496 7.04149C15.4932 3.35658 8.46083 4.58414 4.87336 9.77793C1.28589 14.9717 2.48092 22.1952 7.53737 25.8801C11.74 28.9428 17.3074 28.6115 21.1276 25.4303L34.6992 35.3206C35.0768 35.5959 35.6844 35.7523 36.1439 35.6925L38.5919 35.374C38.9008 35.3337 39.1794 35.1638 39.3564 34.9076C39.5333 34.6514 39.5974 34.3252 39.5324 34.0124L39.0164 31.5338C38.9195 31.0686 38.5751 30.5312 38.1974 30.256L37.5045 29.751L37.5973 27.7048C37.6136 27.3452 37.4752 27.0313 37.2177 26.8436C36.9603 26.656 36.6262 26.6256 36.3011 26.7603L34.4516 27.5262L34.4322 27.512L34.5251 25.4659C34.5413 25.1063 34.403 24.7924 34.1455 24.6047C33.8881 24.4171 33.5539 24.3867 33.2289 24.5214L31.3794 25.2873L31.36 25.2731L31.4528 23.227C31.4691 22.8674 31.3308 22.5535 31.0733 22.3659C30.8158 22.1782 30.4817 22.1478 30.1566 22.2824L28.3071 23.0483L24.6259 20.3657C26.287 15.6113 24.7524 10.1043 20.5496 7.04149ZM14.7186 16.9529C13.3219 18.975 10.5938 19.4511 8.62524 18.0165C6.65669 16.5819 6.19305 13.7796 7.5897 11.7576C8.98636 9.73561 11.7146 9.25938 13.6831 10.694C15.6517 12.1285 16.1154 14.9308 14.7186 16.9529Z" fill="black"/>
</g>
<defs>
<clipPath id="clip0_2_7760">
<rect width="42" height="43.1407" fill="white" transform="matrix(1 0.000162324 -0.000153853 1 1.00391 0.685547)"/>
</clipPath>
</defs>
</svg>
