<svg width="27" height="27" viewBox="0 0 27 27" fill="none" xmlns="http://www.w3.org/2000/svg">
<path d="M13.5 26.6836C20.7811 26.6836 26.6836 20.7811 26.6836 13.5C26.6836 6.2189 20.7811 0.316406 13.5 0.316406C6.2189 0.316406 0.316406 6.2189 0.316406 13.5C0.316406 20.7811 6.2189 26.6836 13.5 26.6836Z" fill="#191919"/>
<path d="M26.6839 13.6953C26.6734 13.6795 26.6628 13.669 26.647 13.6531C24.7486 11.76 22.8554 9.8668 20.9622 7.97364C20.9042 7.91563 20.8462 7.8629 20.7882 7.81016C20.3769 7.46739 19.8917 7.33028 19.3644 7.38301C18.9162 7.43048 18.5312 7.63087 18.2095 7.95255C15.9419 10.2254 13.6691 12.493 11.4015 14.7658C11.2908 14.8713 11.3224 14.8766 11.2117 14.7658C10.4312 13.9854 9.65073 13.1996 8.86498 12.4244C8.35873 11.9234 7.74702 11.7547 7.0562 11.9129C6.26518 12.0922 5.66401 12.8305 5.63237 13.6426C5.61127 14.2174 5.81166 14.7025 6.21772 15.1086C9.87748 18.7736 13.5425 22.4387 17.2023 26.1037C17.2181 26.1195 17.2339 26.1354 17.2497 26.1406C22.6445 24.5428 26.5943 19.591 26.6839 13.6953Z" fill="#191919"/>
<path d="M11.2591 19.6492C10.9427 19.6492 10.621 19.5279 10.3785 19.2853L6.13862 15.0455C5.40562 14.3125 5.40562 13.1207 6.13862 12.3876C6.87163 11.6546 8.06343 11.6546 8.79644 12.3876L11.2591 14.8503L18.2042 7.90522C18.9373 7.17222 20.1291 7.17222 20.8621 7.90522C21.5951 8.63823 21.5951 9.83003 20.8621 10.563L12.1398 19.28C11.8972 19.5279 11.5808 19.6492 11.2591 19.6492ZM7.46753 12.799C7.2355 12.799 6.99819 12.8886 6.8189 13.0679C6.4603 13.4265 6.4603 14.0066 6.8189 14.3652L11.0587 18.605C11.1695 18.7158 11.3488 18.7158 11.4595 18.605L20.1818 9.88276C20.5404 9.52417 20.5404 8.94409 20.1818 8.5855C19.8232 8.2269 19.2431 8.2269 18.8845 8.5855L11.8708 15.5992C11.7074 15.7626 11.4912 15.8523 11.2591 15.8523C11.0271 15.8523 10.8109 15.7626 10.6474 15.5992L8.11616 13.0679C7.93686 12.8886 7.70483 12.799 7.46753 12.799Z" fill="#67DBCC"/>
</svg>
