<svg width="41" height="41" viewBox="0 0 41 41" fill="none" xmlns="http://www.w3.org/2000/svg">
<path d="M20.4994 16.6618C21.2259 16.6618 21.8191 17.2535 21.8191 17.9799C21.8191 18.6428 22.3578 19.18 23.0207 19.18C23.682 19.18 24.2208 18.6428 24.2208 17.9799C24.2208 16.3516 23.1599 14.9774 21.6995 14.475V13.794C21.6995 13.1326 21.1623 12.5924 20.4994 12.5924C19.8351 12.5924 19.2978 13.1326 19.2978 13.794V14.475C17.8374 14.9774 16.7796 16.3516 16.7796 17.9799C16.7796 20.0336 18.4473 21.7013 20.4994 21.7013C21.2259 21.7013 21.8191 22.2945 21.8191 23.0209C21.8191 23.7489 21.2259 24.3406 20.4994 24.3406C19.773 24.3406 19.1813 23.7489 19.1813 23.0209C19.1813 22.3581 18.6425 21.8193 17.9797 21.8193C17.3153 21.8193 16.7796 22.3581 16.7796 23.0209C16.7796 24.6493 17.8374 26.0219 19.2978 26.5244V27.2054C19.2978 27.8698 19.8351 28.4085 20.4994 28.4085C21.1623 28.4085 21.6995 27.8698 21.6995 27.2054V26.5244C23.1599 26.0219 24.2208 24.6493 24.2208 23.0209C24.2208 20.9688 22.5516 19.2996 20.4994 19.2996C19.773 19.2996 19.1813 18.7079 19.1813 17.9799C19.1813 17.2535 19.773 16.6618 20.4994 16.6618ZM30.5618 27.1691C31.1505 27.4793 31.8754 27.2538 32.1841 26.6697C33.1829 24.7825 33.7096 22.6487 33.7096 20.4997C33.7096 13.2174 27.7817 7.29106 20.4994 7.29106C13.2156 7.29106 7.2893 13.2174 7.2893 20.4997C7.2893 27.7835 13.2156 33.7098 20.4994 33.7098C22.6166 33.7098 24.7202 33.1983 26.5832 32.2282C27.1718 31.924 27.4004 31.1961 27.0947 30.6089C26.789 30.0233 26.0641 29.7902 25.4739 30.0974C23.9317 30.9025 22.2565 31.3096 20.4994 31.3096C14.5398 31.3096 9.68949 26.4608 9.68949 20.4997C9.68949 14.5416 14.5398 9.69125 20.4994 9.69125C26.4591 9.69125 31.3094 14.5416 31.3094 20.4997C31.3094 22.2597 30.8766 24.0046 30.0624 25.5452C29.7506 26.1324 29.9746 26.8588 30.5618 27.1691ZM20.4994 2.48462C17.0202 2.48462 13.6424 3.48041 10.7322 5.36152C10.1738 5.7217 10.0149 6.46476 10.375 7.02168C10.7367 7.5786 11.4768 7.73598 12.0367 7.37883C14.5549 5.75045 17.4848 4.88784 20.4994 4.88784C29.109 4.88784 36.1113 11.8917 36.1113 20.4997C36.1113 29.1092 29.109 36.113 20.4994 36.113C11.8899 36.113 4.88608 29.1092 4.88608 20.4997C4.88608 17.5138 5.73205 14.6097 7.3347 12.1051C7.69185 11.5451 7.52841 10.8021 6.96847 10.4449C6.41004 10.0877 5.66697 10.2512 5.31133 10.8096C3.46201 13.7017 2.48438 17.0553 2.48438 20.4997C2.48438 30.4349 10.5642 38.5147 20.4994 38.5147C30.4331 38.5147 38.5145 30.4349 38.5145 20.4997C38.5145 10.5675 30.4331 2.48462 20.4994 2.48462Z" fill="#191919"/>
</svg>
