<svg width="58" height="58" viewBox="0 0 58 58" fill="none" xmlns="http://www.w3.org/2000/svg">
<path d="M24.8399 21.3731H15.1365V24.1455H24.8399V21.3731ZM24.8399 14.4421H15.1365V17.2145H24.8399V14.4421ZM15.1365 31.0823H42.8605V28.3041H15.1365V31.0823ZM37.3157 0.580078H9.59168C6.63947 0.580078 4.04688 3.56708 4.04688 6.51928V51.4751C4.04688 54.4273 6.63947 57.4143 9.59168 57.4143H48.4111C51.3633 57.4143 53.9559 55.8135 53.9559 52.8613V17.2145L37.3157 0.580078ZM37.3157 4.73868L49.9945 17.2145H40.0881C38.1219 17.2145 37.3157 16.4083 37.3157 14.4421V4.73868ZM51.1777 51.8753C51.1777 53.8415 50.3715 54.6477 48.4053 54.6477H9.59168C7.62547 54.6477 6.81928 53.8415 6.81928 51.8753V7.51108C6.81928 5.54488 7.62547 3.35248 9.59168 3.35248H34.5433V15.8283C34.5433 18.7805 35.7497 19.9869 38.7019 19.9869H51.1777V51.8753ZM15.1365 38.0133H42.8605V35.2409H15.1365V38.0133ZM15.1365 44.9443H42.8605V42.1719H15.1365V44.9443Z" fill="#55D6C6"/>
</svg>
