<svg width="176" height="176" viewBox="0 0 176 176" fill="none" xmlns="http://www.w3.org/2000/svg">
<path d="M61.4438 81.2753V103.456C61.4438 105.177 60.0449 106.572 58.3195 106.572H33.3254C31.6 106.572 30.2012 105.177 30.2012 103.456V81.231L61.4438 81.2753Z" fill="#191919"/>
<path d="M60.2517 81.0033C60.2517 81.9397 60.2517 82.8762 60.2517 83.8127C60.2517 85.9723 60.2517 88.1319 60.2517 90.2915C60.2517 92.6996 60.2517 95.1078 60.2517 97.5159C60.2517 99.198 60.2517 100.88 60.2517 102.562C60.2517 102.961 60.2737 103.372 60.2247 103.768C60.238 103.669 60.2513 103.571 60.2646 103.472C60.225 103.755 60.1502 104.028 60.0397 104.292C60.0772 104.203 60.1147 104.114 60.1522 104.025C60.0797 104.191 59.9951 104.349 59.8976 104.501C59.8712 104.543 59.843 104.583 59.8147 104.622C59.6995 104.785 59.9954 104.396 59.8705 104.551C59.8093 104.627 59.7429 104.699 59.675 104.769C59.6071 104.839 59.5344 104.904 59.4603 104.967C59.3975 105.021 59.2383 105.136 59.5332 104.914C59.4942 104.943 59.4538 104.971 59.4135 104.998C59.251 105.109 59.076 105.201 58.8959 105.28C58.9848 105.242 59.0737 105.205 59.1626 105.167C58.8985 105.278 58.625 105.352 58.3414 105.392C58.4404 105.379 58.5393 105.365 58.6383 105.352C58.3089 105.393 57.9722 105.379 57.6408 105.379C57.0474 105.379 56.454 105.379 55.8606 105.379C53.8584 105.379 51.8562 105.379 49.854 105.379C47.4079 105.379 44.9619 105.379 42.5158 105.379C40.3978 105.379 38.2798 105.379 36.1618 105.379C35.1439 105.379 34.1259 105.379 33.108 105.379C32.9578 105.379 32.8083 105.37 32.6591 105.352C32.7581 105.365 32.857 105.379 32.956 105.392C32.6724 105.352 32.3989 105.278 32.1348 105.167C32.2237 105.205 32.3126 105.242 32.4015 105.28C32.2357 105.207 32.0773 105.123 31.9248 105.025C31.8836 104.999 31.8436 104.971 31.8037 104.943C31.6408 104.828 32.03 105.123 31.8746 104.998C31.7986 104.937 31.7269 104.871 31.6569 104.803C31.5868 104.735 31.5216 104.663 31.4582 104.589C31.4043 104.526 31.2888 104.367 31.5116 104.662C31.4821 104.623 31.4545 104.582 31.4269 104.542C31.3158 104.38 31.224 104.205 31.1453 104.025C31.1828 104.114 31.2204 104.203 31.2578 104.292C31.1473 104.028 31.0726 103.755 31.0329 103.471C31.0462 103.57 31.0595 103.669 31.0728 103.768C31.0296 103.418 31.0458 103.057 31.0458 102.705C31.0458 102.052 31.0458 101.4 31.0458 100.748C31.0458 98.6177 31.0458 96.4876 31.0458 94.3574C31.0458 91.9378 31.0458 89.5181 31.0458 87.0983C31.0458 85.3624 31.0458 83.6265 31.0458 81.8906C31.0458 81.5799 31.0458 81.2692 31.0458 80.9585C30.6736 81.3306 30.3014 81.7027 29.9291 82.0747C30.6301 82.0757 31.3311 82.0767 32.032 82.0777C33.8051 82.0803 35.5782 82.0828 37.3513 82.0853C39.7018 82.0887 42.0524 82.092 44.403 82.0953C46.8365 82.0988 49.2699 82.1023 51.7034 82.1057C53.725 82.1086 55.7467 82.1115 57.7683 82.1144C58.8835 82.1159 59.9987 82.1175 61.114 82.1191C61.1987 82.1192 61.2836 82.1193 61.3684 82.1195C61.9771 82.1204 62.4851 81.6111 62.4851 81.0033C62.4851 80.3941 61.9771 79.8879 61.3684 79.887C60.6675 79.886 59.9665 79.885 59.2656 79.884C57.4925 79.8815 55.7194 79.879 53.9463 79.8765C51.5957 79.8731 49.2451 79.8698 46.8945 79.8664C44.4611 79.863 42.0277 79.8595 39.5942 79.8561C37.5726 79.8532 35.5509 79.8503 33.5293 79.8474C32.414 79.8459 31.2989 79.8443 30.1836 79.8427C30.0988 79.8425 30.014 79.8424 29.9292 79.8423C29.3204 79.8414 28.8125 80.3507 28.8125 80.9585C28.8125 81.8949 28.8125 82.8313 28.8125 83.7678C28.8125 85.9282 28.8125 88.0886 28.8125 90.249C28.8125 92.66 28.8125 95.0711 28.8125 97.4821C28.8125 99.1704 28.8125 100.859 28.8125 102.547C28.8125 102.816 28.8125 103.085 28.8125 103.354C28.8125 104.407 29.2132 105.366 29.879 106.167C30.5718 107.001 31.6042 107.454 32.6592 107.584C32.9886 107.625 33.3253 107.611 33.6566 107.611C34.25 107.611 34.8434 107.611 35.4368 107.611C37.439 107.611 39.4412 107.611 41.4434 107.611C43.8895 107.611 46.3356 107.611 48.7817 107.611C50.8997 107.611 53.0177 107.611 55.1357 107.611C56.1536 107.611 57.1715 107.611 58.1895 107.611C59.8151 107.611 61.4197 106.663 62.0807 105.152C62.3389 104.562 62.4851 103.961 62.4851 103.312C62.4851 103.188 62.4851 103.063 62.4851 102.939C62.4851 101.443 62.4851 99.9475 62.4851 98.4517C62.4851 96.0884 62.4851 93.7251 62.4851 91.3619C62.4851 89.1058 62.4851 86.8498 62.4851 84.5937C62.4851 83.4195 62.4851 82.2452 62.4851 81.071C62.4851 81.0484 62.4851 81.0258 62.4851 81.0032C62.4851 80.3947 61.9771 79.8869 61.3684 79.8869C60.7597 79.8869 60.2517 80.3949 60.2517 81.0033Z" fill="#191919"/>
<path d="M58.3195 75.3296H33.3254C31.6 75.3296 30.2012 76.7333 30.2012 78.4647V81.1863L61.4438 81.231V78.4647C61.4438 76.7333 60.0449 75.3296 58.3195 75.3296ZM38.0118 79.8233C37.1492 79.8233 36.4497 79.1215 36.4497 78.2558C36.4497 77.3901 37.1492 76.6883 38.0118 76.6883C38.8745 76.6883 39.574 77.3901 39.574 78.2558C39.574 79.1215 38.8745 79.8233 38.0118 79.8233ZM53.6332 79.8233C52.7704 79.8233 52.071 79.1215 52.071 78.2558C52.071 77.3901 52.7704 76.6883 53.6332 76.6883C54.4958 76.6883 55.1952 77.3901 55.1952 78.2558C55.1953 79.1215 54.4958 79.8233 53.6332 79.8233Z" fill="#297D73"/>
<path d="M53.462 78.7227C53.3906 78.7216 53.3205 78.7174 53.2496 78.7099C53.3521 78.7228 53.4547 78.7356 53.5572 78.7485C53.4197 78.7297 53.2887 78.6977 53.1591 78.6509C53.2512 78.6872 53.3433 78.7235 53.4354 78.7599C53.3417 78.7229 53.2531 78.68 53.1667 78.63C53.0915 78.5864 52.9441 78.4663 53.2392 78.6884C53.2003 78.659 53.1643 78.6265 53.1284 78.594C53.0925 78.5615 53.0598 78.526 53.0273 78.4906C53.2646 78.7487 53.1421 78.632 53.0897 78.5584C53.0337 78.4797 52.9898 78.3943 52.9505 78.3076C52.9895 78.3937 53.0283 78.4797 53.0672 78.5658C53.0171 78.4448 52.9828 78.3225 52.9626 78.1942C52.9764 78.29 52.9902 78.3857 53.0039 78.4814C52.9877 78.3485 52.9877 78.2181 53.0039 78.0852C52.9902 78.1809 52.9764 78.2767 52.9626 78.3724C52.9827 78.2441 53.0171 78.1218 53.0672 78.0009C53.0283 78.0869 52.9894 78.1729 52.9505 78.259C52.9902 78.1715 53.0361 78.0888 53.0897 78.0082C53.1365 77.938 53.2652 77.8007 53.0273 78.0761C53.0587 78.0397 53.0936 78.0061 53.1284 77.9726C53.1632 77.9391 53.2013 77.9086 53.2392 77.8783C52.9625 78.0998 53.088 77.9855 53.1667 77.9366C53.251 77.8844 53.3425 77.8435 53.4354 77.8068C53.3433 77.8431 53.2512 77.8794 53.1591 77.9157C53.2887 77.8689 53.4197 77.8369 53.5572 77.8181C53.4547 77.831 53.3522 77.8438 53.2496 77.8567C53.392 77.8416 53.5318 77.8416 53.6742 77.8567C53.5717 77.8439 53.4692 77.831 53.3667 77.8181C53.5041 77.8369 53.6352 77.869 53.7648 77.9157C53.6727 77.8794 53.5806 77.8431 53.4884 77.8068C53.5821 77.8438 53.6707 77.8866 53.7571 77.9366C53.8323 77.9802 53.9798 78.1003 53.6846 77.8783C53.7236 77.9076 53.7596 77.9401 53.7954 77.9726C53.8314 78.0051 53.864 78.0407 53.8966 78.0761C53.6592 77.8179 53.7817 77.9347 53.8341 78.0082C53.8901 78.0868 53.934 78.1723 53.9733 78.259C53.9344 78.1729 53.8955 78.0869 53.8567 78.0009C53.9067 78.1218 53.941 78.2441 53.9612 78.3724C53.9474 78.2767 53.9337 78.1809 53.9199 78.0852C53.9361 78.2181 53.9361 78.3485 53.9199 78.4814C53.9337 78.3857 53.9474 78.29 53.9612 78.1942C53.9411 78.3225 53.9067 78.4448 53.8567 78.5658C53.8955 78.4797 53.9344 78.3937 53.9733 78.3076C53.9337 78.395 53.8877 78.4777 53.8341 78.5584C53.7874 78.6286 53.6587 78.7659 53.8966 78.4906C53.8651 78.5269 53.8302 78.5605 53.7954 78.594C53.7606 78.6275 53.7225 78.658 53.6846 78.6884C53.9613 78.4668 53.8358 78.5811 53.7571 78.63C53.6729 78.6822 53.5813 78.7232 53.4884 78.7599C53.5806 78.7235 53.6727 78.6872 53.7648 78.6509C53.6352 78.6977 53.5041 78.7297 53.3667 78.7485C53.4692 78.7356 53.5717 78.7228 53.6742 78.7099C53.6034 78.7174 53.5333 78.7216 53.462 78.7227C52.8315 78.7322 52.305 79.207 52.305 79.8032C52.305 80.385 52.8313 80.8933 53.462 80.8837C54.7371 80.8645 55.9531 80.0212 56.1848 78.817C56.3093 78.1704 56.2141 77.5305 55.8586 76.9573C55.513 76.4002 54.9622 76.0418 54.3324 75.8147C53.7902 75.6191 53.0825 75.6376 52.5439 75.8318C51.9099 76.0604 51.3845 76.4425 51.04 76.998C50.399 78.0313 50.6325 79.4862 51.642 80.2457C52.1731 80.6453 52.7723 80.8733 53.4619 80.8837C54.0926 80.8933 54.6189 80.385 54.6189 79.8032C54.6189 79.207 54.0924 78.7322 53.462 78.7227Z" fill="#297D73"/>
<path d="M37.8408 78.7227C37.7695 78.7216 37.6994 78.7174 37.6285 78.7099C37.7311 78.7227 37.8336 78.7356 37.9361 78.7485C37.7986 78.7297 37.6676 78.6976 37.538 78.6509C37.6301 78.6872 37.7222 78.7235 37.8144 78.7598C37.7207 78.7229 37.6321 78.68 37.5457 78.63C37.4705 78.5864 37.323 78.4663 37.6182 78.6884C37.5792 78.659 37.5433 78.6265 37.5073 78.594C37.4714 78.5615 37.4388 78.5259 37.4062 78.4905C37.6435 78.7487 37.521 78.6319 37.4686 78.5584C37.4127 78.4797 37.3688 78.3943 37.3295 78.3076C37.3684 78.3937 37.4072 78.4797 37.4461 78.5657C37.396 78.4448 37.3617 78.3225 37.3416 78.1942C37.3553 78.29 37.3691 78.3857 37.3829 78.4814C37.3667 78.3485 37.3667 78.2181 37.3829 78.0852C37.3691 78.1809 37.3553 78.2767 37.3416 78.3724C37.3617 78.2441 37.396 78.1218 37.4461 78.0009C37.4072 78.0869 37.3684 78.1729 37.3295 78.259C37.3691 78.1715 37.415 78.0888 37.4686 78.0082C37.5154 77.938 37.6441 77.8007 37.4062 78.0761C37.4376 78.0397 37.4725 78.0061 37.5073 77.9726C37.5422 77.9391 37.5802 77.9086 37.6182 77.8782C37.3414 78.0998 37.467 77.9855 37.5457 77.9366C37.6299 77.8844 37.7215 77.8435 37.8144 77.8068C37.7222 77.8431 37.6301 77.8794 37.538 77.9157C37.6676 77.8689 37.7986 77.8369 37.9361 77.8181C37.8336 77.831 37.7311 77.8438 37.6285 77.8567C37.7709 77.8416 37.9107 77.8416 38.0531 77.8567C37.9506 77.8439 37.8481 77.831 37.7456 77.8181C37.883 77.8369 38.0141 77.869 38.1437 77.9157C38.0516 77.8794 37.9595 77.8431 37.8673 77.8068C37.961 77.8437 38.0496 77.8866 38.136 77.9366C38.2112 77.9802 38.3587 78.1003 38.0635 77.8782C38.1025 77.9076 38.1385 77.9401 38.1744 77.9726C38.2103 78.0051 38.243 78.0406 38.2755 78.0761C38.0382 77.8179 38.1607 77.9347 38.2131 78.0082C38.269 78.0868 38.3129 78.1723 38.3522 78.259C38.3133 78.1729 38.2745 78.0869 38.2356 78.0009C38.2857 78.1218 38.32 78.2441 38.3401 78.3724C38.3264 78.2767 38.3126 78.1809 38.2988 78.0852C38.315 78.2181 38.315 78.3485 38.2988 78.4814C38.3126 78.3857 38.3264 78.29 38.3401 78.1942C38.32 78.3225 38.2857 78.4448 38.2356 78.5657C38.2745 78.4797 38.3133 78.3937 38.3522 78.3076C38.3126 78.3951 38.2667 78.4777 38.2131 78.5584C38.1663 78.6286 38.0376 78.7659 38.2755 78.4905C38.2441 78.5269 38.2092 78.5605 38.1744 78.594C38.1395 78.6275 38.1015 78.658 38.0635 78.6884C38.3403 78.4668 38.2147 78.5811 38.136 78.63C38.0518 78.6822 37.9602 78.7231 37.8673 78.7598C37.9595 78.7235 38.0516 78.6872 38.1437 78.6509C38.0141 78.6977 37.883 78.7297 37.7456 78.7485C37.8481 78.7356 37.9506 78.7228 38.0531 78.7099C37.9823 78.7174 37.9121 78.7216 37.8408 78.7227C37.2103 78.7322 36.6839 79.207 36.6839 79.8032C36.6839 80.385 37.2101 80.8933 37.8408 80.8837C39.116 80.8645 40.3319 80.0212 40.5637 78.817C40.6882 78.1704 40.593 77.5305 40.2375 76.9573C39.8919 76.4002 39.3411 76.0418 38.7113 75.8147C38.1691 75.6191 37.4614 75.6376 36.9228 75.8318C36.2888 76.0604 35.7635 76.4425 35.4189 76.998C34.7779 78.0312 35.0115 79.4862 36.021 80.2457C36.552 80.6453 37.1511 80.8733 37.8408 80.8837C38.4715 80.8933 38.9977 80.385 38.9977 79.8032C38.9977 79.207 38.4713 78.7322 37.8408 78.7227Z" fill="#297D73"/>
<path d="M58.2245 74.2881C57.3747 74.2881 56.5249 74.2881 55.6751 74.2881C53.6403 74.2881 51.6055 74.2881 49.5708 74.2881C47.123 74.2881 44.6752 74.2881 42.2275 74.2881C40.1386 74.2881 38.0499 74.2881 35.961 74.2881C35.0031 74.2881 34.0452 74.2881 33.0874 74.2881C31.1988 74.2881 29.5417 75.524 28.9855 77.2812C28.8106 77.8337 28.8125 78.4078 28.8125 78.9785C28.8125 79.5439 28.8125 80.1093 28.8125 80.6747C28.8125 80.8278 28.8125 80.981 28.8125 81.1341C28.8125 81.7312 29.3204 82.2276 29.9292 82.2284C30.6301 82.2294 31.3311 82.2304 32.032 82.2314C33.8051 82.2338 35.5782 82.2363 37.3513 82.2388C39.7019 82.2421 42.0525 82.2453 44.403 82.2486C46.8365 82.252 49.2699 82.2554 51.7034 82.2588C53.725 82.2616 55.7467 82.2645 57.7683 82.2673C58.8835 82.2688 59.9987 82.2704 61.114 82.2719C61.1987 82.272 61.2836 82.2722 61.3684 82.2723C61.9771 82.2731 62.4851 81.7739 62.4851 81.1779C62.4851 80.3014 62.4851 79.4247 62.4851 78.5482C62.4851 77.7324 62.2773 76.9237 61.8261 76.2325C61.2526 75.3542 60.3591 74.7073 59.3329 74.4308C58.9757 74.3346 58.5943 74.2911 58.2245 74.2881C57.6157 74.2832 57.1078 74.7896 57.1078 75.3825C57.1078 75.9827 57.6158 76.4719 58.2245 76.4768C58.3632 76.4779 58.5007 76.4867 58.6384 76.5033C58.5394 76.4903 58.4405 76.4772 58.3415 76.4642C58.6251 76.503 58.8985 76.5762 59.1627 76.6844C59.0738 76.6477 58.9849 76.6109 58.896 76.5741C59.0618 76.6451 59.2202 76.728 59.3727 76.8235C59.4139 76.8493 59.4539 76.8769 59.4939 76.9046C59.6567 77.0174 59.2675 76.7276 59.4229 76.8499C59.4989 76.9098 59.5706 76.9748 59.6407 77.0413C59.7107 77.1078 59.776 77.179 59.8394 77.2515C59.8932 77.3131 60.0087 77.4689 59.786 77.18C59.8154 77.2182 59.8431 77.2577 59.8707 77.2972C59.9818 77.4563 60.0736 77.6277 60.1523 77.8041C60.1147 77.717 60.0772 77.6298 60.0397 77.5427C60.1502 77.8013 60.225 78.0691 60.2646 78.3468C60.2514 78.2499 60.238 78.1529 60.2247 78.0559C60.2916 78.587 60.2518 79.1408 60.2518 79.6743C60.2518 80.1755 60.2518 80.6767 60.2518 81.1779C60.624 80.8131 60.9962 80.4483 61.3684 80.0835C60.6675 80.0826 59.9665 80.0816 59.2656 80.0806C57.4925 80.0781 55.7194 80.0757 53.9464 80.0732C51.5958 80.0699 49.2452 80.0666 46.8946 80.0633C44.4612 80.0599 42.0278 80.0565 39.5943 80.0532C37.5727 80.0504 35.551 80.0475 33.5293 80.0447C32.4141 80.0432 31.2989 80.0416 30.1837 80.04C30.0989 80.0399 30.0141 80.0398 29.9292 80.0397C30.3015 80.4044 30.6737 80.7692 31.0459 81.134C31.0459 80.64 31.0459 80.1461 31.0459 79.6521C31.0459 79.1258 31.007 78.5798 31.0729 78.0559C31.0597 78.1528 31.0464 78.2498 31.033 78.3468C31.0727 78.0691 31.1475 77.8013 31.2579 77.5426C31.2204 77.6298 31.1829 77.7169 31.1454 77.8041C31.2179 77.6416 31.3025 77.4865 31.4 77.3372C31.4263 77.2968 31.4546 77.2577 31.4828 77.2186C31.598 77.059 31.3022 77.4404 31.4271 77.2882C31.4883 77.2138 31.5546 77.1436 31.6225 77.075C31.6905 77.0064 31.7632 76.9425 31.8372 76.8804C31.9001 76.8277 32.0593 76.7148 31.7644 76.9328C31.8034 76.904 31.8438 76.8769 31.8841 76.8499C32.0466 76.7411 32.2216 76.6512 32.4017 76.5741C32.3128 76.6109 32.2239 76.6477 32.1349 76.6844C32.3991 76.5762 32.6726 76.503 32.9561 76.4642C32.8572 76.4772 32.7582 76.4902 32.6593 76.5033C32.9887 76.4635 33.3254 76.4768 33.6567 76.4768C34.2501 76.4768 34.8435 76.4768 35.437 76.4768C37.4391 76.4768 39.4413 76.4768 41.4435 76.4768C43.8896 76.4768 46.3357 76.4768 48.7818 76.4768C50.8998 76.4768 53.0178 76.4768 55.1358 76.4768C56.1537 76.4768 57.1716 76.4768 58.1896 76.4768C58.2012 76.4768 58.2129 76.4768 58.2246 76.4768C58.8333 76.4768 59.3412 75.979 59.3412 75.3825C59.3412 74.7859 58.8332 74.2881 58.2245 74.2881Z" fill="#297D73"/>
<path d="M40.693 88.5207C40.693 88.7124 40.5065 88.8679 40.2765 88.8679H36.9439C36.7139 88.8679 36.5273 88.7124 36.5273 88.5207V85.7436C36.5273 85.5519 36.7139 85.3965 36.9439 85.3965H40.2765C40.5065 85.3965 40.693 85.5519 40.693 85.7436V88.5207V88.5207Z" fill="#55D6C6"/>
<path d="M38.9533 88.9917C38.9524 89.0061 38.9515 89.0205 38.9506 89.0349C38.9622 88.9481 38.9739 88.8613 38.9855 88.7745C38.982 88.8024 38.9752 88.8295 38.965 88.8558C38.9979 88.7778 39.0308 88.6998 39.0637 88.6218C39.0201 88.7087 39.0499 88.6773 39.153 88.5278C39.0526 88.655 39.3658 88.3994 39.2181 88.4672C39.296 88.4343 39.3739 88.4014 39.4519 88.3685C39.4256 88.3786 39.3985 88.3855 39.3706 88.389C39.4573 88.3773 39.5441 88.3657 39.6308 88.354C39.1658 88.3829 38.6917 88.3567 38.226 88.3567C37.7496 88.3567 37.2645 88.3835 36.7888 88.354C36.8755 88.3657 36.9622 88.3773 37.0489 88.389C37.021 88.3855 36.9939 88.3786 36.9677 88.3685C37.0456 88.4014 37.1235 88.4343 37.2015 88.4672C37.1146 88.4236 37.1459 88.4534 37.2953 88.5566C37.1681 88.4563 37.4236 88.7696 37.3558 88.6218C37.3887 88.6998 37.4216 88.7778 37.4545 88.8558C37.4443 88.8296 37.4375 88.8025 37.434 88.7745C37.4456 88.8613 37.4573 88.9481 37.469 89.0349C37.44 88.5699 37.4662 88.0958 37.4662 87.6302C37.4662 87.1537 37.4394 86.6686 37.469 86.1929C37.4573 86.2797 37.4456 86.3665 37.434 86.4533C37.4375 86.4253 37.4443 86.3982 37.4545 86.372C37.4216 86.45 37.3887 86.5279 37.3558 86.606C37.3994 86.5191 37.3696 86.5504 37.2665 86.6999C37.3668 86.5727 37.0537 86.8284 37.2014 86.7606C37.1235 86.7935 37.0456 86.8264 36.9676 86.8593C36.9939 86.8491 37.021 86.8423 37.0489 86.8388C36.9622 86.8504 36.8754 86.8621 36.7887 86.8738C37.2537 86.8449 37.7278 86.8711 38.1935 86.8711C38.6699 86.8711 39.155 86.8442 39.6307 86.8738C39.544 86.8621 39.4573 86.8504 39.3706 86.8388C39.3985 86.8423 39.4256 86.8491 39.4518 86.8593C39.3739 86.8264 39.296 86.7935 39.218 86.7606C39.3049 86.8042 39.2736 86.7744 39.1242 86.6712C39.2514 86.7715 38.9959 86.4582 39.0637 86.606C39.0308 86.528 38.9979 86.45 38.965 86.372C38.9752 86.3982 38.982 86.4253 38.9855 86.4533C38.9739 86.3665 38.9622 86.2797 38.9506 86.1929C38.9795 86.6579 38.9533 87.132 38.9533 87.5976C38.9533 88.0623 38.9533 88.527 38.9533 88.9917C38.9533 89.5256 39.3985 89.9712 39.932 89.9712C40.4655 89.9712 40.9107 89.5256 40.9107 88.9917C40.9107 88.18 40.9107 87.3684 40.9107 86.5567C40.9107 86.4505 40.9107 86.3443 40.9107 86.2381C40.9107 85.5113 40.3031 84.9121 39.5795 84.9121C39.2252 84.9121 38.8709 84.9121 38.5166 84.9121C38.0345 84.9121 37.5524 84.9121 37.0703 84.9121C36.882 84.9121 36.7196 84.9138 36.5286 84.9498C35.9164 85.0651 35.5088 85.6693 35.5088 86.2675C35.5088 87.12 35.5088 87.9726 35.5088 88.8251C35.5088 89.0113 35.509 89.1951 35.5669 89.3765C35.7483 89.9448 36.2687 90.3156 36.8634 90.3156C37.2099 90.3156 37.5564 90.3156 37.9029 90.3156C38.3576 90.3156 38.8122 90.3156 39.2669 90.3156C39.3711 90.3156 39.4754 90.3156 39.5796 90.3156C39.8244 90.3156 40.0696 90.2481 40.2783 90.1202C40.6821 89.8728 40.8821 89.4536 40.9107 88.9917C40.9439 88.4583 40.4405 88.0122 39.932 88.0122C39.3734 88.0122 38.9863 88.459 38.9533 88.9917Z" fill="#55D6C6"/>
<path d="M47.9049 88.5207C47.9049 88.7125 47.7183 88.8679 47.4883 88.8679H44.1558C43.9258 88.8679 43.7393 88.7125 43.7393 88.5207V85.7436C43.7393 85.5519 43.9258 85.3965 44.1558 85.3965H47.4883C47.7183 85.3965 47.9049 85.5519 47.9049 85.7436V88.5207Z" fill="#55D6C6"/>
<path d="M46.673 88.9917C46.6721 89.0061 46.6712 89.0205 46.6703 89.0349C46.682 88.9481 46.6936 88.8613 46.7053 88.7745C46.7018 88.8024 46.695 88.8295 46.6848 88.8558C46.7177 88.7778 46.7506 88.6998 46.7834 88.6218C46.7398 88.7087 46.7696 88.6774 46.8727 88.5279C46.7724 88.6551 47.0855 88.3994 46.9377 88.4672C47.0157 88.4343 47.0936 88.4014 47.1716 88.3685C47.1453 88.3786 47.1182 88.3855 47.0903 88.389C47.177 88.3773 47.2637 88.3657 47.3505 88.354C46.8855 88.3829 46.4115 88.3567 45.9457 88.3567C45.4693 88.3567 44.9843 88.3835 44.5085 88.354C44.5952 88.3657 44.682 88.3773 44.7687 88.389C44.7407 88.3855 44.7136 88.3786 44.6874 88.3685C44.7653 88.4014 44.8433 88.4343 44.9212 88.4672C44.8343 88.4236 44.8656 88.4534 45.015 88.5566C44.8878 88.4563 45.1433 88.7697 45.0755 88.6219C45.1084 88.6999 45.1413 88.7778 45.1742 88.8558C45.164 88.8296 45.1572 88.8025 45.1537 88.7745C45.1653 88.8613 45.177 88.9481 45.1886 89.0349C45.1597 88.5699 45.1859 88.0958 45.1859 87.6302C45.1859 87.1537 45.1591 86.6686 45.1886 86.1929C45.177 86.2797 45.1653 86.3665 45.1537 86.4533C45.1572 86.4253 45.164 86.3982 45.1742 86.372C45.1413 86.45 45.1084 86.5279 45.0755 86.606C45.1191 86.5191 45.0893 86.5504 44.9862 86.6999C45.0866 86.5727 44.7734 86.8284 44.9212 86.7606C44.8432 86.7935 44.7653 86.8264 44.6873 86.8593C44.7136 86.8491 44.7407 86.8423 44.7686 86.8388C44.6819 86.8504 44.5952 86.8621 44.5085 86.8738C44.9735 86.8449 45.4475 86.8711 45.9132 86.8711C46.3896 86.8711 46.8747 86.8442 47.3504 86.8738C47.2637 86.8621 47.177 86.8504 47.0902 86.8388C47.1181 86.8423 47.1453 86.8491 47.1715 86.8593C47.0935 86.8264 47.0156 86.7935 46.9377 86.7606C47.0245 86.8042 46.9933 86.7744 46.8439 86.6712C46.9711 86.7715 46.7156 86.4582 46.7834 86.606C46.7505 86.528 46.7176 86.45 46.6847 86.372C46.6949 86.3982 46.7017 86.4253 46.7052 86.4533C46.6936 86.3665 46.682 86.2797 46.6703 86.1929C46.6992 86.6579 46.673 87.132 46.673 87.5976C46.673 88.0623 46.673 88.527 46.673 88.9917C46.673 89.5256 47.1182 89.9712 47.6518 89.9712C48.1853 89.9712 48.6305 89.5256 48.6305 88.9917C48.6305 88.18 48.6305 87.3684 48.6305 86.5567C48.6305 86.4505 48.6305 86.3443 48.6305 86.2381C48.6305 85.5113 48.0229 84.9121 47.2992 84.9121C46.945 84.9121 46.5907 84.9121 46.2364 84.9121C45.7543 84.9121 45.2722 84.9121 44.7901 84.9121C44.6018 84.9121 44.4394 84.9138 44.2483 84.9498C43.6362 85.0651 43.2285 85.6693 43.2285 86.2675C43.2285 87.12 43.2285 87.9726 43.2285 88.8251C43.2285 89.0113 43.2287 89.1951 43.2867 89.3766C43.4681 89.9449 43.9884 90.3156 44.5831 90.3156C44.9296 90.3156 45.2761 90.3156 45.6226 90.3156C46.0773 90.3156 46.5319 90.3156 46.9866 90.3156C47.0908 90.3156 47.195 90.3156 47.2992 90.3156C47.5441 90.3156 47.7893 90.248 47.998 90.1202C48.4018 89.8729 48.6018 89.4535 48.6305 88.9917C48.6636 88.4582 48.1602 88.0122 47.6517 88.0122C47.0932 88.0122 46.7061 88.459 46.673 88.9917Z" fill="#55D6C6"/>
<path d="M55.5426 88.5207C55.5426 88.7125 55.3561 88.8679 55.126 88.8679H51.7936C51.5635 88.8679 51.377 88.7125 51.377 88.5207V85.7436C51.377 85.5519 51.5635 85.3965 51.7936 85.3965H55.126C55.3561 85.3965 55.5426 85.5519 55.5426 85.7436V88.5207Z" fill="#55D6C6"/>
<path d="M54.3918 88.9917C54.3909 89.0061 54.39 89.0205 54.3891 89.0349C54.4007 88.9481 54.4124 88.8613 54.424 88.7745C54.4205 88.8024 54.4137 88.8295 54.4035 88.8558C54.4364 88.7778 54.4693 88.6998 54.5022 88.6218C54.4586 88.7087 54.4883 88.6774 54.5914 88.5279C54.4911 88.6551 54.8043 88.3994 54.6565 88.4672C54.7344 88.4343 54.8123 88.4014 54.8903 88.3685C54.864 88.3786 54.8369 88.3855 54.809 88.389C54.8957 88.3773 54.9825 88.3657 55.0692 88.354C54.6042 88.3829 54.1302 88.3567 53.6645 88.3567C53.188 88.3567 52.7029 88.3835 52.2272 88.354C52.3139 88.3657 52.4007 88.3773 52.4874 88.389C52.4595 88.3855 52.4324 88.3786 52.4061 88.3685C52.4841 88.4014 52.562 88.4343 52.6399 88.4672C52.5531 88.4236 52.5844 88.4534 52.7337 88.5566C52.6065 88.4563 52.8621 88.7697 52.7943 88.6219C52.8272 88.6999 52.86 88.7778 52.8929 88.8558C52.8827 88.8296 52.8759 88.8025 52.8724 88.7745C52.884 88.8613 52.8957 88.9481 52.9073 89.0349C52.8785 88.5699 52.9047 88.0959 52.9047 87.6302C52.9047 87.1537 52.8778 86.6686 52.9073 86.1929C52.8957 86.2797 52.884 86.3665 52.8724 86.4533C52.8759 86.4253 52.8827 86.3982 52.8929 86.372C52.86 86.45 52.8271 86.5279 52.7943 86.606C52.8379 86.5191 52.8081 86.5504 52.705 86.6999C52.8053 86.5727 52.4921 86.8284 52.6399 86.7606C52.562 86.7935 52.4841 86.8264 52.4061 86.8593C52.4324 86.8491 52.4595 86.8423 52.4874 86.8388C52.4007 86.8504 52.314 86.8621 52.2272 86.8738C52.6922 86.8449 53.1662 86.8711 53.6319 86.8711C54.1084 86.8711 54.5934 86.8442 55.0692 86.8738C54.9825 86.8621 54.8958 86.8504 54.809 86.8388C54.8369 86.8423 54.8641 86.8491 54.8903 86.8593C54.8123 86.8264 54.7344 86.7935 54.6565 86.7606C54.7433 86.8042 54.712 86.7744 54.5627 86.6712C54.6898 86.7715 54.4343 86.4582 54.5022 86.606C54.4693 86.528 54.4364 86.45 54.4035 86.372C54.4137 86.3982 54.4205 86.4253 54.424 86.4533C54.4124 86.3665 54.4007 86.2797 54.3891 86.1929C54.418 86.6579 54.3918 87.132 54.3918 87.5976C54.3918 88.0623 54.3918 88.527 54.3918 88.9917C54.3918 89.5256 54.8369 89.9712 55.3705 89.9712C55.904 89.9712 56.3492 89.5256 56.3492 88.9917C56.3492 88.18 56.3492 87.3684 56.3492 86.5567C56.3492 86.4505 56.3492 86.3443 56.3492 86.2381C56.3492 85.5113 55.7416 84.9121 55.018 84.9121C54.6637 84.9121 54.3094 84.9121 53.9551 84.9121C53.473 84.9121 52.9909 84.9121 52.5089 84.9121C52.3206 84.9121 52.1582 84.9138 51.9671 84.9498C51.3549 85.0651 50.9473 85.6693 50.9473 86.2675C50.9473 87.12 50.9473 87.9726 50.9473 88.8251C50.9473 89.0113 50.9475 89.1951 51.0054 89.3766C51.1868 89.9449 51.7072 90.3156 52.3019 90.3156C52.6484 90.3156 52.9948 90.3156 53.3413 90.3156C53.796 90.3156 54.2507 90.3156 54.7053 90.3156C54.8095 90.3156 54.9138 90.3156 55.018 90.3156C55.2629 90.3156 55.508 90.248 55.7168 90.1202C56.1206 89.8729 56.3205 89.4535 56.3492 88.9917C56.3824 88.4582 55.8789 88.0122 55.3705 88.0122C54.8119 88.0122 54.4249 88.459 54.3918 88.9917Z" fill="#55D6C6"/>
<path d="M40.693 96.4704C40.693 96.6811 40.5065 96.8522 40.2765 96.8522H36.9439C36.7139 96.8522 36.5273 96.6811 36.5273 96.4704V93.4155C36.5273 93.2046 36.7139 93.0337 36.9439 93.0337H40.2765C40.5065 93.0337 40.693 93.2046 40.693 93.4155V96.4704V96.4704Z" fill="#55D6C6"/>
<path d="M38.9533 96.7109C38.9524 96.7253 38.9515 96.7397 38.9506 96.7541C38.9622 96.6673 38.9739 96.5805 38.9855 96.4937C38.982 96.5216 38.9752 96.5487 38.965 96.575C38.9979 96.4969 39.0308 96.419 39.0637 96.341C39.0201 96.4278 39.0499 96.3965 39.153 96.247C39.0527 96.3742 39.3658 96.1185 39.2181 96.1864C39.296 96.1535 39.3739 96.1205 39.4519 96.0877C39.4256 96.0979 39.3985 96.1047 39.3706 96.1082C39.4573 96.0965 39.5441 96.0849 39.6308 96.0732C39.1658 96.1021 38.6917 96.0759 38.226 96.0759C37.7496 96.0759 37.2645 96.1028 36.7888 96.0732C36.8755 96.0849 36.9622 96.0965 37.0489 96.1082C37.021 96.1047 36.9939 96.0979 36.9677 96.0877C37.0456 96.1206 37.1235 96.1535 37.2015 96.1864C37.1146 96.1428 37.1459 96.1726 37.2953 96.2758C37.1681 96.1754 37.4236 96.4888 37.3558 96.341C37.3887 96.419 37.4216 96.4969 37.4545 96.575C37.4443 96.5487 37.4375 96.5216 37.434 96.4937C37.4456 96.5805 37.4573 96.6673 37.469 96.7541C37.44 96.2891 37.4662 95.815 37.4662 95.3494C37.4662 94.8729 37.4394 94.3878 37.469 93.9121C37.4573 93.9989 37.4456 94.0857 37.434 94.1725C37.4375 94.1445 37.4443 94.1174 37.4545 94.0912C37.4216 94.1692 37.3887 94.2471 37.3558 94.3251C37.3994 94.2383 37.3696 94.2696 37.2665 94.4191C37.3669 94.2919 37.0537 94.5476 37.2014 94.4798C37.1235 94.5127 37.0456 94.5456 36.9676 94.5785C36.9939 94.5684 37.021 94.5615 37.0489 94.558C36.9622 94.5697 36.8754 94.5813 36.7887 94.593C37.2537 94.5641 37.7278 94.5903 38.1935 94.5903C38.6699 94.5903 39.155 94.5635 39.6307 94.593C39.544 94.5813 39.4573 94.5697 39.3706 94.558C39.3985 94.5615 39.4256 94.5684 39.4518 94.5785C39.3739 94.5456 39.296 94.5127 39.218 94.4798C39.3049 94.5234 39.2736 94.4936 39.1242 94.3904C39.2514 94.4906 38.9959 94.1773 39.0637 94.3251C39.0308 94.2471 38.9979 94.1692 38.965 94.0912C38.9752 94.1175 38.982 94.1445 38.9855 94.1725C38.9739 94.0857 38.9622 93.9989 38.9506 93.9121C38.9795 94.3771 38.9533 94.8512 38.9533 95.3168C38.9533 95.7815 38.9533 96.2462 38.9533 96.7109C38.9533 97.2449 39.3985 97.6904 39.932 97.6904C40.4655 97.6904 40.9107 97.2449 40.9107 96.7109C40.9107 95.8993 40.9107 95.0876 40.9107 94.276C40.9107 94.1697 40.9107 94.0635 40.9107 93.9573C40.9107 93.2305 40.3032 92.6313 39.5795 92.6313C39.2252 92.6313 38.8709 92.6313 38.5166 92.6313C38.0345 92.6313 37.5524 92.6313 37.0703 92.6313C36.882 92.6313 36.7196 92.633 36.5286 92.669C35.9164 92.7842 35.5088 93.3885 35.5088 93.9867C35.5088 94.8392 35.5088 95.6918 35.5088 96.5443C35.5088 96.7304 35.509 96.9143 35.5669 97.0958C35.7484 97.664 36.2687 98.0349 36.8634 98.0349C37.2099 98.0349 37.5564 98.0349 37.9029 98.0349C38.3576 98.0349 38.8122 98.0349 39.2669 98.0349C39.3711 98.0349 39.4754 98.0349 39.5796 98.0349C39.8244 98.0349 40.0696 97.9673 40.2783 97.8394C40.6821 97.592 40.882 97.1728 40.9107 96.711C40.9439 96.1775 40.4405 95.7315 39.932 95.7315C39.3734 95.7314 38.9863 96.1782 38.9533 96.7109Z" fill="#55D6C6"/>
<path d="M47.9049 96.4704C47.9049 96.6812 47.7183 96.8522 47.4883 96.8522H44.1558C43.9258 96.8522 43.7393 96.6812 43.7393 96.4704V93.4155C43.7393 93.2046 43.9258 93.0337 44.1558 93.0337H47.4883C47.7183 93.0337 47.9049 93.2046 47.9049 93.4155V96.4704Z" fill="#55D6C6"/>
<path d="M46.673 96.7109C46.6721 96.7253 46.6712 96.7397 46.6703 96.7541C46.682 96.6673 46.6936 96.5805 46.7053 96.4937C46.7018 96.5216 46.6949 96.5487 46.6848 96.575C46.7177 96.497 46.7506 96.419 46.7834 96.341C46.7398 96.4278 46.7696 96.3965 46.8727 96.247C46.7724 96.3742 47.0855 96.1186 46.9377 96.1864C47.0157 96.1535 47.0936 96.1205 47.1716 96.0877C47.1453 96.0979 47.1182 96.1047 47.0903 96.1082C47.177 96.0965 47.2637 96.0849 47.3505 96.0732C46.8855 96.1021 46.4115 96.0759 45.9457 96.0759C45.4693 96.0759 44.9843 96.1028 44.5085 96.0732C44.5952 96.0849 44.682 96.0965 44.7687 96.1082C44.7407 96.1047 44.7136 96.0979 44.6874 96.0877C44.7653 96.1206 44.8433 96.1535 44.9212 96.1864C44.8344 96.1428 44.8656 96.1726 45.015 96.2758C44.8878 96.1755 45.1433 96.4888 45.0755 96.341C45.1084 96.419 45.1413 96.497 45.1742 96.575C45.164 96.5487 45.1572 96.5216 45.1537 96.4937C45.1653 96.5805 45.177 96.6673 45.1886 96.7541C45.1597 96.2891 45.1859 95.815 45.1859 95.3494C45.1859 94.8729 45.1591 94.3878 45.1886 93.9121C45.177 93.9989 45.1653 94.0857 45.1537 94.1725C45.1572 94.1446 45.164 94.1174 45.1742 94.0912C45.1413 94.1692 45.1084 94.2472 45.0755 94.3252C45.1191 94.2383 45.0893 94.2696 44.9862 94.4191C45.0866 94.2919 44.7734 94.5476 44.9212 94.4798C44.8432 94.5127 44.7653 94.5456 44.6873 94.5785C44.7136 94.5684 44.7407 94.5615 44.7686 94.558C44.6819 94.5697 44.5952 94.5813 44.5085 94.593C44.9735 94.5641 45.4475 94.5903 45.9132 94.5903C46.3896 94.5903 46.8747 94.5635 47.3504 94.593C47.2637 94.5813 47.177 94.5697 47.0902 94.558C47.1181 94.5615 47.1453 94.5684 47.1715 94.5785C47.0935 94.5456 47.0156 94.5127 46.9377 94.4798C47.0245 94.5234 46.9933 94.4936 46.8439 94.3904C46.9711 94.4907 46.7156 94.1774 46.7834 94.3252C46.7505 94.2472 46.7176 94.1692 46.6847 94.0912C46.6949 94.1175 46.7017 94.1446 46.7052 94.1725C46.6936 94.0857 46.682 93.9989 46.6703 93.9121C46.6992 94.3771 46.673 94.8512 46.673 95.3168C46.673 95.7815 46.673 96.2462 46.673 96.7109C46.673 97.2449 47.1182 97.6904 47.6518 97.6904C48.1853 97.6904 48.6305 97.2449 48.6305 96.7109C48.6305 95.8993 48.6305 95.0876 48.6305 94.276C48.6305 94.1697 48.6305 94.0635 48.6305 93.9573C48.6305 93.2305 48.0229 92.6313 47.2992 92.6313C46.945 92.6313 46.5907 92.6313 46.2364 92.6313C45.7543 92.6313 45.2722 92.6313 44.7901 92.6313C44.6018 92.6313 44.4394 92.633 44.2483 92.669C43.6362 92.7843 43.2285 93.3885 43.2285 93.9867C43.2285 94.8392 43.2285 95.6918 43.2285 96.5443C43.2285 96.7305 43.2287 96.9143 43.2867 97.0958C43.4681 97.6641 43.9884 98.0349 44.5831 98.0349C44.9296 98.0349 45.2761 98.0349 45.6226 98.0349C46.0773 98.0349 46.5319 98.0349 46.9866 98.0349C47.0908 98.0349 47.195 98.0349 47.2992 98.0349C47.5441 98.0349 47.7893 97.9673 47.998 97.8394C48.4018 97.5921 48.6018 97.1728 48.6305 96.711C48.6636 96.1775 48.1602 95.7315 47.6517 95.7315C47.0932 95.7314 46.7061 96.1782 46.673 96.7109Z" fill="#55D6C6"/>
<path d="M55.5426 96.4704C55.5426 96.6812 55.3561 96.8522 55.126 96.8522H51.7936C51.5635 96.8522 51.377 96.6812 51.377 96.4704V93.4155C51.377 93.2046 51.5635 93.0337 51.7936 93.0337H55.126C55.3561 93.0337 55.5426 93.2046 55.5426 93.4155V96.4704Z" fill="#55D6C6"/>
<path d="M54.3918 96.7109C54.3909 96.7253 54.39 96.7397 54.3891 96.7541C54.4007 96.6673 54.4124 96.5805 54.424 96.4937C54.4205 96.5216 54.4137 96.5487 54.4035 96.575C54.4364 96.497 54.4693 96.419 54.5022 96.341C54.4586 96.4278 54.4883 96.3965 54.5914 96.247C54.4911 96.3742 54.8043 96.1186 54.6565 96.1864C54.7344 96.1535 54.8123 96.1205 54.8903 96.0877C54.864 96.0979 54.8369 96.1047 54.809 96.1082C54.8957 96.0965 54.9825 96.0849 55.0692 96.0732C54.6042 96.1021 54.1302 96.0759 53.6645 96.0759C53.188 96.0759 52.7029 96.1028 52.2272 96.0732C52.3139 96.0849 52.4007 96.0965 52.4874 96.1082C52.4595 96.1047 52.4324 96.0979 52.4061 96.0877C52.4841 96.1206 52.562 96.1535 52.6399 96.1864C52.5531 96.1428 52.5844 96.1726 52.7337 96.2758C52.6065 96.1755 52.8621 96.4888 52.7943 96.341C52.8272 96.419 52.86 96.497 52.8929 96.575C52.8827 96.5487 52.8759 96.5216 52.8724 96.4937C52.884 96.5805 52.8957 96.6673 52.9073 96.7541C52.8785 96.2891 52.9047 95.815 52.9047 95.3494C52.9047 94.8729 52.8778 94.3878 52.9073 93.9121C52.8957 93.9989 52.884 94.0857 52.8724 94.1725C52.8759 94.1446 52.8827 94.1174 52.8929 94.0912C52.86 94.1692 52.8271 94.2472 52.7943 94.3252C52.8379 94.2383 52.8081 94.2696 52.705 94.4191C52.8053 94.2919 52.4921 94.5476 52.6399 94.4798C52.562 94.5127 52.4841 94.5456 52.4061 94.5785C52.4324 94.5684 52.4595 94.5615 52.4874 94.558C52.4007 94.5697 52.314 94.5813 52.2272 94.593C52.6922 94.5641 53.1662 94.5903 53.6319 94.5903C54.1084 94.5903 54.5934 94.5635 55.0692 94.593C54.9825 94.5813 54.8958 94.5697 54.809 94.558C54.8369 94.5615 54.8641 94.5684 54.8903 94.5785C54.8123 94.5456 54.7344 94.5127 54.6565 94.4798C54.7433 94.5234 54.712 94.4936 54.5627 94.3904C54.6898 94.4907 54.4343 94.1774 54.5022 94.3252C54.4693 94.2472 54.4364 94.1692 54.4035 94.0912C54.4137 94.1175 54.4205 94.1446 54.424 94.1725C54.4124 94.0857 54.4007 93.9989 54.3891 93.9121C54.418 94.3771 54.3918 94.8512 54.3918 95.3168C54.3918 95.7815 54.3918 96.2462 54.3918 96.7109C54.3918 97.2449 54.8369 97.6904 55.3705 97.6904C55.904 97.6904 56.3492 97.2449 56.3492 96.7109C56.3492 95.8993 56.3492 95.0876 56.3492 94.276C56.3492 94.1697 56.3492 94.0635 56.3492 93.9573C56.3492 93.2305 55.7416 92.6313 55.018 92.6313C54.6637 92.6313 54.3094 92.6313 53.9551 92.6313C53.473 92.6313 52.9909 92.6313 52.5089 92.6313C52.3206 92.6313 52.1582 92.633 51.9671 92.669C51.3549 92.7843 50.9473 93.3885 50.9473 93.9867C50.9473 94.8392 50.9473 95.6918 50.9473 96.5443C50.9473 96.7305 50.9475 96.9143 51.0054 97.0958C51.1868 97.6641 51.7072 98.0349 52.3019 98.0349C52.6484 98.0349 52.9948 98.0349 53.3413 98.0349C53.796 98.0349 54.2507 98.0349 54.7053 98.0349C54.8095 98.0349 54.9138 98.0349 55.018 98.0349C55.2629 98.0349 55.508 97.9673 55.7168 97.8394C56.1206 97.5921 56.3205 97.1728 56.3492 96.711C56.3824 96.1775 55.8789 95.7315 55.3705 95.7315C54.8119 95.7314 54.4249 96.1782 54.3918 96.7109Z" fill="#55D6C6"/>
<path d="M40.693 103.682C40.693 103.893 40.5065 104.064 40.2765 104.064H36.9439C36.7139 104.064 36.5273 103.893 36.5273 103.682V100.627C36.5273 100.416 36.7139 100.246 36.9439 100.246H40.2765C40.5065 100.246 40.693 100.416 40.693 100.627V103.682V103.682Z" fill="#55D6C6"/>
<path d="M38.9533 103.659C38.9524 103.673 38.9515 103.687 38.9506 103.702C38.9622 103.615 38.9739 103.528 38.9855 103.441C38.982 103.469 38.9752 103.496 38.965 103.523C38.9979 103.445 39.0308 103.367 39.0637 103.289C39.0201 103.376 39.0499 103.344 39.153 103.195C39.0527 103.322 39.3658 103.066 39.2181 103.134C39.296 103.101 39.3739 103.068 39.4519 103.035C39.4256 103.046 39.3985 103.052 39.3706 103.056C39.4573 103.044 39.5441 103.033 39.6308 103.021C39.1658 103.05 38.6917 103.024 38.226 103.024C37.7496 103.024 37.2645 103.051 36.7888 103.021C36.8755 103.033 36.9622 103.044 37.0489 103.056C37.021 103.052 36.9939 103.046 36.9677 103.035C37.0456 103.068 37.1235 103.101 37.2015 103.134C37.1146 103.091 37.1459 103.12 37.2953 103.224C37.1681 103.123 37.4236 103.437 37.3558 103.289C37.3887 103.367 37.4216 103.445 37.4545 103.523C37.4443 103.496 37.4375 103.469 37.434 103.441C37.4456 103.528 37.4573 103.615 37.469 103.702C37.44 103.237 37.4662 102.763 37.4662 102.297C37.4662 101.821 37.4394 101.336 37.469 100.86C37.4573 100.947 37.4456 101.033 37.434 101.12C37.4375 101.092 37.4443 101.065 37.4545 101.039C37.4216 101.117 37.3887 101.195 37.3558 101.273C37.3994 101.186 37.3696 101.217 37.2665 101.367C37.3668 101.24 37.0537 101.495 37.2014 101.428C37.1235 101.46 37.0456 101.493 36.9676 101.526C36.9939 101.516 37.021 101.509 37.0489 101.506C36.9622 101.517 36.8754 101.529 36.7887 101.541C37.2537 101.512 37.7278 101.538 38.1935 101.538C38.6699 101.538 39.155 101.511 39.6307 101.541C39.544 101.529 39.4573 101.517 39.3706 101.506C39.3985 101.509 39.4256 101.516 39.4518 101.526C39.3739 101.493 39.296 101.46 39.218 101.428C39.3049 101.471 39.2736 101.441 39.1242 101.338C39.2514 101.438 38.9959 101.125 39.0637 101.273C39.0308 101.195 38.9979 101.117 38.965 101.039C38.9752 101.065 38.982 101.092 38.9855 101.12C38.9739 101.033 38.9622 100.947 38.9506 100.86C38.9795 101.325 38.9533 101.799 38.9533 102.265C38.9533 102.729 38.9533 103.194 38.9533 103.659C38.9533 104.193 39.3985 104.638 39.932 104.638C40.4655 104.638 40.9107 104.193 40.9107 103.659C40.9107 102.847 40.9107 102.035 40.9107 101.224C40.9107 101.118 40.9107 101.011 40.9107 100.905C40.9107 100.178 40.3032 99.5791 39.5795 99.5791C39.2252 99.5791 38.8709 99.5791 38.5166 99.5791C38.0345 99.5791 37.5524 99.5791 37.0703 99.5791C36.882 99.5791 36.7196 99.5808 36.5286 99.6167C35.9163 99.732 35.5088 100.336 35.5088 100.934C35.5088 101.787 35.5088 102.64 35.5088 103.492C35.5088 103.678 35.509 103.862 35.5669 104.044C35.7484 104.612 36.2687 104.983 36.8634 104.983C37.2099 104.983 37.5564 104.983 37.9029 104.983C38.3576 104.983 38.8122 104.983 39.2669 104.983C39.3711 104.983 39.4754 104.983 39.5796 104.983C39.8244 104.983 40.0696 104.915 40.2783 104.787C40.6821 104.54 40.882 104.121 40.9107 103.659C40.9439 103.125 40.4405 102.679 39.932 102.679C39.3734 102.679 38.9863 103.126 38.9533 103.659Z" fill="#55D6C6"/>
<path d="M47.9049 104.454C47.9049 104.665 47.7183 104.836 47.4883 104.836H44.1558C43.9258 104.836 43.7393 104.665 43.7393 104.454V101.399C43.7393 101.189 43.9258 101.018 44.1558 101.018H47.4883C47.7183 101.018 47.9049 101.189 47.9049 101.399V104.454Z" fill="#55D6C6"/>
<path d="M46.673 103.659C46.6721 103.673 46.6712 103.687 46.6703 103.702C46.682 103.615 46.6936 103.528 46.7053 103.441C46.7018 103.469 46.6949 103.496 46.6848 103.523C46.7177 103.445 46.7506 103.367 46.7834 103.289C46.7398 103.376 46.7696 103.344 46.8727 103.195C46.7724 103.322 47.0855 103.066 46.9377 103.134C47.0157 103.101 47.0936 103.068 47.1716 103.035C47.1453 103.046 47.1182 103.052 47.0903 103.056C47.177 103.044 47.2637 103.033 47.3505 103.021C46.8855 103.05 46.4115 103.024 45.9457 103.024C45.4693 103.024 44.9843 103.051 44.5085 103.021C44.5952 103.033 44.682 103.044 44.7687 103.056C44.7407 103.052 44.7136 103.046 44.6874 103.035C44.7653 103.068 44.8433 103.101 44.9212 103.134C44.8344 103.091 44.8656 103.12 45.015 103.224C44.8878 103.123 45.1433 103.437 45.0755 103.289C45.1084 103.367 45.1413 103.445 45.1742 103.523C45.164 103.496 45.1572 103.469 45.1537 103.441C45.1653 103.528 45.177 103.615 45.1886 103.702C45.1597 103.237 45.1859 102.763 45.1859 102.297C45.1859 101.821 45.1591 101.336 45.1886 100.86C45.177 100.947 45.1653 101.033 45.1537 101.12C45.1572 101.092 45.164 101.065 45.1742 101.039C45.1413 101.117 45.1084 101.195 45.0755 101.273C45.1191 101.186 45.0893 101.217 44.9862 101.367C45.0866 101.24 44.7734 101.495 44.9212 101.428C44.8432 101.46 44.7653 101.493 44.6873 101.526C44.7136 101.516 44.7407 101.509 44.7686 101.506C44.6819 101.517 44.5952 101.529 44.5085 101.541C44.9735 101.512 45.4475 101.538 45.9132 101.538C46.3896 101.538 46.8747 101.511 47.3504 101.541C47.2637 101.529 47.177 101.517 47.0902 101.506C47.1181 101.509 47.1453 101.516 47.1715 101.526C47.0935 101.493 47.0156 101.46 46.9377 101.428C47.0245 101.471 46.9933 101.441 46.8439 101.338C46.9711 101.438 46.7156 101.125 46.7834 101.273C46.7505 101.195 46.7176 101.117 46.6847 101.039C46.6949 101.065 46.7017 101.092 46.7052 101.12C46.6936 101.033 46.682 100.947 46.6703 100.86C46.6992 101.325 46.673 101.799 46.673 102.265C46.673 102.729 46.673 103.194 46.673 103.659C46.673 104.193 47.1182 104.638 47.6518 104.638C48.1853 104.638 48.6305 104.193 48.6305 103.659C48.6305 102.847 48.6305 102.035 48.6305 101.224C48.6305 101.118 48.6305 101.011 48.6305 100.905C48.6305 100.178 48.0229 99.5791 47.2992 99.5791C46.945 99.5791 46.5907 99.5791 46.2364 99.5791C45.7543 99.5791 45.2722 99.5791 44.7901 99.5791C44.6018 99.5791 44.4394 99.5808 44.2483 99.6167C43.6361 99.732 43.2285 100.336 43.2285 100.934C43.2285 101.787 43.2285 102.64 43.2285 103.492C43.2285 103.678 43.2287 103.862 43.2867 104.044C43.4681 104.612 43.9884 104.983 44.5831 104.983C44.9296 104.983 45.2761 104.983 45.6226 104.983C46.0773 104.983 46.5319 104.983 46.9866 104.983C47.0908 104.983 47.195 104.983 47.2992 104.983C47.5441 104.983 47.7893 104.915 47.998 104.787C48.4018 104.54 48.6018 104.121 48.6305 103.659C48.6636 103.125 48.1602 102.679 47.6517 102.679C47.0932 102.679 46.7061 103.126 46.673 103.659Z" fill="#55D6C6"/>
<path d="M55.5426 104.454C55.5426 104.665 55.3561 104.836 55.126 104.836H51.7936C51.5635 104.836 51.377 104.665 51.377 104.454V101.399C51.377 101.189 51.5635 101.018 51.7936 101.018H55.126C55.3561 101.018 55.5426 101.189 55.5426 101.399V104.454Z" fill="#55D6C6"/>
<path d="M54.3918 103.659C54.3909 103.673 54.39 103.687 54.3891 103.702C54.4007 103.615 54.4124 103.528 54.424 103.441C54.4205 103.469 54.4137 103.496 54.4035 103.523C54.4364 103.445 54.4693 103.367 54.5022 103.289C54.4586 103.376 54.4883 103.344 54.5914 103.195C54.4911 103.322 54.8043 103.066 54.6565 103.134C54.7344 103.101 54.8123 103.068 54.8903 103.035C54.864 103.046 54.8369 103.052 54.809 103.056C54.8957 103.044 54.9825 103.033 55.0692 103.021C54.6042 103.05 54.1302 103.024 53.6645 103.024C53.188 103.024 52.7029 103.051 52.2272 103.021C52.3139 103.033 52.4007 103.044 52.4874 103.056C52.4595 103.052 52.4324 103.046 52.4061 103.035C52.4841 103.068 52.562 103.101 52.6399 103.134C52.5531 103.091 52.5844 103.12 52.7337 103.224C52.6065 103.123 52.8621 103.437 52.7943 103.289C52.8272 103.367 52.86 103.445 52.8929 103.523C52.8827 103.496 52.8759 103.469 52.8724 103.441C52.884 103.528 52.8957 103.615 52.9073 103.702C52.8785 103.237 52.9047 102.763 52.9047 102.297C52.9047 101.821 52.8778 101.336 52.9073 100.86C52.8957 100.947 52.884 101.033 52.8724 101.12C52.8759 101.092 52.8827 101.065 52.8929 101.039C52.86 101.117 52.8271 101.195 52.7943 101.273C52.8379 101.186 52.8081 101.217 52.705 101.367C52.8053 101.24 52.4921 101.495 52.6399 101.428C52.562 101.46 52.4841 101.493 52.4061 101.526C52.4324 101.516 52.4595 101.509 52.4874 101.506C52.4007 101.517 52.314 101.529 52.2272 101.541C52.6922 101.512 53.1662 101.538 53.6319 101.538C54.1084 101.538 54.5934 101.511 55.0692 101.541C54.9825 101.529 54.8958 101.517 54.809 101.506C54.8369 101.509 54.8641 101.516 54.8903 101.526C54.8123 101.493 54.7344 101.46 54.6565 101.428C54.7433 101.471 54.712 101.441 54.5627 101.338C54.6898 101.438 54.4343 101.125 54.5022 101.273C54.4693 101.195 54.4364 101.117 54.4035 101.039C54.4137 101.065 54.4205 101.092 54.424 101.12C54.4124 101.033 54.4007 100.947 54.3891 100.86C54.418 101.325 54.3918 101.799 54.3918 102.265C54.3918 102.729 54.3918 103.194 54.3918 103.659C54.3918 104.193 54.8369 104.638 55.3705 104.638C55.904 104.638 56.3492 104.193 56.3492 103.659C56.3492 102.847 56.3492 102.035 56.3492 101.224C56.3492 101.118 56.3492 101.011 56.3492 100.905C56.3492 100.178 55.7416 99.5791 55.018 99.5791C54.6637 99.5791 54.3094 99.5791 53.9551 99.5791C53.473 99.5791 52.9909 99.5791 52.5089 99.5791C52.3206 99.5791 52.1582 99.5808 51.9671 99.6167C51.3549 99.732 50.9473 100.336 50.9473 100.934C50.9473 101.787 50.9473 102.64 50.9473 103.492C50.9473 103.678 50.9475 103.862 51.0054 104.044C51.1868 104.612 51.7072 104.983 52.3019 104.983C52.6484 104.983 52.9948 104.983 53.3413 104.983C53.796 104.983 54.2507 104.983 54.7053 104.983C54.8095 104.983 54.9138 104.983 55.018 104.983C55.2629 104.983 55.508 104.915 55.7168 104.787C56.1206 104.54 56.3205 104.121 56.3492 103.659C56.3824 103.125 55.8789 102.679 55.3705 102.679C54.8119 102.679 54.4249 103.126 54.3918 103.659Z" fill="#55D6C6"/>
</svg>
