<svg width="45" height="45" viewBox="0 0 45 45" fill="none" xmlns="http://www.w3.org/2000/svg">
<path d="M15 20.625C16.2979 20.625 17.5667 20.2401 18.6459 19.519C19.7251 18.7979 20.5663 17.773 21.063 16.5739C21.5597 15.3747 21.6896 14.0552 21.4364 12.7822C21.1832 11.5092 20.5582 10.3399 19.6404 9.42211C18.7226 8.50433 17.5533 7.87932 16.2803 7.6261C15.0073 7.37288 13.6878 7.50284 12.4886 7.99954C11.2895 8.49624 10.2646 9.33738 9.54348 10.4166C8.82238 11.4958 8.4375 12.7646 8.4375 14.0625C8.4375 15.803 9.1289 17.4722 10.3596 18.7029C11.5903 19.9336 13.2595 20.625 15 20.625ZM15 11.25C15.5563 11.25 16.1 11.415 16.5625 11.724C17.0251 12.033 17.3855 12.4723 17.5984 12.9862C17.8113 13.5001 17.867 14.0656 17.7585 14.6112C17.6499 15.1568 17.3821 15.6579 16.9887 16.0512C16.5954 16.4446 16.0943 16.7124 15.5487 16.821C15.0031 16.9295 14.4376 16.8738 13.9237 16.6609C13.4098 16.448 12.9705 16.0876 12.6615 15.625C12.3525 15.1625 12.1875 14.6188 12.1875 14.0625C12.1875 13.3166 12.4838 12.6012 13.0113 12.0738C13.5387 11.5463 14.2541 11.25 15 11.25Z" fill="#55D6C6"/>
<path d="M30 26.25C28.7021 26.25 27.4333 26.6349 26.3541 27.356C25.2749 28.0771 24.4337 29.102 23.937 30.3011C23.4403 31.5003 23.3104 32.8198 23.5636 34.0928C23.8168 35.3658 24.4418 36.5351 25.3596 37.4529C26.2774 38.3707 27.4467 38.9957 28.7197 39.2489C29.9927 39.5021 31.3122 39.3722 32.5114 38.8755C33.7105 38.3788 34.7354 37.5376 35.4565 36.4584C36.1776 35.3792 36.5625 34.1104 36.5625 32.8125C36.5625 31.072 35.8711 29.4028 34.6404 28.1721C33.4097 26.9414 31.7405 26.25 30 26.25ZM30 35.625C29.4437 35.625 28.9 35.46 28.4375 35.151C27.9749 34.842 27.6145 34.4027 27.4016 33.8888C27.1887 33.3749 27.133 32.8094 27.2415 32.2638C27.3501 31.7182 27.6179 31.2171 28.0113 30.8238C28.4046 30.4304 28.9057 30.1626 29.4513 30.054C29.9969 29.9455 30.5624 30.0012 31.0763 30.2141C31.5902 30.427 32.0295 30.7874 32.3385 31.25C32.6475 31.7125 32.8125 32.2562 32.8125 32.8125C32.8125 33.5584 32.5162 34.2738 31.9887 34.8012C31.4613 35.3287 30.7459 35.625 30 35.625Z" fill="#55D6C6"/>
<path d="M37.0125 7.98747C36.8575 7.83213 36.6734 7.70889 36.4707 7.62481C36.268 7.54072 36.0507 7.49744 35.8313 7.49744C35.6118 7.49744 35.3945 7.54072 35.1918 7.62481C34.9891 7.70889 34.805 7.83213 34.65 7.98747L7.9875 34.65C7.67812 34.9657 7.50335 35.3892 7.5 35.8312C7.4995 36.1616 7.5971 36.4848 7.78043 36.7597C7.96376 37.0345 8.22457 37.2488 8.5298 37.3753C8.83504 37.5018 9.17097 37.5349 9.495 37.4703C9.81904 37.4057 10.1166 37.2464 10.35 37.0125L37.0125 10.35C37.1678 10.195 37.2911 10.0108 37.3752 9.80815C37.4592 9.60545 37.5025 9.38816 37.5025 9.16872C37.5025 8.94927 37.4592 8.73198 37.3752 8.52929C37.2911 8.32659 37.1678 8.14247 37.0125 7.98747Z" fill="#55D6C6"/>
</svg>
