<svg width="39" height="39" viewBox="0 0 39 39" fill="none" xmlns="http://www.w3.org/2000/svg">
<path d="M33.7179 11.4377V11.44C33.975 10.8974 34.125 10.3308 34.125 9.75V7.3125C34.125 3.27539 27.5766 0 19.5 0C11.4234 0 4.875 3.27539 4.875 7.3125C4.875 7.11255 4.90356 6.91732 4.93449 6.72217C1.91382 8.05997 0 10.0119 0 12.1875V14.625C0 16.8864 2.05664 18.9073 5.28206 20.2474C5.02498 20.7902 4.875 21.3567 4.875 21.9375V24.375C4.875 25.2319 5.18449 26.0484 5.72721 26.8125C5.18449 27.5766 4.875 28.3931 4.875 29.25V31.6875C4.875 35.7246 11.4234 39 19.5 39C27.5766 39 34.125 35.7246 34.125 31.6875V29.25C34.125 28.3787 33.8036 27.548 33.2467 26.7744C33.2419 26.7791 33.2371 26.7863 33.2323 26.7911C33.6418 26.2103 33.9631 25.6057 34.0655 24.9653C37.0862 23.6252 39 21.6756 39 19.5V17.0625C39 14.8012 36.9434 12.7778 33.7179 11.4377ZM19.5 1.21875C27.4005 1.21875 32.9062 4.42985 32.9062 7.3125C32.9062 10.1928 27.4005 13.4062 19.5 13.4062C11.5995 13.4062 6.09375 10.1928 6.09375 7.3125C6.09375 4.42985 11.5995 1.21875 19.5 1.21875ZM1.21875 12.1875C1.21875 10.764 2.56844 9.26677 4.875 8.10994V9.75C4.875 13.7871 11.4234 17.0625 19.5 17.0625C20.7069 17.0625 21.8732 16.9815 22.9944 16.8435C20.7592 17.7028 17.9194 18.2812 14.625 18.2812C6.72453 18.2812 1.21875 15.0678 1.21875 12.1875ZM32.9062 29.25C32.9062 32.1302 27.4005 35.3438 19.5 35.3438C11.5995 35.3438 6.09375 32.1302 6.09375 29.25C6.09375 28.7716 6.2985 28.286 6.58651 27.8051C6.58414 27.8027 6.57935 27.7979 6.57698 27.7932C9.03117 30.1093 13.8966 31.6875 19.5 31.6875C25.1105 31.6875 29.9522 30.0974 32.4016 27.7765C32.3993 27.7789 32.3993 27.7789 32.3969 27.7813C32.6968 28.2693 32.9062 28.762 32.9062 29.25ZM27.8742 26.5935C25.6366 27.4552 22.7968 28.0312 19.5 28.0312C11.5995 28.0312 6.09375 24.8177 6.09375 21.9375C6.09375 21.5233 6.23657 21.1043 6.45321 20.6902C7.64819 21.0924 8.96924 21.4091 10.3809 21.6209C12.1994 24.6249 17.7743 26.8125 24.375 26.8125C25.5866 26.8125 26.7577 26.7316 27.8836 26.5911C27.8813 26.5911 27.8789 26.5935 27.8742 26.5935ZM24.375 23.1562C21.2472 23.1562 18.5193 22.6421 16.3341 21.8542C23.2062 21.4495 28.6335 18.6907 29.1904 15.2153C30.8495 14.4798 32.1779 13.5633 33.0324 12.5208C33.03 12.5208 33.03 12.5208 33.03 12.5208C35.9817 13.7205 37.7812 15.4343 37.7812 17.0625C37.7812 19.9427 32.2755 23.1562 24.375 23.1562ZM22.1042 9.08829C22.1042 8.83121 21.8994 8.63363 21.4901 8.50269C21.0806 8.36938 20.1689 8.198 18.7574 7.99325C17.4887 7.8147 16.496 7.63615 15.7819 7.46004C15.0678 7.28394 14.487 7.0363 14.0418 6.72209C13.5967 6.40308 13.373 6.03175 13.373 5.6128C13.373 5.06055 13.7729 4.56064 14.5679 4.11793C15.363 3.67758 16.6151 3.40854 18.3242 3.3086V2.4375H20.6332V3.30875C23.2135 3.43733 24.8846 4.03239 25.6439 5.10359L22.4637 5.6368C21.8424 4.90364 20.8854 4.53703 19.5858 4.53703C18.9336 4.53703 18.4099 4.618 18.0172 4.78458C17.622 4.94645 17.4245 5.1464 17.4245 5.37971C17.4245 5.61775 17.6149 5.79866 17.9958 5.92724C18.3743 6.05338 19.1907 6.20816 20.4381 6.39859C21.8092 6.60334 22.8851 6.79613 23.6635 6.9794C24.4442 7.16031 25.0655 7.41267 25.5321 7.73396C25.9962 8.05533 26.2294 8.43139 26.2294 8.85986C26.2294 9.52164 25.7486 10.0691 24.7894 10.5094C23.8301 10.9498 22.4447 11.2093 20.6332 11.2878V12.416H18.3242V11.2925C15.3035 11.1663 13.4349 10.4451 12.7137 9.13583L16.2843 8.75497C16.6151 9.57861 17.7101 9.9904 19.5692 9.9904C20.4379 9.9904 21.0807 9.90234 21.4901 9.72616C21.8996 9.54997 22.1042 9.33821 22.1042 9.08829Z" fill="#55D6C6"/>
</svg>
