<svg width="69" height="69" viewBox="0 0 69 69" fill="none" xmlns="http://www.w3.org/2000/svg">
<path d="M58.4856 38.2329H51.6546C50.799 38.2329 50.109 38.9229 50.109 39.7785C50.109 40.6341 50.799 41.3241 51.6546 41.3241H54.6768L39.1242 56.4351H5.2038C4.3482 56.4351 3.6582 57.1251 3.6582 57.9807C3.6582 58.8294 4.3482 59.5263 5.2038 59.5263H39.759C40.1592 59.5263 40.5456 59.3676 40.8354 59.0847L56.94 43.4355V46.5957C56.94 47.4513 57.63 48.1413 58.4856 48.1413C59.3412 48.1413 60.0312 47.4513 60.0312 46.5957V39.7785C60.0312 38.9298 59.3412 38.2329 58.4856 38.2329Z" fill="#55D6C6"/>
<path d="M53.752 17.0911C53.752 17.9191 54.0004 18.3331 55.132 19.2301V15.2695C54.2074 15.4351 53.752 16.1251 53.752 17.0911Z" fill="#55D6C6"/>
<path d="M56.1875 23.2598V27.731C57.0845 27.593 57.6365 26.6201 57.6365 25.6058C57.6365 24.4811 57.1535 23.7911 56.1875 23.2598Z" fill="#55D6C6"/>
<path d="M55.705 9.47363C48.7498 9.47363 43.0918 15.1247 43.0918 22.0799C43.0918 29.0351 48.7498 34.6862 55.705 34.6862C62.6533 34.6862 68.3113 29.0282 68.3113 22.0799C68.3113 15.1247 62.6533 9.47363 55.705 9.47363ZM56.188 29.9459V31.7123C56.188 32.0573 56.0293 32.3057 55.6567 32.3057C55.291 32.3057 55.1323 32.0504 55.1323 31.7123V29.9459C52.7104 29.9459 50.9647 28.1657 50.9647 25.8404C50.9647 25.0124 51.358 24.2741 52.2343 24.2741C53.0416 24.2741 53.4763 24.7295 53.5936 25.799C53.704 26.9306 54.1663 27.6344 55.1392 27.7379V22.7147L53.6626 21.7694C52.0135 20.7137 51.1303 19.3268 51.1303 17.3948C51.1303 14.9798 52.6069 13.1375 55.1392 13.0616V12.4682C55.1392 12.0956 55.2979 11.8472 55.6636 11.8472C56.0362 11.8472 56.1949 12.1025 56.1949 12.4682V13.0616C58.2856 13.0616 60.0175 14.4485 60.0175 16.5392C60.0175 17.2775 59.5138 17.8778 58.7548 17.8778C57.7612 17.8778 57.5542 17.2775 57.3955 16.5185C57.2092 15.6422 56.6986 15.2696 56.1949 15.2696V19.8029L57.5335 20.5895C59.2792 21.6038 60.4522 22.9148 60.4522 25.0745C60.4453 28.0346 58.8997 29.8079 56.188 29.9459Z" fill="#55D6C6"/>
<path d="M22.3293 20.3688L40.1382 35.6799C40.5729 36.0594 41.118 36.2388 41.6493 36.2388C42.2979 36.2388 42.9465 35.9628 43.4088 35.4315C44.2437 34.4586 44.1333 32.9958 43.1604 32.1609L23.8404 15.5526C22.971 14.8074 21.6876 14.8074 20.8182 15.5526L1.49824 32.1609C0.525344 33.0027 0.414944 34.4655 1.24984 35.4384C2.08474 36.4113 3.54754 36.5217 4.52044 35.6868L22.3293 20.3688Z" fill="#55D6C6"/>
<path d="M21.8261 22.7146L7.26715 35.2795C7.09465 35.4244 6.99805 35.6383 6.99805 35.866V54.0268C6.99805 54.4546 7.34305 54.7996 7.77085 54.7996H36.8819C37.3097 54.7996 37.6547 54.4546 37.6547 54.0268V35.8591C37.6547 35.6314 37.5581 35.4244 37.3856 35.2726L22.8266 22.7146C22.5437 22.4662 22.1159 22.4662 21.8261 22.7146ZM20.9153 49.6108C20.9153 50.2456 20.3978 50.77 19.7561 50.77H15.2435C14.6018 50.77 14.0843 50.2525 14.0843 49.6108V45.0982C14.0843 44.4565 14.6018 43.939 15.2435 43.939H19.7561C20.3978 43.939 20.9153 44.4565 20.9153 45.0982V49.6108ZM20.9153 39.9508C20.9153 40.5925 20.3978 41.11 19.7561 41.11H15.2435C14.6018 41.11 14.0843 40.5925 14.0843 39.9508V35.4313C14.0843 34.7896 14.6018 34.2721 15.2435 34.2721H19.7561C20.3978 34.2721 20.9153 34.7896 20.9153 35.4313V39.9508ZM23.7443 35.4313C23.7443 34.7896 24.2618 34.2721 24.9035 34.2721H29.4161C30.0578 34.2721 30.5753 34.7896 30.5753 35.4313V39.9508C30.5753 40.5925 30.0578 41.11 29.4161 41.11H24.9035C24.2618 41.11 23.7443 40.5925 23.7443 39.9508V35.4313ZM23.7443 45.0982C23.7443 44.4565 24.2618 43.939 24.9035 43.939H29.4161C30.0578 43.939 30.5753 44.4565 30.5753 45.0982V49.6108C30.5753 50.2456 30.0578 50.77 29.4161 50.77H24.9035C24.2618 50.77 23.7443 50.2525 23.7443 49.6108V45.0982Z" fill="#55D6C6"/>
</svg>
