<svg width="69" height="69" viewBox="0 0 69 69" fill="none" xmlns="http://www.w3.org/2000/svg">
<path d="M30.8206 14.4445C22.8014 22.4637 20.8004 24.5358 20.6169 25.0146C20.1518 26.2263 20.6452 27.5235 21.8147 28.2135C22.3502 28.5233 23.5625 28.566 24.0834 28.2983C24.2808 28.2135 28.2552 24.3101 32.9341 19.645L41.4183 11.1746L49.9163 19.645C54.5814 24.3101 58.5558 28.2135 58.7532 28.2983C59.2327 28.5522 60.4444 28.524 60.966 28.2562C62.2487 27.5938 62.7559 25.9447 62.0652 24.6482C61.9665 24.4509 57.4146 19.8286 51.9601 14.3741L42.0531 4.4809H41.419H40.7849L30.8206 14.4445Z" fill="#55D6C6"/>
<path d="M33.6254 21.0832L25.916 28.7919V29.5247V30.2575L26.7337 30.3423C30.1298 30.737 33.978 32.0618 36.6414 33.7392C37.1347 34.049 37.3321 34.0773 38.9384 34.0773C40.9822 34.0773 41.1367 34.1477 41.1367 35.1482C41.1367 35.6698 41.1788 35.7685 41.4182 35.7685C41.6577 35.7685 41.7005 35.6698 41.7005 35.191C41.7005 34.0773 41.7005 34.0773 44.308 34.0773C45.9992 34.0773 46.6478 34.1194 46.7319 34.2464C46.7885 34.345 46.8727 34.8667 46.9148 35.4021L46.9852 36.3743L48.8171 36.7124C51.8614 37.2617 55.1451 38.4878 56.3429 39.5311L56.9212 40.0244V34.4713V28.9327L49.1276 21.1391L41.3479 13.3601L33.6254 21.0832ZM40.8552 28.44C41.1091 28.6939 41.1374 28.9051 41.1374 30.7798C41.1374 31.9211 41.067 32.9498 40.9967 33.1051C40.8559 33.359 40.6724 33.3728 38.5589 33.3728C36.9519 33.3728 36.2053 33.3162 36.0928 33.2038C35.9804 33.0913 35.9238 32.3585 35.9238 30.8219C35.9238 28.0032 35.7685 28.1585 38.5596 28.1585C40.3901 28.1578 40.6013 28.1861 40.8552 28.44ZM46.605 28.3834C46.901 28.5808 46.9148 28.6794 46.9148 30.7087C46.9148 31.9066 46.8444 32.9498 46.774 33.1044C46.6333 33.3583 46.4497 33.3721 44.308 33.3721C42.1662 33.3721 41.9827 33.3583 41.8419 33.1044C41.7715 32.9492 41.7011 31.9066 41.7011 30.7087C41.7011 28.0308 41.5604 28.1578 44.3087 28.1578C45.8722 28.1578 46.3511 28.1999 46.605 28.3834Z" fill="#55D6C6"/>
<path d="M3.14171 30.9477C2.91608 31.1588 2.74703 31.695 2.46551 33.146C1.42223 38.5584 0.703253 46.8736 0.689453 53.4831C0.689453 55.5124 0.801923 56.1044 1.23938 56.2873C1.36634 56.3438 2.94437 56.4425 4.73423 56.5267C7.75023 56.6675 8.03175 56.6537 8.27187 56.4425C8.5113 56.2169 8.55339 55.8788 8.62445 52.426C8.73693 47.6485 9.37173 41.1797 10.4288 33.9637C10.7531 31.6667 10.7531 31.5963 10.4288 31.272C10.2177 31.0609 9.86508 31.0043 8.21598 30.9194C7.13061 30.8773 5.62295 30.7925 4.84739 30.7504C3.56468 30.68 3.40943 30.6945 3.14171 30.9477Z" fill="#55D6C6"/>
<path d="M21.0397 32.597C19.3623 32.851 17.037 33.4285 15.3603 34.006C13.3303 34.7112 12.9501 34.8941 12.8094 35.2466C12.6824 35.5282 11.4004 50.5943 11.4004 51.7218C11.4004 52.0178 11.4991 52.2993 11.6543 52.4408C11.7951 52.5677 12.5844 52.7789 13.5145 52.9341C15.7833 53.3288 16.0793 53.4695 24.2254 58.1063C31.1026 62.0242 33.8509 63.4759 35.7256 64.1804C37.3885 64.8007 39.6159 64.6172 46.845 63.2365C48.8605 62.8563 51.2982 62.4188 52.2711 62.2643C56.6119 61.5598 56.1186 61.8275 62.1506 57.1203C65.0258 54.8654 67.0972 52.8782 67.5767 51.8915C68.028 50.9614 68.0839 49.876 67.7175 49.1853C67.4781 48.7341 67.4781 48.7203 67.8299 48.2973C68.591 47.4093 68.4358 46.2963 67.4353 45.38C65.5185 43.6039 62.5025 44.5064 58.9655 47.8888C56.654 50.1017 55.3292 50.7075 51.5246 51.2995C49.9603 51.5389 48.9033 51.6093 46.7049 51.6093C43.2101 51.6093 42.6463 51.4685 39.1653 49.805C37.8122 49.1426 36.417 48.5788 36.0644 48.5222C35.7118 48.4657 34.6975 48.1841 33.8095 47.8881L32.1887 47.3527L33.8095 47.3382C34.6975 47.3244 36.0644 47.2257 36.8393 47.1126C39.6442 46.7041 41.7576 46.9152 49.7347 48.3808C52.5534 48.9024 53.1875 48.9307 53.963 48.5216C54.5833 48.1973 55.4707 47.0843 55.795 46.2245C56.9645 43.0961 56.1048 41.1931 52.948 39.9386C50.8622 39.121 46.8878 38.304 43.5337 38.0218C40.9545 37.8107 39.2633 37.5147 38.5588 37.1483C38.2345 36.993 37.1498 36.3734 36.1486 35.7952C32.9774 33.9488 30.5817 33.0186 28.0025 32.5957C26.3948 32.3431 22.8295 32.3431 21.0397 32.597Z" fill="#55D6C6"/>
</svg>
