<svg width="23" height="23" fill="none" xmlns="http://www.w3.org/2000/svg"><path d="M22.628 11.415c0 1.593-.032 3.192.009 4.785.068 2.821-1.698 5.001-3.947 5.972a7.116 7.116 0 01-2.834.595c-3.07.005-6.146.046-9.217-.014-2.313-.045-4.216-1.016-5.58-2.93C.342 18.815 0 17.67 0 16.429V6.583C0 3.904 1.3 2.031 3.61.813 4.612.286 5.703.062 6.84.057c2.98 0 5.964-.018 8.943.01 2.314.018 4.244.906 5.667 2.775.794 1.044 1.178 2.244 1.178 3.562v5.01zm-20.944 0v5.037c0 .751.173 1.456.561 2.093 1.018 1.671 2.555 2.487 4.463 2.519 3.061.045 6.128.018 9.194.009.753 0 1.483-.156 2.163-.481 1.852-.889 2.888-2.304 2.879-4.428-.018-3.252-.005-6.503-.005-9.755 0-.92-.26-1.763-.803-2.505-1.05-1.424-2.5-2.125-4.234-2.143-3.057-.037-6.114-.014-9.172-.01a5.37 5.37 0 00-1.893.362c-1.68.628-3.24 2.217-3.167 4.557.055 1.585.014 3.165.014 4.745z" fill="#89D7CF"/><path d="M11.34 16.269c-2.943 0-5.316-2.354-5.32-5.285-.005-2.885 2.386-5.248 5.31-5.248 2.935-.005 5.317 2.354 5.321 5.262 0 2.903-2.377 5.266-5.311 5.27zm0-1.695c2.003 0 3.627-1.607 3.623-3.585-.005-1.96-1.629-3.563-3.623-3.563-2.003 0-3.637 1.598-3.637 3.572.005 1.978 1.634 3.58 3.637 3.576zm5.926-10.441c.616 0 1.118.526 1.118 1.172-.005.646-.511 1.168-1.127 1.163-.607-.004-1.105-.526-1.105-1.158-.004-.646.498-1.177 1.114-1.177z" fill="#89D7CF"/></svg>