<svg width="90" height="57" fill="none" xmlns="http://www.w3.org/2000/svg"><path d="M44.94.323V0H22.712C9.992 0 3.632 4.464 3.632 13.393c0 3.577 1.143 6.494 3.428 8.753 2.313 2.286 5.21 4.478 8.545 5.393-4.357.457-8.114 1.573-11.126 3.886-3.04 2.34-4.532 5.607-4.478 9.802 0 5.352 2.017 9.319 6.051 11.9C10.086 55.71 15.249 57 21.542 57H44.94v-.323c-2.824-.726-4.693-1.815-5.608-3.267-.941-1.48-1.412-4.034-1.412-7.665v-34.53c0-3.604.471-6.146 1.412-7.625.915-1.452 2.784-2.541 5.608-3.267zM30.982 2.219v23.484h-7.116c-4.034 0-7.232-.249-9.625-2.508-2.393-2.286-3.59-5.419-3.59-9.399 0-2.07.35-3.872 1.049-5.405.672-1.533 1.64-2.73 2.904-3.59 1.264-.888 2.703-1.533 4.316-1.937 1.614-.43 3.43-.645 5.446-.645h6.616zm0 27.156V54.78h-9.157c-4.276 0-7.732-1.102-10.367-3.307-2.636-2.233-3.954-5.46-3.954-9.682 0-2.904.74-5.352 2.219-7.342 1.479-2.017 3.361-3.456 5.647-4.316 2.396-.902 4.818-.636 7.579-.76h8.033z" fill="#fff"/><path d="M58.249 29.375h-7.665v16.37c0 3.738.458 6.307 1.372 7.705.914 1.398 2.797 2.474 5.648 3.227V57H36.627v-.323c2.824-.753 4.706-1.828 5.648-3.227.914-1.345 1.371-3.913 1.371-7.705v-34.53c0-1.749-.067-3.12-.202-4.115a8.953 8.953 0 00-.927-2.945 5.248 5.248 0 00-2.098-2.3c-.941-.591-2.205-1.102-3.792-1.532V0h24.526c1.937 0 3.765.134 5.487.403 1.72.27 3.402.74 5.042 1.412 1.668.646 3.093 1.48 4.276 2.501 1.183 1.022 2.138 2.354 2.864 3.994.726 1.614 1.09 3.47 1.09 5.567-.027 4.491-1.44 7.96-4.236 10.408-2.824 2.5-6.52 3.183-10.743 4.259l13.002 18.855c2.555 3.55 4.531 5.863 5.93 6.939 1.344 1.021 3.308 1.801 5.89 2.34V57h-4.962c-4.438 0-7.315-.35-8.633-1.049-1.237-.672-3.106-2.824-5.607-6.454L58.249 29.375zM50.584 2.219v23.484h7.665c3.792 0 8.2-.178 9.68-.918 3.672-1.836 4.6-5.032 4.6-9.254 0-4.088-1.102-7.329-3.308-9.722-2.178-2.394-5.284-3.59-9.318-3.59h-9.319z" fill="#fff"/><path d="M31.21 25.703h20.196v3.671H31.21v-3.671z" fill="#fff"/></svg>