<svg width="25" height="15" fill="none" xmlns="http://www.w3.org/2000/svg"><path d="M24.085 13.826c-.83.52-4.204.674-5.02.08-.448-.325-.858-.732-1.247-1.12-.272-.27-.581-.402-.815-.696-.19-.24-.321-.525-.522-.762-.34-.399-.862-.738-1.275-.25-.622.732.098 2.171-.732 2.719-.278.183-.559.237-.906.21l-.77.036c-.453.008-1.17.012-1.684-.08-.574-.104-1.048-.418-1.566-.648-.985-.437-1.924-1.032-2.639-1.857-1.943-2.246-4.554-5.335-5.568-8.16-.21-.58-.76-1.728-.238-2.226.71-.516 4.198-.662 4.741.137.222.324.36.8.517 1.167.194.458.3.89.604 1.296.269.36.468.722.676 1.116.234.443.455.868.74 1.276.192.277.703.828 1.025.87.787.1.738-1.813.68-2.28-.056-.45-.071-.927-.056-1.384.012-.389.048-.937-.183-1.255-.376-.519-1.213-.13-1.279-.827.139-.198.11-.374 1.033-.678a3.824 3.824 0 011.676-.193c.978.078 2.015-.187 2.959.13.9.304.762 1.585.731 2.353-.04 1.049.003 2.072 0 3.135 0 .485-.02.956.57.917.554-.037.61-.503.875-.887.367-.536.705-1.08 1.08-1.614.503-.722.655-1.533 1.13-2.272.17-.265.316-.843.578-1.052.198-.158.574-.09.814-.09h.57c.436.005.881.011 1.33.027.645.022 1.368-.118 2.008-.028 2.762.39-3.471 6.3-3.147 7.353.224.728 1.646 1.544 2.16 2.14.684.794 2.781 2.376 1.15 3.397z" fill="#89D7CF"/></svg>