<svg width="23" height="23" fill="none" xmlns="http://www.w3.org/2000/svg"><path fill-rule="evenodd" clip-rule="evenodd" d="M11.497 0C5.157 0 0 5.158 0 11.5c0 2.515.811 4.847 2.19 6.74L.757 22.513l4.42-1.413a11.408 11.408 0 006.326 1.9C17.843 23 23 17.841 23 11.5S17.843 0 11.503 0h-.006zm-3.21 5.841c-.224-.534-.393-.554-.73-.568a6.491 6.491 0 00-.386-.013c-.44 0-.899.128-1.176.412-.338.345-1.176 1.15-1.176 2.8 0 1.649 1.203 3.245 1.365 3.468.17.223 2.346 3.657 5.725 5.057 2.643 1.095 3.427.994 4.028.865.879-.19 1.98-.838 2.258-1.622.277-.785.277-1.454.195-1.596-.08-.142-.304-.223-.642-.392-.337-.17-1.98-.98-2.29-1.089-.305-.115-.596-.074-.825.25-.325.453-.642.913-.9 1.19-.202.217-.533.244-.81.129-.372-.156-1.413-.521-2.697-1.663-.994-.886-1.67-1.988-1.865-2.32-.197-.337-.02-.533.135-.716.169-.21.33-.358.5-.554.169-.196.263-.298.372-.528.115-.223.033-.453-.048-.622-.08-.169-.757-1.818-1.034-2.488z" fill="#89D7CF"/></svg>