<svg width="95" height="16" viewBox="0 0 95 16" fill="none" xmlns="http://www.w3.org/2000/svg">
<rect x="9" width="63" height="15" fill="#061A20"/>
<path d="M15.4609 1.06794V1H10.7815C8.10356 1 6.76457 1.93984 6.76457 3.81953C6.76457 4.57253 7.00519 5.18683 7.48643 5.66241C7.97334 6.14365 8.5832 6.60508 9.28525 6.79758C8.36805 6.89383 7.57702 7.12879 6.94291 7.6157C6.30314 8.10826 5.98891 8.79616 6.00024 9.67939C6.00024 10.8061 6.42486 11.6412 7.27412 12.1847C8.12337 12.7282 9.21042 13 10.5353 13H15.4609V12.932C14.8665 12.7792 14.473 12.5499 14.2805 12.2441C14.0823 11.9327 13.9832 11.3949 13.9832 10.6306V3.36093C13.9832 2.60226 14.0823 2.06723 14.2805 1.75584C14.473 1.45011 14.8665 1.22081 15.4609 1.06794ZM12.5225 1.46709V6.41108H11.0245C10.1753 6.41108 9.502 6.3588 8.99811 5.88322C8.49422 5.40197 8.24227 4.74238 8.24227 3.90445C8.24227 3.4685 8.31587 3.08917 8.46308 2.76645C8.60462 2.44373 8.80844 2.19179 9.07454 2.01061C9.34064 1.82378 9.64354 1.6879 9.98324 1.60297C10.3229 1.51238 10.7051 1.46709 11.1297 1.46709H12.5225ZM12.5225 7.18409V12.5329H10.5947C9.6945 12.5329 8.96697 12.3008 8.41212 11.8365C7.85727 11.3666 7.57985 10.6872 7.57985 9.79828C7.57985 9.18682 7.73555 8.6716 8.04694 8.25264C8.35833 7.82801 8.75465 7.52511 9.2359 7.34394C9.7403 7.15404 10.2502 7.21018 10.8313 7.18409H12.5225Z" fill="white"/>
<path d="M18.2629 7.18409H16.6494V10.6306C16.6494 11.4175 16.7456 11.9582 16.9381 12.2526C17.1306 12.547 17.5269 12.7735 18.1271 12.932V13H13.7109V12.932C14.3054 12.7735 14.7017 12.547 14.8999 12.2526C15.0924 11.9695 15.1886 11.4289 15.1886 10.6306V3.36093C15.1886 2.99292 15.1745 2.70417 15.1462 2.49469C15.1179 2.27954 15.0528 2.07289 14.9508 1.87473C14.8546 1.67091 14.7074 1.50955 14.5092 1.39066C14.3111 1.2661 14.045 1.15853 13.7109 1.06794V1H18.8744C19.2821 1 19.667 1.02831 20.0294 1.08493C20.3917 1.14154 20.7456 1.24062 21.091 1.38216C21.442 1.51805 21.7421 1.69356 21.9912 1.9087C22.2403 2.12385 22.4413 2.4041 22.5941 2.74947C22.747 3.08917 22.8234 3.47982 22.8234 3.92144C22.8178 4.86694 22.5205 5.5973 21.9317 6.11252C21.3372 6.63905 20.559 6.78267 19.6701 7.00914L22.4073 10.9787C22.9452 11.7261 23.3613 12.213 23.6557 12.4395C23.9388 12.6546 24.3521 12.8188 24.8956 12.932V13H23.851C22.9169 13 22.3111 12.9264 22.0336 12.7792C21.7732 12.6376 21.3797 12.1847 20.8532 11.4204L18.2629 7.18409ZM16.6494 1.46709V6.41108H18.2629C19.0612 6.41108 19.9893 6.37363 20.3009 6.21782C21.0739 5.83132 21.2693 5.15852 21.2693 4.26963C21.2693 3.40905 21.0372 2.72682 20.5729 2.22293C20.1143 1.71904 19.4604 1.46709 18.6111 1.46709H16.6494Z" fill="white"/>
<path d="M12.5703 6.41113H16.8219V7.18414H12.5703V6.41113Z" fill="white"/>
<path d="M31.0107 11H28.2275V10.9609C28.5726 10.8698 28.8021 10.7396 28.916 10.5703C29.0299 10.4043 29.0837 10.0934 29.0771 9.6377V5.45801C29.0771 5.00553 29.0234 4.69629 28.916 4.53027C28.8021 4.361 28.5726 4.23079 28.2275 4.13965V4.10059H30.8594C31.0091 4.10059 31.154 4.1071 31.2939 4.12012C31.4372 4.12988 31.5853 4.15104 31.7383 4.18359C31.8945 4.21289 32.0378 4.25195 32.168 4.30078C32.2982 4.34635 32.4219 4.40983 32.5391 4.49121C32.6595 4.56934 32.762 4.65885 32.8467 4.75977C32.9313 4.86068 32.998 4.98275 33.0469 5.12598C33.0957 5.26595 33.1201 5.4222 33.1201 5.59473C33.1201 6.0765 32.9753 6.46549 32.6855 6.76172C32.3958 7.05469 32.041 7.25814 31.6211 7.37207V7.41113C32.181 7.46973 32.6449 7.63737 33.0127 7.91406C33.3838 8.19401 33.5693 8.62044 33.5693 9.19336C33.5693 9.46029 33.5173 9.69954 33.4131 9.91113C33.3089 10.1227 33.1722 10.2952 33.0029 10.4287C32.8337 10.5622 32.6351 10.6729 32.4072 10.7607C32.1794 10.8486 31.9499 10.9105 31.7188 10.9463C31.4909 10.9821 31.2549 11 31.0107 11ZM29.7168 4.32031V7.33789H30.7275C31.2419 7.33789 31.6569 7.19303 31.9727 6.90332C32.2884 6.61361 32.4479 6.21322 32.4512 5.70215C32.4512 4.78092 31.8571 4.32031 30.6689 4.32031H29.7168ZM29.7168 7.55762V10.7803H30.9766C31.5332 10.7803 31.9808 10.6419 32.3193 10.3652C32.6579 10.0885 32.8271 9.67839 32.8271 9.13477C32.8271 8.90365 32.7913 8.69694 32.7197 8.51465C32.6481 8.33236 32.5505 8.18262 32.4268 8.06543C32.3063 7.94499 32.1598 7.84733 31.9873 7.77246C31.8148 7.69434 31.6325 7.639 31.4404 7.60645C31.2516 7.57389 31.0482 7.55762 30.8301 7.55762H29.7168ZM35.6543 8.21191H38.0957L36.8945 4.8623L35.6543 8.21191ZM40.4785 10.9609V11H38.1982V10.9609C38.4033 10.9154 38.5563 10.8535 38.6572 10.7754C38.7581 10.694 38.807 10.5964 38.8037 10.4824C38.8005 10.2578 38.5954 9.58073 38.1885 8.45117H35.5664C35.3483 9.03711 35.1969 9.46191 35.1123 9.72559C35.0277 9.99577 34.9854 10.2269 34.9854 10.4189C34.9854 10.6175 35.0342 10.7461 35.1318 10.8047C35.2327 10.8665 35.4004 10.9186 35.6348 10.9609V11H33.6475V10.9609C33.7809 10.9251 33.8965 10.8779 33.9941 10.8193C34.0918 10.7607 34.1797 10.681 34.2578 10.5801C34.3392 10.4792 34.401 10.3913 34.4434 10.3164C34.4889 10.2415 34.5524 10.1243 34.6338 9.96484C34.7965 9.63607 35.0277 9.08431 35.3271 8.30957L36.9971 3.94922H37.2656L38.8574 8.2998C39.1667 9.14616 39.3962 9.73047 39.5459 10.0527C39.6956 10.3783 39.8307 10.5996 39.9512 10.7168C40.0651 10.8242 40.2409 10.9056 40.4785 10.9609ZM47.3633 6.18066V11.0977H47.0752L41.875 4.84766V8.91992C41.875 9.45378 41.8978 9.85417 41.9434 10.1211C41.9857 10.3685 42.0557 10.5508 42.1533 10.668C42.2542 10.7819 42.4251 10.8796 42.666 10.9609V11H40.8057V10.9609C41.04 10.8861 41.2061 10.7917 41.3037 10.6777C41.4046 10.5605 41.4779 10.3783 41.5234 10.1309C41.5658 9.87695 41.5902 9.47331 41.5967 8.91992V5.11133C41.5967 4.91602 41.512 4.72396 41.3428 4.53516C41.1702 4.3431 40.9245 4.21126 40.6055 4.13965V4.10059H42.1045L47.085 10.0479V6.18066C47.085 5.64681 47.0622 5.24642 47.0166 4.97949C46.9743 4.7321 46.9027 4.5498 46.8018 4.43262C46.7008 4.31217 46.5316 4.21452 46.2939 4.13965V4.10059H48.1543V4.13965C47.9199 4.21126 47.7523 4.30566 47.6514 4.42285C47.5505 4.54004 47.4788 4.7207 47.4365 4.96484C47.391 5.22526 47.3665 5.63053 47.3633 6.18066ZM55.3955 10.9609V11H52.9297V10.9609C53.2259 10.9089 53.4163 10.8405 53.501 10.7559C53.5856 10.6712 53.5824 10.5215 53.4912 10.3066C53.4001 10.0951 53.1852 9.74674 52.8467 9.26172L51.3574 7.15234L50.0391 8.48047V9.74023C50.0358 10.1829 50.0863 10.4743 50.1904 10.6143C50.2946 10.751 50.5273 10.8665 50.8887 10.9609V11H48.5498V10.9609C48.9079 10.8665 49.139 10.751 49.2432 10.6143C49.3473 10.4743 49.3994 10.1829 49.3994 9.74023V5.36035C49.3994 4.91764 49.3473 4.6263 49.2432 4.48633C49.139 4.34961 48.9079 4.23405 48.5498 4.13965V4.10059H50.8887V4.13965C50.5273 4.23405 50.2946 4.34961 50.1904 4.48633C50.0863 4.6263 50.0358 4.91764 50.0391 5.36035V8.16797L52.29 5.84863C52.583 5.54264 52.8141 5.27734 52.9834 5.05273C53.1364 4.85091 53.2048 4.68815 53.1885 4.56445C53.1722 4.44076 53.1169 4.35286 53.0225 4.30078C52.9248 4.24544 52.7669 4.19173 52.5488 4.13965V4.10059H54.9756V4.13965C54.611 4.22754 54.2985 4.36914 54.0381 4.56445C53.7679 4.76953 53.3317 5.1748 52.7295 5.78027L51.8262 6.68848L53.6377 9.26172C54.152 9.98438 54.4906 10.4222 54.6533 10.5752C54.8291 10.7412 55.0765 10.8698 55.3955 10.9609ZM60.2002 11H55.5127V10.9609C55.8708 10.8665 56.1019 10.7461 56.2061 10.5996C56.3102 10.4499 56.3623 10.1292 56.3623 9.6377V5.45801C56.3623 5.24642 56.3542 5.0804 56.3379 4.95996C56.3216 4.83626 56.2842 4.71745 56.2256 4.60352C56.1702 4.48633 56.0856 4.39355 55.9717 4.3252C55.8577 4.25358 55.7048 4.19173 55.5127 4.13965V4.10059H59.9121V5.51172H59.873C59.7396 5.25456 59.6436 5.07878 59.585 4.98438C59.5719 4.96159 59.5475 4.9209 59.5117 4.8623C59.4759 4.80371 59.4482 4.75814 59.4287 4.72559C59.3766 4.6377 59.3359 4.58073 59.3066 4.55469L59.2529 4.50586C59.2139 4.47331 59.1781 4.44401 59.1455 4.41797C59.0641 4.35286 58.8851 4.32031 58.6084 4.32031H57.002V7.33789H58.501C58.6279 7.33789 58.7354 7.3265 58.8232 7.30371C58.9111 7.27767 58.9909 7.23047 59.0625 7.16211C59.1374 7.09049 59.1943 7.02539 59.2334 6.9668C59.2757 6.9082 59.3376 6.81217 59.4189 6.67871H59.4629V8.22168H59.4189C59.2529 7.95475 59.1146 7.77734 59.0039 7.68945C58.89 7.60156 58.7223 7.55762 58.501 7.55762H57.002V10.7803H58.8916C59.1097 10.7803 59.2904 10.738 59.4336 10.6533C59.5801 10.5654 59.7152 10.4255 59.8389 10.2334C59.8747 10.1781 59.9268 10.0983 59.9951 9.99414C60.0635 9.88997 60.1074 9.82161 60.127 9.78906C60.153 9.74674 60.1921 9.6849 60.2441 9.60352C60.2995 9.51888 60.3385 9.46029 60.3613 9.42773H60.4004L60.2002 11ZM67.5293 10.9609V11H66.9873C66.4437 11 66.097 10.9593 65.9473 10.8779C65.7878 10.79 65.5615 10.528 65.2686 10.0918L63.7793 7.87012H62.5488V9.6377C62.5456 10.1292 62.596 10.4499 62.7002 10.5996C62.8044 10.7461 63.0371 10.8665 63.3984 10.9609V11H61.0596V10.9609C61.4176 10.8665 61.6488 10.7461 61.7529 10.5996C61.8571 10.4499 61.9092 10.1292 61.9092 9.6377V5.45801C61.9092 4.95996 61.8571 4.63932 61.7529 4.49609C61.6488 4.35286 61.4176 4.23405 61.0596 4.13965V4.10059H63.9258C64.1699 4.10059 64.3978 4.11686 64.6094 4.14941C64.821 4.18197 65.026 4.24056 65.2246 4.3252C65.4232 4.40658 65.5924 4.51237 65.7324 4.64258C65.8724 4.76953 65.9847 4.93392 66.0693 5.13574C66.154 5.33757 66.1963 5.56868 66.1963 5.8291C66.1963 6.77637 65.6071 7.40625 64.4287 7.71875L65.957 9.83789C66.2598 10.2611 66.5088 10.5394 66.7041 10.6729C66.8929 10.7998 67.168 10.8958 67.5293 10.9609ZM62.5488 4.32031V7.66016H63.6084C64.1162 7.66016 64.5589 7.51367 64.9365 7.2207C65.3141 6.92448 65.5013 6.50456 65.498 5.96094C65.498 4.86719 64.9251 4.32031 63.7793 4.32031H62.5488Z" fill="white"/>
</svg>
