<svg width="35" height="34" viewBox="0 0 35 34" fill="none" xmlns="http://www.w3.org/2000/svg">
<path d="M33.4438 7.27534V29.4559C33.4438 31.1769 32.0449 32.5722 30.3195 32.5722H5.32544C3.60005 32.5722 2.20117 31.1769 2.20117 29.4559V7.23096L33.4438 7.27534Z" fill="#191919"/>
<path d="M32.2517 7.00331C32.2517 7.93975 32.2517 8.87622 32.2517 9.81266C32.2517 11.9723 32.2517 14.1319 32.2517 16.2915C32.2517 18.6996 32.2517 21.1078 32.2517 23.5159C32.2517 25.198 32.2517 26.88 32.2517 28.562C32.2517 28.961 32.2737 29.3715 32.2247 29.7683C32.238 29.6694 32.2513 29.5705 32.2646 29.4715C32.225 29.7548 32.1502 30.028 32.0397 30.2918C32.0772 30.2029 32.1147 30.1141 32.1522 30.0252C32.0797 30.1909 31.9951 30.349 31.8976 30.5014C31.8712 30.5425 31.843 30.5825 31.8147 30.6224C31.6995 30.7851 31.9954 30.3961 31.8705 30.5513C31.8093 30.6273 31.7429 30.6989 31.675 30.7688C31.6071 30.8388 31.5344 30.904 31.4603 30.9673C31.3975 31.0211 31.2383 31.1362 31.5332 30.9138C31.4942 30.9433 31.4538 30.9708 31.4135 30.9984C31.251 31.1094 31.076 31.2011 30.8959 31.2797C30.9848 31.2422 31.0737 31.2047 31.1626 31.1672C30.8985 31.2776 30.625 31.3523 30.3414 31.3919C30.4404 31.3786 30.5393 31.3653 30.6383 31.352C30.3089 31.3925 29.9722 31.379 29.6408 31.379C29.0474 31.379 28.454 31.379 27.8606 31.379C25.8584 31.379 23.8562 31.379 21.854 31.379C19.4079 31.379 16.9619 31.379 14.5158 31.379C12.3978 31.379 10.2798 31.379 8.16183 31.379C7.14387 31.379 6.12594 31.379 5.10802 31.379C4.95779 31.379 4.8083 31.3704 4.65911 31.352C4.75805 31.3653 4.85703 31.3786 4.95596 31.3919C4.6724 31.3523 4.39893 31.2776 4.13476 31.1672C4.22368 31.2047 4.31261 31.2423 4.40153 31.2797C4.23567 31.2073 4.07729 31.1228 3.92479 31.0254C3.88358 30.9991 3.84361 30.9708 3.80367 30.9426C3.64082 30.8276 4.03002 31.1232 3.87465 30.9984C3.7986 30.9373 3.72691 30.871 3.6569 30.8032C3.58684 30.7354 3.52163 30.6628 3.45817 30.5888C3.40434 30.526 3.28884 30.367 3.51158 30.6618C3.4821 30.6228 3.45448 30.5824 3.4269 30.5421C3.31579 30.3799 3.224 30.2051 3.14527 30.0251C3.18279 30.114 3.22035 30.2029 3.25783 30.2918C3.14732 30.0279 3.07258 29.7548 3.03294 29.4715C3.04622 29.5704 3.05951 29.6693 3.07284 29.7683C3.02959 29.4177 3.04581 29.0574 3.04581 28.7048C3.04581 28.0525 3.04581 27.4002 3.04581 26.7478C3.04581 24.6177 3.04581 22.4876 3.04581 20.3574C3.04581 17.9378 3.04581 15.5181 3.04581 13.0983C3.04581 11.3624 3.04581 9.62647 3.04581 7.89056C3.04581 7.57988 3.04581 7.26919 3.04581 6.95851C2.67359 7.33059 2.30136 7.70266 1.92914 8.07474C2.63011 8.07574 3.33105 8.07674 4.03199 8.07775C5.80508 8.08028 7.57818 8.08277 9.35128 8.0853C11.7018 8.08865 14.0524 8.092 16.403 8.09535C18.8365 8.09881 21.2699 8.10231 23.7034 8.10573C25.725 8.10859 27.7467 8.1115 29.7683 8.11436C30.8835 8.11592 31.9987 8.11752 33.114 8.11912C33.1987 8.11924 33.2836 8.11935 33.3684 8.1195C33.9771 8.12035 34.4851 7.61109 34.4851 7.00327C34.4851 6.39415 33.9771 5.8879 33.3684 5.88705C32.6675 5.88604 31.9665 5.88504 31.2656 5.88403C29.4925 5.8815 27.7194 5.87901 25.9463 5.87648C23.5957 5.87313 21.2451 5.86978 18.8945 5.86643C16.4611 5.86297 14.0277 5.85948 11.5942 5.85605C9.5726 5.85319 7.55093 5.85029 5.52927 5.84742C4.41404 5.84586 3.29885 5.84426 2.18363 5.84266C2.0988 5.84255 2.01401 5.84244 1.92918 5.84229C1.32044 5.84143 0.8125 6.35069 0.8125 6.95851C0.8125 7.89495 0.8125 8.83135 0.8125 9.76779C0.8125 11.9282 0.8125 14.0886 0.8125 16.249C0.8125 18.66 0.8125 21.0711 0.8125 23.4821C0.8125 25.1704 0.8125 26.8587 0.8125 28.5471C0.8125 28.816 0.8125 29.0851 0.8125 29.354C0.8125 30.4069 1.21324 31.3662 1.879 32.1672C2.57179 33.0008 3.60423 33.4544 4.65919 33.5843C4.98857 33.6248 5.32529 33.6113 5.65664 33.6113C6.25004 33.6113 6.84344 33.6113 7.43685 33.6113C9.43905 33.6113 11.4412 33.6113 13.4434 33.6113C15.8895 33.6113 18.3356 33.6113 20.7817 33.6113C22.8997 33.6113 25.0177 33.6113 27.1357 33.6113C28.1536 33.6113 29.1715 33.6113 30.1895 33.6113C31.8151 33.6113 33.4197 32.6625 34.0807 31.1518C34.3389 30.5616 34.4851 29.961 34.4851 29.3119C34.4851 29.1877 34.4851 29.0634 34.4851 28.9392C34.4851 27.4434 34.4851 25.9475 34.4851 24.4517C34.4851 22.0884 34.4851 19.7251 34.4851 17.3619C34.4851 15.1058 34.4851 12.8498 34.4851 10.5937C34.4851 9.41945 34.4851 8.24522 34.4851 7.07099C34.4851 7.0484 34.4851 7.02578 34.4851 7.00316C34.4851 6.39467 33.9771 5.88694 33.3684 5.88694C32.7597 5.88694 32.2517 6.39485 32.2517 7.00331Z" fill="#191919"/>
<path d="M30.3195 1.32959H5.32544C3.60005 1.32959 2.20117 2.73332 2.20117 4.46467V7.18632L33.4438 7.23097V4.46467C33.4438 2.73332 32.0449 1.32959 30.3195 1.32959ZM10.0118 5.82334C9.14918 5.82334 8.4497 5.12148 8.4497 4.2558C8.4497 3.39013 9.14918 2.68826 10.0118 2.68826C10.8745 2.68826 11.574 3.39013 11.574 4.2558C11.574 5.12148 10.8745 5.82334 10.0118 5.82334ZM25.6332 5.82334C24.7704 5.82334 24.071 5.12148 24.071 4.2558C24.071 3.39013 24.7704 2.68826 25.6332 2.68826C26.4958 2.68826 27.1952 3.39013 27.1952 4.2558C27.1953 5.12148 26.4958 5.82334 25.6332 5.82334Z" fill="#297D73"/>
<path d="M25.462 4.72268C25.3906 4.7216 25.3205 4.71742 25.2496 4.7099C25.3521 4.72275 25.4547 4.73561 25.5572 4.74851C25.4197 4.72971 25.2887 4.69765 25.1591 4.65094C25.2512 4.68724 25.3433 4.72355 25.4354 4.75985C25.3417 4.72286 25.2531 4.68004 25.1667 4.62997C25.0915 4.58643 24.9441 4.46631 25.2392 4.68836C25.2003 4.65904 25.1643 4.62648 25.1284 4.59399C25.0925 4.56147 25.0598 4.52596 25.0273 4.49055C25.2646 4.74869 25.1421 4.63195 25.0897 4.55837C25.0337 4.47975 24.9898 4.39435 24.9505 4.30762C24.9895 4.39366 25.0283 4.47971 25.0672 4.56576C25.0171 4.44481 24.9828 4.32249 24.9626 4.1942C24.9764 4.28997 24.9902 4.3857 25.0039 4.48144C24.9877 4.34853 24.9877 4.21808 25.0039 4.08518C24.9902 4.18091 24.9764 4.27668 24.9626 4.37241C24.9827 4.24412 25.0171 4.1218 25.0672 4.00086C25.0283 4.0869 24.9894 4.17291 24.9505 4.25896C24.9902 4.17154 25.0361 4.08885 25.0897 4.00824C25.1365 3.93797 25.2652 3.80071 25.0273 4.07606C25.0587 4.03968 25.0936 4.00612 25.1284 3.97262C25.1632 3.93909 25.2013 3.90862 25.2392 3.87825C24.9625 4.0998 25.088 3.98548 25.1667 3.93664C25.251 3.88441 25.3425 3.84346 25.4354 3.80676C25.3433 3.84307 25.2512 3.87937 25.1591 3.91568C25.2887 3.86893 25.4197 3.83691 25.5572 3.81811C25.4547 3.83096 25.3522 3.84382 25.2496 3.85672C25.392 3.84159 25.5318 3.84159 25.6742 3.85672C25.5717 3.84386 25.4692 3.831 25.3667 3.81811C25.5041 3.83691 25.6352 3.86896 25.7648 3.91568C25.6727 3.87937 25.5806 3.84307 25.4884 3.80676C25.5821 3.84375 25.6707 3.88657 25.7571 3.93664C25.8323 3.98018 25.9798 4.1003 25.6846 3.87825C25.7236 3.90757 25.7596 3.94013 25.7954 3.97262C25.8314 4.00514 25.864 4.04066 25.8966 4.07606C25.6592 3.81793 25.7817 3.93466 25.8341 4.00824C25.8901 4.08683 25.934 4.17227 25.9733 4.25896C25.9344 4.17291 25.8955 4.0869 25.8567 4.00086C25.9067 4.1218 25.941 4.24408 25.9612 4.37241C25.9474 4.27668 25.9337 4.18091 25.9199 4.08518C25.9361 4.21808 25.9361 4.34853 25.9199 4.48144C25.9337 4.3857 25.9474 4.28997 25.9612 4.1942C25.9411 4.32249 25.9067 4.44481 25.8567 4.56576C25.8955 4.47971 25.9344 4.39366 25.9733 4.30762C25.9337 4.39503 25.8877 4.47773 25.8341 4.55837C25.7874 4.62864 25.6587 4.7659 25.8966 4.49055C25.8651 4.52693 25.8302 4.5605 25.7954 4.59399C25.7606 4.62752 25.7225 4.658 25.6846 4.68836C25.9613 4.46678 25.8358 4.58113 25.7571 4.62997C25.6729 4.6822 25.5813 4.72315 25.4884 4.75985C25.5806 4.72355 25.6727 4.68721 25.7648 4.65094C25.6352 4.69769 25.5041 4.72971 25.3667 4.74851C25.4692 4.73565 25.5717 4.72279 25.6742 4.7099C25.6034 4.71742 25.5333 4.7216 25.462 4.72268C24.8315 4.73223 24.305 5.20697 24.305 5.8032C24.305 6.38499 24.8313 6.89327 25.462 6.88373C26.7371 6.86446 27.9531 6.02118 28.1848 4.81705C28.3093 4.17039 28.2141 3.53051 27.8586 2.95733C27.513 2.40017 26.9622 2.0418 26.3324 1.81468C25.7902 1.6191 25.0825 1.63758 24.5439 1.83178C23.9099 2.06042 23.3845 2.44253 23.04 2.99799C22.399 4.03126 22.6325 5.48622 23.642 6.24575C24.1731 6.64533 24.7723 6.87328 25.4619 6.88373C26.0926 6.89327 26.6189 6.38499 26.6189 5.8032C26.6189 5.20697 26.0924 4.73223 25.462 4.72268Z" fill="#297D73"/>
<path d="M9.84081 4.72268C9.76951 4.7216 9.69936 4.71742 9.62852 4.70989C9.73106 4.72275 9.83356 4.73561 9.93611 4.7485C9.79862 4.7297 9.66758 4.69764 9.53797 4.65093C9.6301 4.68724 9.72223 4.72354 9.81436 4.75985C9.72069 4.72286 9.6321 4.68003 9.54568 4.62997C9.47048 4.58642 9.32301 4.4663 9.61818 4.68835C9.57919 4.65903 9.54325 4.62647 9.50735 4.59399C9.47141 4.56146 9.43878 4.52595 9.40619 4.49054C9.64352 4.74868 9.521 4.63195 9.46863 4.55837C9.41267 4.47974 9.36879 4.39434 9.32949 4.30761C9.36836 4.39366 9.40723 4.4797 9.44611 4.56575C9.39601 4.4448 9.36169 4.32249 9.34156 4.19419C9.35533 4.28996 9.36909 4.3857 9.38286 4.48143C9.36666 4.34853 9.36666 4.21807 9.38286 4.08517C9.36909 4.1809 9.35533 4.27667 9.34156 4.37241C9.36169 4.24411 9.39605 4.1218 9.44611 4.00085C9.40723 4.0869 9.36836 4.17291 9.32949 4.25895C9.36913 4.17154 9.41498 4.08884 9.46863 4.00823C9.51537 3.93796 9.6441 3.8007 9.40619 4.07605C9.43762 4.03968 9.47252 4.00611 9.50735 3.97261C9.54221 3.93908 9.58023 3.90861 9.61818 3.87825C9.34144 4.09979 9.46697 3.98547 9.54568 3.93663C9.6299 3.88441 9.72146 3.84345 9.81436 3.80675C9.72223 3.84306 9.6301 3.87936 9.53797 3.91567C9.66758 3.86892 9.79862 3.8369 9.93611 3.8181C9.83356 3.83096 9.73106 3.84381 9.62852 3.85671C9.77094 3.84158 9.91073 3.84158 10.0531 3.85671C9.95061 3.84385 9.8481 3.83099 9.74556 3.8181C9.88304 3.8369 10.0141 3.86895 10.1437 3.91567C10.0516 3.87936 9.95948 3.84306 9.86735 3.80675C9.96102 3.84374 10.0496 3.88657 10.136 3.93663C10.2112 3.98018 10.3587 4.10029 10.0635 3.87825C10.1025 3.90756 10.1385 3.94013 10.1744 3.97261C10.2103 4.00514 10.243 4.04065 10.2755 4.07605C10.0382 3.81792 10.1607 3.93465 10.2131 4.00823C10.269 4.08682 10.3129 4.17226 10.3522 4.25895C10.3133 4.17291 10.2745 4.0869 10.2356 4.00085C10.2857 4.1218 10.32 4.24408 10.3401 4.37241C10.3264 4.27667 10.3126 4.1809 10.2988 4.08517C10.315 4.21807 10.315 4.34853 10.2988 4.48143C10.3126 4.3857 10.3264 4.28996 10.3401 4.19419C10.32 4.32249 10.2857 4.4448 10.2356 4.56575C10.2745 4.4797 10.3133 4.39366 10.3522 4.30761C10.3126 4.39506 10.2667 4.47772 10.2131 4.55837C10.1663 4.62864 10.0376 4.7659 10.2755 4.49054C10.2441 4.52692 10.2092 4.56049 10.1744 4.59399C10.1395 4.62752 10.1015 4.65799 10.0635 4.68835C10.3403 4.46681 10.2147 4.58113 10.136 4.62997C10.0518 4.68219 9.96025 4.72314 9.86735 4.75985C9.95948 4.72354 10.0516 4.6872 10.1437 4.65093C10.0141 4.69768 9.88304 4.7297 9.74556 4.7485C9.8481 4.73564 9.95061 4.72278 10.0531 4.70989C9.98227 4.71742 9.91212 4.7216 9.84081 4.72268C9.21032 4.73222 8.68388 5.20697 8.68388 5.8032C8.68388 6.38499 9.21013 6.89327 9.84081 6.88373C11.116 6.86446 12.3319 6.02118 12.5637 4.81704C12.6882 4.17038 12.593 3.5305 12.2375 2.95732C11.8919 2.40016 11.3411 2.04179 10.7113 1.81466C10.1691 1.61912 9.46142 1.63756 8.92282 1.83177C8.28882 2.06041 7.76346 2.44252 7.41888 2.99798C6.7779 4.03125 7.01145 5.48621 8.02095 6.24575C8.55203 6.64533 9.15113 6.87328 9.84081 6.88373C10.4715 6.89327 10.9977 6.38499 10.9977 5.8032C10.9977 5.20697 10.4713 4.73222 9.84081 4.72268Z" fill="#297D73"/>
<path d="M30.2245 0.288121C29.3747 0.288121 28.5249 0.288121 27.6751 0.288121C25.6403 0.288121 23.6055 0.288121 21.5708 0.288121C19.123 0.288121 16.6752 0.288121 14.2275 0.288121C12.1386 0.288121 10.0499 0.288121 7.96101 0.288121C7.00312 0.288121 6.04524 0.288121 5.08736 0.288121C3.19876 0.288121 1.54169 1.52402 0.985511 3.28119C0.81064 3.83366 0.812501 4.40776 0.812501 4.97846C0.812501 5.54388 0.812501 6.1093 0.812501 6.67472C0.812501 6.82782 0.812501 6.98096 0.812501 7.13406C0.812501 7.73125 1.32044 8.22758 1.92918 8.22842C2.63015 8.2294 3.33109 8.23038 4.03202 8.23137C5.80512 8.23381 7.57821 8.23629 9.3513 8.23878C11.7019 8.24206 14.0525 8.24534 16.403 8.24862C18.8365 8.25202 21.2699 8.25545 23.7034 8.2588C25.725 8.26161 27.7467 8.26446 29.7683 8.26727C30.8835 8.2688 31.9987 8.27037 33.114 8.27193C33.1987 8.27204 33.2836 8.27215 33.3684 8.2723C33.9771 8.27314 34.4851 7.77386 34.4851 7.17794C34.4851 6.30136 34.4851 5.42474 34.4851 4.54816C34.4851 3.73243 34.2773 2.92366 33.8261 2.23254C33.2526 1.35424 32.3591 0.70726 31.3329 0.430789C30.9757 0.334558 30.5943 0.291076 30.2245 0.288121C29.6157 0.283233 29.1078 0.789629 29.1078 1.38248C29.1078 1.98273 29.6158 2.47195 30.2245 2.47684C30.3632 2.47793 30.5007 2.48669 30.6384 2.50328C30.5394 2.49026 30.4405 2.47724 30.3415 2.46418C30.6251 2.50299 30.8985 2.5762 31.1627 2.68444C31.0738 2.64767 30.9849 2.6109 30.896 2.57412C31.0618 2.64511 31.2202 2.72795 31.3727 2.82346C31.4139 2.84928 31.4539 2.87693 31.4939 2.90462C31.6567 3.01741 31.2675 2.72755 31.4229 2.8499C31.4989 2.9098 31.5706 2.97477 31.6407 3.04127C31.7107 3.10777 31.776 3.17898 31.8394 3.2515C31.8932 3.31307 32.0087 3.46894 31.786 3.17996C31.8155 3.21819 31.8431 3.25773 31.8707 3.29724C31.9818 3.45632 32.0736 3.6277 32.1523 3.80411C32.1147 3.71696 32.0772 3.62981 32.0397 3.54267C32.1502 3.80134 32.225 4.06913 32.2646 4.34684C32.2514 4.24988 32.238 4.15288 32.2247 4.05592C32.2916 4.58701 32.2518 5.14079 32.2518 5.67429C32.2518 6.17551 32.2518 6.67669 32.2518 7.17791C32.624 6.81312 32.9962 6.44833 33.3684 6.08355C32.6675 6.08256 31.9665 6.08158 31.2656 6.08059C29.4925 6.07811 27.7194 6.07567 25.9464 6.07319C23.5958 6.0699 21.2452 6.06662 18.8946 6.06334C16.4612 6.05995 14.0278 6.05652 11.5943 6.05316C9.57267 6.05035 7.551 6.04751 5.52934 6.0447C4.41411 6.04317 3.29893 6.0416 2.1837 6.04003C2.09887 6.03992 2.01408 6.03981 1.92925 6.03966C2.30147 6.40445 2.6737 6.76924 3.04592 7.13402C3.04592 6.64003 3.04592 6.14607 3.04592 5.65208C3.04592 5.1258 3.00699 4.57979 3.07295 4.05588C3.05966 4.15284 3.04637 4.24984 3.03305 4.3468C3.07269 4.06909 3.14747 3.8013 3.25794 3.54263C3.22042 3.62978 3.1829 3.71689 3.14538 3.80407C3.21789 3.6416 3.3025 3.48653 3.39999 3.33718C3.42634 3.2968 3.45459 3.25766 3.48284 3.21856C3.59805 3.05903 3.30216 3.44038 3.42712 3.28823C3.48831 3.21378 3.55464 3.14356 3.62254 3.07501C3.69047 3.0064 3.76316 2.94252 3.83724 2.8804C3.90011 2.82765 4.05931 2.71482 3.76436 2.93282C3.8034 2.90396 3.84375 2.87693 3.88414 2.8499C4.04658 2.74105 4.2216 2.6512 4.40172 2.57412C4.31279 2.6109 4.22391 2.64767 4.13494 2.68444C4.39911 2.5762 4.67258 2.50299 4.95615 2.46418C4.85721 2.4772 4.75823 2.49022 4.6593 2.50328C4.98868 2.46352 5.32539 2.47684 5.65675 2.47684C6.25015 2.47684 6.84355 2.47684 7.43695 2.47684C9.43915 2.47684 11.4413 2.47684 13.4435 2.47684C15.8896 2.47684 18.3357 2.47684 20.7818 2.47684C22.8998 2.47684 25.0178 2.47684 27.1358 2.47684C28.1537 2.47684 29.1716 2.47684 30.1896 2.47684C30.2012 2.47684 30.2129 2.47684 30.2246 2.47684C30.8333 2.47684 31.3412 1.97905 31.3412 1.38248C31.3412 0.785908 30.8332 0.288121 30.2245 0.288121Z" fill="#297D73"/>
<path d="M12.693 14.5207C12.693 14.7124 12.5065 14.8679 12.2765 14.8679H8.94392C8.71385 14.8679 8.52734 14.7124 8.52734 14.5207V11.7436C8.52734 11.5519 8.71385 11.3965 8.94392 11.3965H12.2765C12.5065 11.3965 12.693 11.5519 12.693 11.7436V14.5207Z" fill="#55D6C6"/>
<path d="M10.9533 14.9917C10.9524 15.0061 10.9515 15.0205 10.9506 15.0349C10.9622 14.9481 10.9739 14.8613 10.9855 14.7745C10.982 14.8024 10.9752 14.8295 10.965 14.8558C10.9979 14.7778 11.0308 14.6998 11.0637 14.6218C11.0201 14.7087 11.0499 14.6773 11.153 14.5278C11.0526 14.655 11.3658 14.3994 11.2181 14.4672C11.296 14.4343 11.3739 14.4014 11.4519 14.3685C11.4256 14.3786 11.3985 14.3855 11.3706 14.389C11.4573 14.3773 11.5441 14.3657 11.6308 14.354C11.1658 14.3829 10.6917 14.3567 10.226 14.3567C9.74959 14.3567 9.26453 14.3835 8.78876 14.354C8.87548 14.3657 8.96223 14.3773 9.04894 14.389C9.02102 14.3855 8.9939 14.3786 8.96767 14.3685C9.04561 14.4014 9.12352 14.4343 9.20146 14.4672C9.11465 14.4236 9.1459 14.4534 9.29529 14.5566C9.16812 14.4563 9.42364 14.7696 9.35581 14.6218C9.3887 14.6998 9.42158 14.7778 9.45447 14.8558C9.44429 14.8296 9.43747 14.8025 9.43398 14.7745C9.44563 14.8613 9.45727 14.9481 9.46895 15.0349C9.44005 14.5699 9.46625 14.0958 9.46625 13.6302C9.46625 13.1537 9.43936 12.6686 9.46895 12.1929C9.45731 12.2797 9.44563 12.3665 9.43398 12.4533C9.43747 12.4253 9.44432 12.3982 9.45447 12.372C9.42158 12.45 9.3887 12.5279 9.35581 12.606C9.3994 12.5191 9.36964 12.5504 9.26652 12.6999C9.36684 12.5727 9.05367 12.8284 9.20143 12.7606C9.12349 12.7935 9.04558 12.8264 8.96764 12.8593C8.9939 12.8491 9.02098 12.8423 9.04891 12.8388C8.96219 12.8504 8.87544 12.8621 8.78873 12.8738C9.25373 12.8449 9.72777 12.8711 10.1935 12.8711C10.6699 12.8711 11.155 12.8442 11.6307 12.8738C11.544 12.8621 11.4573 12.8504 11.3706 12.8388C11.3985 12.8423 11.4256 12.8491 11.4518 12.8593C11.3739 12.8264 11.296 12.7935 11.218 12.7606C11.3049 12.8042 11.2736 12.7744 11.1242 12.6712C11.2514 12.7715 10.9959 12.4582 11.0637 12.606C11.0308 12.528 10.9979 12.45 10.965 12.372C10.9752 12.3982 10.982 12.4253 10.9855 12.4533C10.9739 12.3665 10.9622 12.2797 10.9506 12.1929C10.9795 12.6579 10.9533 13.132 10.9533 13.5976C10.9533 14.0623 10.9533 14.527 10.9533 14.9917C10.9533 15.5256 11.3985 15.9712 11.932 15.9712C12.4655 15.9712 12.9107 15.5256 12.9107 14.9917C12.9107 14.18 12.9107 13.3684 12.9107 12.5567C12.9107 12.4505 12.9107 12.3443 12.9107 12.2381C12.9107 11.5113 12.3031 10.9121 11.5795 10.9121C11.2252 10.9121 10.8709 10.9121 10.5166 10.9121C10.0345 10.9121 9.55244 10.9121 9.07034 10.9121C8.88203 10.9121 8.71963 10.9138 8.52858 10.9498C7.9164 11.0651 7.50879 11.6693 7.50879 12.2675C7.50879 13.12 7.50879 13.9726 7.50879 14.8251C7.50879 15.0113 7.50902 15.1951 7.56693 15.3765C7.74832 15.9448 8.26869 16.3156 8.86341 16.3156C9.20991 16.3156 9.55639 16.3156 9.9029 16.3156C10.3576 16.3156 10.8122 16.3156 11.2669 16.3156C11.3711 16.3156 11.4754 16.3156 11.5796 16.3156C11.8244 16.3156 12.0696 16.2481 12.2783 16.1202C12.6821 15.8728 12.8821 15.4536 12.9107 14.9917C12.9439 14.4583 12.4405 14.0122 11.932 14.0122C11.3734 14.0122 10.9863 14.459 10.9533 14.9917Z" fill="#55D6C6"/>
<path d="M19.9049 14.5207C19.9049 14.7125 19.7183 14.8679 19.4883 14.8679H16.1558C15.9258 14.8679 15.7393 14.7125 15.7393 14.5207V11.7436C15.7393 11.5519 15.9258 11.3965 16.1558 11.3965H19.4883C19.7183 11.3965 19.9049 11.5519 19.9049 11.7436V14.5207Z" fill="#55D6C6"/>
<path d="M18.673 14.9917C18.6721 15.0061 18.6712 15.0205 18.6703 15.0349C18.682 14.9481 18.6936 14.8613 18.7053 14.7745C18.7018 14.8024 18.695 14.8295 18.6848 14.8558C18.7177 14.7778 18.7506 14.6998 18.7834 14.6218C18.7398 14.7087 18.7696 14.6774 18.8727 14.5279C18.7724 14.6551 19.0855 14.3994 18.9377 14.4672C19.0157 14.4343 19.0936 14.4014 19.1716 14.3685C19.1453 14.3786 19.1182 14.3855 19.0903 14.389C19.177 14.3773 19.2637 14.3657 19.3505 14.354C18.8855 14.3829 18.4115 14.3567 17.9457 14.3567C17.4693 14.3567 16.9843 14.3835 16.5085 14.354C16.5952 14.3657 16.682 14.3773 16.7687 14.389C16.7407 14.3855 16.7136 14.3786 16.6874 14.3685C16.7653 14.4014 16.8433 14.4343 16.9212 14.4672C16.8343 14.4236 16.8656 14.4534 17.015 14.5566C16.8878 14.4563 17.1433 14.7697 17.0755 14.6219C17.1084 14.6999 17.1413 14.7778 17.1742 14.8558C17.164 14.8296 17.1572 14.8025 17.1537 14.7745C17.1653 14.8613 17.177 14.9481 17.1886 15.0349C17.1597 14.5699 17.1859 14.0958 17.1859 13.6302C17.1859 13.1537 17.1591 12.6686 17.1886 12.1929C17.177 12.2797 17.1653 12.3665 17.1537 12.4533C17.1572 12.4253 17.164 12.3982 17.1742 12.372C17.1413 12.45 17.1084 12.5279 17.0755 12.606C17.1191 12.5191 17.0893 12.5504 16.9862 12.6999C17.0866 12.5727 16.7734 12.8284 16.9212 12.7606C16.8432 12.7935 16.7653 12.8264 16.6873 12.8593C16.7136 12.8491 16.7407 12.8423 16.7686 12.8388C16.6819 12.8504 16.5952 12.8621 16.5085 12.8738C16.9735 12.8449 17.4475 12.8711 17.9132 12.8711C18.3896 12.8711 18.8747 12.8442 19.3504 12.8738C19.2637 12.8621 19.177 12.8504 19.0902 12.8388C19.1181 12.8423 19.1453 12.8491 19.1715 12.8593C19.0935 12.8264 19.0156 12.7935 18.9377 12.7606C19.0245 12.8042 18.9933 12.7744 18.8439 12.6712C18.9711 12.7715 18.7156 12.4582 18.7834 12.606C18.7505 12.528 18.7176 12.45 18.6847 12.372C18.6949 12.3982 18.7017 12.4253 18.7052 12.4533C18.6936 12.3665 18.682 12.2797 18.6703 12.1929C18.6992 12.6579 18.673 13.132 18.673 13.5976C18.673 14.0623 18.673 14.527 18.673 14.9917C18.673 15.5256 19.1182 15.9712 19.6518 15.9712C20.1853 15.9712 20.6305 15.5256 20.6305 14.9917C20.6305 14.18 20.6305 13.3684 20.6305 12.5567C20.6305 12.4505 20.6305 12.3443 20.6305 12.2381C20.6305 11.5113 20.0229 10.9121 19.2993 10.9121C18.945 10.9121 18.5907 10.9121 18.2364 10.9121C17.7543 10.9121 17.2722 10.9121 16.7901 10.9121C16.6018 10.9121 16.4394 10.9138 16.2483 10.9498C15.6362 11.0651 15.2285 11.6693 15.2285 12.2675C15.2285 13.12 15.2285 13.9726 15.2285 14.8251C15.2285 15.0113 15.2287 15.1951 15.2867 15.3766C15.4681 15.9449 15.9884 16.3156 16.5831 16.3156C16.9296 16.3156 17.2761 16.3156 17.6226 16.3156C18.0773 16.3156 18.5319 16.3156 18.9866 16.3156C19.0908 16.3156 19.195 16.3156 19.2992 16.3156C19.5441 16.3156 19.7893 16.248 19.998 16.1202C20.4018 15.8729 20.6018 15.4535 20.6305 14.9917C20.6636 14.4582 20.1602 14.0122 19.6517 14.0122C19.0932 14.0122 18.7061 14.459 18.673 14.9917Z" fill="#55D6C6"/>
<path d="M27.5426 14.5207C27.5426 14.7125 27.3561 14.8679 27.126 14.8679H23.7936C23.5635 14.8679 23.377 14.7125 23.377 14.5207V11.7436C23.377 11.5519 23.5635 11.3965 23.7936 11.3965H27.126C27.3561 11.3965 27.5426 11.5519 27.5426 11.7436V14.5207Z" fill="#55D6C6"/>
<path d="M26.3918 14.9917C26.3909 15.0061 26.39 15.0205 26.3891 15.0349C26.4007 14.9481 26.4124 14.8613 26.424 14.7745C26.4205 14.8024 26.4137 14.8295 26.4035 14.8558C26.4364 14.7778 26.4693 14.6998 26.5022 14.6218C26.4586 14.7087 26.4883 14.6774 26.5914 14.5279C26.4911 14.6551 26.8043 14.3994 26.6565 14.4672C26.7344 14.4343 26.8123 14.4014 26.8903 14.3685C26.864 14.3786 26.8369 14.3855 26.809 14.389C26.8957 14.3773 26.9825 14.3657 27.0692 14.354C26.6042 14.3829 26.1302 14.3567 25.6645 14.3567C25.188 14.3567 24.7029 14.3835 24.2272 14.354C24.3139 14.3657 24.4007 14.3773 24.4874 14.389C24.4595 14.3855 24.4324 14.3786 24.4061 14.3685C24.4841 14.4014 24.562 14.4343 24.6399 14.4672C24.5531 14.4236 24.5844 14.4534 24.7337 14.5566C24.6065 14.4563 24.8621 14.7697 24.7943 14.6219C24.8272 14.6999 24.86 14.7778 24.8929 14.8558C24.8827 14.8296 24.8759 14.8025 24.8724 14.7745C24.884 14.8613 24.8957 14.9481 24.9073 15.0349C24.8785 14.5699 24.9047 14.0959 24.9047 13.6302C24.9047 13.1537 24.8778 12.6686 24.9073 12.1929C24.8957 12.2797 24.884 12.3665 24.8724 12.4533C24.8759 12.4253 24.8827 12.3982 24.8929 12.372C24.86 12.45 24.8271 12.5279 24.7943 12.606C24.8379 12.5191 24.8081 12.5504 24.705 12.6999C24.8053 12.5727 24.4921 12.8284 24.6399 12.7606C24.562 12.7935 24.4841 12.8264 24.4061 12.8593C24.4324 12.8491 24.4595 12.8423 24.4874 12.8388C24.4007 12.8504 24.314 12.8621 24.2272 12.8738C24.6922 12.8449 25.1662 12.8711 25.6319 12.8711C26.1084 12.8711 26.5934 12.8442 27.0692 12.8738C26.9825 12.8621 26.8958 12.8504 26.809 12.8388C26.8369 12.8423 26.8641 12.8491 26.8903 12.8593C26.8123 12.8264 26.7344 12.7935 26.6565 12.7606C26.7433 12.8042 26.712 12.7744 26.5627 12.6712C26.6898 12.7715 26.4343 12.4582 26.5022 12.606C26.4693 12.528 26.4364 12.45 26.4035 12.372C26.4137 12.3982 26.4205 12.4253 26.424 12.4533C26.4124 12.3665 26.4007 12.2797 26.3891 12.1929C26.418 12.6579 26.3918 13.132 26.3918 13.5976C26.3918 14.0623 26.3918 14.527 26.3918 14.9917C26.3918 15.5256 26.8369 15.9712 27.3705 15.9712C27.904 15.9712 28.3492 15.5256 28.3492 14.9917C28.3492 14.18 28.3492 13.3684 28.3492 12.5567C28.3492 12.4505 28.3492 12.3443 28.3492 12.2381C28.3492 11.5113 27.7416 10.9121 27.018 10.9121C26.6637 10.9121 26.3094 10.9121 25.9551 10.9121C25.473 10.9121 24.9909 10.9121 24.5089 10.9121C24.3206 10.9121 24.1582 10.9138 23.9671 10.9498C23.3549 11.0651 22.9473 11.6693 22.9473 12.2675C22.9473 13.12 22.9473 13.9726 22.9473 14.8251C22.9473 15.0113 22.9475 15.1951 23.0054 15.3766C23.1868 15.9449 23.7072 16.3156 24.3019 16.3156C24.6484 16.3156 24.9948 16.3156 25.3413 16.3156C25.796 16.3156 26.2507 16.3156 26.7053 16.3156C26.8095 16.3156 26.9138 16.3156 27.018 16.3156C27.2629 16.3156 27.508 16.248 27.7168 16.1202C28.1206 15.8729 28.3205 15.4535 28.3492 14.9917C28.3824 14.4582 27.8789 14.0122 27.3705 14.0122C26.8119 14.0122 26.4249 14.459 26.3918 14.9917Z" fill="#55D6C6"/>
<path d="M12.693 22.4704C12.693 22.6811 12.5065 22.8522 12.2765 22.8522H8.94392C8.71385 22.8522 8.52734 22.6811 8.52734 22.4704V19.4155C8.52734 19.2046 8.71385 19.0337 8.94392 19.0337H12.2765C12.5065 19.0337 12.693 19.2046 12.693 19.4155V22.4704Z" fill="#55D6C6"/>
<path d="M10.9533 22.7109C10.9524 22.7253 10.9515 22.7397 10.9506 22.7541C10.9622 22.6673 10.9739 22.5805 10.9855 22.4937C10.982 22.5216 10.9752 22.5487 10.965 22.575C10.9979 22.4969 11.0308 22.419 11.0637 22.341C11.0201 22.4278 11.0499 22.3965 11.153 22.247C11.0527 22.3742 11.3658 22.1185 11.2181 22.1864C11.296 22.1535 11.3739 22.1205 11.4519 22.0877C11.4256 22.0979 11.3985 22.1047 11.3706 22.1082C11.4573 22.0965 11.5441 22.0849 11.6308 22.0732C11.1658 22.1021 10.6917 22.0759 10.226 22.0759C9.74959 22.0759 9.26453 22.1028 8.78876 22.0732C8.87548 22.0849 8.96223 22.0965 9.04894 22.1082C9.02102 22.1047 8.9939 22.0979 8.96767 22.0877C9.04561 22.1206 9.12352 22.1535 9.20146 22.1864C9.11465 22.1428 9.1459 22.1726 9.29529 22.2758C9.16812 22.1754 9.42364 22.4888 9.35581 22.341C9.3887 22.419 9.42158 22.4969 9.45447 22.575C9.44429 22.5487 9.43747 22.5216 9.43398 22.4937C9.44563 22.5805 9.45727 22.6673 9.46895 22.7541C9.44005 22.2891 9.46625 21.815 9.46625 21.3494C9.46625 20.8729 9.4394 20.3878 9.46895 19.9121C9.45731 19.9989 9.44563 20.0857 9.43398 20.1725C9.43747 20.1445 9.44432 20.1174 9.45447 20.0912C9.42158 20.1692 9.3887 20.2471 9.35581 20.3251C9.3994 20.2383 9.36964 20.2696 9.26652 20.4191C9.36687 20.2919 9.05367 20.5476 9.20143 20.4798C9.12349 20.5127 9.04558 20.5456 8.96764 20.5785C8.9939 20.5684 9.02098 20.5615 9.04891 20.558C8.96219 20.5697 8.87544 20.5813 8.78873 20.593C9.25373 20.5641 9.72777 20.5903 10.1935 20.5903C10.6699 20.5903 11.155 20.5635 11.6307 20.593C11.544 20.5813 11.4573 20.5697 11.3706 20.558C11.3985 20.5615 11.4256 20.5684 11.4518 20.5785C11.3739 20.5456 11.296 20.5127 11.218 20.4798C11.3049 20.5234 11.2736 20.4936 11.1242 20.3904C11.2514 20.4906 10.9959 20.1773 11.0637 20.3251C11.0308 20.2471 10.9979 20.1692 10.965 20.0912C10.9752 20.1175 10.982 20.1445 10.9855 20.1725C10.9739 20.0857 10.9622 19.9989 10.9506 19.9121C10.9795 20.3771 10.9533 20.8512 10.9533 21.3168C10.9533 21.7815 10.9533 22.2462 10.9533 22.7109C10.9533 23.2449 11.3985 23.6904 11.932 23.6904C12.4655 23.6904 12.9107 23.2449 12.9107 22.7109C12.9107 21.8993 12.9107 21.0876 12.9107 20.276C12.9107 20.1697 12.9107 20.0635 12.9107 19.9573C12.9107 19.2305 12.3032 18.6313 11.5795 18.6313C11.2252 18.6313 10.8709 18.6313 10.5166 18.6313C10.0345 18.6313 9.55244 18.6313 9.07034 18.6313C8.88203 18.6313 8.71963 18.633 8.52858 18.669C7.91637 18.7842 7.50879 19.3885 7.50879 19.9867C7.50879 20.8392 7.50879 21.6918 7.50879 22.5443C7.50879 22.7304 7.50898 22.9143 7.56693 23.0958C7.74835 23.664 8.26865 24.0349 8.86341 24.0349C9.20991 24.0349 9.55639 24.0349 9.9029 24.0349C10.3576 24.0349 10.8122 24.0349 11.2669 24.0349C11.3711 24.0349 11.4754 24.0349 11.5796 24.0349C11.8244 24.0349 12.0696 23.9673 12.2783 23.8394C12.6821 23.592 12.882 23.1728 12.9107 22.711C12.9439 22.1775 12.4405 21.7315 11.932 21.7315C11.3734 21.7314 10.9863 22.1782 10.9533 22.7109Z" fill="#55D6C6"/>
<path d="M19.9049 22.4704C19.9049 22.6812 19.7183 22.8522 19.4883 22.8522H16.1558C15.9258 22.8522 15.7393 22.6812 15.7393 22.4704V19.4155C15.7393 19.2046 15.9258 19.0337 16.1558 19.0337H19.4883C19.7183 19.0337 19.9049 19.2046 19.9049 19.4155V22.4704Z" fill="#55D6C6"/>
<path d="M18.673 22.7109C18.6721 22.7253 18.6712 22.7397 18.6703 22.7541C18.682 22.6673 18.6936 22.5805 18.7053 22.4937C18.7018 22.5216 18.6949 22.5487 18.6848 22.575C18.7177 22.497 18.7506 22.419 18.7834 22.341C18.7398 22.4278 18.7696 22.3965 18.8727 22.247C18.7724 22.3742 19.0855 22.1186 18.9377 22.1864C19.0157 22.1535 19.0936 22.1205 19.1716 22.0877C19.1453 22.0979 19.1182 22.1047 19.0903 22.1082C19.177 22.0965 19.2637 22.0849 19.3505 22.0732C18.8855 22.1021 18.4115 22.0759 17.9457 22.0759C17.4693 22.0759 16.9843 22.1028 16.5085 22.0732C16.5952 22.0849 16.682 22.0965 16.7687 22.1082C16.7407 22.1047 16.7136 22.0979 16.6874 22.0877C16.7653 22.1206 16.8433 22.1535 16.9212 22.1864C16.8344 22.1428 16.8656 22.1726 17.015 22.2758C16.8878 22.1755 17.1433 22.4888 17.0755 22.341C17.1084 22.419 17.1413 22.497 17.1742 22.575C17.164 22.5487 17.1572 22.5216 17.1537 22.4937C17.1653 22.5805 17.177 22.6673 17.1886 22.7541C17.1597 22.2891 17.1859 21.815 17.1859 21.3494C17.1859 20.8729 17.1591 20.3878 17.1886 19.9121C17.177 19.9989 17.1653 20.0857 17.1537 20.1725C17.1572 20.1446 17.164 20.1174 17.1742 20.0912C17.1413 20.1692 17.1084 20.2472 17.0755 20.3252C17.1191 20.2383 17.0893 20.2696 16.9862 20.4191C17.0866 20.2919 16.7734 20.5476 16.9212 20.4798C16.8432 20.5127 16.7653 20.5456 16.6873 20.5785C16.7136 20.5684 16.7407 20.5615 16.7686 20.558C16.6819 20.5697 16.5952 20.5813 16.5085 20.593C16.9735 20.5641 17.4475 20.5903 17.9132 20.5903C18.3896 20.5903 18.8747 20.5635 19.3504 20.593C19.2637 20.5813 19.177 20.5697 19.0902 20.558C19.1181 20.5615 19.1453 20.5684 19.1715 20.5785C19.0935 20.5456 19.0156 20.5127 18.9377 20.4798C19.0245 20.5234 18.9933 20.4936 18.8439 20.3904C18.9711 20.4907 18.7156 20.1774 18.7834 20.3252C18.7505 20.2472 18.7176 20.1692 18.6847 20.0912C18.6949 20.1175 18.7017 20.1446 18.7052 20.1725C18.6936 20.0857 18.682 19.9989 18.6703 19.9121C18.6992 20.3771 18.673 20.8512 18.673 21.3168C18.673 21.7815 18.673 22.2462 18.673 22.7109C18.673 23.2449 19.1182 23.6904 19.6518 23.6904C20.1853 23.6904 20.6305 23.2449 20.6305 22.7109C20.6305 21.8993 20.6305 21.0876 20.6305 20.276C20.6305 20.1697 20.6305 20.0635 20.6305 19.9573C20.6305 19.2305 20.0229 18.6313 19.2993 18.6313C18.945 18.6313 18.5907 18.6313 18.2364 18.6313C17.7543 18.6313 17.2722 18.6313 16.7901 18.6313C16.6018 18.6313 16.4394 18.633 16.2483 18.669C15.6362 18.7843 15.2285 19.3885 15.2285 19.9867C15.2285 20.8392 15.2285 21.6918 15.2285 22.5443C15.2285 22.7305 15.2287 22.9143 15.2867 23.0958C15.4681 23.6641 15.9884 24.0349 16.5831 24.0349C16.9296 24.0349 17.2761 24.0349 17.6226 24.0349C18.0773 24.0349 18.5319 24.0349 18.9866 24.0349C19.0908 24.0349 19.195 24.0349 19.2992 24.0349C19.5441 24.0349 19.7893 23.9673 19.998 23.8394C20.4018 23.5921 20.6018 23.1728 20.6305 22.711C20.6636 22.1775 20.1602 21.7315 19.6517 21.7315C19.0932 21.7314 18.7061 22.1782 18.673 22.7109Z" fill="#55D6C6"/>
<path d="M27.5426 22.4704C27.5426 22.6812 27.3561 22.8522 27.126 22.8522H23.7936C23.5635 22.8522 23.377 22.6812 23.377 22.4704V19.4155C23.377 19.2046 23.5635 19.0337 23.7936 19.0337H27.126C27.3561 19.0337 27.5426 19.2046 27.5426 19.4155V22.4704Z" fill="#55D6C6"/>
<path d="M26.3918 22.7109C26.3909 22.7253 26.39 22.7397 26.3891 22.7541C26.4007 22.6673 26.4124 22.5805 26.424 22.4937C26.4205 22.5216 26.4137 22.5487 26.4035 22.575C26.4364 22.497 26.4693 22.419 26.5022 22.341C26.4586 22.4278 26.4883 22.3965 26.5914 22.247C26.4911 22.3742 26.8043 22.1186 26.6565 22.1864C26.7344 22.1535 26.8123 22.1205 26.8903 22.0877C26.864 22.0979 26.8369 22.1047 26.809 22.1082C26.8957 22.0965 26.9825 22.0849 27.0692 22.0732C26.6042 22.1021 26.1302 22.0759 25.6645 22.0759C25.188 22.0759 24.7029 22.1028 24.2272 22.0732C24.3139 22.0849 24.4007 22.0965 24.4874 22.1082C24.4595 22.1047 24.4324 22.0979 24.4061 22.0877C24.4841 22.1206 24.562 22.1535 24.6399 22.1864C24.5531 22.1428 24.5844 22.1726 24.7337 22.2758C24.6065 22.1755 24.8621 22.4888 24.7943 22.341C24.8272 22.419 24.86 22.497 24.8929 22.575C24.8827 22.5487 24.8759 22.5216 24.8724 22.4937C24.884 22.5805 24.8957 22.6673 24.9073 22.7541C24.8785 22.2891 24.9047 21.815 24.9047 21.3494C24.9047 20.8729 24.8778 20.3878 24.9073 19.9121C24.8957 19.9989 24.884 20.0857 24.8724 20.1725C24.8759 20.1446 24.8827 20.1174 24.8929 20.0912C24.86 20.1692 24.8271 20.2472 24.7943 20.3252C24.8379 20.2383 24.8081 20.2696 24.705 20.4191C24.8053 20.2919 24.4921 20.5476 24.6399 20.4798C24.562 20.5127 24.4841 20.5456 24.4061 20.5785C24.4324 20.5684 24.4595 20.5615 24.4874 20.558C24.4007 20.5697 24.314 20.5813 24.2272 20.593C24.6922 20.5641 25.1662 20.5903 25.6319 20.5903C26.1084 20.5903 26.5934 20.5635 27.0692 20.593C26.9825 20.5813 26.8958 20.5697 26.809 20.558C26.8369 20.5615 26.8641 20.5684 26.8903 20.5785C26.8123 20.5456 26.7344 20.5127 26.6565 20.4798C26.7433 20.5234 26.712 20.4936 26.5627 20.3904C26.6898 20.4907 26.4343 20.1774 26.5022 20.3252C26.4693 20.2472 26.4364 20.1692 26.4035 20.0912C26.4137 20.1175 26.4205 20.1446 26.424 20.1725C26.4124 20.0857 26.4007 19.9989 26.3891 19.9121C26.418 20.3771 26.3918 20.8512 26.3918 21.3168C26.3918 21.7815 26.3918 22.2462 26.3918 22.7109C26.3918 23.2449 26.8369 23.6904 27.3705 23.6904C27.904 23.6904 28.3492 23.2449 28.3492 22.7109C28.3492 21.8993 28.3492 21.0876 28.3492 20.276C28.3492 20.1697 28.3492 20.0635 28.3492 19.9573C28.3492 19.2305 27.7416 18.6313 27.018 18.6313C26.6637 18.6313 26.3094 18.6313 25.9551 18.6313C25.473 18.6313 24.9909 18.6313 24.5089 18.6313C24.3206 18.6313 24.1582 18.633 23.9671 18.669C23.3549 18.7843 22.9473 19.3885 22.9473 19.9867C22.9473 20.8392 22.9473 21.6918 22.9473 22.5443C22.9473 22.7305 22.9475 22.9143 23.0054 23.0958C23.1868 23.6641 23.7072 24.0349 24.3019 24.0349C24.6484 24.0349 24.9948 24.0349 25.3413 24.0349C25.796 24.0349 26.2507 24.0349 26.7053 24.0349C26.8095 24.0349 26.9138 24.0349 27.018 24.0349C27.2629 24.0349 27.508 23.9673 27.7168 23.8394C28.1206 23.5921 28.3205 23.1728 28.3492 22.711C28.3824 22.1775 27.8789 21.7315 27.3705 21.7315C26.8119 21.7314 26.4249 22.1782 26.3918 22.7109Z" fill="#55D6C6"/>
<path d="M12.693 29.6823C12.693 29.8931 12.5065 30.0641 12.2765 30.0641H8.94392C8.71385 30.0641 8.52734 29.8931 8.52734 29.6823V26.6275C8.52734 26.4165 8.71385 26.2456 8.94392 26.2456H12.2765C12.5065 26.2456 12.693 26.4165 12.693 26.6275V29.6823Z" fill="#55D6C6"/>
<path d="M10.9533 29.6587C10.9524 29.6731 10.9515 29.6875 10.9506 29.7019C10.9622 29.615 10.9739 29.5283 10.9855 29.4414C10.982 29.4694 10.9752 29.4965 10.965 29.5227C10.9979 29.4447 11.0308 29.3667 11.0637 29.2887C11.0201 29.3756 11.0499 29.3443 11.153 29.1947C11.0527 29.322 11.3658 29.0663 11.2181 29.1342C11.296 29.1012 11.3739 29.0683 11.4519 29.0354C11.4256 29.0456 11.3985 29.0524 11.3706 29.0559C11.4573 29.0443 11.5441 29.0326 11.6308 29.021C11.1658 29.0498 10.6917 29.0236 10.226 29.0236C9.74959 29.0236 9.26453 29.0505 8.78876 29.021C8.87548 29.0326 8.96223 29.0443 9.04894 29.0559C9.02102 29.0524 8.9939 29.0456 8.96767 29.0354C9.04561 29.0683 9.12352 29.1012 9.20146 29.1342C9.11465 29.0905 9.1459 29.1203 9.29529 29.2235C9.16812 29.1232 9.42364 29.4365 9.35581 29.2887C9.3887 29.3667 9.42158 29.4447 9.45447 29.5227C9.44429 29.4965 9.43747 29.4694 9.43398 29.4414C9.44563 29.5282 9.45727 29.615 9.46895 29.7019C9.44005 29.2369 9.46625 28.7628 9.46625 28.2971C9.46625 27.8207 9.4394 27.3356 9.46895 26.8598C9.45731 26.9466 9.44563 27.0334 9.43398 27.1203C9.43747 27.0923 9.44432 27.0652 9.45447 27.0389C9.42158 27.117 9.3887 27.1949 9.35581 27.2729C9.3994 27.186 9.36964 27.2174 9.26652 27.3669C9.36684 27.2397 9.05367 27.4953 9.20143 27.4276C9.12349 27.4605 9.04558 27.4934 8.96764 27.5263C8.9939 27.5161 9.02098 27.5093 9.04891 27.5058C8.96219 27.5174 8.87544 27.5291 8.78873 27.5408C9.25373 27.5119 9.72777 27.5381 10.1935 27.5381C10.6699 27.5381 11.155 27.5112 11.6307 27.5408C11.544 27.5291 11.4573 27.5174 11.3706 27.5058C11.3985 27.5093 11.4256 27.5161 11.4518 27.5263C11.3739 27.4933 11.296 27.4604 11.218 27.4276C11.3049 27.4711 11.2736 27.4413 11.1242 27.3381C11.2514 27.4384 10.9959 27.1251 11.0637 27.2729C11.0308 27.1949 10.9979 27.117 10.965 27.0389C10.9752 27.0652 10.982 27.0923 10.9855 27.1203C10.9739 27.0335 10.9622 26.9467 10.9506 26.8598C10.9795 27.3248 10.9533 27.7989 10.9533 28.2646C10.9533 28.7293 10.9533 29.194 10.9533 29.6587C10.9533 30.1926 11.3985 30.6382 11.932 30.6382C12.4655 30.6382 12.9107 30.1926 12.9107 29.6587C12.9107 28.847 12.9107 28.0354 12.9107 27.2238C12.9107 27.1175 12.9107 27.0113 12.9107 26.9051C12.9107 26.1783 12.3032 25.5791 11.5795 25.5791C11.2252 25.5791 10.8709 25.5791 10.5166 25.5791C10.0345 25.5791 9.55244 25.5791 9.07034 25.5791C8.88203 25.5791 8.71963 25.5808 8.52858 25.6167C7.91634 25.732 7.50879 26.3363 7.50879 26.9345C7.50879 27.787 7.50879 28.6395 7.50879 29.4921C7.50879 29.6782 7.50902 29.862 7.56693 30.0435C7.74835 30.6118 8.26869 30.9826 8.86341 30.9826C9.20991 30.9826 9.55639 30.9826 9.9029 30.9826C10.3576 30.9826 10.8122 30.9826 11.2669 30.9826C11.3711 30.9826 11.4754 30.9826 11.5796 30.9826C11.8244 30.9826 12.0696 30.9151 12.2783 30.7872C12.6821 30.5398 12.882 30.1206 12.9107 29.6587C12.9439 29.1253 12.4405 28.6792 11.932 28.6792C11.3734 28.6792 10.9863 29.126 10.9533 29.6587Z" fill="#55D6C6"/>
<path d="M19.9049 30.4543C19.9049 30.6651 19.7183 30.8361 19.4883 30.8361H16.1558C15.9258 30.8361 15.7393 30.6651 15.7393 30.4543V27.3995C15.7393 27.1885 15.9258 27.0176 16.1558 27.0176H19.4883C19.7183 27.0176 19.9049 27.1885 19.9049 27.3995V30.4543Z" fill="#55D6C6"/>
<path d="M18.673 29.6587C18.6721 29.6731 18.6712 29.6875 18.6703 29.7019C18.682 29.6151 18.6936 29.5283 18.7053 29.4414C18.7018 29.4694 18.6949 29.4965 18.6848 29.5227C18.7177 29.4447 18.7506 29.3667 18.7834 29.2887C18.7398 29.3756 18.7696 29.3443 18.8727 29.1948C18.7724 29.322 19.0855 29.0663 18.9377 29.1342C19.0157 29.1012 19.0936 29.0683 19.1716 29.0354C19.1453 29.0456 19.1182 29.0524 19.0903 29.0559C19.177 29.0443 19.2637 29.0326 19.3505 29.021C18.8855 29.0498 18.4115 29.0236 17.9457 29.0236C17.4693 29.0236 16.9843 29.0505 16.5085 29.021C16.5952 29.0326 16.682 29.0443 16.7687 29.0559C16.7407 29.0524 16.7136 29.0456 16.6874 29.0354C16.7653 29.0683 16.8433 29.1013 16.9212 29.1342C16.8344 29.0905 16.8656 29.1203 17.015 29.2235C16.8878 29.1232 17.1433 29.4366 17.0755 29.2887C17.1084 29.3667 17.1413 29.4447 17.1742 29.5227C17.164 29.4965 17.1572 29.4694 17.1537 29.4414C17.1653 29.5282 17.177 29.615 17.1886 29.7019C17.1597 29.2369 17.1859 28.7628 17.1859 28.2971C17.1859 27.8207 17.1591 27.3356 17.1886 26.8599C17.177 26.9467 17.1653 27.0334 17.1537 27.1203C17.1572 27.0923 17.164 27.0652 17.1742 27.039C17.1413 27.117 17.1084 27.1949 17.0755 27.273C17.1191 27.1861 17.0893 27.2174 16.9862 27.3669C17.0866 27.2397 16.7734 27.4954 16.9212 27.4276C16.8432 27.4605 16.7653 27.4934 16.6873 27.5263C16.7136 27.5161 16.7407 27.5093 16.7686 27.5058C16.6819 27.5174 16.5952 27.5291 16.5085 27.5408C16.9735 27.5119 17.4475 27.5381 17.9132 27.5381C18.3896 27.5381 18.8747 27.5112 19.3504 27.5408C19.2637 27.5291 19.177 27.5174 19.0902 27.5058C19.1181 27.5093 19.1453 27.5161 19.1715 27.5263C19.0935 27.4933 19.0156 27.4604 18.9377 27.4276C19.0245 27.4711 18.9933 27.4413 18.8439 27.3382C18.9711 27.4385 18.7156 27.1251 18.7834 27.273C18.7505 27.1949 18.7176 27.117 18.6847 27.039C18.6949 27.0652 18.7017 27.0923 18.7052 27.1203C18.6936 27.0335 18.682 26.9467 18.6703 26.8599C18.6992 27.3248 18.673 27.7989 18.673 28.2646C18.673 28.7293 18.673 29.194 18.673 29.6587C18.673 30.1926 19.1182 30.6382 19.6518 30.6382C20.1853 30.6382 20.6305 30.1926 20.6305 29.6587C20.6305 28.847 20.6305 28.0354 20.6305 27.2238C20.6305 27.1175 20.6305 27.0113 20.6305 26.9051C20.6305 26.1783 20.0229 25.5791 19.2993 25.5791C18.945 25.5791 18.5907 25.5791 18.2364 25.5791C17.7543 25.5791 17.2722 25.5791 16.7901 25.5791C16.6018 25.5791 16.4394 25.5808 16.2483 25.6167C15.6361 25.732 15.2285 26.3362 15.2285 26.9345C15.2285 27.787 15.2285 28.6395 15.2285 29.4921C15.2285 29.6782 15.2287 29.862 15.2867 30.0435C15.4681 30.6118 15.9884 30.9826 16.5831 30.9826C16.9296 30.9826 17.2761 30.9826 17.6226 30.9826C18.0773 30.9826 18.5319 30.9826 18.9866 30.9826C19.0908 30.9826 19.195 30.9826 19.2992 30.9826C19.5441 30.9826 19.7893 30.9151 19.998 30.7872C20.4018 30.5398 20.6018 30.1206 20.6305 29.6587C20.6636 29.1253 20.1602 28.6792 19.6517 28.6792C19.0932 28.6792 18.7061 29.126 18.673 29.6587Z" fill="#55D6C6"/>
<path d="M27.5426 30.4543C27.5426 30.6651 27.3561 30.8361 27.126 30.8361H23.7936C23.5635 30.8361 23.377 30.6651 23.377 30.4543V27.3995C23.377 27.1885 23.5635 27.0176 23.7936 27.0176H27.126C27.3561 27.0176 27.5426 27.1885 27.5426 27.3995V30.4543Z" fill="#55D6C6"/>
<path d="M26.3918 29.6587C26.3909 29.6731 26.39 29.6875 26.3891 29.7019C26.4007 29.6151 26.4124 29.5283 26.424 29.4414C26.4205 29.4694 26.4137 29.4965 26.4035 29.5227C26.4364 29.4447 26.4693 29.3667 26.5022 29.2887C26.4586 29.3756 26.4883 29.3443 26.5914 29.1948C26.4911 29.322 26.8043 29.0663 26.6565 29.1342C26.7344 29.1012 26.8123 29.0683 26.8903 29.0354C26.864 29.0456 26.8369 29.0524 26.809 29.0559C26.8957 29.0443 26.9825 29.0326 27.0692 29.021C26.6042 29.0498 26.1302 29.0236 25.6645 29.0236C25.188 29.0236 24.7029 29.0505 24.2272 29.021C24.3139 29.0326 24.4007 29.0443 24.4874 29.0559C24.4595 29.0524 24.4324 29.0456 24.4061 29.0354C24.4841 29.0683 24.562 29.1013 24.6399 29.1342C24.5531 29.0905 24.5844 29.1203 24.7337 29.2235C24.6065 29.1232 24.8621 29.4366 24.7943 29.2887C24.8272 29.3667 24.86 29.4447 24.8929 29.5227C24.8827 29.4965 24.8759 29.4694 24.8724 29.4414C24.884 29.5282 24.8957 29.615 24.9073 29.7019C24.8785 29.2369 24.9047 28.7628 24.9047 28.2971C24.9047 27.8207 24.8778 27.3356 24.9073 26.8599C24.8957 26.9467 24.884 27.0334 24.8724 27.1203C24.8759 27.0923 24.8827 27.0652 24.8929 27.039C24.86 27.117 24.8271 27.1949 24.7943 27.273C24.8379 27.1861 24.8081 27.2174 24.705 27.3669C24.8053 27.2397 24.4921 27.4954 24.6399 27.4276C24.562 27.4605 24.4841 27.4934 24.4061 27.5263C24.4324 27.5161 24.4595 27.5093 24.4874 27.5058C24.4007 27.5174 24.314 27.5291 24.2272 27.5408C24.6922 27.5119 25.1662 27.5381 25.6319 27.5381C26.1084 27.5381 26.5934 27.5112 27.0692 27.5408C26.9825 27.5291 26.8958 27.5174 26.809 27.5058C26.8369 27.5093 26.8641 27.5161 26.8903 27.5263C26.8123 27.4933 26.7344 27.4604 26.6565 27.4276C26.7433 27.4711 26.712 27.4413 26.5627 27.3382C26.6898 27.4385 26.4343 27.1251 26.5022 27.273C26.4693 27.1949 26.4364 27.117 26.4035 27.039C26.4137 27.0652 26.4205 27.0923 26.424 27.1203C26.4124 27.0335 26.4007 26.9467 26.3891 26.8599C26.418 27.3248 26.3918 27.7989 26.3918 28.2646C26.3918 28.7293 26.3918 29.194 26.3918 29.6587C26.3918 30.1926 26.8369 30.6382 27.3705 30.6382C27.904 30.6382 28.3492 30.1926 28.3492 29.6587C28.3492 28.847 28.3492 28.0354 28.3492 27.2238C28.3492 27.1175 28.3492 27.0113 28.3492 26.9051C28.3492 26.1783 27.7416 25.5791 27.018 25.5791C26.6637 25.5791 26.3094 25.5791 25.9551 25.5791C25.473 25.5791 24.9909 25.5791 24.5089 25.5791C24.3206 25.5791 24.1582 25.5808 23.9671 25.6167C23.3549 25.732 22.9473 26.3362 22.9473 26.9345C22.9473 27.787 22.9473 28.6395 22.9473 29.4921C22.9473 29.6782 22.9475 29.862 23.0054 30.0435C23.1868 30.6118 23.7072 30.9826 24.3019 30.9826C24.6484 30.9826 24.9948 30.9826 25.3413 30.9826C25.796 30.9826 26.2507 30.9826 26.7053 30.9826C26.8095 30.9826 26.9138 30.9826 27.018 30.9826C27.2629 30.9826 27.508 30.9151 27.7168 30.7872C28.1206 30.5398 28.3205 30.1206 28.3492 29.6587C28.3824 29.1253 27.8789 28.6792 27.3705 28.6792C26.8119 28.6792 26.4249 29.126 26.3918 29.6587Z" fill="#55D6C6"/>
</svg>
