<svg width="40" height="40" viewBox="0 0 40 40" fill="none" xmlns="http://www.w3.org/2000/svg">
<path d="M25.0003 6.66699C28.5365 6.66699 31.9279 8.07175 34.4284 10.5722C36.9289 13.0727 38.3337 16.4641 38.3337 20.0003C38.3337 23.5365 36.9289 26.9279 34.4284 29.4284C31.9279 31.9289 28.5365 33.3337 25.0003 33.3337C21.4641 33.3337 18.0727 31.9289 15.5722 29.4284C13.0717 26.9279 11.667 23.5365 11.667 20.0003C11.667 16.4641 13.0717 13.0727 15.5722 10.5722C18.0727 8.07175 21.4641 6.66699 25.0003 6.66699ZM25.0003 10.0003C22.3482 10.0003 19.8046 11.0539 17.9293 12.9293C16.0539 14.8046 15.0003 17.3482 15.0003 20.0003C15.0003 22.6525 16.0539 25.196 17.9293 27.0714C19.8046 28.9468 22.3482 30.0003 25.0003 30.0003C27.6525 30.0003 30.196 28.9468 32.0714 27.0714C33.9468 25.196 35.0003 22.6525 35.0003 20.0003C35.0003 17.3482 33.9468 14.8046 32.0714 12.9293C30.196 11.0539 27.6525 10.0003 25.0003 10.0003ZM23.3337 13.3337H25.8337V19.6337L29.717 23.517L27.9503 25.2837L23.3337 20.667V13.3337ZM3.33366 30.0003C2.89163 30.0003 2.46771 29.8247 2.15515 29.5122C1.84259 29.1996 1.66699 28.7757 1.66699 28.3337C1.66699 27.8916 1.84259 27.4677 2.15515 27.1551C2.46771 26.8426 2.89163 26.667 3.33366 26.667H9.71699C10.2337 27.8503 10.9003 28.967 11.667 30.0003H3.33366ZM5.00033 21.667C4.5583 21.667 4.13437 21.4914 3.82181 21.1788C3.50925 20.8663 3.33366 20.4424 3.33366 20.0003C3.33366 19.5583 3.50925 19.1344 3.82181 18.8218C4.13437 18.5093 4.5583 18.3337 5.00033 18.3337H8.41699L8.33366 20.0003L8.41699 21.667H5.00033ZM6.66699 13.3337C6.22496 13.3337 5.80104 13.1581 5.48848 12.8455C5.17592 12.5329 5.00033 12.109 5.00033 11.667C5.00033 11.225 5.17592 10.801 5.48848 10.4885C5.80104 10.1759 6.22496 10.0003 6.66699 10.0003H11.667C10.9003 11.0337 10.2337 12.1503 9.71699 13.3337H6.66699Z" fill="#191919"/>
</svg>
