<svg width="35" height="35" viewBox="0 0 35 35" fill="none" xmlns="http://www.w3.org/2000/svg">
<path d="M34.2762 18.6699C34.2617 18.2092 34.0875 17.7678 33.7835 17.4213C33.4794 17.0749 33.0644 16.8449 32.6094 16.7708C30.3375 16.3628 28.1564 14.3462 27.06 13.1824C26.8731 12.983 26.6479 12.8235 26.3978 12.7134C26.1477 12.6032 25.878 12.5448 25.6047 12.5415L25.6012 12.5423L25.5978 12.5415C25.3197 12.5397 25.0442 12.5955 24.7888 12.7054C24.5333 12.8154 24.3034 12.9771 24.1136 13.1803C23.0151 14.3462 20.8324 16.3628 18.5632 16.7708C18.1078 16.8474 17.6931 17.0794 17.3896 17.4274C17.0861 17.7754 16.9125 18.2178 16.8985 18.6793C16.868 20.4254 17.012 22.1701 17.3284 23.8875V23.8881C18.3214 29.125 20.9493 32.6355 24.9288 34.0404C25.1436 34.1161 25.3698 34.1546 25.5975 34.1542C25.8209 34.1546 26.0426 34.1154 26.2522 34.0383C30.2299 32.5969 32.8591 29.087 33.8561 23.8883V23.8873C34.1775 22.1676 34.3183 20.4189 34.2762 18.6699ZM24.8597 23.0113H18.6737C18.4511 21.5864 18.351 20.1451 18.3747 18.7032C18.3818 18.5835 18.4306 18.4701 18.5127 18.3827C18.5947 18.2953 18.7048 18.2394 18.8238 18.2247C21.1955 17.7981 23.3643 16.0527 24.8597 14.5343V23.0113ZM26.3358 32.4155V24.4874H32.218C31.2726 28.4559 29.2993 31.1177 26.3358 32.4155Z" fill="#191919"/>
<path d="M18.3015 15.3175C19.6127 15.0817 21.2735 13.9915 22.8794 12.3285C22.8808 12.2565 22.8855 12.1853 22.8855 12.1128C22.8865 9.75104 22.1338 7.45055 20.7369 5.54613C19.34 3.64171 17.3719 2.23273 15.1189 1.52421C12.8659 0.815685 10.4455 0.8446 8.21008 1.60674C5.97463 2.36889 4.04071 3.82449 2.68973 5.76174C1.33875 7.69899 0.6412 10.0168 0.69859 12.3779C0.75598 14.739 1.56531 17.0202 3.00882 18.8895C4.45232 20.7588 6.45468 22.1188 8.72451 22.7714C10.9943 23.424 13.4132 23.3353 15.6292 22.5182C15.4732 21.2366 15.404 19.9459 15.422 18.655C15.4421 17.8516 15.7401 17.08 16.2651 16.4714C16.79 15.8629 17.5097 15.4551 18.3015 15.3175ZM11.0672 10.8566H12.4916C12.8033 10.8551 13.1122 10.9152 13.4007 11.0334C13.6891 11.1517 13.9513 11.3257 14.1722 11.5456C14.3932 11.7655 14.5685 12.0269 14.6882 12.3147C14.8078 12.6026 14.8694 12.9112 14.8694 13.223C14.8694 13.5347 14.8078 13.8433 14.6882 14.1312C14.5685 14.419 14.3932 14.6804 14.1722 14.9003C13.9513 15.1202 13.6891 15.2943 13.4007 15.4125C13.1122 15.5308 12.8033 15.5909 12.4916 15.5894H12.4564V16.8144C12.4587 16.9128 12.4414 17.0107 12.4054 17.1024C12.3694 17.194 12.3154 17.2775 12.2466 17.348C12.1779 17.4185 12.0957 17.4745 12.005 17.5127C11.9142 17.5509 11.8168 17.5706 11.7183 17.5706C11.6198 17.5706 11.5224 17.5509 11.4316 17.5127C11.3409 17.4745 11.2587 17.4185 11.1899 17.348C11.1212 17.2775 11.0672 17.194 11.0312 17.1024C10.9951 17.0107 10.9778 16.9128 10.9802 16.8144V15.5894H9.31663C9.124 15.5847 8.94083 15.5049 8.80624 15.367C8.67166 15.2291 8.59632 15.044 8.59632 14.8513C8.59632 14.6586 8.67166 14.4736 8.80624 14.3357C8.94083 14.1978 9.124 14.1179 9.31663 14.1132H12.4916C12.6091 14.1142 12.7256 14.0918 12.8344 14.0475C12.9432 14.0032 13.0422 13.9377 13.1256 13.855C13.209 13.7722 13.2752 13.6738 13.3204 13.5653C13.3656 13.4568 13.3889 13.3405 13.3889 13.223C13.3889 13.1055 13.3656 12.9891 13.3204 12.8806C13.2752 12.7722 13.209 12.6737 13.1256 12.591C13.0422 12.5082 12.9432 12.4428 12.8344 12.3984C12.7256 12.3541 12.6091 12.3318 12.4916 12.3327H11.0672C10.4152 12.3335 9.78895 12.0779 9.32359 11.6212C8.85823 11.1645 8.59102 10.5431 8.57961 9.89119C8.56819 9.23924 8.81347 8.60893 9.26256 8.13618C9.71165 7.66344 10.3286 7.38614 10.9802 7.3641V6.13013C10.9849 5.9375 11.0647 5.75433 11.2026 5.61974C11.3405 5.48516 11.5256 5.40982 11.7183 5.40982C11.911 5.40982 12.096 5.48516 12.2339 5.61974C12.3718 5.75433 12.4517 5.9375 12.4564 6.13013V7.35513H14.2684C14.3669 7.35274 14.4648 7.37005 14.5564 7.40607C14.6481 7.44208 14.7316 7.49606 14.802 7.56484C14.8725 7.63361 14.9285 7.71578 14.9667 7.80652C15.005 7.89726 15.0247 7.99473 15.0247 8.0932C15.0247 8.19166 15.005 8.28913 14.9667 8.37987C14.9285 8.47061 14.8725 8.55278 14.802 8.62155C14.7316 8.69033 14.6481 8.74431 14.5564 8.78032C14.4648 8.81634 14.3669 8.83365 14.2684 8.83126H11.0672C10.8 8.83322 10.5443 8.94077 10.356 9.13045C10.1677 9.32013 10.0621 9.57656 10.0621 9.84382C10.0621 10.1111 10.1677 10.3675 10.356 10.5572C10.5443 10.7469 10.8 10.8544 11.0672 10.8564V10.8566Z" fill="#191919"/>
</svg>
