<svg width="25" height="25" viewBox="0 0 25 25" fill="none" xmlns="http://www.w3.org/2000/svg">
<circle cx="12.5" cy="12.5" r="11.5" stroke="#1C1C1C" stroke-width="2"/>
<path d="M13.702 5C14.6394 5 15.108 5.63938 15.108 6.37046C15.108 7.28354 14.294 8.12816 13.2333 8.12816C12.3451 8.12816 11.827 7.60288 11.8516 6.73558C11.8516 6.00464 12.4683 5 13.702 5ZM10.8153 19C10.0751 19 9.53236 18.5433 10.0505 16.5339L10.9003 12.9699C11.0483 12.3991 11.0725 12.1709 10.9003 12.1709C10.678 12.1709 9.71716 12.5652 9.1489 12.9535L8.7793 12.3368C10.5801 10.8072 12.652 9.91008 13.5399 9.91008C14.2798 9.91008 14.4034 10.8006 14.0334 12.1708L13.0605 15.9172C12.8877 16.5793 12.9621 16.8075 13.1343 16.8075C13.3563 16.8075 14.0845 16.5326 14.7997 15.9617L15.2193 16.5328C13.4676 18.314 11.5555 19 10.8153 19Z" fill="#1C1C1C"/>
</svg>
