<svg width="44" height="44" viewBox="0 0 44 44" fill="none" xmlns="http://www.w3.org/2000/svg">
<path d="M27.4997 7.33301C31.3895 7.33301 35.12 8.87824 37.8706 11.6288C40.6211 14.3793 42.1663 18.1098 42.1663 21.9997C42.1663 25.8895 40.6211 29.62 37.8706 32.3706C35.12 35.1211 31.3895 36.6663 27.4997 36.6663C23.6098 36.6663 19.8793 35.1211 17.1288 32.3706C14.3782 29.62 12.833 25.8895 12.833 21.9997C12.833 18.1098 14.3782 14.3793 17.1288 11.6288C19.8793 8.87824 23.6098 7.33301 27.4997 7.33301ZM27.4997 10.9997C24.5823 10.9997 21.7844 12.1586 19.7215 14.2215C17.6586 16.2844 16.4997 19.0823 16.4997 21.9997C16.4997 24.9171 17.6586 27.7149 19.7215 29.7778C21.7844 31.8407 24.5823 32.9997 27.4997 32.9997C30.4171 32.9997 33.2149 31.8407 35.2778 29.7778C37.3407 27.7149 38.4997 24.9171 38.4997 21.9997C38.4997 19.0823 37.3407 16.2844 35.2778 14.2215C33.2149 12.1586 30.4171 10.9997 27.4997 10.9997ZM25.6663 14.6663H28.4163V21.5963L32.688 25.868L30.7447 27.8113L25.6663 22.733V14.6663ZM3.66634 32.9997C3.18011 32.9997 2.7138 32.8065 2.36998 32.4627C2.02616 32.1189 1.83301 31.6526 1.83301 31.1663C1.83301 30.6801 2.02616 30.2138 2.36998 29.87C2.7138 29.5262 3.18011 29.333 3.66634 29.333H10.688C11.2563 30.6347 11.9897 31.863 12.833 32.9997H3.66634ZM5.49967 23.833C5.01344 23.833 4.54713 23.6399 4.20331 23.296C3.8595 22.9522 3.66634 22.4859 3.66634 21.9997C3.66634 21.5134 3.8595 21.0471 4.20331 20.7033C4.54713 20.3595 5.01344 20.1663 5.49967 20.1663H9.25801L9.16634 21.9997L9.25801 23.833H5.49967ZM7.33301 14.6663C6.84678 14.6663 6.38046 14.4732 6.03664 14.1294C5.69283 13.7856 5.49967 13.3192 5.49967 12.833C5.49967 12.3468 5.69283 11.8805 6.03664 11.5366C6.38046 11.1928 6.84678 10.9997 7.33301 10.9997H12.833C11.9897 12.1363 11.2563 13.3647 10.688 14.6663H7.33301Z" fill="#55D6C6"/>
</svg>
