<svg width="39" height="40" viewBox="0 0 39 40" fill="none" xmlns="http://www.w3.org/2000/svg">
<path d="M4.59437 0.0242996C3.85329 0.130424 3.38546 0.269199 2.83068 0.542667C2.3173 0.799809 1.89915 1.09777 1.48928 1.51001C0.785455 2.20797 0.30106 3.11002 0.0940536 4.11002C0.0236714 4.45287 0.0195312 5.23246 0.0195312 19.6529V34.8365L0.131315 35.0692C0.197557 35.2161 0.342461 35.3957 0.524627 35.5712C2.17654 37.1672 4.7103 39.5467 4.84692 39.6365C5.21125 39.8733 5.77017 39.8978 6.18004 39.6978C6.34151 39.6161 6.92112 39.0896 8.58546 37.51C9.79023 36.3631 10.788 35.4325 10.8046 35.4365C10.8211 35.4447 11.852 36.4161 13.0982 37.5998C15.6568 40.0325 15.5864 39.9794 16.1702 39.9794C16.7581 39.9794 16.7539 39.9835 19.0848 37.7631C20.1985 36.6978 21.1135 35.8202 21.1135 35.8039C21.1135 35.7916 21.039 35.5876 20.9437 35.3549C20.7367 34.8284 20.4759 33.8243 20.4055 33.2855C20.3807 33.061 20.3434 32.8651 20.3269 32.8488C20.3144 32.8284 19.3746 33.6978 18.2402 34.7794L16.1743 36.7386L16.046 36.6161C15.9756 36.5508 14.9488 35.5753 13.7648 34.4529C12.117 32.8855 11.5622 32.3794 11.3925 32.2978C10.9743 32.0978 10.4113 32.1304 10.0304 32.3835C9.95584 32.4365 8.94979 33.3753 7.79469 34.4733C6.6396 35.5712 5.66253 36.4937 5.62112 36.5223C5.55488 36.5712 5.40998 36.4488 4.15966 35.257L2.77272 33.9386V19.3631C2.77272 4.97532 2.77272 4.78349 2.85552 4.47328C2.9673 4.02838 3.11635 3.78349 3.47654 3.4243C3.96507 2.93859 4.47017 2.7345 5.19055 2.7345C6.56093 2.7345 7.67463 3.76716 7.67463 5.04063C7.67463 6.07736 6.92112 6.99573 5.85297 7.26511C5.67909 7.31001 5.43896 7.34675 5.32304 7.34675C5.03737 7.34675 4.65233 7.44879 4.45361 7.5794C4.03546 7.84879 3.83259 8.22022 3.82845 8.71409C3.82845 9.00389 3.84501 9.07328 3.96507 9.31409C4.11412 9.61205 4.32112 9.81614 4.63163 9.96716L4.82208 10.061L17.1928 10.0733L29.5593 10.0814V15.9712V21.857L30.5654 21.861C31.2485 21.861 31.6874 21.8814 31.9523 21.9263L32.3332 21.9876V15.9427V9.89777L32.6272 9.80389C33.3434 9.5794 34.0141 9.18348 34.5896 8.64471C36.2498 7.09369 36.6597 4.75083 35.6122 2.759C34.9871 1.56716 33.7988 0.603893 32.4781 0.2243C31.6501 -0.0124359 32.4906 -0.000190735 18.0084 0.00389099C10.6886 0.00797272 4.65233 0.0161362 4.59437 0.0242996ZM31.5135 2.79165C32.2007 2.93859 32.8714 3.43655 33.182 4.03654C33.4345 4.53042 33.4883 5.21614 33.3144 5.71818C33.1116 6.31001 32.6644 6.81614 32.1097 7.08144C31.5135 7.36715 32.4574 7.34675 20.6084 7.34675C14.717 7.34675 9.89374 7.33858 9.89374 7.33042C9.89374 7.32226 9.94756 7.18756 10.0138 7.03654C10.3036 6.35899 10.432 5.75083 10.432 5.04063C10.432 4.31409 10.2498 3.51001 9.95584 2.93859L9.85233 2.7345H20.5421C29.5925 2.7345 31.2775 2.74675 31.5135 2.79165Z" fill="#55D6C6"/>
<path d="M10.1503 12.5753C8.46113 12.6855 7.0038 13.1059 6.2089 13.7059C5.89425 13.9467 5.74934 14.1182 5.59616 14.4406L5.48438 14.6733V19.2243V23.7753L5.6003 24.0161C5.75348 24.3386 5.95221 24.5753 6.26272 24.7916C7.17355 25.4284 8.664 25.8161 10.5271 25.9018L11.1274 25.9304L11.1439 26.6488C11.1564 27.3304 11.1646 27.3794 11.2681 27.6039C11.413 27.9059 11.8064 28.2978 12.1955 28.5222C13.272 29.1549 15.1847 29.5182 17.0767 29.4569C19.4449 29.3794 21.2583 28.7957 21.9497 27.8978C22.2602 27.4937 22.2478 27.6039 22.2643 24.9508L22.2767 22.5794L22.1525 22.3059C21.9911 21.9549 21.8337 21.7631 21.515 21.5263C21.0306 21.1672 20.3433 20.8814 19.478 20.6814C18.8197 20.5263 18.2981 20.4569 17.3997 20.3998L16.6006 20.3508V17.6121C16.6006 14.5467 16.6006 14.5672 16.315 14.1631C15.5408 13.0651 12.9242 12.3916 10.1503 12.5753ZM7.08661 16.6937C7.69934 16.9672 8.80476 17.2161 9.82323 17.31C10.5229 17.3712 12.2452 17.3386 12.8331 17.2447C13.715 17.11 14.5554 16.8855 15.1185 16.6406L15.2716 16.5712L15.4207 16.7182C15.7146 17.008 15.6981 17.2243 15.3586 17.5263C14.8576 17.9672 13.7729 18.3223 12.3984 18.4937C11.8643 18.5631 10.2041 18.5631 9.66591 18.4937C7.68278 18.2488 6.2296 17.5508 6.45731 16.959C6.49457 16.8651 6.75954 16.5712 6.80508 16.5712C6.81336 16.5712 6.9417 16.6243 7.08661 16.6937ZM7.81941 19.0814C10.022 19.7018 13.0401 19.612 14.8783 18.8651L15.2758 18.7018L15.4414 18.8814C15.6567 19.11 15.6815 19.2202 15.5656 19.4202C15.1557 20.1345 13.1685 20.6937 11.0321 20.6937C8.8503 20.6937 6.86304 20.1182 6.47387 19.3753C6.38692 19.2161 6.42418 19.0937 6.62705 18.8774L6.79266 18.7018L7.12387 18.8406C7.31017 18.9182 7.62068 19.0243 7.81941 19.0814ZM7.12387 20.9835C8.10094 21.3835 9.61208 21.6325 11.0653 21.6325H11.7153L11.5248 21.8651C11.2888 22.1467 11.1936 22.3549 11.1522 22.6488L11.1232 22.8692L10.6016 22.8406C9.17323 22.7631 8.15476 22.5549 7.30603 22.1671C6.67259 21.8733 6.35794 21.5345 6.45731 21.2447C6.49457 21.1345 6.74297 20.8569 6.80508 20.8569C6.81336 20.8569 6.95412 20.9141 7.12387 20.9835ZM7.41782 23.2284C8.22928 23.5263 9.57896 23.7549 10.5353 23.7549C11.1853 23.7549 11.1357 23.7018 11.1357 24.3916V24.9794H10.8376C10.1089 24.9794 8.92896 24.8284 8.27896 24.6529C7.28533 24.3835 6.52769 23.9427 6.43246 23.5753C6.40348 23.4529 6.50699 23.2488 6.67673 23.0978C6.80094 22.9876 6.80508 22.9835 6.94998 23.0488C7.03278 23.0814 7.23979 23.1631 7.41782 23.2284ZM12.7958 24.5345C14.9032 25.3957 18.5341 25.3876 20.6497 24.5223L20.9519 24.3998L21.0927 24.5304C21.3866 24.812 21.3825 25.0202 21.0802 25.3059C20.5958 25.7631 19.449 26.1508 18.1076 26.3059C17.408 26.3876 16.0003 26.3876 15.3006 26.3059C13.3796 26.0855 11.9057 25.3794 12.1293 24.7916C12.1748 24.6774 12.4067 24.408 12.4646 24.408C12.4771 24.408 12.6261 24.4651 12.7958 24.5345ZM13.5121 26.9182C14.4685 27.1876 15.4331 27.3059 16.7041 27.3059C18.2939 27.3059 19.6271 27.0855 20.6497 26.6529L20.9271 26.5345L21.0678 26.6651C21.2707 26.8569 21.3369 27.0284 21.2666 27.1916C20.956 27.9182 18.8736 28.5304 16.7041 28.5304C14.6134 28.5304 12.5723 27.959 12.1748 27.2651C12.0548 27.0529 12.0879 26.8978 12.2949 26.6937L12.4564 26.5345L12.8 26.6733C12.9904 26.7508 13.3092 26.8569 13.5121 26.9182Z" fill="#55D6C6"/>
<path d="M29.6001 23.3673C26.6399 23.7305 24.0937 25.6244 22.9179 28.3428C22.686 28.8775 22.5039 29.4611 22.3879 30.0611C22.2679 30.6979 22.2389 31.9999 22.3341 32.6693C22.8641 36.453 25.9319 39.3632 29.8071 39.7591C30.4281 39.8244 31.4714 39.7836 32.0634 39.6774C33.8106 39.3591 35.3051 38.5876 36.5348 37.3713C38.4516 35.4774 39.3211 32.8081 38.8698 30.2081C38.2364 26.5305 35.2513 23.7509 31.4962 23.3509C30.9704 23.2938 30.1465 23.3019 29.6001 23.3673ZM31.7529 24.6693C33.7319 24.9958 35.4625 26.106 36.543 27.7387C37.9176 29.8203 38.0749 32.4489 36.9488 34.6611C35.8723 36.7836 33.794 38.2162 31.401 38.4897C29.7491 38.6734 28.002 38.2448 26.6399 37.3142C25.0914 36.253 24.0813 34.7509 23.6714 32.8979C23.5886 32.5223 23.5803 32.355 23.5803 31.5509C23.5803 30.5224 23.6341 30.1754 23.9115 29.3468C24.5988 27.3019 26.3169 25.6081 28.3911 24.9387C28.9211 24.7673 29.3723 24.6693 29.8733 24.6122C30.3039 24.5632 31.3099 24.5958 31.7529 24.6693Z" fill="#55D6C6"/>
<path d="M29.8852 26.9917C29.8066 27.0448 29.7238 27.1468 29.6948 27.2244C29.6617 27.3264 29.6451 27.8448 29.6451 28.9876L29.641 30.6121H28.0098C26.4034 30.6121 26.3786 30.6121 26.2668 30.7019C26.0805 30.8448 26.0391 31.0039 26.0391 31.5713C26.0391 32.1386 26.0805 32.2978 26.2668 32.4407C26.3786 32.5305 26.4034 32.5305 28.0098 32.5305H29.6368L29.6493 34.2121C29.6617 36.0897 29.6617 36.0856 29.9473 36.2203C30.1585 36.3182 31.2184 36.3141 31.4212 36.2121C31.7069 36.0733 31.711 36.057 31.711 34.1917V32.5305H33.3257C35.1184 32.5305 35.1225 32.5305 35.2467 32.2693C35.3419 32.0693 35.3419 31.0733 35.2467 30.8733C35.1225 30.6121 35.1184 30.6121 33.3257 30.6121H31.711V28.9427V27.2774L31.6158 27.1386C31.4668 26.9182 31.3881 26.8978 30.6719 26.8978C30.0674 26.8978 30.0177 26.9019 29.8852 26.9917Z" fill="#55D6C6"/>
</svg>
