<svg width="33" height="33" viewBox="0 0 33 33" fill="none" xmlns="http://www.w3.org/2000/svg">
<path d="M26.2187 10.2958C25.3277 9.3817 23.8823 9.3817 22.9913 10.2958L13.9592 19.5655L9.99917 15.4999C9.10817 14.5858 7.66277 14.5858 6.77177 15.4999C5.88077 16.414 5.88077 17.8957 6.77177 18.8131L12.3059 24.4891C12.7613 24.9577 13.3652 25.1854 13.9625 25.1722C14.5598 25.1821 15.1637 24.9544 15.6191 24.4858L26.222 13.6057C27.1097 12.6949 27.1097 11.2099 26.2187 10.2958Z" fill="#55D6C6"/>
<path d="M16.5001 2.54096C18.3844 2.54096 20.2126 2.91056 21.9319 3.63656C23.5951 4.33946 25.0867 5.34596 26.3704 6.62966C27.6541 7.91336 28.6606 9.40496 29.3635 11.0682C30.0895 12.7875 30.4591 14.6157 30.4591 16.5C30.4591 18.3843 30.0895 20.2125 29.3635 21.9318C28.6606 23.595 27.6541 25.0866 26.3704 26.3703C25.0867 27.654 23.5951 28.6605 21.9319 29.3634C20.2126 30.0894 18.3844 30.459 16.5001 30.459C14.6158 30.459 12.7876 30.0894 11.0683 29.3634C9.40508 28.6605 7.91348 27.654 6.62978 26.3703C5.34608 25.0866 4.33958 23.595 3.63668 21.9318C2.91068 20.2125 2.54108 18.3843 2.54108 16.5C2.54108 14.6157 2.91068 12.7875 3.63668 11.0682C4.33958 9.40496 5.34608 7.91336 6.62978 6.62966C7.91348 5.34596 9.40508 4.33946 11.0683 3.63656C12.7876 2.91056 14.6158 2.54096 16.5001 2.54096ZM16.5001 0.329956C7.57028 0.329956 0.330078 7.57016 0.330078 16.5C0.330078 25.4298 7.57028 32.67 16.5001 32.67C25.4299 32.67 32.6701 25.4298 32.6701 16.5C32.6701 7.57016 25.4299 0.329956 16.5001 0.329956Z" fill="#55D6C6"/>
</svg>
