<svg width="25" height="15" viewBox="0 0 25 15" fill="none" xmlns="http://www.w3.org/2000/svg">
<path d="M24.0867 13.8258C23.2573 14.3454 19.8833 14.5 19.0668 13.9066C18.6188 13.5813 18.2092 13.174 17.8199 12.7867C17.5481 12.5156 17.239 12.384 17.0053 12.09C16.8149 11.8491 16.684 11.5652 16.4828 11.3282C16.1437 10.9294 15.6212 10.5904 15.2077 11.0774C14.5857 11.8097 15.3058 13.2492 14.4761 13.7966C14.1978 13.9804 13.9172 14.0336 13.5696 14.0073L12.7996 14.0425C12.347 14.0513 11.6306 14.0553 11.1163 13.9624C10.5419 13.859 10.0683 13.5452 9.54974 13.3148C8.56446 12.878 7.62546 12.2826 6.91128 11.4578C4.96764 9.21191 2.35675 6.12282 1.34259 3.29893C1.13352 2.71866 0.58312 1.57026 1.1053 1.07237C1.81554 0.556429 5.30274 0.410377 5.84625 1.2089C6.06746 1.53285 6.20662 2.00842 6.36285 2.37568C6.55715 2.83386 6.66283 3.26611 6.96675 3.67177C7.23588 4.03181 7.43477 4.3935 7.64318 4.78833C7.8772 5.23108 8.09775 5.65578 8.38231 6.06374C8.57529 6.34108 9.08565 6.89214 9.40795 6.93349C10.195 7.03425 10.1458 5.12146 10.0873 4.6541C10.0315 4.20412 10.0168 3.72691 10.0315 3.27037C10.0443 2.88112 10.0795 2.33268 9.84873 2.01465C9.47294 1.49609 8.63601 1.88435 8.57037 1.18757C8.70887 0.989662 8.67933 0.814072 9.60291 0.510152C10.3299 0.270889 10.7996 0.278437 11.2791 0.316838C12.2571 0.395279 13.2939 0.130416 14.2375 0.447464C15.1388 0.751056 14.9996 2.03205 14.9694 2.80005C14.9291 3.84867 14.972 4.8717 14.9694 5.93542C14.9681 6.42018 14.9491 6.89115 15.5392 6.8521C16.0932 6.81501 16.1493 6.34929 16.4135 5.96463C16.7815 5.42866 17.1185 4.88548 17.493 4.35116C17.9975 3.62943 18.1494 2.81843 18.6243 2.07898C18.7943 1.81412 18.9404 1.23615 19.202 1.02708C19.4002 0.86921 19.7763 0.936821 20.0159 0.936821H20.5857C21.0222 0.942072 21.4673 0.948308 21.9153 0.964062C22.5609 0.98638 23.2839 0.846236 23.9242 0.936493C26.6864 1.3264 20.4525 7.23512 20.7767 8.28932C21.0012 9.01728 22.423 9.83288 22.9363 10.4296C23.6206 11.2232 25.7182 12.8048 24.0867 13.8258Z" fill="#89D7CF"/>
</svg>
