<svg width="251" height="56" fill="none" xmlns="http://www.w3.org/2000/svg"><path d="M53.764 24.686c1.68.22 3.06.87 4.14 1.95 1.1 1.06 1.65 2.47 1.65 4.23 0 2-.69 3.58-2.07 4.74-1.36 1.14-3.02 1.71-4.98 1.71-1.56 0-2.95-.36-4.17-1.08-1.22-.72-2.08-1.75-2.58-3.09l1.74-1.02c.34 1.04.95 1.83 1.83 2.37.88.52 1.94.78 3.18.78 1.44 0 2.62-.38 3.54-1.14.94-.78 1.41-1.87 1.41-3.27s-.47-2.48-1.41-3.24c-.92-.78-2.1-1.17-3.54-1.17v-.03l-.03.03h-.57l-.9-1.38 5.22-7.14h-9.87v-1.98h12.3v1.98l-4.89 6.75zm17.498-8.73c2.86 0 5.22 1.02 7.08 3.06 1.88 2.02 2.82 4.5 2.82 7.44 0 2.94-.94 5.43-2.82 7.47-1.86 2.02-4.22 3.03-7.08 3.03h-8.1v-21h8.1zm0 19.02c2.3 0 4.18-.82 5.64-2.46 1.48-1.64 2.22-3.66 2.22-6.06 0-2.4-.74-4.42-2.22-6.06-1.46-1.64-3.34-2.46-5.64-2.46h-6v17.04h6zm30.802 2.34c-3.18 0-5.81-1.05-7.89-3.15-2.08-2.1-3.12-4.67-3.12-7.71s1.04-5.61 3.12-7.71c2.08-2.1 4.71-3.15 7.89-3.15 1.94 0 3.72.47 5.34 1.41 1.62.92 2.87 2.17 3.75 3.75l-1.86 1.08c-.66-1.28-1.64-2.3-2.94-3.06-1.3-.76-2.73-1.14-4.29-1.14-2.62 0-4.76.85-6.42 2.55-1.66 1.7-2.49 3.79-2.49 6.27 0 2.48.83 4.57 2.49 6.27 1.66 1.7 3.8 2.55 6.42 2.55 1.56 0 2.99-.38 4.29-1.14 1.3-.76 2.28-1.78 2.94-3.06l1.86 1.05c-.86 1.58-2.11 2.84-3.75 3.78-1.62.94-3.4 1.41-5.34 1.41zm14.643-2.34h9.6v1.98h-11.7v-21h2.1v19.02zm28.483-.81c-2.1 2.1-4.67 3.15-7.71 3.15s-5.61-1.05-7.71-3.15c-2.1-2.12-3.15-4.69-3.15-7.71 0-3.02 1.05-5.58 3.15-7.68 2.1-2.12 4.67-3.18 7.71-3.18s5.61 1.06 7.71 3.18c2.1 2.1 3.15 4.66 3.15 7.68 0 3.02-1.05 5.59-3.15 7.71zm-13.95-1.44c1.68 1.7 3.76 2.55 6.24 2.55 2.48 0 4.56-.85 6.24-2.55 1.68-1.72 2.52-3.81 2.52-6.27 0-2.46-.84-4.54-2.52-6.24-1.68-1.72-3.76-2.58-6.24-2.58-2.48 0-4.56.86-6.24 2.58-1.68 1.7-2.52 3.78-2.52 6.24 0 2.46.84 4.55 2.52 6.27zm32.69-16.77v1.98h-6.45v19.02h-2.1v-19.02h-6.45v-1.98h15zm16.501 0h2.1v21h-2.1v-9.81h-11.4v9.81h-2.1v-21h2.1v9.21h11.4v-9.21zm8.991 19.02h10.2v1.98h-12.3v-21h12.15v1.98h-10.05v7.44h9.3v1.98h-9.3v7.62zm20.408 2.34c-1.92 0-3.57-.45-4.95-1.35-1.36-.92-2.31-2.18-2.85-3.78l1.8-1.05c.38 1.3 1.08 2.32 2.1 3.06 1.02.72 2.33 1.08 3.93 1.08 1.56 0 2.77-.34 3.63-1.02.88-.7 1.32-1.62 1.32-2.76 0-1.1-.4-1.93-1.2-2.49-.8-.56-2.12-1.14-3.96-1.74-2.18-.72-3.62-1.3-4.32-1.74-1.6-.96-2.4-2.35-2.4-4.17 0-1.78.62-3.18 1.86-4.2 1.24-1.04 2.77-1.56 4.59-1.56 1.64 0 3.06.43 4.26 1.29 1.2.84 2.09 1.92 2.67 3.24l-1.77.99c-.96-2.32-2.68-3.48-5.16-3.48-1.3 0-2.35.32-3.15.96-.8.64-1.2 1.53-1.2 2.67 0 1.04.36 1.82 1.08 2.34.72.52 1.91 1.05 3.57 1.59.76.26 1.3.45 1.62.57.34.1.82.28 1.44.54.64.24 1.11.46 1.41.66.3.18.66.44 1.08.78.44.32.75.65.93.99.2.32.37.72.51 1.2.16.46.24.96.24 1.5 0 1.78-.65 3.21-1.95 4.29-1.3 1.06-3.01 1.59-5.13 1.59z" fill="#000"/><rect x="1.044" y="1.874" width="248.267" height="52.662" rx="9" stroke="#000" stroke-width="2"/></svg>