<svg width="238" height="55" fill="none" xmlns="http://www.w3.org/2000/svg"><path d="M69.62 35.655l-1.945-5.162-9.96-.008-1.954 5.158-2.22-.002 8.088-20.993 2.16.002 8.052 21.007-2.22-.002zm-11.153-7.15l8.46.008-4.22-11.254-4.24 11.246zm28.97 7.165l-4.913-8.404-5.88-.005-.007 8.4-2.1-.002.018-21 8.4.007c1.74.002 3.22.623 4.438 1.864 1.24 1.22 1.858 2.701 1.857 4.441a6.092 6.092 0 01-1.294 3.81 6.104 6.104 0 01-3.242 2.217l5.123 8.674-2.4-.002zM76.653 16.64l-.007 8.64 6.3.006c1.16.001 2.15-.418 2.971-1.257.82-.86 1.232-1.88 1.233-3.06 0-1.2-.409-2.22-1.228-3.06-.819-.841-1.809-1.262-2.969-1.263l-6.3-.005zm15.294 10.724l.001-1.92 10.8.009-.001 1.92-10.8-.01zm34.796-12.66l-.018 21-2.1-.002.016-17.82-7.361 12.293h-.3l-7.339-12.306-.016 17.82-2.1-.002.018-21 2.61.002 6.98 11.706 7-11.694 2.61.002zM145.5 35.718l-1.946-5.162-9.96-.008-1.954 5.158-2.22-.002 8.087-20.993 2.16.002 8.053 21.007-2.22-.002zm-11.154-7.15l8.46.008-4.221-11.254-4.239 11.247zm22.084 7.52c-1.92-.002-3.57-.454-4.949-1.355-1.359-.92-2.308-2.182-2.847-3.782l1.801-1.049c.379 1.3 1.078 2.321 2.097 3.062 1.02.721 2.33 1.082 3.93 1.083 1.56.002 2.77-.337 3.63-1.017.881-.699 1.322-1.618 1.323-2.758.001-1.1-.399-1.93-1.198-2.491-.8-.561-2.119-1.142-3.959-1.744-2.179-.722-3.619-1.303-4.318-1.743-1.599-.962-2.398-2.352-2.397-4.172.002-1.78.623-3.18 1.864-4.199 1.241-1.039 2.771-1.557 4.591-1.556 1.64.001 3.06.433 4.259 1.294a7.64 7.64 0 012.667 3.242l-1.77.988c-.958-2.32-2.677-3.482-5.157-3.484-1.3-.001-2.351.318-3.151.957-.801.64-1.202 1.53-1.203 2.67 0 1.04.359 1.82 1.078 2.34.72.52 1.91 1.052 3.569 1.593.76.26 1.3.451 1.62.572.34.1.819.28 1.439.54.64.241 1.11.462 1.41.662.299.18.659.44 1.079.781.44.32.749.65.929.99.2.32.369.721.509 1.201.16.46.239.96.239 1.5-.002 1.78-.653 3.21-1.954 4.289-1.301 1.059-3.011 1.587-5.131 1.585zm25.239-.34l-2.76-.002-9.832-10.178-.008 10.17-2.1-.002.018-21 2.1.002-.009 9.6 9.549-9.592 2.76.002-10.089 10.192 10.371 10.809zm8.101.368c-1.92-.002-3.57-.453-4.949-1.354-1.359-.922-2.308-2.182-2.847-3.783l1.801-1.048c.379 1.3 1.078 2.32 2.097 3.061 1.02.721 2.329 1.082 3.929 1.084 1.56.001 2.771-.338 3.631-1.017.881-.7 1.322-1.62 1.323-2.76.001-1.1-.399-1.93-1.198-2.49-.8-.56-2.119-1.142-3.959-1.743-2.179-.722-3.619-1.304-4.318-1.744-1.6-.962-2.398-2.352-2.397-4.172.002-1.78.623-3.18 1.864-4.199 1.241-1.039 2.771-1.557 4.591-1.556 1.64.002 3.06.433 4.259 1.294a7.646 7.646 0 012.667 3.242l-1.771.989c-.958-2.321-2.677-3.483-5.157-3.485-1.3 0-2.35.318-3.15.958-.801.639-1.202 1.529-1.203 2.669-.001 1.04.359 1.82 1.078 2.34.72.521 1.909 1.052 3.569 1.594.76.26 1.3.45 1.619.57.34.101.82.282 1.44.542.64.24 1.11.461 1.409.661.3.18.66.44 1.08.781.439.32.749.65.929.991.2.32.369.72.509 1.2.16.46.239.96.239 1.5-.002 1.78-.653 3.21-1.954 4.289-1.301 1.059-3.011 1.587-5.131 1.586z" fill="#000"/><rect x="1.546" y="1.174" width="235.148" height="52.662" rx="9" stroke="#000" stroke-width="2"/></svg>