<svg width="326" height="56" fill="none" xmlns="http://www.w3.org/2000/svg"><path d="M62.747 16.135h2.1v21h-2.1v-21zm9.014 19.02h9.6v1.98h-11.7v-21h2.1v19.02zm14.707 0h9.6v1.98h-11.7v-21h2.1v19.02zm25.454.3c-1.44 1.36-3.32 2.04-5.64 2.04s-4.2-.68-5.64-2.04c-1.44-1.36-2.16-3.18-2.16-5.46v-13.86h2.1v13.86c0 1.68.5 3.01 1.5 3.99 1 .98 2.4 1.47 4.2 1.47 1.8 0 3.2-.49 4.2-1.47s1.5-2.31 1.5-3.99v-13.86h2.1v13.86c0 2.28-.72 4.1-2.16 5.46zm13.265 2.04c-1.92 0-3.57-.45-4.95-1.35-1.36-.92-2.31-2.18-2.85-3.78l1.8-1.05c.38 1.3 1.08 2.32 2.1 3.06 1.02.72 2.33 1.08 3.93 1.08 1.56 0 2.77-.34 3.63-1.02.88-.7 1.32-1.62 1.32-2.76 0-1.1-.4-1.93-1.2-2.49-.8-.56-2.12-1.14-3.96-1.74-2.18-.72-3.62-1.3-4.32-1.74-1.6-.96-2.4-2.35-2.4-4.17 0-1.78.62-3.18 1.86-4.2 1.24-1.04 2.77-1.56 4.59-1.56 1.64 0 3.06.43 4.26 1.29 1.2.84 2.09 1.92 2.67 3.24l-1.77.99c-.96-2.32-2.68-3.48-5.16-3.48-1.3 0-2.35.32-3.15.96-.8.64-1.2 1.53-1.2 2.67 0 1.04.36 1.82 1.08 2.34.72.52 1.91 1.05 3.57 1.59.76.26 1.3.45 1.62.57.34.1.82.28 1.44.54.64.24 1.11.46 1.41.66.3.18.66.44 1.08.78.44.32.75.65.93.99.2.32.37.72.51 1.2.16.46.24.96.24 1.5 0 1.78-.65 3.21-1.95 4.29-1.3 1.06-3.01 1.59-5.13 1.59zm23.124-21.36v1.98h-6.45v19.02h-2.1v-19.02h-6.45v-1.98h15zm15.901 21l-4.92-8.4h-5.88v8.4h-2.1v-21h8.4c1.74 0 3.22.62 4.44 1.86 1.24 1.22 1.86 2.7 1.86 4.44 0 1.42-.43 2.69-1.29 3.81a6.105 6.105 0 01-3.24 2.22l5.13 8.67h-2.4zm-10.8-19.02v8.64h6.3c1.16 0 2.15-.42 2.97-1.26.82-.86 1.23-1.88 1.23-3.06 0-1.2-.41-2.22-1.23-3.06-.82-.84-1.81-1.26-2.97-1.26h-6.3zm30.19 19.02l-1.95-5.16h-9.96l-1.95 5.16h-2.22l8.07-21h2.16l8.07 21h-2.22zm-11.16-7.14h8.46l-4.23-11.25-4.23 11.25zm27.783-13.86v1.98h-6.45v19.02h-2.1v-19.02h-6.45v-1.98h15zm3.001 0h2.1v21h-2.1v-21zm24.284 18.21c-2.1 2.1-4.67 3.15-7.71 3.15s-5.61-1.05-7.71-3.15c-2.1-2.12-3.15-4.69-3.15-7.71 0-3.02 1.05-5.58 3.15-7.68 2.1-2.12 4.67-3.18 7.71-3.18s5.61 1.06 7.71 3.18c2.1 2.1 3.15 4.66 3.15 7.68 0 3.02-1.05 5.59-3.15 7.71zm-13.95-1.44c1.68 1.7 3.76 2.55 6.24 2.55 2.48 0 4.56-.85 6.24-2.55 1.68-1.72 2.52-3.81 2.52-6.27 0-2.46-.84-4.54-2.52-6.24-1.68-1.72-3.76-2.58-6.24-2.58-2.48 0-4.56.86-6.24 2.58-1.68 1.7-2.52 3.78-2.52 6.24 0 2.46.84 4.55 2.52 6.27zm34.191-16.77h2.1v21h-1.8l-11.7-17.1v17.1h-2.1v-21h1.8l11.7 17.1v-17.1zm13.198 21.36c-1.92 0-3.57-.45-4.95-1.35-1.36-.92-2.31-2.18-2.85-3.78l1.8-1.05c.38 1.3 1.08 2.32 2.1 3.06 1.02.72 2.33 1.08 3.93 1.08 1.56 0 2.77-.34 3.63-1.02.88-.7 1.32-1.62 1.32-2.76 0-1.1-.4-1.93-1.2-2.49-.8-.56-2.12-1.14-3.96-1.74-2.18-.72-3.62-1.3-4.32-1.74-1.6-.96-2.4-2.35-2.4-4.17 0-1.78.62-3.18 1.86-4.2 1.24-1.04 2.77-1.56 4.59-1.56 1.64 0 3.06.43 4.26 1.29 1.2.84 2.09 1.92 2.67 3.24l-1.77.99c-.96-2.32-2.68-3.48-5.16-3.48-1.3 0-2.35.32-3.15.96-.8.64-1.2 1.53-1.2 2.67 0 1.04.36 1.82 1.08 2.34.72.52 1.91 1.05 3.57 1.59.76.26 1.3.45 1.62.57.34.1.82.28 1.44.54.64.24 1.11.46 1.41.66.3.18.66.44 1.08.78.44.32.75.65.93.99.2.32.37.72.51 1.2.16.46.24.96.24 1.5 0 1.78-.65 3.21-1.95 4.29-1.3 1.06-3.01 1.59-5.13 1.59z" fill="#000"/><rect x="1.959" y="1.841" width="322.455" height="52.662" rx="9" stroke="#000" stroke-width="2"/></svg>