<svg width="296" height="56" fill="none" xmlns="http://www.w3.org/2000/svg"><rect x="1.73" y="1.43" width="292.44" height="52.662" rx="9" fill="#000" stroke="#000" stroke-width="2"/><path d="M49.108 15.773l2.1.018-.183 21-2.1-.02.183-20.998zm20.413.177l2.1.019-.183 20.999-1.8-.016-11.55-17.201-.15 17.1-2.1-.019.184-21 1.8.016 11.55 17.202.15-17.1zm18.723 2.144l-9.75-.085-.067 7.74 9.3.08-.018 1.98-9.3-.08-.08 9.299-2.1-.018.183-21 11.85.104-.018 1.98zm20.817 16.412c-2.118 2.081-4.697 3.109-7.737 3.082-3.04-.026-5.6-1.099-7.682-3.217-2.082-2.138-3.11-4.717-3.083-7.737.026-3.02 1.099-5.57 3.217-7.652 2.118-2.102 4.697-3.14 7.737-3.113 3.04.027 5.601 1.11 7.682 3.247 2.082 2.119 3.11 4.688 3.083 7.707-.026 3.02-1.098 5.581-3.217 7.683zm-13.937-1.562c1.665 1.715 3.738 2.583 6.218 2.604 2.48.022 4.567-.81 6.262-2.495 1.695-1.705 2.553-3.788 2.574-6.248.022-2.46-.8-4.547-2.465-6.262-1.665-1.734-3.738-2.612-6.217-2.634-2.48-.021-4.568.82-6.263 2.526-1.694 1.685-2.553 3.758-2.574 6.218-.021 2.46.8 4.557 2.465 6.291zm40.81-5.404l-.009 1.08c-.023 2.6-.972 4.791-2.848 6.575-1.875 1.764-4.373 2.632-7.493 2.605-3.179-.028-5.8-1.1-7.862-3.219-2.061-2.118-3.079-4.697-3.052-7.737.026-3.04 1.088-5.6 3.187-7.682 2.098-2.082 4.737-3.11 7.917-3.081 1.94.017 3.715.502 5.327 1.456s2.851 2.215 3.717 3.783l-1.869 1.063c-.649-1.285-1.62-2.314-2.913-3.085-1.293-.771-2.72-1.164-4.28-1.177-2.62-.023-4.767.808-6.442 2.494-1.675 1.685-2.523 3.768-2.545 6.248-.021 2.48.791 4.577 2.436 6.291 1.645 1.714 3.777 2.583 6.397 2.606 2.36.02 4.255-.553 5.685-1.72 1.431-1.188 2.254-2.701 2.47-4.54l-8.34-.072.018-1.98 10.499.092zm16.414 10.133l-4.846-8.443-5.88-.05-.073 8.399-2.1-.018.183-21 8.4.074c1.74.015 3.214.648 4.423 1.898 1.23 1.231 1.837 2.716 1.821 4.456a6.088 6.088 0 01-1.323 3.799 6.103 6.103 0 01-3.259 2.192l5.054 8.714-2.4-.021zM141.715 18.56l-.076 8.64 6.3.054c1.16.01 2.154-.401 2.981-1.234.827-.853 1.246-1.87 1.257-3.05.01-1.199-.391-2.223-1.204-3.07-.812-.847-1.799-1.275-2.959-1.285l-6.299-.055zm30.023 19.282l-1.905-5.177-9.959-.087-1.995 5.143-2.22-.02 8.253-20.928 2.159.019 7.887 21.07-2.22-.02zm-11.097-7.237l8.46.074-4.132-11.287-4.328 11.213zm23.696-13.654c1.88.016 3.445.66 4.694 1.93 1.249 1.272 1.865 2.847 1.849 4.727-.017 1.88-.661 3.445-1.931 4.694-1.271 1.248-2.847 1.865-4.727 1.848l-5.4-.047-.068 7.8-2.099-.018.183-21 7.499.066zm-.097 11.22c1.299.01 2.373-.41 3.221-1.262.867-.873 1.307-1.98 1.319-3.32.011-1.34-.409-2.443-1.262-3.31-.832-.887-1.898-1.337-3.198-1.348l-5.4-.047-.08 9.24 5.4.047zm23.792-11.014l2.1.019-.183 20.999-2.1-.018.085-9.81-11.399-.1-.086 9.81-2.1-.018.183-21 2.1.02-.08 9.209 11.399.1.081-9.21zm6.89.06l2.1.019-.183 20.999-2.1-.018.183-21zm16.537 21.505c-3.18-.027-5.8-1.1-7.862-3.218-2.062-2.118-3.079-4.697-3.053-7.737.027-3.04 1.089-5.6 3.187-7.683 2.099-2.081 4.738-3.108 7.918-3.08 1.94.016 3.715.502 5.327 1.456 1.612.934 2.851 2.195 3.717 3.782l-1.869 1.064c-.649-1.286-1.62-2.314-2.913-3.085-1.294-.772-2.72-1.164-4.28-1.178-2.62-.023-4.767.809-6.442 2.494-1.675 1.686-2.523 3.768-2.545 6.248-.021 2.48.79 4.577 2.436 6.292 1.645 1.714 3.777 2.583 6.397 2.605 1.56.014 2.993-.354 4.3-1.102 1.306-.749 2.295-1.76 2.966-3.034l1.851 1.066c-.874 1.572-2.134 2.821-3.783 3.747-1.628.926-3.412 1.38-5.352 1.363zm19.143.167c-1.92-.017-3.566-.48-4.938-1.393-1.352-.932-2.291-2.2-2.817-3.805l1.809-1.034c.369 1.303 1.06 2.33 2.073 3.078 1.014.73 2.321 1.1 3.921 1.114 1.56.014 2.773-.315 3.639-.988.886-.692 1.334-1.608 1.344-2.748.009-1.1-.384-1.934-1.179-2.5-.795-.567-2.11-1.159-3.944-1.775-2.174-.739-3.609-1.332-4.305-1.778-1.592-.973-2.379-2.37-2.364-4.19.016-1.78.648-3.175 1.897-4.184 1.249-1.03 2.783-1.536 4.603-1.52 1.64.014 3.057.457 4.249 1.327a7.646 7.646 0 012.642 3.263l-1.779.975c-.94-2.328-2.649-3.503-5.129-3.525-1.3-.011-2.353.3-3.159.933-.805.633-1.213 1.519-1.223 2.659-.009 1.04.344 1.823 1.06 2.35.715.526 1.901 1.066 3.556 1.62.757.267 1.296.462 1.615.584.339.103.817.288 1.435.553.638.245 1.106.47 1.404.672.299.183.656.446 1.073.79.438.323.745.656.922.998.197.321.363.723.499 1.204.156.461.232.962.227 1.502-.015 1.78-.678 3.204-1.987 4.273-1.309 1.049-3.024 1.564-5.144 1.545z" fill="#9ECC00"/></svg>