<svg width="173" height="55" fill="none" xmlns="http://www.w3.org/2000/svg"><path d="M62.125 16.176l-.018 21-2.1-.002.015-17.82-7.36 12.294h-.3l-7.34-12.307-.015 17.82-2.1-.002.018-21 2.61.003 6.98 11.706 7-11.694 2.61.002zm6.878 19.026l10.2.008-.002 1.98-12.3-.01.018-21 12.15.01-.002 1.98-10.05-.008-.006 7.44 9.3.008-.002 1.98-9.3-.008-.006 7.62zm26.706 2.002L90.796 28.8l-5.88-.005-.007 8.4-2.1-.002.018-21 8.4.008c1.74 0 3.22.622 4.438 1.863 1.24 1.221 1.858 2.702 1.857 4.442a6.093 6.093 0 01-1.294 3.809 6.105 6.105 0 01-3.241 2.217l5.122 8.674-2.4-.002zM84.925 18.175l-.007 8.64 6.3.005c1.16.001 2.15-.418 2.971-1.257.82-.86 1.232-1.879 1.233-3.059 0-1.2-.408-2.22-1.228-3.061-.819-.84-1.809-1.262-2.969-1.263l-6.3-.005zm26.004 19.402c-3.18-.002-5.809-1.055-7.887-3.157-2.078-2.101-3.116-4.672-3.113-7.712.002-3.04 1.044-5.61 3.126-7.707 2.082-2.099 4.713-3.147 7.893-3.144 1.94.002 3.719.473 5.339 1.415 1.619.921 2.868 2.172 3.746 3.753l-1.86 1.078c-.659-1.28-1.638-2.301-2.938-3.062-1.299-.761-2.729-1.143-4.289-1.144-2.62-.002-4.761.846-6.422 2.545-1.661 1.698-2.493 3.788-2.495 6.268-.002 2.48.826 4.57 2.484 6.272 1.659 1.701 3.798 2.553 6.418 2.555 1.56.002 2.991-.377 4.291-1.136 1.301-.76 2.282-1.778 2.943-3.058l1.859 1.052c-.861 1.58-2.113 2.838-3.753 3.777-1.621.938-3.402 1.407-5.342 1.405zm26.062-21.338l2.1.002-.018 21-2.1-.002.009-9.81-11.4-.01-.009 9.81-2.1-.001.018-21 2.1.002-.008 9.21 11.4.01.008-9.21z" fill="#000"/><rect x="1.899" y="1.28" width="169.351" height="52.662" rx="9" stroke="#000" stroke-width="2"/></svg>