<svg width="268" height="56" fill="none" xmlns="http://www.w3.org/2000/svg"><path d="M57.842 16.312l-.023 21-2.1-.002.02-17.82-7.364 12.296h-.3L40.738 19.48 40.72 37.3l-2.1-.001.023-21 2.61.002 6.977 11.705 7.003-11.696 2.61.002zm22.145 18.225c-2.103 2.099-4.674 3.147-7.714 3.145-3.04-.002-5.609-1.054-7.706-3.156-2.098-2.12-3.145-4.692-3.142-7.712.003-3.02 1.056-5.579 3.158-7.677 2.102-2.119 4.673-3.177 7.713-3.175 3.04.002 5.61 1.064 7.707 3.185 2.098 2.101 3.145 4.662 3.142 7.682-.004 3.02-1.056 5.59-3.158 7.708zm-13.949-1.45c1.678 1.702 3.757 2.553 6.237 2.555 2.48.001 4.561-.847 6.243-2.546 1.682-1.719 2.524-3.808 2.527-6.268.002-2.46-.835-4.54-2.514-6.242-1.678-1.721-3.757-2.583-6.237-2.584-2.48-.002-4.56.857-6.243 2.576-1.681 1.698-2.524 3.778-2.526 6.238-.003 2.46.835 4.55 2.513 6.271zm28.81-16.75c2.86.002 5.218 1.024 7.076 3.065 1.878 2.021 2.815 4.502 2.812 7.442-.003 2.94-.946 5.43-2.828 7.468-1.862 2.019-4.223 3.027-7.083 3.025l-8.1-.006.022-21 8.1.006zm-.021 19.02c2.3.002 4.18-.817 5.643-2.456 1.481-1.64 2.224-3.659 2.226-6.059.003-2.4-.735-4.42-2.214-6.061-1.458-1.641-3.337-2.462-5.637-2.464l-6-.004-.018 17.04 6 .004zm15.592.01l10.2.008-.002 1.98-12.3-.009.022-21 12.15.008-.002 1.98-10.05-.006-.008 7.44 9.3.006-.002 1.98-9.3-.006-.008 7.62zm26.706 1.999l-4.911-8.404-5.88-.004-.009 8.4-2.1-.001.022-21 8.4.006c1.74 0 3.22.622 4.438 1.863 1.239 1.22 1.857 2.7 1.855 4.44a6.086 6.086 0 01-1.294 3.81 6.104 6.104 0 01-3.242 2.218l5.121 8.673-2.4-.001zm-10.78-19.028l-.009 8.64 6.3.005c1.16 0 2.15-.419 2.971-1.258.821-.86 1.232-1.88 1.233-3.06.002-1.2-.407-2.22-1.226-3.06-.819-.84-1.809-1.262-2.969-1.262l-6.3-.005zm30.17 19.04l-1.944-5.16-9.96-.007-1.956 5.158-2.22-.001 8.093-20.995 2.16.002 8.047 21.005-2.22-.001zm-11.152-7.147l8.46.006-4.218-11.253-4.242 11.247zM173.16 16.39l-.002 1.98-6.45-.004-.02 19.02-2.1-.002.02-19.02-6.45-.004.002-1.98 15 .01zm3.001.002l2.1.002-.022 21-2.1-.002.022-21zm24.265 18.226c-2.102 2.1-4.673 3.147-7.713 3.145-3.04-.002-5.609-1.053-7.707-3.155-2.098-2.121-3.145-4.692-3.142-7.712.003-3.02 1.056-5.58 3.158-7.678 2.103-2.119 4.674-3.177 7.714-3.175 3.04.002 5.609 1.064 7.706 3.186 2.098 2.1 3.145 4.662 3.142 7.682-.003 3.02-1.056 5.589-3.158 7.707zm-13.949-1.449c1.679 1.701 3.758 2.553 6.238 2.554 2.48.002 4.561-.847 6.242-2.545 1.682-1.72 2.525-3.809 2.527-6.269.003-2.46-.835-4.54-2.513-6.241-1.678-1.722-3.757-2.583-6.237-2.585-2.48-.001-4.561.857-6.243 2.576-1.682 1.699-2.524 3.778-2.527 6.238-.002 2.46.835 4.55 2.513 6.272zm34.21-16.747l2.1.002-.023 21-1.8-.002-11.682-17.107-.018 17.1-2.1-.002.023-21 1.8.001 11.681 17.108.019-17.1z" fill="#000"/><rect x="1.022" y="1.55" width="265.776" height="52.662" rx="9" stroke="#000" stroke-width="2"/></svg>