<svg width="170" height="56" fill="none" xmlns="http://www.w3.org/2000/svg"><rect x="1.849" y="1.825" width="166.827" height="52.662" rx="9" fill="#000" stroke="#000" stroke-width="2"/><path d="M47.824 14.567l2.1.065-.645 20.99-1.8-.055L36.31 18.116l-.525 17.092-2.099-.065.645-20.99 1.799.055L47.3 31.66l.524-17.092zm20.217 21.63L66.25 30.98l-9.955-.305-2.108 5.098-2.219-.069 8.711-20.742 2.159.066 7.422 21.238-2.22-.068zM57.105 28.72l8.456.26-3.883-11.375-4.573 11.115zM92.79 15.948l-.644 20.99-2.1-.064.548-17.812-7.724 12.069-.3-.01-6.97-12.52-.546 17.812-2.1-.064.645-20.99 2.61.08 6.627 11.909 7.346-11.48 2.608.08zm4.792.147l2.1.065-.645 20.99-2.1-.065.645-20.99zm20.405.627l2.099.064-.645 20.99-1.799-.055-11.17-17.451-.524 17.092-2.099-.065.644-20.99 1.799.056 11.17 17.45.525-17.091zm26.61 11.832l-.033 1.08c-.08 2.598-1.077 4.769-2.992 6.51-1.913 1.723-4.43 2.536-7.548 2.44-3.179-.098-5.775-1.228-7.79-3.39-2.014-2.163-2.975-4.764-2.882-7.803.094-3.038 1.212-5.575 3.356-7.61 2.143-2.035 4.804-3.004 7.982-2.907 1.94.06 3.704.584 5.295 1.574 1.59.989 2.801 2.276 3.633 3.863l-1.892 1.022c-.621-1.3-1.569-2.349-2.845-3.149-1.276-.8-2.694-1.223-4.253-1.27-2.619-.081-4.784.703-6.495 2.351-1.712 1.648-2.605 3.712-2.682 6.19-.076 2.48.69 4.594 2.297 6.344 1.607 1.75 3.72 2.666 6.339 2.746 2.358.072 4.266-.46 5.721-1.595 1.456-1.156 2.313-2.65 2.569-4.483l-8.336-.256.061-1.98 10.495.323z" fill="#9ECC00"/></svg>