<svg width="238" height="56" fill="none" xmlns="http://www.w3.org/2000/svg"><path d="M45.673 16.847c1.88.002 3.45.633 4.708 1.894 1.26 1.261 1.888 2.832 1.886 4.712-.001 1.88-.633 3.45-1.894 4.708-1.26 1.26-2.831 1.888-4.711 1.886l-5.4-.004-.007 7.8-2.1-.002.018-21 7.5.006zm-.01 11.22c1.3.001 2.37-.428 3.212-1.287.86-.88 1.291-1.989 1.292-3.329.001-1.34-.428-2.44-1.287-3.3-.84-.882-1.909-1.323-3.209-1.324l-5.4-.004-.008 9.24 5.4.004zm23.087 9.8l-4.913-8.404-5.88-.005-.007 8.4-2.1-.002.018-21 8.4.007c1.74.002 3.22.623 4.439 1.864 1.239 1.22 1.857 2.701 1.856 4.441a6.092 6.092 0 01-1.293 3.81 6.105 6.105 0 01-3.242 2.217l5.122 8.674-2.4-.002zm-10.783-19.03l-.008 8.64 6.3.006c1.16.001 2.15-.418 2.971-1.257.821-.86 1.232-1.88 1.233-3.06 0-1.2-.408-2.22-1.228-3.06-.819-.841-1.808-1.262-2.969-1.263l-6.3-.005zm33.566 16.26c-2.102 2.097-4.672 3.145-7.712 3.143-3.04-.003-5.61-1.055-7.708-3.157-2.098-2.122-3.146-4.692-3.143-7.712.002-3.02 1.055-5.58 3.156-7.678 2.102-2.118 4.673-3.176 7.713-3.173 3.04.002 5.61 1.064 7.707 3.186 2.098 2.102 3.146 4.663 3.144 7.683-.003 3.02-1.055 5.589-3.157 7.707zm-13.948-1.453c1.678 1.702 3.757 2.554 6.237 2.556 2.48.002 4.561-.847 6.242-2.545 1.682-1.719 2.524-3.808 2.526-6.268.002-2.46-.836-4.54-2.515-6.242-1.678-1.721-3.758-2.583-6.238-2.585-2.48-.002-4.56.856-6.242 2.574-1.681 1.699-2.523 3.778-2.525 6.238-.002 2.46.836 4.551 2.515 6.272zm39.905-16.736l-.018 21-2.1-.002.015-17.82-7.36 12.294h-.3l-7.34-12.306-.015 17.82-2.1-.002.018-21 2.61.002 6.98 11.706 7-11.694 2.61.002zm22.149 18.229c-2.102 2.098-4.673 3.146-7.713 3.143-3.04-.002-5.609-1.054-7.707-3.156-2.098-2.122-3.146-4.693-3.144-7.713.003-3.02 1.055-5.579 3.157-7.677 2.102-2.118 4.672-3.176 7.712-3.174 3.04.003 5.61 1.065 7.708 3.187 2.098 2.102 3.146 4.663 3.143 7.683-.002 3.02-1.054 5.589-3.156 7.707zm-13.949-1.452c1.679 1.702 3.758 2.553 6.238 2.555 2.48.002 4.561-.846 6.242-2.544 1.681-1.719 2.523-3.808 2.525-6.268.002-2.46-.836-4.54-2.514-6.242-1.679-1.722-3.758-2.583-6.238-2.586-2.48-.002-4.561.857-6.242 2.575-1.682 1.699-2.524 3.778-2.526 6.238-.002 2.46.836 4.55 2.515 6.272zm32.704-16.742l-.001 1.98-6.45-.006-.016 19.02-2.1-.001.016-19.02-6.45-.006.001-1.98 15 .013zm3.001.002l2.1.002-.017 21-2.1-.002.017-21zm24.269 18.231c-2.102 2.098-4.673 3.146-7.713 3.143-3.04-.002-5.609-1.054-7.707-3.156-2.098-2.122-3.146-4.693-3.143-7.713.002-3.02 1.054-5.579 3.156-7.677 2.102-2.118 4.673-3.176 7.713-3.174 3.04.003 5.609 1.065 7.707 3.187 2.098 2.102 3.146 4.663 3.144 7.683-.003 3.02-1.055 5.589-3.157 7.707zm-13.949-1.452c1.679 1.702 3.758 2.553 6.238 2.555 2.48.003 4.561-.846 6.242-2.544 1.682-1.719 2.524-3.808 2.526-6.268.002-2.46-.837-4.54-2.515-6.242-1.679-1.722-3.758-2.583-6.238-2.585-2.48-.003-4.561.856-6.242 2.574-1.682 1.699-2.523 3.778-2.525 6.238-.002 2.46.836 4.55 2.514 6.272zm34.206-16.74h2.1l-.018 21h-1.8l-11.685-17.11-.015 17.1-2.1-.002.018-21 1.8.001 11.685 17.11.015-17.1z" fill="#000"/><rect x="1.191" y="1.842" width="235.148" height="52.662" rx="9" stroke="#000" stroke-width="2"/></svg>