<svg width="238" height="66" viewBox="0 0 238 66" fill="none" xmlns="http://www.w3.org/2000/svg">
<path d="M44.9395 0.322718V0H22.7123C9.99182 0 3.6316 4.46426 3.6316 13.3928C3.6316 16.9696 4.77456 19.8875 7.06047 22.1465C9.37328 24.4324 12.2701 26.6242 15.6049 27.5386C11.2482 27.9958 7.49076 29.1118 4.47873 31.4246C1.43981 33.7643 -0.0527626 37.0318 0.00102369 41.2272C0.00102369 46.5789 2.01801 50.5456 6.05198 53.1274C10.0859 55.7091 15.2494 57 21.5424 57H44.9395V56.6773C42.1157 55.9512 40.2466 54.862 39.3322 53.4098C38.391 51.9306 37.9203 49.3758 37.9203 45.7452V11.2144C37.9203 7.61076 38.391 5.06936 39.3322 3.59023C40.2466 2.138 42.1157 1.04883 44.9395 0.322718ZM30.9819 2.21868V25.7027H23.8664C19.8325 25.7027 16.6344 25.4544 14.2409 23.1953C11.8474 20.9094 10.6507 17.7764 10.6507 13.7962C10.6507 11.7254 11.0003 9.92357 11.6995 8.39066C12.3719 6.85775 13.34 5.66101 14.604 4.80042C15.868 3.91295 17.3068 3.26752 18.9203 2.86412C20.5339 2.43383 22.3492 2.21868 24.3662 2.21868H30.9819ZM30.9819 29.3745V54.7813H21.8248C17.5488 54.7813 14.093 53.6787 11.4575 51.4735C8.82197 49.2413 7.50421 46.0142 7.50421 41.7919C7.50421 38.8875 8.24377 36.4402 9.72289 34.4501C11.202 32.4331 13.0845 30.9943 15.3705 30.1338C17.7664 29.2318 20.1884 29.4984 22.9485 29.3745H30.9819Z" fill="white"/>
<path d="M58.249 29.3745H50.5845V45.7452C50.5845 49.4834 51.0417 52.0517 51.956 53.4501C52.8704 54.8485 54.7529 55.9243 57.6036 56.6773V57H36.627V56.6773C39.4507 55.9243 41.3333 54.8485 42.2745 53.4501C43.1889 52.1055 43.6461 49.5372 43.6461 45.7452V11.2144C43.6461 9.46638 43.5788 8.09483 43.4444 7.09979C43.3099 6.07785 43.0006 5.09625 42.5166 4.15499C42.0594 3.18684 41.3601 2.42038 40.4189 1.85563C39.4776 1.26398 38.2136 0.753008 36.627 0.322718V0H61.1535C63.0898 0 64.9185 0.134466 66.6397 0.403397C68.3609 0.672328 70.0417 1.14296 71.6822 1.81529C73.3495 2.46072 74.7749 3.29441 75.9582 4.31635C77.1415 5.33829 78.0962 6.6695 78.8223 8.30998C79.5484 9.92357 79.9115 11.7792 79.9115 13.8769C79.8846 18.368 78.4727 21.8372 75.6758 24.2845C72.852 26.7856 69.1551 27.4678 64.9329 28.5435L77.9348 47.3992C80.4897 50.949 82.4663 53.2619 83.8647 54.3376C85.2094 55.3595 87.1726 56.1394 89.7543 56.6773V57H84.7926C80.3552 57 77.4776 56.6504 76.1599 55.9512C74.9228 55.2788 73.0537 53.1274 70.5526 49.4968L58.249 29.3745ZM50.5845 2.21868V25.7027H58.249C62.041 25.7027 66.4491 25.5248 67.9292 24.7847C71.601 22.9488 72.5293 19.753 72.5293 15.5308C72.5293 11.443 71.4267 8.20241 69.2214 5.80892C67.0431 3.41543 63.9369 2.21868 59.903 2.21868H50.5845Z" fill="white"/>
<path d="M31.2109 25.7026H51.4059V29.3744H31.2109V25.7026Z" fill="white"/>
<path d="M105.298 42.7754C105.509 42.8796 105.741 42.9316 105.991 42.9316C106.242 42.9316 106.471 42.8796 106.68 42.7754C106.891 42.6712 107.065 42.5345 107.202 42.3652C107.339 42.196 107.454 42.0007 107.549 41.7793C107.646 41.5547 107.716 41.3285 107.759 41.1006C107.801 40.8727 107.822 40.6432 107.822 40.4121C107.822 39.735 107.653 39.1589 107.314 38.6836C106.976 38.2083 106.535 37.9707 105.991 37.9707C105.448 37.9707 105.007 38.2083 104.668 38.6836C104.329 39.1589 104.16 39.735 104.16 40.4121C104.16 40.6432 104.181 40.8727 104.224 41.1006C104.266 41.3285 104.334 41.5547 104.429 41.7793C104.526 42.0007 104.644 42.196 104.78 42.3652C104.917 42.5345 105.09 42.6712 105.298 42.7754ZM106.069 36.5693H105.591C105.021 36.5921 104.606 36.8086 104.346 37.2188C104.089 37.6224 103.903 38.2832 103.789 39.2012L103.843 39.2207C104.422 38.2604 105.145 37.7803 106.011 37.7803C106.698 37.7803 107.295 38.0358 107.803 38.5469C108.311 39.0612 108.564 39.6895 108.564 40.4316C108.564 41.1803 108.311 41.8151 107.803 42.3359C107.298 42.86 106.715 43.1221 106.055 43.1221C105.391 43.1221 104.806 42.9121 104.302 42.4922C104.015 42.248 103.799 41.9128 103.652 41.4863C103.506 41.0566 103.433 40.627 103.433 40.1973C103.433 39.2858 103.584 38.402 103.887 37.5459C104.043 37.1097 104.271 36.7402 104.57 36.4375C104.873 36.1315 105.233 35.9655 105.649 35.9395C105.708 35.9329 105.924 35.9281 106.299 35.9248C106.921 35.9183 107.305 35.8841 107.451 35.8223C107.598 35.7604 107.692 35.7002 107.734 35.6416C107.744 35.6318 107.759 35.6139 107.778 35.5879C107.798 35.5586 107.817 35.5326 107.837 35.5098C107.86 35.4837 107.882 35.4577 107.905 35.4316C107.925 35.4089 107.952 35.3763 107.988 35.334C108.024 35.2917 108.049 35.264 108.062 35.251L108.11 35.2803C108.052 35.4626 107.992 35.6367 107.93 35.8027C107.796 36.1543 107.565 36.3789 107.236 36.4766C107.041 36.5319 106.652 36.5628 106.069 36.5693ZM115.19 42.9609V43H113.14V42.9609C113.371 42.8991 113.529 42.8405 113.613 42.7852C113.786 42.6712 113.872 42.2887 113.872 41.6377V39.0303L110.82 42.4482C110.869 42.6598 110.98 42.7949 111.152 42.8535C111.185 42.8665 111.299 42.9023 111.494 42.9609V43H109.443V42.9609C109.678 42.8958 109.834 42.8372 109.912 42.7852C110.078 42.6745 110.164 42.292 110.171 41.6377V39.2598C110.171 38.6152 110.085 38.236 109.912 38.1221C109.834 38.07 109.678 38.0098 109.443 37.9414V37.9023H111.494V37.9414C111.263 38.0033 111.105 38.0618 111.021 38.1172C110.848 38.2311 110.762 38.612 110.762 39.2598V41.6377C110.762 41.8428 110.765 42.0039 110.771 42.1211L113.843 38.6689C113.82 38.4248 113.763 38.262 113.672 38.1807C113.581 38.096 113.403 38.0163 113.14 37.9414V37.9023H115.19V37.9414C114.953 38.0033 114.795 38.0618 114.717 38.1172C114.548 38.2279 114.463 38.6087 114.463 39.2598V41.6377C114.463 42.2822 114.549 42.6631 114.722 42.7803C114.8 42.8324 114.956 42.8926 115.19 42.9609ZM117.041 40.3779V40.1484C117.601 40.1484 118.018 40.041 118.291 39.8262C118.564 39.6113 118.701 39.333 118.701 38.9912C118.701 38.6527 118.595 38.3988 118.384 38.2295C118.175 38.057 117.897 37.9707 117.549 37.9707C117.354 37.9707 117.178 38 117.021 38.0586C116.865 38.1139 116.729 38.2018 116.611 38.3223C116.497 38.4395 116.398 38.5632 116.313 38.6934C116.232 38.8203 116.147 38.9798 116.06 39.1719H116.001V38.0977C116.473 37.8828 116.995 37.7754 117.568 37.7754C118.141 37.7754 118.595 37.8747 118.931 38.0732C119.263 38.2653 119.429 38.5241 119.429 38.8496C119.429 39.1686 119.31 39.4404 119.072 39.665C118.835 39.8864 118.547 40.041 118.208 40.1289C119.243 40.2591 119.764 40.7197 119.771 41.5107C119.771 41.8949 119.657 42.2122 119.429 42.4629C119.025 42.9154 118.392 43.1449 117.529 43.1514C117.002 43.1449 116.576 43.0553 116.25 42.8828C115.924 42.707 115.762 42.4792 115.762 42.1992C115.762 42.0365 115.815 41.9046 115.923 41.8037C116.034 41.7028 116.17 41.6523 116.333 41.6523C116.502 41.6523 116.636 41.7044 116.733 41.8086C116.831 41.9128 116.88 42.0495 116.88 42.2188C116.88 42.4076 116.759 42.598 116.519 42.79C116.86 42.891 117.178 42.9414 117.471 42.9414C117.93 42.9414 118.306 42.8307 118.599 42.6094C118.892 42.3848 119.038 42.0495 119.038 41.6035C119.038 41.3724 118.991 41.1738 118.896 41.0078C118.805 40.8418 118.677 40.7148 118.511 40.627C118.348 40.5358 118.174 40.4707 117.988 40.4316C117.806 40.3926 117.603 40.3714 117.378 40.3682C117.264 40.3682 117.152 40.3714 117.041 40.3779ZM126.016 42.9609V43H123.965V42.9609C124.199 42.8958 124.355 42.8372 124.434 42.7852C124.603 42.6745 124.691 42.292 124.697 41.6377V40.5H121.846V41.6377C121.846 42.2822 121.932 42.6631 122.104 42.7803C122.186 42.8324 122.344 42.8926 122.578 42.9609V43H120.527V42.9609C120.762 42.8958 120.918 42.8372 120.996 42.7852C121.162 42.6745 121.248 42.292 121.255 41.6377V39.2598C121.255 38.6152 121.169 38.236 120.996 38.1221C120.918 38.07 120.762 38.0098 120.527 37.9414V37.9023H122.578V37.9414C122.347 38.0033 122.189 38.0618 122.104 38.1172C121.932 38.2311 121.846 38.612 121.846 39.2598V40.2412H124.697V39.2598C124.697 38.6152 124.609 38.236 124.434 38.1221C124.355 38.07 124.199 38.0098 123.965 37.9414V37.9023H126.016V37.9414C125.781 38.0065 125.625 38.0651 125.547 38.1172C125.381 38.2279 125.295 38.6087 125.288 39.2598V41.6377C125.288 42.2822 125.374 42.6631 125.547 42.7803C125.625 42.8324 125.781 42.8926 126.016 42.9609ZM130.396 39.7676C130.396 39.1686 130.282 38.721 130.054 38.4248C129.826 38.1286 129.523 37.9805 129.146 37.9805C128.774 37.9805 128.439 38.1562 128.14 38.5078C127.84 38.8594 127.66 39.3102 127.598 39.8604L130.396 39.7676ZM129.048 43.1221C128.429 43.1253 127.922 42.8991 127.524 42.4434C127.127 41.9876 126.929 41.3561 126.929 40.5488C126.929 39.7448 127.161 39.0807 127.627 38.5566C128.092 38.0391 128.643 37.7803 129.277 37.7803C129.772 37.7803 130.195 37.9365 130.547 38.249C130.902 38.5615 131.076 39.0677 131.069 39.7676C131.069 39.8392 131.066 39.9303 131.06 40.041H127.578C127.572 40.1257 127.568 40.2217 127.568 40.3291C127.568 40.6318 127.604 40.915 127.676 41.1787C127.751 41.4424 127.86 41.6816 128.003 41.8965C128.146 42.1113 128.338 42.2806 128.579 42.4043C128.823 42.528 129.103 42.5898 129.419 42.5898C129.992 42.5898 130.524 42.3864 131.016 41.9795L131.079 42.0186C130.926 42.2757 130.672 42.5247 130.317 42.7656C129.963 43.0033 129.539 43.1221 129.048 43.1221ZM134.097 43.1221C133.472 43.1253 132.952 42.8893 132.539 42.4141C132.132 41.9421 131.925 41.3154 131.919 40.5342C131.919 39.7562 132.144 39.1035 132.593 38.5762C133.042 38.0488 133.6 37.7835 134.268 37.7803C134.404 37.7803 134.546 37.7933 134.692 37.8193C134.842 37.8454 134.993 37.8877 135.146 37.9463C135.299 38.0016 135.425 38.0846 135.522 38.1953C135.623 38.306 135.675 38.4346 135.679 38.5811C135.679 38.7243 135.63 38.848 135.532 38.9521C135.435 39.0531 135.314 39.1035 135.171 39.1035C135.024 39.1035 134.906 39.0579 134.814 38.9668C134.645 38.8171 134.626 38.6071 134.756 38.3369C134.811 38.223 134.878 38.1432 134.956 38.0977C134.741 38.0195 134.478 37.9805 134.165 37.9805C133.693 37.9805 133.306 38.2002 133.003 38.6396C132.7 39.0791 132.549 39.6471 132.549 40.3438C132.549 41.0371 132.738 41.5872 133.115 41.9941C133.49 42.3978 133.939 42.5996 134.463 42.5996C134.98 42.5996 135.495 42.3864 136.006 41.96L136.064 41.999C135.918 42.2529 135.672 42.5036 135.327 42.751C134.982 42.9984 134.572 43.1221 134.097 43.1221ZM140.708 39.8115V40.3779H138.335V39.8115H140.708ZM148.838 42.9609V43H146.787V42.9609C147.021 42.8958 147.178 42.8372 147.256 42.7852C147.422 42.6745 147.508 42.292 147.515 41.6377V39.2598C147.515 38.8073 147.492 38.5029 147.446 38.3467C147.404 38.1969 147.321 38.1221 147.197 38.1221H145.044C144.924 38.1221 144.844 38.1953 144.805 38.3418C144.766 38.4883 144.746 38.7943 144.746 39.2598V41.6377C144.746 42.2822 144.832 42.6631 145.005 42.7803C145.086 42.8324 145.244 42.8926 145.479 42.9609V43H143.428V42.9609C143.662 42.8958 143.818 42.8372 143.896 42.7852C144.062 42.6745 144.149 42.292 144.155 41.6377V39.2598C144.155 38.6152 144.069 38.236 143.896 38.1221C143.818 38.07 143.662 38.0098 143.428 37.9414V37.9023H148.838V37.9414C148.607 38.0033 148.449 38.0618 148.364 38.1172C148.192 38.2311 148.105 38.612 148.105 39.2598V41.6377C148.105 42.2822 148.192 42.6631 148.364 42.7803C148.446 42.8324 148.604 42.8926 148.838 42.9609ZM151.577 45.2607V45.2998H149.399V45.2607C149.539 45.2184 149.652 45.1761 149.736 45.1338C149.821 45.0915 149.891 45.0459 149.946 44.9971C150.005 44.9515 150.046 44.888 150.068 44.8066C150.094 44.7253 150.111 44.6406 150.117 44.5527C150.127 44.4681 150.132 44.3477 150.132 44.1914V39.2305C150.132 38.7194 150.024 38.415 149.81 38.3174C149.718 38.2751 149.541 38.2262 149.277 38.1709V38.1318C149.792 38.0765 150.269 37.9593 150.708 37.7803H150.747V38.4883C150.913 38.319 151.159 38.1595 151.484 38.0098C151.82 37.8568 152.178 37.7803 152.559 37.7803C153.2 37.7803 153.73 38 154.15 38.4395C154.57 38.8789 154.78 39.4697 154.78 40.2119C154.78 40.6481 154.699 41.0697 154.536 41.4766C154.377 41.8802 154.137 42.2025 153.818 42.4434C153.223 42.8991 152.612 43.1253 151.987 43.1221C151.564 43.1221 151.151 43.0846 150.747 43.0098V44.1914C150.747 44.4486 150.768 44.639 150.811 44.7627C150.853 44.8896 150.929 44.9873 151.04 45.0557C151.151 45.1273 151.33 45.1956 151.577 45.2607ZM153.467 42.2578C153.883 41.8021 154.092 41.1966 154.092 40.4414C154.092 39.6862 153.906 39.1133 153.535 38.7227C153.164 38.332 152.715 38.1367 152.188 38.1367C151.663 38.1367 151.183 38.3011 150.747 38.6299V42.668C151.079 42.8438 151.51 42.9316 152.041 42.9316C152.575 42.9316 153.05 42.707 153.467 42.2578ZM157.69 42.7754C157.902 42.8796 158.133 42.9316 158.384 42.9316C158.634 42.9316 158.864 42.8796 159.072 42.7754C159.284 42.6712 159.458 42.5345 159.595 42.3652C159.731 42.196 159.847 42.0007 159.941 41.7793C160.039 41.5547 160.109 41.3285 160.151 41.1006C160.194 40.8727 160.215 40.6432 160.215 40.4121C160.215 39.735 160.046 39.1589 159.707 38.6836C159.368 38.2083 158.927 37.9707 158.384 37.9707C157.84 37.9707 157.399 38.2083 157.061 38.6836C156.722 39.1589 156.553 39.735 156.553 40.4121C156.553 40.6432 156.574 40.8727 156.616 41.1006C156.659 41.3285 156.727 41.5547 156.821 41.7793C156.919 42.0007 157.036 42.196 157.173 42.3652C157.31 42.5345 157.482 42.6712 157.69 42.7754ZM160.205 42.3359C159.701 42.86 159.095 43.1221 158.389 43.1221C157.682 43.1221 157.077 42.86 156.572 42.3359C156.071 41.8151 155.822 41.1803 155.825 40.4316C155.825 39.6895 156.077 39.0612 156.582 38.5469C157.09 38.0358 157.692 37.7803 158.389 37.7803C159.085 37.7803 159.688 38.0358 160.195 38.5469C160.703 39.0612 160.957 39.6895 160.957 40.4316C160.957 41.1803 160.706 41.8151 160.205 42.3359ZM165.513 39.7676C165.513 39.1686 165.399 38.721 165.171 38.4248C164.943 38.1286 164.64 37.9805 164.263 37.9805C163.892 37.9805 163.556 38.1562 163.257 38.5078C162.957 38.8594 162.777 39.3102 162.715 39.8604L165.513 39.7676ZM164.165 43.1221C163.547 43.1253 163.039 42.8991 162.642 42.4434C162.244 41.9876 162.046 41.3561 162.046 40.5488C162.046 39.7448 162.279 39.0807 162.744 38.5566C163.21 38.0391 163.76 37.7803 164.395 37.7803C164.889 37.7803 165.312 37.9365 165.664 38.249C166.019 38.5615 166.193 39.0677 166.187 39.7676C166.187 39.8392 166.183 39.9303 166.177 40.041H162.695C162.689 40.1257 162.686 40.2217 162.686 40.3291C162.686 40.6318 162.721 40.915 162.793 41.1787C162.868 41.4424 162.977 41.6816 163.12 41.8965C163.263 42.1113 163.455 42.2806 163.696 42.4043C163.94 42.528 164.22 42.5898 164.536 42.5898C165.109 42.5898 165.641 42.3864 166.133 41.9795L166.196 42.0186C166.043 42.2757 165.789 42.5247 165.435 42.7656C165.08 43.0033 164.657 43.1221 164.165 43.1221ZM172.222 42.9609V43H171.582C171.198 43 170.934 42.9463 170.791 42.8389C170.648 42.7314 170.506 42.4613 170.366 42.0283L170.283 41.7793C170.137 41.3171 170.008 40.9915 169.897 40.8027C169.832 40.6953 169.764 40.6107 169.692 40.5488C169.621 40.4837 169.533 40.4365 169.429 40.4072C169.328 40.3779 169.24 40.36 169.165 40.3535C169.09 40.347 168.976 40.3421 168.823 40.3389H168.193V41.6377C168.193 42.2822 168.28 42.6631 168.452 42.7803C168.534 42.8324 168.691 42.8926 168.926 42.9609V43H166.875V42.9609C167.109 42.8958 167.266 42.8372 167.344 42.7852C167.51 42.6745 167.596 42.292 167.603 41.6377V39.2598C167.603 38.6152 167.516 38.236 167.344 38.1221C167.266 38.07 167.109 38.0098 166.875 37.9414V37.9023H168.926V37.9414C168.695 38.0033 168.537 38.0618 168.452 38.1172C168.28 38.2311 168.193 38.612 168.193 39.2598V40.168H168.804C169.351 40.168 169.744 39.7985 169.985 39.0596C170.259 38.2132 170.672 37.79 171.226 37.79C171.408 37.79 171.564 37.8421 171.694 37.9463C171.828 38.0505 171.895 38.1904 171.895 38.3662C171.895 38.5257 171.844 38.6494 171.743 38.7373C171.646 38.8252 171.515 38.8691 171.353 38.8691C171.187 38.8691 171.056 38.791 170.962 38.6348C170.868 38.4785 170.879 38.2832 170.996 38.0488C170.69 38.0488 170.405 38.4427 170.142 39.2305C169.995 39.6862 169.769 39.9889 169.463 40.1387V40.1777C170.166 40.2331 170.636 40.6107 170.874 41.3105L171.045 41.7988C171.208 42.2546 171.359 42.5475 171.499 42.6777C171.646 42.8145 171.886 42.9089 172.222 42.9609ZM175.601 42.9609V43H173.55V42.9609C173.752 42.9023 173.877 42.86 173.926 42.834C174.128 42.7266 174.24 42.5475 174.263 42.2969C174.276 42.1634 174.282 41.9437 174.282 41.6377V38.1221H173.76C173.408 38.1253 173.154 38.179 172.998 38.2832C172.845 38.3841 172.643 38.6429 172.393 39.0596H172.349L172.451 37.9023H176.699L176.802 39.0596H176.763C176.515 38.6462 176.313 38.3857 176.157 38.2783C176.007 38.1742 175.752 38.1221 175.391 38.1221H174.873V41.6377C174.873 41.9437 174.88 42.1634 174.893 42.2969C174.902 42.4108 174.937 42.5199 174.995 42.624C175.054 42.7282 175.13 42.7982 175.225 42.834C175.303 42.8698 175.428 42.9121 175.601 42.9609Z" fill="white"/>
<path d="M98.2769 29H91.3188V28.9023C92.1815 28.6745 92.7552 28.349 93.04 27.9258C93.3249 27.5107 93.4591 26.7336 93.4429 25.5942V15.145C93.4429 14.0138 93.3086 13.2407 93.04 12.8257C92.7552 12.4025 92.1815 12.077 91.3188 11.8491V11.7515H97.8984C98.2728 11.7515 98.6349 11.7677 98.9849 11.8003C99.3429 11.8247 99.7132 11.8776 100.096 11.959C100.486 12.0322 100.844 12.1299 101.17 12.252C101.495 12.3659 101.805 12.5246 102.098 12.728C102.399 12.9233 102.655 13.1471 102.867 13.3994C103.078 13.6517 103.245 13.9569 103.367 14.3149C103.489 14.6649 103.55 15.0555 103.55 15.4868C103.55 16.6912 103.188 17.6637 102.464 18.4043C101.74 19.1367 100.853 19.6453 99.8027 19.9302V20.0278C101.202 20.1743 102.362 20.5934 103.282 21.2852C104.209 21.985 104.673 23.0511 104.673 24.4834C104.673 25.1507 104.543 25.7489 104.283 26.2778C104.022 26.8068 103.681 27.2381 103.257 27.5718C102.834 27.9054 102.338 28.1821 101.768 28.4019C101.198 28.6216 100.625 28.7762 100.047 28.8657C99.4772 28.9552 98.8872 29 98.2769 29ZM95.042 12.3008V19.8447H97.5688C98.8547 19.8447 99.8923 19.4826 100.682 18.7583C101.471 18.034 101.87 17.033 101.878 15.7554C101.878 13.4523 100.393 12.3008 97.4224 12.3008H95.042ZM95.042 20.394V28.4507H98.1914C99.583 28.4507 100.702 28.1048 101.548 27.4131C102.395 26.7214 102.818 25.696 102.818 24.3369C102.818 23.7591 102.728 23.2424 102.549 22.7866C102.37 22.3309 102.126 21.9565 101.817 21.6636C101.516 21.3625 101.15 21.1183 100.718 20.9312C100.287 20.7358 99.8312 20.5975 99.3511 20.5161C98.8791 20.4347 98.3704 20.394 97.8252 20.394H95.042ZM109.886 22.0298H115.989L112.986 13.6558L109.886 22.0298ZM121.946 28.9023V29H116.246V28.9023C116.758 28.7884 117.141 28.6338 117.393 28.4385C117.645 28.235 117.767 27.9909 117.759 27.7061C117.751 27.1445 117.238 25.4518 116.221 22.6279H109.666C109.121 24.0928 108.742 25.1548 108.531 25.814C108.319 26.4894 108.213 27.0672 108.213 27.5474C108.213 28.0438 108.335 28.3652 108.58 28.5117C108.832 28.6663 109.251 28.7965 109.837 28.9023V29H104.869V28.9023C105.202 28.8128 105.491 28.6948 105.735 28.5483C105.979 28.4019 106.199 28.2025 106.395 27.9502C106.598 27.6979 106.753 27.4782 106.858 27.291C106.972 27.1038 107.131 26.8109 107.334 26.4121C107.741 25.5902 108.319 24.2108 109.068 22.2739L113.243 11.373H113.914L117.894 22.2495C118.667 24.3654 119.24 25.8262 119.615 26.6318C119.989 27.4456 120.327 27.999 120.628 28.292C120.913 28.5605 121.352 28.764 121.946 28.9023ZM139.158 16.9517V29.2441H138.438L125.438 13.6191V23.7998C125.438 25.1344 125.494 26.1354 125.608 26.8027C125.714 27.4212 125.889 27.877 126.133 28.1699C126.386 28.4548 126.813 28.6989 127.415 28.9023V29H122.764V28.9023C123.35 28.7152 123.765 28.4792 124.009 28.1943C124.262 27.9014 124.445 27.4456 124.559 26.8271C124.664 26.1924 124.725 25.1833 124.742 23.7998V14.2783C124.742 13.79 124.53 13.3099 124.107 12.8379C123.676 12.3577 123.061 12.0282 122.264 11.8491V11.7515H126.011L138.462 26.6196V16.9517C138.462 15.617 138.405 14.616 138.292 13.9487C138.186 13.3302 138.007 12.8745 137.754 12.5815C137.502 12.2804 137.079 12.0363 136.485 11.8491V11.7515H141.136V11.8491C140.55 12.0282 140.131 12.2642 139.878 12.5571C139.626 12.8501 139.447 13.3018 139.341 13.9121C139.227 14.5632 139.166 15.5763 139.158 16.9517ZM159.239 28.9023V29H153.074V28.9023C153.815 28.7721 154.291 28.6012 154.502 28.3896C154.714 28.1781 154.706 27.8037 154.478 27.2666C154.25 26.7376 153.713 25.8669 152.867 24.6543L149.144 19.3809L145.848 22.7012V25.8506C145.84 26.9574 145.966 27.6857 146.226 28.0356C146.486 28.3774 147.068 28.6663 147.972 28.9023V29H142.125V28.9023C143.02 28.6663 143.597 28.3774 143.858 28.0356C144.118 27.6857 144.249 26.9574 144.249 25.8506V14.9009C144.249 13.7941 144.118 13.0658 143.858 12.7158C143.597 12.374 143.02 12.0851 142.125 11.8491V11.7515H147.972V11.8491C147.068 12.0851 146.486 12.374 146.226 12.7158C145.966 13.0658 145.84 13.7941 145.848 14.9009V21.9199L151.475 16.1216C152.208 15.3566 152.785 14.6934 153.208 14.1318C153.591 13.6273 153.762 13.2204 153.721 12.9111C153.681 12.6019 153.542 12.3822 153.306 12.252C153.062 12.1136 152.667 11.9793 152.122 11.8491V11.7515H158.189V11.8491C157.278 12.0688 156.496 12.4229 155.845 12.9111C155.17 13.4238 154.079 14.437 152.574 15.9507L150.315 18.2212L154.844 24.6543C156.13 26.4609 156.976 27.5555 157.383 27.938C157.823 28.353 158.441 28.6745 159.239 28.9023ZM171.25 29H159.532V28.9023C160.427 28.6663 161.005 28.3652 161.265 27.999C161.526 27.6247 161.656 26.8231 161.656 25.5942V15.145C161.656 14.616 161.635 14.201 161.595 13.8999C161.554 13.5907 161.46 13.2936 161.314 13.0088C161.176 12.7158 160.964 12.4839 160.679 12.313C160.394 12.134 160.012 11.9793 159.532 11.8491V11.7515H170.53V15.2793H170.433C170.099 14.6364 169.859 14.1969 169.712 13.9609C169.68 13.904 169.619 13.8022 169.529 13.6558C169.44 13.5093 169.371 13.3953 169.322 13.314C169.192 13.0942 169.09 12.9518 169.017 12.8867L168.882 12.7646C168.785 12.6833 168.695 12.61 168.614 12.5449C168.41 12.3822 167.963 12.3008 167.271 12.3008H163.255V19.8447H167.002C167.32 19.8447 167.588 19.8162 167.808 19.7593C168.028 19.6942 168.227 19.5762 168.406 19.4053C168.593 19.2262 168.736 19.0635 168.833 18.917C168.939 18.7705 169.094 18.5304 169.297 18.1968H169.407V22.0542H169.297C168.882 21.3869 168.536 20.9434 168.26 20.7236C167.975 20.5039 167.556 20.394 167.002 20.394H163.255V28.4507H167.979C168.524 28.4507 168.976 28.3449 169.334 28.1333C169.7 27.9136 170.038 27.5636 170.347 27.0835C170.437 26.9451 170.567 26.7458 170.738 26.4854C170.909 26.2249 171.019 26.054 171.067 25.9727C171.132 25.8669 171.23 25.7122 171.36 25.5088C171.499 25.2972 171.596 25.1507 171.653 25.0693H171.751L171.25 29ZM189.573 28.9023V29H188.218C186.859 29 185.993 28.8983 185.618 28.6948C185.219 28.4751 184.654 27.82 183.921 26.7295L180.198 21.1753H177.122V25.5942C177.114 26.8231 177.24 27.6247 177.5 27.999C177.761 28.3652 178.343 28.6663 179.246 28.9023V29H173.399V28.9023C174.294 28.6663 174.872 28.3652 175.132 27.999C175.393 27.6247 175.523 26.8231 175.523 25.5942V15.145C175.523 13.8999 175.393 13.0983 175.132 12.7402C174.872 12.3822 174.294 12.0851 173.399 11.8491V11.7515H180.564C181.175 11.7515 181.744 11.7922 182.273 11.8735C182.802 11.9549 183.315 12.1014 183.812 12.313C184.308 12.5164 184.731 12.7809 185.081 13.1064C185.431 13.4238 185.712 13.8348 185.923 14.3394C186.135 14.8439 186.241 15.4217 186.241 16.0728C186.241 18.4409 184.768 20.0156 181.822 20.7969L185.643 26.0947C186.399 27.1527 187.022 27.8485 187.51 28.1821C187.982 28.4995 188.67 28.7396 189.573 28.9023ZM177.122 12.3008V20.6504H179.771C181.041 20.6504 182.147 20.2842 183.091 19.5518C184.035 18.8112 184.503 17.7614 184.495 16.4023C184.495 13.668 183.063 12.3008 180.198 12.3008H177.122Z" fill="white"/>
</svg>
